<svg xmlns="http://www.w3.org/2000/svg" xmlns:xlink="http://www.w3.org/1999/xlink" width="1728" height="1728" viewBox="0 0 1728 1728"><symbol id="a" viewBox="-10.2 -10 20.4 20.1"><path fill="#939598" d="M-2.8 10c1-.6 1.4-1.6 2.1-2.6l2-3.2c.1-.2.3-.5.5-.7 0-.1.1-.1.2.1.3 0 1.1.2 1.3 0 .2-.2.2-.8 0-1-.2-.2-.7 0-1-.1.4-.5.6-1.2 1.3-1.3.7-.2 1.8 0 2.5 0s1.5 0 2.2-.1c.4-.1 1.7-.3 1.8-.8.4-1.1-3-1.2-3.6-1.3-.8 0-1.8.2-2.7 0-.8-.1-1-.6-1.4-1.3.2 0 .8.1 1-.1.1-.1.1-.8 0-.9-.4-.4-1 0-1.4-.1-.3 0-.3-.1-.6-.5-.5-.9-1.1-1.8-1.6-2.6-.6-.9-1.1-2.2-1.8-2.9-.2-.1-.7-.6-.9-.6-.7-.1-.3.5-.1.9.3.8.6 2 .9 2.6.1.2.3.7.3.8v.3c.2 0 .3.1.3.2l.2.5c-.2 0-.3.1-.2.3.4-.1.3 0 .5.3.4 1.1-.2.3-.1.6l.1.3c0 .1.4.1.4.5l-.2.6c0 .1.6 1 .7 1.2-1.9 0-3.9-.2-5.9.1-1 .1-1.4.5-2-.4l-.8-1.3c-.4-.6-.5-.5-1.2-.6l.6 2.5-.2.4c-.2.2-.7-.1-.7.3l.9.3-.6 2c-.2.5-.4.9.3.8 1.1-.1 1.2-2.1 2.1-2.5.5-.1 1.3.2 1.6.2.5.1 1.1.1 1.7.2 1.3 0 2.7 0 4 .2 0 .3 0 .7-.1 1-.2.3-.3 0-.5.4.6.2.5.6 0 1.1-.1 0-.1-.1 0-.2-.6 0 0 .2 0 .4 0 .3-.3.4-.3.6l-.2.3c.1-.1.1.3.1.3 0 .4-.2.6-.6.5 0 0 .1.4.2.3.1-.1-.2.6-.1.4 0 0-.2.1-.2.2v.3c-.1.6-.6 1.3-.8 1.8-.2.6-.9 1.3 0 1.3z"/></symbol><path fill="#fff" d="M0 0h1728v1728h-1728z"/><g fill="#EE3524"><path d="M94.9 715h63.3v138.1h-63.3zM282.4 758.7h22.2v106.8h-22.2zM282.4 730h22.2v28.8h-22.2zM282.4 865.5h22.2v31.6h-22.2zM697.9 696.4h15.5v21.4h-15.5zM542.2 859.1h11.7v32.2h-11.7zM569.4 786.8h8.6v15.5h-8.6zM212 700.1h10.1v19.8h-10.1zM242.4 710h8.6v12.6h-8.6zM378.3 710h18.9v12.6h-18.9zM503.6 674.4h38.6v48.2h-38.6zM526.1 722.6h16.1v14.5h-16.1zM501.3 789.6h6.1v28.8h-6.1zM713.4 706h35.3v3.2h-35.3zM742.498 695.077l88.69 130.386-3.555 2.418-88.69-130.386zM699.215 818.094l72.778 107.84-2.652 1.79-72.778-107.84zM752.4 899.7l39.2-26.8"/><path d="M826.9 828.6l-25.2 15.7s.7 21 .7 19.4l-52.4 31.8 4.8 8.5 54.6-33.6 4 3.8 22.1-15.6 18.6 24.2v3.5h-3.2v18h3.4l.5-7.7h28.4l-.3 8 4 .2.3-8 28.8-.8-.1 9.6h3.7l-.1-9.5h28.7v9.5l3.9-.2v-17.8l-18.7.3-56.9.8 7.9-5.1-5.6-8.2 14.6-10.7.2 13.2 13.5-.5-.3-23.3 18.3-14.3-8.7-13.1-15.8 9.8-27.1-42-46.6 34.1zM909.5 780.5l28.8 39.3 18.8-14-27.1-38.8zM1245 760.6l-45.9 51.9-23.3 26.3"/><path d="M1242.898 758.849l4.044 3.579-69.12 78.11-4.044-3.579zM1114.9 809.9h86.5"/><path d="M1114.9 807.2h86.5v5.4h-86.5zM1070.5 944.2l-44.5-36.8"/><path d="M1027.829 905.308l44.417 36.83-3.447 4.157-44.417-36.83zM887.9 676.6l127.4 1.3"/><path d="M887.891 673.901l127.387 1.338-.057 5.399-127.387-1.338zM681.6 768.1l-.8 5.4.8 9.6h8.3l3.7-7.5-2.1-7.5zM691.5 785.8h-12.4l-1.1-12.4 1.3-7.9h14.2l3 10.4-5 9.9zm-7.4-5.4h4.1l2.5-5.1-1.3-4.6h-5.6l-.4 2.8.7 6.9zM988.6 899.8l-3.2-.3 4.2-41.1 34.9-42.3 3.3-17.3 7.6-5.5 1.9 2.6-6.6 4.7-3.2 16.9-34.8 42.2zM819.8 817.4l7.6-5.6-13.2-19.7 6-9.8 16.5 23.4 2.1-.7-13.5-21.9-4.5-6.2-9.4 6-5-6.5 48.9-32.2 5.7 8.9 2.4-.8-5.4-6.9 11.1-6.9 7.2 9.8 8.6-5.1 1.5 2.8 3.3-2.2 8 12-1.9 1.3 1.5 4.4 21.1-14.3 3.6 5.2-4.4 13.8-89.9 62.8zM785.1 757.9l7.7-4.2 3 1 18-11.5 13.9 6.7-33.4 22.4zM1243.84 667.812l2.299 3.633-146.692 92.824-2.299-3.633zM1070.562 851.273l38.009 30.924-6.753 8.3-38.009-30.924zM987.4 709.8l-23.9-2.3-20.6-29 3.5-2.5 19.5 27.4 20.6 2 27.8-15.2 2.1 3.8zM994.1 707.6c0 3.9-3.2 7.1-7.1 7.1s-7.1-3.2-7.1-7.1 3.2-7.1 7.1-7.1 7.1 3.2 7.1 7.1"/><path d="M976.8 726.9l-43.4 28 15 18 42.8-23zM881.4 702.3l6.4 11.4 15-10.9-7.5-9.9zM872.2 739.3l3.4 4.9 28.4-18.1-4.1-5.6zM902.8 742.8l3.2-2.5 4.1 5.4-3.1 2.4zM903.1 718.3l7.6-5.8 11.9 17-8.5 5.9-.8-1.6-4.3 3.2-5-6.7 4.2-3.4zM910.5 678.8v9.2h5.6l.4-9.2zM904.2 706l2.3 3.2 14.5-9.7s-3.9-4.7-3.6-5c.3-.2-8.9 6.3-8.9 6.3l1 1.6-5.3 3.6zM942 680.3l-19.1 13.3 28 40.9s19.4-14.2 19.4-14.5l-28.3-39.7M1083 655.2l-10.2 9.1 5.1 9.4-6.8 4.3-6.6-9.5-4.7 3.6-.4-2.4-6.4.8v6l-1.6 1.5-2.4-3.5-12.7 8.3-2.7-3.3-6.8 5.4s-6.9-6.1-10.6-4l-1.9 9.4 8.5 12.8s-5.5 5.3-2.4 10c3.7 5.5 12.2 3.9 12.2 3.9l-16.8 10.7 44.4 61.9-2.7 2.7 1.7 2.5-10.3 7.9-1.9 20.9 6.3 6.3-5 4.7-6-4.4-3.5 4.4-1.5-1.5-4 4.8-4.3-3.5-25.7 28.6 3.3 3.7-14.6 17.7 11.4 11 4.4-4.8 1.6 1.3-5 5.8 8.4 7.4 2-2.7 8.3 7.6 5-5.2-3.6-3.1 38.3-44.2 2 1.2 10.4-7.7s24.9-28.6 24.9-29.1l1.2-4.7 8.2-.4 4.4-9.5-5.9-9.9 3.5-2.8-10.6-15.1 2.3-1.8 7.1 11.1 4.6.4-10-14.6 2.4-2 1.1.8s8.7-4.7 8.7-5.1c0-.4-2.1-4.6-2.1-4.6l7-5 3.7 3.7 2.5-1.8-2-3.9 11.4-7s3.9 3.3 3.9 2.8 2.7-2.5 2.7-2.5l-11-14.3-24.9 16.5-11.1-15.4-12 .7-16.1-24.9-2.5 1.6-7.1-9.4-2 1.2s-3.2-4.1-3.2-4.7l29.3-19.3-2.1-5 10.8-8.2 3.6 4.4 9.1-3.1-4.4-6.6 8.6-4.4 3.5 4.4 2.1-1.3-2.8-4.4h18.6l-.3-1.9-29.7.8-17.3-.7M942.5 828.6l4.8 6.7 15-10.2-5.5-6.9-14.3 9.3M948.9 848.3l16.7 26 18-11.5-18.3-25.4-16.4 10.5"/><path d="M974.3 820.4v5.2l12.7 1.7-1.7 12.9 4.7 2.5v2.4l9.3 1 4-7.9v-1.9h2.6l5.1-7.7h2.9v-9.8h-12.5l-5.5-2.9h-2.7l-1.2.7-.8 5zM954.2 791.3c0 2.4-2 4.4-4.4 4.4-2.4 0-4.4-2-4.4-4.4 0-2.4 2-4.4 4.4-4.4 2.4 0 4.4 2 4.4 4.4M1010.2 726.6c0 2-1.6 3.6-3.6 3.6s-3.6-1.6-3.6-3.6 1.6-3.6 3.6-3.6 3.6 1.6 3.6 3.6M959.8 800.1c0 2.4-2 4.4-4.4 4.4-2.4 0-4.4-2-4.4-4.4 0-2.4 2-4.4 4.4-4.4 2.5 0 4.4 2 4.4 4.4"/><path d="M998 800.5l-.1-1.6-23.6-1v8.7h1.4v1.4h22.1v-.7l11.2-.3 2.7-4 2.8.8 1.9-2.4 5.4 3.1 1.3-1.5v-4l-2-1.1-3.5-1.4.4-.8-6.3-5.1-3.7 6.1-2.8-1-1 1.5h-1.7l-3.2 3.5zM992 767.9s-2.6.5-2.2-.9c.4-1.4-2.9 1-2.9 1l7.1 8.7 2.9-2.9-.9-2.2 1.8-2.4-3.8-3.6-2 2.3zM527.3 1159.4h18.6v15h-18.6zM545.9 1182.2h23.9v12.5h-23.9zM643.2 1199.7h111.8v38.9h-111.8zM764.9 1204h41.1v24.3h-41.1zM621.2 1159.4h7.9v7.5h-7.9zM621.2 1193.3h7.9v17.1h-7.9zM621.2 1228.3h9.3v5.4h-9.3zM745.7 1244.7h19.2v12.1h-19.2zM907.4 1250.8h21.4v6.1h-21.4zM929.3 1251.3h-11.8v-7.1h11.8v7.1zm-10.7-1.1h9.6v-5h-9.6v5zM1198.6 1157.6l-64.6 75-5-5.4-4.6 1.8-31.8 36.3h127.4l-41.1-29.9 25-73.9zM1298.496 1178.663l4.976 2.097-36.034 85.515-4.976-2.097zM1351.9 1224.4c-3.9 0-8.7 0-14.8-.1-14.1-.2-28.2-.6-28.3-.6l.1-2.1c20.7.6 54.6 1.2 57.1.2-.2.1-.5.4-.5 1l2.1-.3-.3.9c-.4.4-.9 1-15.4 1"/><path d="M1444.5 853.3l11.3 33.5 37.7-12.5 27.6 76.2 22.8-10.3-27.7-77-5.3 2.6-12.1-26.7-16.7 5.3-2.4-5.3zM1582.2 960.6l-12.5-31.5 15.6-7.6 13.4 33.5zM1624.1 946l-39.9-102.4 49.2-20.5 37.9 93.8 20.5-8.9 2.7 8.9zM1588 788.7h-45.4l-20.3-20 20.3-23.6-26.4-26.8 12.9-13.5 7.6 2.6v3.4l-10.2 8 25.2 23.3-5.9 10.3zM1603.6 758.4h18.3v17h-18.3zM1650.8 699.6h59.7v11.1h-59.7zM1657.5 710.8h53v22.4h-53zM1588 702l28.3-8.2 8.1 30.3-27.2 7.8z"/></g><g opacity=".8" fill="#C1CD23"><path d="M281.2 570.2c-4.8-14.5-23.8-10.5-36.5-10.6-25.1-.3-50.2-.6-75.4-.8-23.4-.2-46.8-.5-70.2-.6-5.9 0-13.2-1-19 .6-15.5 4.5-10.3 34.6-4 44.2 6.8 10.3 31.8 5.5 42.1 5.5 25.5 0 51.1-.1 76.6-.2 22.3-.1 44.6-.1 66.9-.3 4.4 0 8.9.1 13.3-.2 8.5-.7 7.9-32.7 6.2-37.6"/><path d="M299.8 561.4c44.2-2 89.3-1.5 133.6-1.5 8.6 0 32.2-3.5 35.5 7.2 2.8 9.2 5.4 29.8-.8 38.2-7.3 9.8-31.9 6.3-42.2 6.1h-69.3c-14.1-.2-43.6 5.4-55.5-3.6-9.9-7.4-17-42.4-1.3-46.4zM491.1 564.8c18.5.9 22.7.2 31.9 18 3.2 6.3 30.5 27.1 11.5 27.9-11.5.3-35.9 3.5-45.9-3.8-13-9.3-8.4-33.5 2.5-42.1M589.2 564.8c14.8.3 29.8-.2 44.5.2 12.7.3-19.9 13.8-21.5 14.4-6.8 2.6-27.8 17.9-35.2 15.5-14.6-4.8 8.5-27.1 13.2-30.1M752.6 565.3c5.1 8.2 26.2 27.3 23.9 37.4-1.7 7.6-20.5 4.6-25.5 4.6-36.5-.3-74.2 2.9-110.5.6-6.3-.3-26.9-5-20.1-15.5 5.6-8.5 21.9-12.3 30.5-16.9 31-16.3 67-16 101.4-10.3M676.4 618.7c-18 0-35.6-2.5-53.3 2.6-8.3 2.4-33 12.9-16.3 22.9 16.2 9.7 27.6-2.6 43.7-3.4 18.8-.9 38.5 3.9 25.3-21.1M683.6 618.7c1.1 17.1 5 22.1 22.6 20.9 21-1.4 41.1-.4 62 .5 6 .3 16.7-2 13-10.6-4-9.7-16.3-11.4-25.5-11.2-24 .5-47.2 4.9-71.1-.6M531.8 622.9c-9.9-.5-29.5-2.2-34.8 9.1-6.2 13.2 14.1 17.5 22.6 17.6 9.2 0 28.2 5.1 27.6-8.1-.5-10.9-3.5-18-15.4-18.6M440.7 619.5c-19-.5-59-6.3-72.5 11.1-17.2 22 54.1 19.8 61.5 20.1 7 .3 65.1 4.2 48.3-18.4-7.8-10.5-29.8-14.9-42.2-13.2M219.3 614.6c-9.3-1.2-35.7-5.3-43.3 1.5-13.8 12.2 18.1 9.3 22.7 9.2 17.9-.5 27.2 13.9 44.3 16.2 14 1.8 40.1-9.9 50.9-.2 11.9 10.7 24.3 11.3 39.7 8.4 18.1-3.5 13.4-21.8-1.1-27.4-14.3-5.5-33.6-1.8-48.6-2.1-21.6-.5-43.2-2.8-64.6-5.6"/><path d="M546.9 623c-.4 6.5 4.2 7.3 9.6 6-.8-5.4-4.5-7.2-9.6-6zM304.6 660.5c3.3 10.6 32.7 8.5 41.8 6.2-4-10.7-32.2-6.5-40.7-6.6M413.7 659.4c-1.3 0-49.1 1.3-46.2 6.8 1.8 3.2 25.8 2.7 28.8 2.8 4.9.2 35 .1 18.3-9.7M432 659.3c-4.1-.8-9.9-2-10.5 4-.8 7.6 8.9 5.1 13 4.9 11.3-.4 23.6-.6 34.8.5 10.3 1-6.7-8.4-10.1-9-9.1-1.7-18.9-3.6-28-.6"/><path d="M794.3 563.4c7.8 11.1 15.6 22.2 23.4 33.4l31.2-33.9c-18.2.2-36.4.4-54.6.5zM864.2 617.9c-9.9-1.1-37.8 4.5-40.1 17.7 12.5 1.5 30.3 4 42.4-.6 11.2-4.2 11.2-20.2-2.6-17.5M886.3 564c-7 3.8-11.3 10.5-16 16.7-4.3 5.6-15.5 13.3-16.2 20.7-1.1 12.5 44 7.2 50 6.9 13-.9 32.1-22.9 25.8-36.2-5.4-11.7-33.6-13.9-43.6-8.1M939.6 619.2c-9.2.2-14.6-2.9-21.2 4.7-2.7 3.1-9.4 8.1-2 9.1 7.2 1 15.8 1.1 22.9-.8 7.2-1.8 9.4-13 .3-13M948.2 589.3c1.6 8.6-4.6 20-14.7 16.9 4.1-5.6 9.3-10.1 13.9-15.3M999 562.3c-13.9.5-27.7-3-33.5 13.4-6.8 19.2 1.2 31.7 21.8 31.4 15-.2 32.1 2.8 34-16.6 1.4-14-6.6-28.8-22.3-28.2M996.6 616.1c-9.6.2-21.1.4-30.2 4.2-8.4 3.4 18 9.6 20.2 9.6 8.1 0 23.7 2.6 30.2-4.5 5.5-6-16.8-9.2-19.7-9.2M1078.3 561.2c-10.3-.2-31.3-.1-27.2 16.6 3.8 15.8 13.9 27.6 29.9 27.6 10.3 0 43.3 4.1 36.7-15.4-6.6-19.4-20-28.4-39.4-28.8M1037.8 590.4c.7 1.9 9.8 13.4 9.1 15-5.3 9.7-9.6-11.4-9.5-13M1049.9 619.5c-3.4.3-8.1-.9-11.2 1.1-4.4 2.7-2.4 8.6 2.3 8.9 3 .2 10.4.9 13-.9 4.2-3 .3-9.5-4.1-9.1M1096.2 615c-16-2.5-20.7 17.8-4.4 19.7 11.5 1.3 25.1.5 36.6-.2 9.3-.6 14.3-9.2 7.1-16.9-6.1-6.5-27.7-3-35.9-2.6M1131.8 560.9c28.7.5 52.9-.9 79.2 11.3 10.3 4.8 21.9 7.1 31.7 12.9 14.6 8.5 4.7 16.8-7.5 18.7-11 1.7-22.1.5-33.1 1.5-12.2 1.1-30.1 5.4-41.1-2-14.2-9.5-17.6-31-29.2-42.6"/><path d="M1223.6 615.2c-11.6-1-25.7-2.6-37.3-1-10.1 1.4-14.8 12.3-2.4 13.5 24.1 2.3 52.5-11 72.3 8.4 9 8.8 11.2 21.1 19.2 30.2 3.2 3.6 7.5 5.1 10.2.1 3.5-6.3-1.2-14.5-4.7-19.8-6.2-9.5-14.5-20.9-24.9-26-9.4-4.9-22.8-4.8-32.4-5.4zM221 753.1c-13.7 0-12.6 68 .5 68 13 0 12.6-68-.5-68M221.5 841.4c-12.7 0-12.7 48.2.5 48.2 13.1 0 11.7-48.2-.5-48.2M170.1 960.3c-9.1 0-36.1 9.6-18.9 20.7 8.3 5.3 20.3 5.4 29.7 4.3 7.7-.8 21.8-4.9 17.5-15.7-4-9.6-19.8-9.3-28.3-9.3M239.6 960.4c-6.5 0-23 2.3-22.9 11.5.2 10 10.5 11.5 18.5 11.7 7.5.2 23.6 2.1 26.5-7.5 4.1-13.5-13-15.7-22.1-15.7M313.1 959.7c-9.1-.1-21.1-1.4-28.8 4.5-13.7 10.7 5.6 18.2 14.4 18.6 13.3.6 34.2 3.7 45.8-4.2 21.1-14.2-24.9-18.9-31.4-18.9M290.2 934.9c-4.7-.2-49.8-4.1-44.6 7.4 4.2 9.2 24.7 7.3 32.9 7.5 18.1.4 52 6.4 67-6.4 13.2-11.2-15.6-8.6-20.3-8.7-11.7 0-23.4.6-35 .2"/><path d="M192.9 874.6c5.6.2 9.4-1.8 10.1 4.3 1.1 10.2-.1 14.7-10.5 18.2.2-7.5.3-15 .4-22.5zM202.1 927.1c.3-10.5 2-19.5-10.2-23.2 0 7.7 1.7 15.2 1 23M190.3 934.7c-4.6 4.7-29.2.8-35.8.4-11.8-.6-20 10.4-5.2 14.9 8.5 2.6 21.1.3 30 .2 10.4-.1 19.9-3.9 22.1-15.1M216.8 936.1c3.5.1 7.1.1 10.6 0-2.7 9.5-7.9 7.7-10.6 0M427.8 948.9c-4.1-10.7-1.9-13.8-15.4-13.8-13.2 0-27-1.2-40.1 0-14 1.3 3.5 11.7 8.6 12.7 15.6 3.1 31 1.1 46.9 1.1M428.4 935.7c15.6 0 34.6-2.7 49.8.8-2.8 11.6-14.5 12.2-24.3 12.4-13.1.2-22.4 1.9-25.2-12.4M428.4 958.1c-8.3-.3-77-1.6-57.5 20.4 4.1 4.6 28.7 9.7 34.4 8.4 8.6-2 1.7-13.3 7.6-17.4 6.6-4.6 12.9-1.4 15-11.1M624.6 765.4c-7.7-1.2-10.4 15.6-11 20.3-1.2 8.8 2.6 11.4 5.1 18.8 4.1 16.2 8.6 5.8 13.9-2 4.2-6.2 4.5-36.5-7.2-37.3M615.2 737.1c2.4 0 21.1-1.8 18.5 4-4.9 13.5-14.9 0-19-3.7M591.6 902.5c5.5 0 12.2-2 11.8 5.9-.4 9.5 2.1 19.6-1.7 28.7-5.2 12.6-10.1-1.3-10.1-7.5 0-8.9-.4-17.8-.4-26.8M495.6 936c3 0 12.9-.3 11.8 5.1-1.9 9.7-12.2.1-12.2-5.4M639 844.3c16.2 3.7 26.7 33.4 33.5 46 1.5 3.3 10 12.4 3.5 14.9-9.8 3.8-24.7 1.8-35.2 2.1-22.6.7-27.8-7.4-27.8-29.1 0-6.3 15.1-38 24.9-32.9M629 922.4c3.8 1.2 6 5.5 8.8 8 4.2 3.7 10.5 4.1 15.8 4.1 11 .4 20.8-5.9 27.1-14.6-12.4-2.2-38.9-4.1-50.3 1.4M616.2 941c2.7 5.9 19.9 7.6 25.6 8 11.6.8 24.1-.4 35.8-1 6.9-.4 24-1.3 26-10.1 1.9-9.3-8.8-10.7-14.6-6.3-7.5 5.7-10.2 11.5-20.5 12.6-8 .9-23.7 3.2-31.3-.3-3-1.4-11.2-10.4-12.9-13.3-7.1-12.3-9.8 6.8-7.4 12.2M544.8 960.6c15.2-1.2 34.5-7.3 48.8.7 4.9 2.8 11 11.4 5.6 16.6-5.7 5.5-18 4.7-25.2 5-14.8.6-32 5.2-46.8 3.6-17.5-1.9 14.5-23.9 18.7-26.2M647.9 957.1c-8.8 0-28.2-1.5-32 9.2-8.1 23.1 30 16.7 40.3 16.6 9.3-.1 58.5 3.6 52-16.7-5.7-17.8-47.9-8.4-61.1-8.4M432.8 958.8c-.6 14.2-11.3 5.1-17.5 12.8-7.5 15 8.7 12.7 17.7 12.9 10.9.3 49.2 2.2 44.7-17.9-1.7-9.3-37.6-12.2-43.9-8.2M468.8 535.6c0-14.6-1.1-35.8 11.3-46.4-75.5-11.6-152.4-6.1-228.4-7.8-46.4-1-106.2-7.1-149.3 13.7-16.4 7.9-21.8 29-3.7 39.9 21.9 13.2 56.1 5.6 80.4 5.8 93.6.7 187.1-3.2 280.7-3.2M701.3 486.9c-49.5 2-99 1.2-148.6 1.2-8.8 0-17.6 1.1-26.4.7-8.4-.4-17-3.1-25.1.3-10.8 4.5-29.5 37.8-9.9 42.5 9.9 2.2 20.6-1.3 30.7-.1 12.5 1.4 25.1.8 37.7.7 29-.4 58.2-.1 87.2-1.2 25.8-.9 51.7 1.1 77.4-.1 10.1-.6 1.8-8.2-2.1-13.4-7.1-9.4-17.1-19.2-20.9-30.6M765.6 487.1c-34.6-4.7-6.8 31.4 6 41.3 9.6 7.4 40.7 2.1 53.5 1.8 20.9-.5 41.9-1 62.8-1.3 14.3-.2 42.9 4.9 54.3-3.6 8.6-6.4 4.9-19.1 6.5-28.1 2-11.5-7.6-10.6-16.5-11.1-19.1-1.1-38.4-.3-57.5-.4-36.3-.3-72.9-1.6-109.1 1.4M991.5 485.5c-6.6 0-24.4-4.3-28.6 3.1-3.8 6.9-1.2 17-.3 24.2 3.4 20.4 22.4 18 39.9 17.4 7.5-.3 17.2-1.8 18.9-10.7 1-5.5 3.2-19.3 1.2-24.4-5.4-13.3-31.1 9.2-31.1-9.6M1046.9 477.2c-18.9 1.1-13.3 26.5-11.3 39.4 2.3 15.2 23.6 11.9 34.5 11.7 15.9-.3 31.8-.6 47.6-.9 14.3-.3 34.6 4.2 47.3-1.2 13.2-5.6 8.6-32.9 5.3-43-4.6-14.1-31.7-8.3-43.7-7.9-26.6.8-53.2 1.3-79.7 1.9M1311.3 484.1c-33.2 0-65.9 3.9-99.1 3.3-12.5-.2-28 .8-27.8 16.4.1 11.3 2.3 22.3 15.3 23.8 33.2 3.8 68.7-.2 101.9-.6 18.5-.2 37-.4 55.6-.4 12 0 23.8.1 35.7.6 11.9.5 25.5 2.2 26.9-12.7 2.4-24.7-35.7-37.4-54.9-37.4-15.3 0-40.6-4.5-53.2 6.7M1488.3 527c-11.4 0-28.4 1.5-36.6-7.8-7.4-8.3-15.8-15.7-23.9-23.4-4-3.7-19.8-15.2-19.2-21.6.3-3 45.9-1.1 51.7-.7 22.8 1.5 45 3.6 67.9 3.5 24.6-.1 49.1-2.9 73.6-2.8 17.7.1 37.4 1.2 44.8 20.1 7.1 18.3 5.4 42 7 61.3.9 11 1.5 22 .9 33.1-.6 9.9-4.5 19.9-4.5 29.7 0 10.1-6.8 7.7-14 8.8-10.2 1.6-4.2 12.9-4.3 18.7-.3 14.5-30.2-1.2-35.7-3.4-19.4-5.2-39.3-8.3-54-23.1-5.3-5.3-10.2-12.1-10.9-19.7-.9-7.3 4.3-13.6-4.7-18.6-9.3-5.1-7.3 2.2-11.7 2.2-5.4-.9-12.3-8.2-16.2-11.7-4.2-3.7-10.9-9.7-6.9-16 5.3-8.2 18.7-2.9 20.2-12.2 3.3-20.6-29.3-4.7-24.9-18M1224.3 562c14.4 1.5 29.9 11.7 40.1 21.5 13 12.5 10.4 19.6 30.6 22.2 16.3 2 32.9.9 49.2 3.3 12 1.8 25 11.9 6.1 17.3-6.7 1.9-12.4 2.2-18.1-2.3-4.4-3.5-9.9-6.2-13.6-.3-5.9 9.4-12.9 22.1-22.9 6.3-7.3-11.5-12.1-22.4-28-21.7-20.4.9 7.5 18.2 11 20.6 6.1 4.1 4.4 13.4 10.9 17.6 6.1 3.9 10.4 3.3 12.4 11.4 5.2 21.6 27.6-2.2 32.7-9.1 5.5-7.5 10.4-7.7 19-7.5 6.7.2 10.5-7.3 14.1-11.9 11.9-15.4 9.5-27.6 2.1-45.1-12.5-29.7-44.3-23.4-71.2-23.2-24.7.2-49.6.9-74.4.9M1297.5 684.5c-2.2-2.7-5.8-.6-6.6 2-1.4 4.8 2.7 11.3 5.3 14.9 3.1 4.5 16.6 23.6 23.5 21.5 15.7-4.5-17-34.1-22.2-38.4"/><path d="M1302.7 729.8c.4 5.2 7.2 7.8 7.6 13.8.7 5.5-7.2 9.2-11.1 5.9-9.4-8-3.3-12.7 3.5-19.7zM1338.5 732c-5.5-.8-17 10.7-9.7 14.6 8.3 4.5 12.3-9.1 20.5 2.1 5.5 7.5 10.4.9 4.8-4.9-4.5-4.6-10.1-8.4-15.6-11.8M1324.5 675.1c2.8 6.4 11.4 17.9 16.5 7.3 5.5-11.4 12.3-.2 16.5 5.5-4.4 4.4-19.8 15.1-26 12.8-11.9-3.9-18-17.1-7-25.6M1327.7 673.3c19.2 19.2 13.6-19.4 0 0M1341.1 665.3c6 6 16.9 21.2 24.2 10.9 5.3-7.4 22.2-19.7 16.7-30.3-5.4-10.5-16.5.8-19.9 6.3-4.8 7.6-10.2 13.4-19.7 13.4M1365.6 694.3c6.8 4 12.7 10.3 18.4 15.6 8.1 7.5-1.2 13.8-8.3 19.2-9.7 7.4-18.7 1.2-22.9-9-3.8-11.1 12.8-16.1 12.8-25.8M1444.3 654.3c-15.9 0-35.3-1.7-49.2 7.7-5 3.4-28.9 27.1-24.3 31 5.8 5 12.1 10.1 18.4 14.6 8.4 6 12.8-6.8 18.1-13.3 9.6-12.1 24-31.5 37.2-39.5M1391.1 602.7c4.7-1.3 4.1-6.8 6.7-9.9 3.5-3.8 11.9-3.9 16.6-4.4 9.2-.9 13.8 16.8 22.5 10.5 4.8-3.5 31.4-37 17.7-38.5-14.5-.7-29.1-.9-43.7-1.1-12.1-.2-33.6-4-44.9 1.7 8 11.9 22.2 27.4 25.1 41.7M1459.9 591.5c0 11.6 4.8 44.8-8.8 50.9-10.4 4.7-30.1 3.3-40.7 0 11.9-19.4 33.1-35.5 49.5-50.9M1470.3 623.8c0-10.7.4-22.9 2.4-33.5 2.2-11.3 16.5-17.7 20.9-3.8 5.1 16.4-13.6 26.2-23.3 37.3M1302.5 865.8c9 .6 22.6 27.3 26.6 33.9 3.6 6 8.6 13.3 6.7 20.7-2 8.3-12.6 17.6-21.2 16.7-7.7-.8-76.8 3.5-71.5-9.7.6-1.3 32.9 1.6 36.4 1.5 9.7-.1 27.6 2.8 35.7-3.9 13.2-10.8 3.8-19-3.7-30.7-2.5-4.1-24.4-28.5-9-28.5M1348 950.9c18.8 0 20.9 6.8 29.4 21.3 7.7 13.4 17.4 27.6 21.2 42.8 7.9 31.2-53.3 23.1-69.3 22.6 4.2-15.6 18.5-25.2 19.2-42 .7-14.9.1-29.8-.5-44.7M1424.4 747.6c-3.4-2.9-3.4-9.2-7.8-10.9-4.5-1.7-9 9.8-11.3 12.2-6.8 7.1-25.4 18.7-23.6 30.7 1.6 11.2 29.2 5 32.8-2.6 2.3-4.9 2.3-10.5 2-15.8-.4-9.6 4-7.5 7.2-13.9M1327.2 774.7c-7.2-.6-13.2 6.6-16.9 11.7 4.6 1.4 17.1 1.2 20.5-2.5 4.6-5 2.6-11.1-4.8-9.5M1313.9 801c-6.2 0-12.7-1.3-18.8.3 7.2 12.9 11.2 12.4 18.8-.3M1372 800.8c-6.3 0-22.6 5.2-24 12.8-1.9 7.9 18 6.6 22 6.6 8.6-.1 19.2-.8 23.9-9.1 8.3-14.5-14.4-11.7-22.2-10.2M1401.5 837.2c-15.7-.5-12.8 35.2 3.6 32.1 15.1-2.8 5.8-28-3.6-32.1M1191.1 1125.9c-6.8-.4-10.1 4-14.3 9.2-4.8 6.1 12.5 4.8 15.3 4.8 17.1.1 34.7-2.2 51.7-.1 7.7.9 12.1-4.5 8.3-12.2-2-4-11.8-3.5-15.3-3.6-15.3-.3-30.5 2.4-45.7 1.9M1279.9 1153.7c-2.6 0-14.6 1.8-12.1-4.3 2.6-6.3 9.4-17.5 15.3-21.2 14.1-8.9 37.7.5 40.3 16.9-4.3 0-9.3 1.4-13.6 0-5.9-2.1-8.5-6.5-15.4-6.7-9.2-.3-11.4 7.9-14.5 15.3M1400.6 1144.8c-8 0-28.8-3.8-26.8 9.3 2 12.8 13.9 10.8 25 8.9 19.5-3.3 24.1-18.8 1.8-18.2M679 1080.9c-8.1 3-39 13.7-35.6 27.1 2.3 9.2 17.9 8.4 25.4 8.5 22 .4 44.1-.1 66.1-.4 50.4-.7 101.4-3.5 151.8-.9-1-8.7-9.5-23.3-18.5-25.6-11.9-3.1-12.1-4.1-18.1-14.6-5.3-9.3-53.5-1.9-64.5-1.9-35.9.1-72.3-3.6-106.6 7.8M759.7 974.9c2 1 .4-7.4 5-7.4 6.3-.1 12.7.3 19 .4 6.1.1 8 2.2 11.6 7.7 2.6 4.5 11.3 1.8 12.1 4 .4 1-32.7 2.2-35.5 2.2-10.3.3-39.3 4.7-42.8-9.6 7.1-1.3 17-5.3 24.1-4.5 9.5.9 1.1 4.8 6.5 7.2M198.2 1074.9c1.8 17.2-16.8 28.4-31.1 32-4.2 1.4-12.4 0-14.1 5.5-2 6.7 4.2 14.7 8.1 19.5 16 19.7 53.6 15.8 76.4 16.1 25.1.4 50-1.1 75.1-1.3 16.2-.2 31.6.7 46.9-5.5 16.8-6.8 35.2-16.3 51-25 6.4-4.2 4.3-12.6 10.1-17.1 6.7-4.7 16.3-3.8 18.8-13.2 2.7-9.9-6.8-9-13-8.6-8.2.4-12.1-9.3-21.6-7.8-24.9 3.9-50.6.3-75.7 1.4-24.8 1.1-49.7.6-74.5.8-7.2.1-52.7-4.2-56.8 3.3M144.8 1076.7c-7.2 19.7 33.2 17.5 40.2 3.5 5.6-11.2-15.6-6.3-19.9-6-5.4.5-17.2-5.6-20.3 2.5M644.7 992.4c-3.7 14.7-13.5 4.1-23.9 5.2-13.7 1.3-2.8 19.7 3.4 23 10.3 5.4 22.1 6.6 32.7 11.1 7.5-12.7 25.5-21.3 27.1-37.1-12.9-3.1-26.3-.8-39.3-2.2M697.5 1012.7c0 10.7 27 19 35.5 21.5 11.1 3.4 22.9 4.3 34.4 5 22.9 1.4 46 1.2 68.9-.1-3-13.7-19.6-21-20-35.7 5.3-1.9 10.6 2.6 15.7.7-7-6.8-21.9-6.6-30.8-7.2-15.8-1.1-31.7-.8-47.5-.3-9.6.4-56.2-2.8-56.2 16.1M199 975.6c1.2-6.4-2-9.2-6.4-12.8 27.6 15.4-20.9 22.4-32.1 20.2-10.4-2-19.2-11.2-7.2-19.3 10.3-6.9 27.2-4.9 38.2-.9-10.6-2.6-23.3-3.6-33.8.4-4.3 1.6-4.2 3-6.9 6.1-.6.6-3.2 9.1.3 7.8.1-.1 14.9 4.9 18.7 5.2 8.7.4 23.3 1.4 29.2-6.7"/><path d="M192.6 962.8c23.9 19.8-31.5 26.6-39.8 14.1-2-3-.6 2.9-3.3-3.7-1.1-2.7 1.7-6.6 4.5-8.3 11.4-6.9 26.4-4.1 38.6-2.1zM112.3 641.6c1.5-5 13.6-2.8 15.7.8 2 3.5-17.9 6.9-13.5 1.3-2.3.8-26.8 6.3-27.8 5.4 1.5-5.2-2.3-8.9 5.9-11.8 6.5-2.4 14.2.5 19.7 4.3M74.8 625.5c3.1 8.1 11.8 27.9 4.3 36.4-18.2-11.3-13.9-33.5-13.9-51.4 6 2.7 4.8 11.2 9.6 15M1168.7 921c-2.3 2.1-3.6 8.9-6.3 11.8-4.8 5.2-11.3 8.7-18.3 9.6 6.3-9.1 14.1-17.2 24.6-21.4M1069.4 1072c-10.9 13.3-19.7 30.4-34.1 40.3-14.4 9.8-40.6 5.9-57.5 6.1-15.6.1-34.6 3.1-48.2-6.3-12.8-8.8-18.6-25.3-25.8-38.3 55.1-1.1 110.4.5 165.6-1.8M1137.1 955.7c-17.4 4.8-18.7 18.3-.5 22.9 21.5 5.4 25.3-10.3 38.2-22.1-10.8-3.2-26.5-1.9-37.7-.8M1253.8 847.9c6.1 10.3-13 44.7-22.6 40-13.2-6.6-4.6-12.2 2.8-20.4 6.1-6.8 12.3-14.4 19.8-19.6M1088.7 1187.6c-2.6 2.1-3.3-2-6.4 0-1.6 3.9-2.9 9.1-7.5 10.7.7-4.1-6.8-5.7-7.5-2.1.4-2.5-1.2-6.8-1.1-10.7-.7 2.7-2.5 4.1-5.4 4.3 1-1.1 1-2.2 0-3.2-1.9 1.6-3.7 1.5-5.5-.3-1.6-2.6-3.8-2.6-6.3-.1-3.9.5-7.8.7-11.7.4-4.2 3.4-7.9 7.5-11.4 11.6-3.8 4.4-7.9 8.6-12.1 12-4.4-5.9-6.8 2.9-6.4 6.4-1.6-.5-9.2-7.7-9.2-9.3-.2-4.6 6.5-10.1 9.1-13.1 4.9-5.5 10-10.9 15.6-15.8 8.2-7.2 16.4.8 25.2-3.6-.8 2.3 3.5 7.3 5.6 4.2 3.2-4.8 5.1-1.9 9.9-1.2 7.5 1.1 24.8-2 25.1 9.8M1238.5 1115.9c12.4-.6 28 1.3 38.3-7 11.3-9.2 12.7-25.4 18.4-37.9-50.6-2.9-101.4-.3-152-1.1-.4 6.3 3.8 5.9-3.5 10.5-6.2 3.9-4.8-3.1-10.6-.3-7.4 3.6-16.3.2-13.8 12.3-2.6-2.9-3.6-6.9-6.4-9.6-6.1 3.8-10.7 9.3-15.1 14.9-3.3 4.1-6.6 8.3-10.6 11.9 1.6 5.2 9.5 6.4 13.9 5.4m-2.5 36.7c-1.2.3-2.5.6-3.7 1 9.1-9.9 1.9-14.3 16.7-14.3 5.3 0 10.3 15 14.8 20 6.2-3.4 23-23.7 14.5-29.3-5.5-3.7-15.7-4-22.2-4.9-13.3-1.9-44.1-7.8-50.6 8.4-3.2 7.8-1.3 18.1 3.7 24.8 7.2 9.6 10.3 2 17.9 1-4.6.6-.8 5.4.5 6.6 4.5 4.3 12.9 1.9 18.7.9 5.1-.9 11-4.8 16-5-2.1-3.6-12.1-17.4-17.1-16.1m12.7-45c.4-3.5 4.5-2.4 2.1-6.4 3-.7 2.3 2.9 5.4 2.1-.7-4-2.9-6.4-2.1-10.7 6.3 1.8 5.3 11.2 6.4 16.1-3.1-3-8.2-.8-11.8-1.1M1316.7 1036.8c16.7-21.9 45.9-81.8-.2-85.6-8.4-.7-37.3-5-37.3 6.4 0 7.9 2.8 6 5 13 1.8 5.7-3.2 9.2-8.2 6.1-4.5-1.1-2.2-1.1-3.2-5.4 1.4 1.4 6.7 1.2 8.6 2.1-.3-3.4-2.8-4.8-6.4-4.3-.5-6.2 4.9-11.8 1.1-18.2-2.6-2.3-27.2-.3-31.8-.4-17.2-.6-22.7 4.5-33.4 16.1-21.4 23-41.8 46.9-62.3 70.7 29.7 3.9 61.1 1.3 90.9.9 25.7-.3 51.5-.8 77.2-1.4M1130.6 997.3c-9.7-11.1-46-10.4-42.5 9.4 7.3.5 5.5-4.5 10.5 1.5 3.3 3.9 9.8 5.4 14.7 4.9 6.6-.7 21.9-6.5 17.3-15.8M1179.1 929.8c-3 4.4-12.7 8.6-11.8 15 3.4-.4 6.9-.8 10.3-.9 7.1-.3 7-10.2 1.5-14.1M1076.9 968.1c-2.8 1.9-7.5 1.2-9.6 4.3 7.1 10.8 44.4 8 37.7-7.5-5.4-12.7-21.2 3.2-28.1 3.2M1222.5 883.5c-7.7 5.2-20.1 19.4-13.5 29.2 4.4 6.5 10.5-4.3 13.1-8.2 6.8-9.8 9.5-12.5.4-21M634.7 1039.8c-29.8-2.3-60.7 1.2-90.6 2-16.6.4-33.1.9-49.7.5-4.7-.1-9.5-.2-14.2-1-4-8.5-3.4-16.4 4.3-22.3 7.3-5.6 15.2-8.7 20.8-16.5 3.6-5.1 9.6-9.9 16.2-9.9h39.2c11.7 0 31.2.2 40.8 6.4-1 23.6 21.3 26.1 33.2 40.8"/><path d="M633.7 1124.4c-28.6 2.2-57.5-1.3-86.1.2-5.1.3-25.9.1-26.8 8.2-.4 3.7 13 2.2 15.9 2.2l64.2-.7c7.5-.1 15-.2 22.6-.2 10.4-.1 7.9.1 10.2-9.7m-65.3 10.7c-1.1 0-2.2.4-3.2 1.1.1-1.4 2.6-.9 3.2-1.1zM656.1 1073c-36.9-1-74.3 1.1-111.3 1.1h-34.2c-14.3 0-32.9 9.5-44.9 16.9 7.6 9.4 21.4-4.3 28.9 8.5 4.9 8.3 10.1 15.1 19.1 17.2 16.3 3.8 36 1.1 52.6 1 17.9-.1 36 .2 53.8-1 2.9-.2-.9-9.3-.4-11.5 1.3-7 5.5-12.5 12-15.5 6.1-2.8 12.9-3.5 19.5-4.3 6-.7 9.3-6.4 15.6-5.8-.7-5.2-6.9-5.4-10.7-6.6M894.9 1000.6c-4.9-10.6-49.8-10.1-35.5 11.5 9.5 14.2 44.7 9.1 35.5-11.5M890.4 966c3.5-10.1 30-9.7 29.1 3.2-1 13.9-32.5 12.2-29.1-3.2M837.9 965.8c3.5-10.2 34.1-9.9 33.2 3.2-1.2 15.3-36.9 13.2-33.2-3.2M965.9 969.1c0 12.6-30.3 10.7-25-3.5 3.7-9.8 25-7.7 25 3.5M266.5 1014.2c-1.9-6.6-2-12.6-8.4-14.6-6.5-2.1-10.9-3.6-17.8-3.6-12.3 0-22 4.8-26.3 17.1-1.7-6.4-7.4-.3-10.7-2.1-3.2-6.1-5.1-11.3-12.2-12.9-13.9-3.1-27-1.8-40.8.9-10.6 2-13.2 17.1-12.8 25.9.2 5.2 1.3 10.5 3.4 15.4 3.8 8.8 9.6 5.1 17.9 4.5 9.1-.6 40.8 4.3 43.1-3.7 1.5-5.3.1-10.8.1-16.1-1.4-5.4.5-7.1 5.8-5.3 8.4-1 7.9-2.1 7.6 6.7-.3 8.7-1.6 19 8 18.8 8.5-.2 16.9.2 25.4.3 8.7.1 13.8 1.4 17.5-7.6 2.9-7.7 1.8-16.1.2-23.7m-41.8-3.3"/><path d="M1505.5 1095.5c.1-17.6 0-35.3-.1-52.9l-.3-42.3c0-2.8 0-5.6-.1-8.5 0 1.5-13.9-7.9-12.8.9-8.2-5.3-23.5-10.7-22.2 3.8.5 5.9 1.3 11.8.7 17.7-1 10.1-5.5 6.1-13.9 6.3 7.1-29.6-18.9-42.2-36.4-60 4.7 10.4 14.8 16.8 16.1 28.9-2.8.8-2-2.1-4.3-2.1 1.1 1.6 1.4 3.4 1.1 5.4-1.9-.2-2.6-1.2-2.1-3.2-3.9 2.9-2.3 8.8-2.1 12.8 6.3 2.7 5.4-5.9 8.3 3.6 1.6 5.3 5.8 8.7 9.2 12.9 6.1 7.4 2.8 4.6 11.5 6 .4 6.7-6.8-1.5-5.5 7.9.5 3.6 2.9 6.1 4.4 9.3l16.4-.1c11.9-.1 7.3 9.2 7.3 19.8-2 1.6-7.5.8-9.9.6 1 3.3 1.4 5.9-2 6.4-7.7 1.1-8.1 11.2-10.7 18.5-5.6 15.6-15.6 45-17.5 51.6.1 2.7 24.3 8.7 35.9 2.6 8-4.2 22.7-8.1 28.1-11.6 3.8-2.5.9-29.9.9-34.3zM1414 895c-2.1-3.8-9.5-5.2-13.1-4.4-4.7 1-9.2 3-14.1 3.6-9.8 1.3-1.8-3.8-6.9-4.2.2 6.7-13.8-.1-8.6-4.3-4.7 1.1-6.9.3-10.7-2.1 1.1 3.5-1.8 3.5-4.3 3.2 3.2 6.9 7.9 20.4 15.9 20.5 7.9.1 15.7.8 23.6.7 9.9-.1 41.8-8.4 18.2-13"/><path d="M1456.9 1151.2c-13.7-16.8-24.8 0-25.7 14.9-.1.6-.1 1.1-.1 1.6 0 .6 1.4 2.5 3.2 2.8 1.4.2-5.6 2.9 3.4-1.1 9.1-3.9 21.9-13 19.2-18.2zM1447.8 949.3c-4.1-10.3-7-25-18.4-29.5-16.1-6.4-35.6-1.6-52.2-.2 8.7 11.9 13.5 16.4 26.9 20.9 9.3 3.2 15.6 7.1 22.6 14 6.8 6.7 12.8 16.8 22.3 20.1 14.2 4.9.5-21.2-1.2-25.3M1325.3 840.7c3.4 5.6 10.6 27.1 17.8 29.5 5.9 1.9 15.3-2.5 18-7.1 3.5-5.9 15.8-19.1 6.9-23-11.8-5.1-32.7-10.7-42.7.6M1437.7 1101.9c4.2-4.8 7.3-10.9 8.8-17.1 3.4-14-1-15.3-13.8-15.9-19.4-.9-38.8-.4-58.2.2-18.9.5-37.8 1-56.7 0-10.3-.5-13.4 11.5-18.4 20-5.1 8.6-9.9 17.5-13.7 26.7 14.3-2.8 32.5-2.5 42.9 9.4 1.7 2 3.1 4.2 4.2 6.6 6.1.3 12.1 1.6 18.2 2.1 3.3-1.7-4.1-12 2.1-12.8v10.6l7.5 4.4c-1.6.5-8.3-1.9-7.5 2.1h37.5c.1-1.3-.3-2.4-1.2-3.3.5 1.8 35.8-3.5 40.8-2.1-1.6-10.8 8.9-19.4 7.5-30.9M1545.8 638.4c-7.1-12.7-20.3-26.8-33.3-12.6-10.8 11.8-21.2 24.1-31.6 36.3-14.1 16.4-28.2 32.8-42.4 49.1-5.4 6.2-10.8 12.3-16.3 18.4-5.8 6.4 4.7 18.9 13.4 18-2.1 6.9-8.7 20.2-3.2 27.8 22.2-16.3 41.1-40.2 59.2-60.7 12.9-14.5 25.5-29.3 36.9-44.9 5.5-7.7 17.3-21.1 17.3-31.4M1012.7 1135.1c-9 30.9-54.2 39.7-64.8 4.8-3.9-12.7 17-12 25.9-13.1 11.7-1.3 31.2-3.3 38.9 8.3M1029.8 968.1c-11.7-2.1-22.6 1-34.3 1.1v-4.3c-2.5-.1-13.1 1.7-9.2 7.1 2.8 3.8 9.3 5 13.9 5.9 14.5 2.8 30.7 1.8 44.6-3.3-.8-6.9-11.8-2.1-15-6.5M1069.4 1006.7c-3.2-14.9-16.1-12.8-27.1-12.8h-50.2c-21.9 0-60.4-6.1-74.7 13.9-18.1 39 50.8 28.3 67.2 32.5 6.1 1.6 15.5-2 22.2-2.1 9.7-.2 19.4.6 29.1-.2 7.7-.7 16.4-2.5 21.1-9.2 5.9-8.4.6-18.7 12.4-22.1m-15-4.3M470.5 1124.4c-16.8-9.1-29.5 8.7-46.8-.7 5.3-.6-6.7-.5-7.4-.3-9.1 2.4-17.7 7.2-25.5 12.2-15.3 9.8-28.3 18.7-47.4 18.7-5.9 1.3-13.9 0-20.1.4-11.3.8-22.6.9-33.9.8l-28.5-.3c-10.1-.1-20-1.8-15 11.9-4.3.4-1.5-7.6-2.1-9.6-5.9-1-12-1.1-17.9-1.2-13.7-.1-27.5.8-41.2-.6-21-2.1-44.5-15.5-49.7-37.4-3.2-13.6-2.6-27.9-3.3-41.8-.6-11.7-11.9-1.9-11.1-15.1 1.1-16.3 1.8-33.7 5.2-49.8-7 8.7-32.2 16.5-33.7-.9-12.5 15.3-41.7-1.2-49.4 11.5-7.2 11.8-7.8 27.8-10.4 41-2.5 13.1 8.4 31.1 19.7 37.3 8.7 4.8 17.1 3.8 26.5 5.2 8.9 1.4 19.7 9.9 28.6 3.8-.1 9.1 12.5 16.7 18.9 21.4 3 2.2 3.5 6.9 5.4 10.1 3.9 6.7 10.5 10.8 16.7 15.2 12.3 8.6 27.8 11.1 42.4 11.9 8.8.4 36.8-4.7 42.5 3.3h-46c13.6 2.9 27.9.4 41.8 1.1 7.6-1 14.7-4.4 22.6-5 27.5-2.1 55-1.6 82.5-1.3 14.6.1 26.7.5 39.4-7.4 11.1-6.9 21.6-15.1 34.1-19.4 13-4.4 29.2-2.6 42.9-4.9 10.4-1.8 29.6 4.6 38.4-.2-2.3-6.4-12.7-7.2-18.2-9.9"/><path d="M436.4 1002.2c-8.1-15.1-49.7-6.5-62.8-6.5-23.1-.1-46.7-2.4-69.6.8-13.2 1.8-25 2.1-25.6 18-.5 13.6-2.3 33.8 15.5 33.8 28.9 0 57.9-.8 86.8.4 8.6.4 34.4 2.3 39.5-6.5 5.3-11.5 26-24.4 16.2-40m-8.6 4h-112.5c-1.9 0-22.6 2-14.1-7 2.1-2.2 18.9 0 21.8 0h90.69999999999999c6.5 0 17.5-3.4 14.1 7zM133.9 937.9c-5-1.1-4.5 5.1-6.9 8.4-7 9.5-10.1 15.1-10.5 27.2-.3 9.7 2.8 22.6-.7 31.8-.8 2.3-3.9 9.8-6 11.4-4.4 2.2-9.8-2.6-13.5 1.5-2.6 3 6.6 3 6.5 3.1 5.1-.4 10-3.7 14.3-6.2 8.9-5.3 13.9-11.6 15.6-22.1 2.7-17.9-1.4-36.5-.1-54.1"/></g><g><path fill="#6D6E71" d="M1532 601.1l-556.5 618.9-13-12 556.5-618.9z"/><path fill="#414042" d="M1471.5 1063.7l-1330.4 4.7v-17.6l1330.4-4.8z"/></g><text transform="translate(1277.625 1386.509)"><tspan x="0" y="0" fill="#231F20" font-family="'Helvetica'" font-size="47.106" letter-spacing="2">H</tspan><tspan x="36.3" y="0" fill="#231F20" font-family="'Helvetica'" font-size="47.106" letter-spacing="2">E</tspan><tspan x="70.1" y="0" fill="#231F20" font-family="'Helvetica'" font-size="47.106" letter-spacing="-1">A</tspan><tspan x="100.4" y="0" fill="#231F20" font-family="'Helvetica'" font-size="47.106" letter-spacing="2">T</tspan><tspan x="131.6" y="0" fill="#231F20" font-family="'Helvetica'" font-size="47.106" letter-spacing="2">HR</tspan><tspan x="204.2" y="0" fill="#231F20" font-family="'Helvetica'" font-size="47.106" letter-spacing="2">OW</tspan><tspan x="305.5" y="0" fill="#231F20" font-family="'Helvetica'" font-size="47.106" letter-spacing="2">1</tspan><tspan x="334" y="0" fill="#231F20" font-family="'Helvetica'" font-size="47.106" letter-spacing="2">:</tspan><tspan x="349.4" y="0" fill="#231F20" font-family="'Helvetica'" font-size="47.106" letter-spacing="2">4</tspan><tspan x="377.9" y="0" fill="#231F20" font-family="'Helvetica'" font-size="47.106">5</tspan></text><g><use xlink:href="#a" width="20.4" height="20.1" x="-10.2" y="-10" transform="matrix(1.071 0 0 -1.071 394.773 762.423)" overflow="visible"/><use xlink:href="#a" width="20.4" height="20.1" x="-10.2" y="-10" transform="matrix(1.071 0 0 -1.071 401.197 655.632)" overflow="visible"/><use xlink:href="#a" width="20.4" height="20.1" x="-10.2" y="-10" transform="matrix(1.071 0 0 -1.071 532.495 653.545)" overflow="visible"/><use xlink:href="#a" width="20.4" height="20.1" x="-10.2" y="-10" transform="matrix(1.071 0 0 -1.071 394.773 802.365)" overflow="visible"/><use xlink:href="#a" width="20.4" height="20.1" x="-10.2" y="-10" transform="matrix(1.071 0 0 -1.071 390.256 831.835)" overflow="visible"/><use xlink:href="#a" width="20.4" height="20.1" x="-10.2" y="-10" transform="matrix(1.071 0 0 -1.071 521.554 831.835)" overflow="visible"/><use xlink:href="#a" width="20.4" height="20.1" x="-10.2" y="-10" transform="matrix(1.071 0 0 -1.071 522.879 875.14)" overflow="visible"/><use xlink:href="#a" width="20.4" height="20.1" x="-10.2" y="-10" transform="matrix(1.071 0 0 -1.071 530.183 1213.739)" overflow="visible"/><use xlink:href="#a" width="20.4" height="20.1" x="-10.2" y="-10" transform="matrix(-.853 .648 .648 .853 478.904 1240.472)" overflow="visible"/><use xlink:href="#a" width="20.4" height="20.1" x="-10.2" y="-10" transform="matrix(1.071 0 0 -1.071 530.183 1188.491)" overflow="visible"/><use xlink:href="#a" width="20.4" height="20.1" x="-10.2" y="-10" transform="matrix(1.071 0 0 -1.071 556.496 951.573)" overflow="visible"/><use xlink:href="#a" width="20.4" height="20.1" x="-10.2" y="-10" transform="matrix(1.071 0 0 -1.071 930.478 952.915)" overflow="visible"/><use xlink:href="#a" width="20.4" height="20.1" x="-10.2" y="-10" transform="matrix(1.071 0 0 -1.071 670.894 799.843)" overflow="visible"/><use xlink:href="#a" width="20.4" height="20.1" x="-10.2" y="-10" transform="matrix(1.071 0 0 -1.071 678.078 725.731)" overflow="visible"/><use xlink:href="#a" width="20.4" height="20.1" x="-10.2" y="-10" transform="matrix(1.071 0 0 -1.071 674.509 698.518)" overflow="visible"/><use xlink:href="#a" width="20.4" height="20.1" x="-10.2" y="-10" transform="matrix(1.071 0 0 -1.071 672.695 698.518)" overflow="visible"/><use xlink:href="#a" width="20.4" height="20.1" x="-10.2" y="-10" transform="matrix(1.071 0 0 -1.071 259.912 751.688)" overflow="visible"/><use xlink:href="#a" width="20.4" height="20.1" x="-10.2" y="-10" transform="matrix(-1.071 0 0 1.071 178.566 741.97)" overflow="visible"/><use xlink:href="#a" width="20.4" height="20.1" x="-10.2" y="-10" transform="matrix(-1.071 0 0 1.071 183.291 776.375)" overflow="visible"/><use xlink:href="#a" width="20.4" height="20.1" x="-10.2" y="-10" transform="matrix(-1.071 0 0 1.071 176.867 799.393)" overflow="visible"/><use xlink:href="#a" width="20.4" height="20.1" x="-10.2" y="-10" transform="matrix(-1.071 0 0 1.071 180.93 831.835)" overflow="visible"/><use xlink:href="#a" width="20.4" height="20.1" x="-10.2" y="-10" transform="matrix(-.813 0 0 .813 172.517 899.808)" overflow="visible"/><use xlink:href="#a" width="20.4" height="20.1" x="-10.2" y="-10" transform="matrix(-1.071 0 0 1.071 322.086 914.627)" overflow="visible"/><use xlink:href="#a" width="20.4" height="20.1" x="-10.2" y="-10" transform="matrix(-1.071 0 0 1.071 318.875 885.798)" overflow="visible"/><use xlink:href="#a" width="20.4" height="20.1" x="-10.2" y="-10" transform="matrix(-1.071 0 0 1.071 321.819 858.571)" overflow="visible"/><use xlink:href="#a" width="20.4" height="20.1" x="-10.2" y="-10" transform="matrix(-1.071 0 0 1.071 320.014 830.707)" overflow="visible"/><use xlink:href="#a" width="20.4" height="20.1" x="-10.2" y="-10" transform="matrix(-1.071 0 0 1.071 320.55 797.844)" overflow="visible"/><use xlink:href="#a" width="20.4" height="20.1" x="-10.2" y="-10" transform="matrix(-1.071 0 0 1.071 320.55 765.459)" overflow="visible"/><use xlink:href="#a" width="20.4" height="20.1" x="-10.2" y="-10" transform="matrix(-1.071 0 0 1.071 321.085 655.632)" overflow="visible"/><use xlink:href="#a" width="20.4" height="20.1" x="-10.2" y="-10" transform="matrix(-1.071 0 0 1.071 450.091 827.553)" overflow="visible"/><use xlink:href="#a" width="20.4" height="20.1" x="-10.2" y="-10" transform="matrix(-1.071 0 0 1.071 449.823 860.206)" overflow="visible"/><use xlink:href="#a" width="20.4" height="20.1" x="-10.2" y="-10" transform="matrix(-1.071 0 0 1.071 450.626 885.798)" overflow="visible"/><use xlink:href="#a" width="20.4" height="20.1" x="-10.2" y="-10" transform="matrix(-1.071 0 0 1.071 450.894 911.224)" overflow="visible"/><use xlink:href="#a" width="20.4" height="20.1" x="-10.2" y="-10" transform="matrix(-1.071 0 0 1.071 577.996 885.798)" overflow="visible"/><use xlink:href="#a" width="20.4" height="20.1" x="-10.2" y="-10" transform="matrix(-1.071 0 0 1.071 663.569 989.394)" overflow="visible"/><use xlink:href="#a" width="20.4" height="20.1" x="-10.2" y="-10" transform="matrix(-1.071 0 0 1.071 760.939 1056.745)" overflow="visible"/><use xlink:href="#a" width="20.4" height="20.1" x="-10.2" y="-10" transform="matrix(-.544 -.922 -.922 .544 686.204 897.385)" overflow="visible"/><use xlink:href="#a" width="20.4" height="20.1" x="-10.2" y="-10" transform="matrix(.544 .922 .922 -.544 904.824 643.198)" overflow="visible"/><use xlink:href="#a" width="20.4" height="20.1" x="-10.2" y="-10" transform="matrix(.544 .922 .922 -.544 1163.911 701.276)" overflow="visible"/><use xlink:href="#a" width="20.4" height="20.1" x="-10.2" y="-10" transform="matrix(-.544 -.922 -.922 .544 727.444 770.373)" overflow="visible"/><use xlink:href="#a" width="20.4" height="20.1" x="-10.2" y="-10" transform="matrix(-.544 -.922 -.922 .544 1168.526 751.292)" overflow="visible"/><use xlink:href="#a" width="20.4" height="20.1" x="-10.2" y="-10" transform="matrix(-.776 -.737 -.737 .776 1203.142 844.855)" overflow="visible"/><use xlink:href="#a" width="20.4" height="20.1" x="-10.2" y="-10" transform="matrix(-.776 -.737 -.737 .776 1221.582 820.873)" overflow="visible"/><use xlink:href="#a" width="20.4" height="20.1" x="-10.2" y="-10" transform="matrix(-.776 -.737 -.737 .776 1246.31 796.688)" overflow="visible"/><use xlink:href="#a" width="20.4" height="20.1" x="-10.2" y="-10" transform="matrix(-.776 -.737 -.737 .776 1265.58 771.691)" overflow="visible"/><use xlink:href="#a" width="20.4" height="20.1" x="-10.2" y="-10" transform="matrix(-.928 -.533 -.533 .928 1138.237 899.919)" overflow="visible"/><use xlink:href="#a" width="20.4" height="20.1" x="-10.2" y="-10" transform="matrix(.936 -.52 -.52 -.936 736.383 912.051)" overflow="visible"/><use xlink:href="#a" width="20.4" height="20.1" x="-10.2" y="-10" transform="matrix(.936 -.52 -.52 -.936 719.505 888.097)" overflow="visible"/><use xlink:href="#a" width="20.4" height="20.1" x="-10.2" y="-10" transform="matrix(.936 -.52 -.52 -.936 691.785 843.935)" overflow="visible"/><use xlink:href="#a" width="20.4" height="20.1" x="-10.2" y="-10" transform="matrix(.936 -.52 -.52 -.936 804.922 829.469)" overflow="visible"/><use xlink:href="#a" width="20.4" height="20.1" x="-10.2" y="-10" transform="matrix(.936 -.52 -.52 -.936 791.014 807.41)" overflow="visible"/><use xlink:href="#a" width="20.4" height="20.1" x="-10.2" y="-10" transform="matrix(.936 -.52 -.52 -.936 777.968 787.567)" overflow="visible"/><use xlink:href="#a" width="20.4" height="20.1" x="-10.2" y="-10" transform="matrix(-.936 .52 .52 .936 717.602 816.519)" overflow="visible"/><use xlink:href="#a" width="20.4" height="20.1" x="-10.2" y="-10" transform="matrix(-.936 .52 .52 .936 762.689 691.332)" overflow="visible"/><use xlink:href="#a" width="20.4" height="20.1" x="-10.2" y="-10" transform="matrix(-.936 .52 .52 .936 777.239 711.355)" overflow="visible"/><use xlink:href="#a" width="20.4" height="20.1" x="-10.2" y="-10" transform="matrix(-.936 .52 .52 .936 790.848 736.104)" overflow="visible"/><use xlink:href="#a" width="20.4" height="20.1" x="-10.2" y="-10" transform="matrix(-.474 .96 .96 .474 749.268 674.144)" overflow="visible"/><use xlink:href="#a" width="20.4" height="20.1" x="-10.2" y="-10" transform="matrix(-.936 .52 .52 .936 735.653 833.377)" overflow="visible"/><use xlink:href="#a" width="20.4" height="20.1" x="-10.2" y="-10" transform="matrix(-.936 .52 .52 .936 749.268 860.173)" overflow="visible"/><use xlink:href="#a" width="20.4" height="20.1" x="-10.2" y="-10" transform="matrix(-.936 .52 .52 .936 790.285 913.593)" overflow="visible"/><use xlink:href="#a" width="20.4" height="20.1" x="-10.2" y="-10" transform="matrix(.936 -.52 -.52 -.936 763.418 765.458)" overflow="visible"/><use xlink:href="#a" width="20.4" height="20.1" x="-10.2" y="-10" transform="matrix(.936 -.52 -.52 -.936 747.395 746.509)" overflow="visible"/><use xlink:href="#a" width="20.4" height="20.1" x="-10.2" y="-10" transform="matrix(.936 -.52 -.52 -.936 826.813 681.829)" overflow="visible"/><use xlink:href="#a" width="20.4" height="20.1" x="-10.2" y="-10" transform="matrix(.936 -.52 -.52 -.936 842.202 704.471)" overflow="visible"/><use xlink:href="#a" width="20.4" height="20.1" x="-10.2" y="-10" transform="matrix(.8 -.711 -.711 -.8 1420.588 789.047)" overflow="visible"/><use xlink:href="#a" width="20.4" height="20.1" x="-10.2" y="-10" transform="matrix(-1.07 -.026 -.026 1.07 1385.526 951.744)" overflow="visible"/><use xlink:href="#a" width="20.4" height="20.1" x="-10.2" y="-10" transform="matrix(1.07 -.026 -.026 -1.07 1484.288 947.96)" overflow="visible"/><use xlink:href="#a" width="20.4" height="20.1" x="-10.2" y="-10" transform="matrix(.894 .59 .59 -.894 1568.061 677.99)" overflow="visible"/><use xlink:href="#a" width="20.4" height="20.1" x="-10.2" y="-10" transform="matrix(.038 1.07 1.07 -.038 1624.476 688.092)" overflow="visible"/><use xlink:href="#a" width="20.4" height="20.1" x="-10.2" y="-10" transform="matrix(.564 -.91 -.91 -.564 1673.348 645.367)" overflow="visible"/><use xlink:href="#a" width="20.4" height="20.1" x="-10.2" y="-10" transform="matrix(.808 .702 .702 -.808 1096.783 1236.399)" overflow="visible"/><use xlink:href="#a" width="20.4" height="20.1" x="-10.2" y="-10" transform="matrix(.812 .698 .698 -.812 1117.407 1217.159)" overflow="visible"/><use xlink:href="#a" width="20.4" height="20.1" x="-10.2" y="-10" transform="matrix(.812 .698 .698 -.812 1140.077 1198.78)" overflow="visible"/><use xlink:href="#a" width="20.4" height="20.1" x="-10.2" y="-10" transform="matrix(.812 .698 .698 -.812 1158.455 1180.248)" overflow="visible"/><use xlink:href="#a" width="20.4" height="20.1" x="-10.2" y="-10" transform="matrix(.812 .698 .698 -.812 1176.907 1160.247)" overflow="visible"/><use xlink:href="#a" width="20.4" height="20.1" x="-10.2" y="-10" transform="matrix(-.96 -.473 -.473 .96 1217.232 1171.539)" overflow="visible"/><use xlink:href="#a" width="20.4" height="20.1" x="-10.2" y="-10" transform="matrix(-.96 -.473 -.473 .96 1197.426 1226.457)" overflow="visible"/><use xlink:href="#a" width="20.4" height="20.1" x="-10.2" y="-10" transform="matrix(-.782 -.731 -.731 .782 1032.021 1221.237)" overflow="visible"/><use xlink:href="#a" width="20.4" height="20.1" x="-10.2" y="-10" transform="matrix(.964 .465 .465 -.964 1272.413 1201.119)" overflow="visible"/><use xlink:href="#a" width="20.4" height="20.1" x="-10.2" y="-10" transform="matrix(-.01 -1.071 -1.071 .01 1348.503 1205.372)" overflow="visible"/><use xlink:href="#a" width="20.4" height="20.1" x="-10.2" y="-10" transform="matrix(-1.071 0 0 1.071 577.996 855.032)" overflow="visible"/><use xlink:href="#a" width="20.4" height="20.1" x="-10.2" y="-10" transform="matrix(-1.071 0 0 1.071 577.996 827.966)" overflow="visible"/><use xlink:href="#a" width="20.4" height="20.1" x="-10.2" y="-10" transform="matrix(-1.071 0 0 1.071 577.996 768.106)" overflow="visible"/><use xlink:href="#a" width="20.4" height="20.1" x="-10.2" y="-10" transform="matrix(-1.071 0 0 1.071 724.366 642.811)" overflow="visible"/><use xlink:href="#a" width="20.4" height="20.1" x="-10.2" y="-10" transform="matrix(1.071 0 0 -1.071 267.406 780.896)" overflow="visible"/><use xlink:href="#a" width="20.4" height="20.1" x="-10.2" y="-10" transform="matrix(1.071 0 0 -1.071 267.406 804.023)" overflow="visible"/><use xlink:href="#a" width="20.4" height="20.1" x="-10.2" y="-10" transform="matrix(1.071 0 0 -1.071 263.391 858.571)" overflow="visible"/><use xlink:href="#a" width="20.4" height="20.1" x="-10.2" y="-10" transform="matrix(0 -1.071 -1.071 0 109.593 883.43)" overflow="visible"/><use xlink:href="#a" width="20.4" height="20.1" x="-10.2" y="-10" transform="matrix(0 1.071 1.071 0 104.163 919.294)" overflow="visible"/><use xlink:href="#a" width="20.4" height="20.1" x="-10.2" y="-10" transform="matrix(0 1.071 1.071 0 126.599 919.694)" overflow="visible"/><use xlink:href="#a" width="20.4" height="20.1" x="-10.2" y="-10" transform="matrix(0 1.071 1.071 0 153.632 919.694)" overflow="visible"/><use xlink:href="#a" width="20.4" height="20.1" x="-10.2" y="-10" transform="matrix(0 1.071 1.071 0 175.816 920.56)" overflow="visible"/><use xlink:href="#a" width="20.4" height="20.1" x="-10.2" y="-10" transform="matrix(0 -1.071 -1.071 0 137.334 883.162)" overflow="visible"/><use xlink:href="#a" width="20.4" height="20.1" x="-10.2" y="-10" transform="matrix(0 -1.071 -1.071 0 161.782 883.56)" overflow="visible"/><use xlink:href="#a" width="20.4" height="20.1" x="-10.2" y="-10" transform="matrix(0 -1.071 -1.071 0 184.931 882.757)" overflow="visible"/><use xlink:href="#a" width="20.4" height="20.1" x="-10.2" y="-10" transform="matrix(0 -1.071 -1.071 0 522.879 917.799)" overflow="visible"/><use xlink:href="#a" width="20.4" height="20.1" x="-10.2" y="-10" transform="matrix(0 -1.071 -1.071 0 548.038 917.799)" overflow="visible"/><use xlink:href="#a" width="20.4" height="20.1" x="-10.2" y="-10" transform="matrix(0 -1.071 -1.071 0 573.714 917.799)" overflow="visible"/><use xlink:href="#a" width="20.4" height="20.1" x="-10.2" y="-10" transform="matrix(0 1.071 1.071 0 696.479 674.43)" overflow="visible"/><use xlink:href="#a" width="20.4" height="20.1" x="-10.2" y="-10" transform="matrix(0 1.071 1.071 0 723.86 676.002)" overflow="visible"/><use xlink:href="#a" width="20.4" height="20.1" x="-10.2" y="-10" transform="matrix(0 -1.071 -1.071 0 898.848 917.799)" overflow="visible"/><use xlink:href="#a" width="20.4" height="20.1" x="-10.2" y="-10" transform="matrix(0 1.071 1.071 0 957.104 661.438)" overflow="visible"/><use xlink:href="#a" width="20.4" height="20.1" x="-10.2" y="-10" transform="matrix(0 1.071 1.071 0 981.101 661.438)" overflow="visible"/><use xlink:href="#a" width="20.4" height="20.1" x="-10.2" y="-10" transform="matrix(0 1.071 1.071 0 1003.361 661.438)" overflow="visible"/><use xlink:href="#a" width="20.4" height="20.1" x="-10.2" y="-10" transform="matrix(0 1.071 1.071 0 1037.313 661.438)" overflow="visible"/><use xlink:href="#a" width="20.4" height="20.1" x="-10.2" y="-10" transform="matrix(0 -1.071 -1.071 0 931.19 914.832)" overflow="visible"/><use xlink:href="#a" width="20.4" height="20.1" x="-10.2" y="-10" transform="matrix(0 -1.071 -1.071 0 963.165 914.832)" overflow="visible"/><use xlink:href="#a" width="20.4" height="20.1" x="-10.2" y="-10" transform="matrix(.762 -.752 -.752 -.762 1073.015 882.486)" overflow="visible"/><use xlink:href="#a" width="20.4" height="20.1" x="-10.2" y="-10" transform="matrix(.762 -.752 -.752 -.762 1091.613 898.131)" overflow="visible"/><use xlink:href="#a" width="20.4" height="20.1" x="-10.2" y="-10" transform="matrix(.762 -.752 -.752 -.762 1133.503 830.509)" overflow="visible"/><use xlink:href="#a" width="20.4" height="20.1" x="-10.2" y="-10" transform="matrix(0 -1.071 -1.071 0 697.837 1170.348)" overflow="visible"/><use xlink:href="#a" width="20.4" height="20.1" x="-10.2" y="-10" transform="matrix(0 -1.071 -1.071 0 728.22 1153.943)" overflow="visible"/><use xlink:href="#a" width="20.4" height="20.1" x="-10.2" y="-10" transform="matrix(0 -1.071 -1.071 0 749.998 1148.05)" overflow="visible"/><use xlink:href="#a" width="20.4" height="20.1" x="-10.2" y="-10" transform="matrix(0 -1.071 -1.071 0 807.404 1150.313)" overflow="visible"/><use xlink:href="#a" width="20.4" height="20.1" x="-10.2" y="-10" transform="matrix(0 -1.071 -1.071 0 834.787 1153.943)" overflow="visible"/><use xlink:href="#a" width="20.4" height="20.1" x="-10.2" y="-10" transform="matrix(0 -1.071 -1.071 0 860.66 1153.943)" overflow="visible"/><use xlink:href="#a" width="20.4" height="20.1" x="-10.2" y="-10" transform="matrix(1.071 0 0 -1.071 266 885.798)" overflow="visible"/></g></svg>