<?xml version="1.0" encoding="UTF-8"?>
<svg width="384px" height="384px" viewBox="0 0 384 384" version="1.1" xmlns="http://www.w3.org/2000/svg" xmlns:xlink="http://www.w3.org/1999/xlink">
    <title>Droid Illustrations</title>
    <desc>Illustrations by Jory Phillips for Android UX Research</desc>
    <defs>
        <polygon id="path-1" points="0.308 0.107 7.307 35.107 21.307 35.107 28.308 0.107 0.308 0.107"></polygon>
    </defs>
    <g id="Page-1" stroke="none" stroke-width="1" fill="none" fill-rule="evenodd">
        <g id="Group-3">
            <rect id="Rectangle" stroke="rbga(0,0,0,0)" fill-rule="nonzero" x="0.5" y="0.5" width="383" height="383"></rect>
            <g id="Group-2" transform="translate(41.000000, 15.000000)">
                <g id="uer-droid-lab" transform="translate(0.000000, 13.000000)" fill-rule="nonzero">
                    <polygon id="XMLID_325_" stroke="#263238" stroke-width="2" fill="#004D40" points="57 109.5 63 109.5 63 124.5 57 124.5"></polygon>
                    <polygon id="XMLID_343_" stroke="#263238" stroke-width="2" fill="#00838F" points="49 57.5 57 76.5 57 109.5 63 109.5 63 76.4 71 57.5"></polygon>
                    <polygon id="XMLID_344_" stroke="#263238" stroke-width="2" fill="#79AB41" points="71 57.5 49 57.5 45.7 51.5 74.5 51.5"></polygon>
                    <path d="M16,90.4 L16,81.5 L0,81.5 L0,90.4 C0,95.1 3.3,98.6 8,98.6 C12.7,98.7 16,95.2 16,90.4 Z" id="XMLID_323_" stroke="#263238" stroke-width="2" fill="#79AB41"></path>
                    <path d="M120,90.4 L120,81.5 L104,81.5 L104,90.4 C104,95.1 107.3,98.6 112,98.6 C116.7,98.7 120,95.2 120,90.4 Z" id="XMLID_324_" stroke="#263238" stroke-width="2" fill="#79AB41"></path>
                    <g id="XMLID_326_" transform="translate(0.000000, 48.000000)" stroke="#263238" stroke-width="2">
                        <path d="M36,91.1 C36,95.5 39.6,99 44,99 C48.4,99 52,95.4 52,91.1 L52,76.4 C48,76.2 42,75.5 36,74.2 L36,91.1 Z" id="XMLID_327_" fill="#004D40"></path>
                        <g id="XMLID_328_">
                            <path d="M66,91.1 C66,95.5 69.6,99 74,99 C78.4,99 82,95.4 82,91.1 L82,73.8 C77,75.2 72,76 66,76.3 L66,91.1 Z" id="XMLID_329_" fill="#004D40"></path>
                            <path d="M63,76.5 C65,76.5 64.8,76.5 66.6,76.4 C71.7,76.1 77.1,75.1 82.3,73.7 C90.6,71.5 99.1,67.8 99.1,62 L99.1,23.5 L104.1,23.5 L104.1,33.4 C104.1,33.4 104.8,35.1 112.1,35.1 C119.4,35.1 120.1,33.4 120.1,33.4 L120.1,8.8 C120.1,4.1 116.8,0.2 112.1,0.2 C107.4,0.2 104.1,4 104.1,8.8 L104.1,11.5 L99.1,11.5 L99.1,0.4 C99.1,1.7 88.6,2.8 74.1,3.2 C71.1,8.9 63.1,28.4 63.1,28.4 L63.1,76.5 L63,76.5 Z" id="XMLID_48_" fill="#F0F2F1"></path>
                            <path d="M57,28.5 C57,28.5 49,9.5 45.9,3.2 C31.4,2.8 21,1.8 21,0.4 L21,11.5 L16,11.5 L16,8.6 C16,3.9 12.7,0.3 8,0.3 C3.3,0.3 0,3.8 0,8.6 L0,33.3 C0,33.3 0.7,35 8,35 C15.3,35 16,33.3 16,33.3 L16,23.4 L21,23.4 L21.1,63.4 C21.1,69.3 28.3,72.5 37,74.6 C42.2,75.9 47,76.1 52,76.4 C53.4,76.5 56,76.5 57,76.5 L57,28.5 Z" id="XMLID_330_" fill="#F0F2F1"></path>
                        </g>
                    </g>
                    <g id="XMLID_331_" transform="translate(31.000000, 54.000000)" fill="#546E7A">
                        <path d="M7.1,15.7 C6.7,15.3 6.7,14.8 7.2,14.5 L12.6,10.7 C13,10.4 13,10.1 12.4,10 L1.3,8.8 C0.8,8.7 0.6,8.3 0.9,7.9 L6.6,0.5 C6.9,0.1 7,0.1 6.8,0.6 L4.3,6.4 C4.1,6.9 4.4,7.4 4.9,7.5 L15.7,9 C16.2,9.1 16.3,9.4 15.9,9.8 L10.7,14 C10.3,14.4 10.2,15 10.6,15.4 L23,28.8 C23.4,29.2 23.3,29.2 22.9,28.9 L7.1,15.7 Z" id="XMLID_90_"></path>
                    </g>
                    <g id="XMLID_81_" transform="translate(65.000000, 54.000000)" fill="#546E7A">
                        <path d="M16.9,15.7 C17.3,15.3 17.3,14.8 16.8,14.5 L11.4,10.7 C11,10.4 11,10.1 11.6,10 L22.7,8.8 C23.2,8.7 23.4,8.3 23.1,7.9 L17.4,0.5 C17,-7.10542736e-15 16.9,-7.10542736e-15 17.1,0.5 L19.6,6.3 C19.8,6.8 19.5,7.3 19,7.4 L8.2,8.9 C7.7,9 7.6,9.3 8,9.7 L13.3,14.1 C13.7,14.5 13.8,15.1 13.4,15.5 L1.1,28.8 C0.7,29.2 0.8,29.2 1.2,28.9 L16.9,15.7 Z" id="XMLID_93_"></path>
                    </g>
                    <g id="XMLID_333_" transform="translate(65.000000, 90.000000)" fill="#546E7A">
                        <circle id="XMLID_334_" cx="3.4" cy="2.7" r="2.5"></circle>
                        <circle id="XMLID_335_" cx="3.4" cy="15.2" r="2.5"></circle>
                        <circle id="XMLID_336_" cx="3.4" cy="27.1" r="2.5"></circle>
                    </g>
                    <g id="XMLID_337_" transform="translate(75.000000, 74.000000)" fill="#78909C">
                        <path d="M0.1,6.8 C0.1,6.1 0.2,5.7 0.8,5.7 C1.4,5.7 1.9,5.7 3.1,5.5 C4.6,5.3 5.4,5.1 5.6,5.1 C6.1,5 6.2,5.4 6.1,6 L6.1,14.8 C6.1,14.8 6.3,18.7 3.7,19.2 C1.1,19.8 0.1,17.8 0.1,17.3 C0.1,16.7 -1.5959456e-16,7.6 0.1,6.8 Z" id="XMLID_338_"></path>
                        <polygon id="XMLID_339_" points="8.6 6.8 8.5 13.6 10.7 10.3"></polygon>
                        <polygon id="XMLID_340_" points="10.4 3.7 14.8 2.6 12.4 7.7"></polygon>
                        <polygon id="XMLID_341_" points="9.8 17.4 14.1 16.4 12.4 12.9"></polygon>
                        <path d="M14.1,9.8 C14.1,9.8 17.6,3 18,1.4 C19,1 20.2,0.5 20.2,0.5 L20,14.6 C20,14.6 18.6,15.1 17.7,15.3 C16.8,14.4 14.1,9.8 14.1,9.8 Z" id="XMLID_342_"></path>
                    </g>
                    <path d="M96,46.9 L96,44.1 C87,44.6 74.4,45 60,45 C45.3,45 32,44.5 24,44.1 L24,46.9 C22,47.3 21,47.9 21,48.4 C21,50.1 38.8,51.4 60.1,51.4 C81.4,51.4 99,50.2 99,48.4 C99,48 98,47.3 96,46.9 Z" id="XMLID_322_" stroke="#263238" stroke-width="2" fill="#558B2F"></path>
                    <g id="XMLID_345_" transform="translate(20.000000, 0.000000)">
                        <g id="head_2_" fill="#263238">
                            <path d="M64.7,0 C63.1,0.1 61.7,0.9 60.9,2.3 L56.5,9.5 C51.3,7.6 45.8,6.6 40.2,6.6 C34.6,6.6 29.1,7.6 23.9,9.5 L19.5,2.3 C18.7,0.9 17.3,0.1 15.7,8.8817842e-16 L15.5,8.8817842e-16 C14.7,8.8817842e-16 13.8,0.3 13.1,0.7 C12.1,1.3 11.3,2.4 11.1,3.5 C10.9,4.7 11.2,5.9 11.8,6.9 L15.7,13.3 C10.6,16.6 6.4,21.1 3.6,26.5 C0.6,32.2 -0.1,37.7 0.2,40.8 C0.5,43.2 2.4,45.1 4.8,45.3 C11.9,45.7 24.8,45.9 40.1,45.9 C55.3,45.9 68.2,45.7 75.3,45.3 C77.7,45.1 79.6,43.2 79.9,40.8 C80.2,37.6 79.5,32.2 76.5,26.5 C73.7,21.1 69.5,16.6 64.4,13.3 L68.3,6.9 C69,5.9 69.2,4.7 69,3.5 C68.7,2.3 68,1.3 67,0.7 C66.4,0.3 65.6,0 64.7,0 Z" id="XMLID_346_"></path>
                        </g>
                        <path d="M64.7,1.9 C65.2,1.9 65.7,2.1 66.1,2.3 C66.7,2.6 67.1,3.2 67.3,3.9 C67.4,4.6 67.3,5.3 66.9,5.9 L61.9,14 C67.5,17.1 72,21.8 75,27.4 C77.8,32.7 78.4,37.7 78.2,40.6 C78,42.1 76.8,43.3 75.3,43.4 C67.2,43.8 53.2,44 40.2,44 C27.2,44 13,44 5,43.6 C3.5,43.5 2.3,42.3 2.1,40.8 C1.8,37.9 2.5,32.9 5.3,27.6 C8.3,21.9 12.8,17.3 18.4,14.2 L13.4,6.1 C13,5.5 12.9,4.8 13,4.1 C13.1,3.4 13.6,2.8 14.2,2.5 C14.5,2.1 15,2 15.5,1.9 C16.4,1.9 17.2,2.5 17.7,3.3 L23,11.9 C28.4,9.7 34.2,8.5 40.1,8.5 C46,8.5 51.8,9.6 57.2,11.9 L62.5,3.3 C63,2.5 63.8,2 64.7,1.9" id="XMLID_348_" fill="#7CB342"></path>
                        <path d="M56.9,20.8 C56.5,20.8 52.4,20.8 53.8,24.9 C55.2,29 59.4,29.9 60.4,29.9 C61.4,29.9 64.3,29.6 63.1,25.8 C62,23.2 59.3,20.8 56.9,20.8 Z" id="right-eye_3_" fill="#F0EFEF"></path>
                        <path d="M23.2,20.8 C23.6,20.8 27.7,20.8 26.3,24.9 C24.9,29 20.7,29.9 19.7,29.9 C18.7,29.9 15.8,29.6 17,25.8 C18.1,23.2 20.7,20.8 23.2,20.8 Z" id="right-eye_2_" fill="#F0EFEF"></path>
                        <path d="M70.5,31.2 C69.6,31.3 53.5,30.4 51.3,30.3 C49.1,30.2 48.1,30.2 47.4,29.3 C46.7,28.4 45.1,21.5 45.4,20.7 C45.7,19.9 46.5,19.5 47.7,19.5 C48.9,19.5 60.5,20.3 62.6,20.7 C64.7,21 68.3,21.7 69.2,23.4 C69.7,24.2 70.7,26.2 71.1,27.4 C71.4,28.5 71.6,31.1 70.5,31.2 Z M9.3,27.3 C9.6,26.1 10.7,24.1 11.2,23.3 C12.1,21.6 15.7,20.9 17.8,20.6 C19.9,20.3 31.6,19.4 32.7,19.4 C33.8,19.4 34.7,19.9 35,20.6 C35.3,21.4 33.7,28.3 33,29.2 C32.3,30.1 31.3,30.1 29.1,30.2 C28.1,30.3 24.2,30.6 20.2,30.7 C15.4,30.8 10.3,30.8 9.9,30.7 C8.7,30.7 8.9,28.5 9.3,27.3 Z M40,16.8 C31,16.7 21.8,17.4 16.2,18.5 C14.9,18.7 12.2,20 11.5,20.6 C11.4,20.7 10.8,20.7 10.8,20.7 C10,20.7 9.9,20.8 9.9,20.8 C9.9,20.8 8.5,22 8.4,22.5 L9.4,22.5 C7.6,25.4 6.6,30.5 6.7,32.2 C6.7,33 6.8,33.7 8,33.9 C9.2,34.1 33.5,33.4 34.9,33 C36.4,32.4 36.5,30 36.5,30.2 C36.6,28.3 36.9,22.3 37,21.4 C37.1,20.5 37.6,20.4 38.3,20.4 L41.5,20.4 C42.3,20.4 42.7,20.5 42.8,21.4 C42.9,22.3 43.2,28.3 43.3,30.2 C43.3,30 43.4,32.4 44.9,33 C46.3,33.4 70.4,34.3 71.6,34.1 C72.8,33.9 73.1,33 73.1,32.2 C73.1,30.5 72.1,25.4 70.4,22.5 L71.4,22.5 C71.4,22 69.9,20.8 69.9,20.8 C69.9,20.8 69.6,20.9 68.8,20.9 C68.8,20.9 68.2,20.9 68.1,20.8 C67.5,20.2 64.4,19.2 63.1,18.9 C58,17.7 49,16.6 40,16.8 Z" id="XMLID_349_" fill="#263238"></path>
                    </g>
                </g>
                <g id="uer-droid-pilot" transform="translate(0.000000, 185.000000)">
                    <path d="M94,68.57 L94,65.8 C85,66.26 72.4,66.74 58,66.73 C43.34,66.73 29,66.19 22,65.8 L22,68.57 C20,68.94 18.87,69.57 18.87,70.04 C18.87,71.78 36.38,73.04 57.72,73.04 C79.06,73.04 96.9,71.8 96.9,70.04 C96.9,69.61 96,68.94 94,68.57 Z" id="Shape" stroke="#333333" stroke-width="2" fill="#5A863D" fill-rule="nonzero"></path>
                    <path d="M16,112.04 L16,102.79 L0,102.79 L0,112.04 C0,116.79 3.25,120.27 8,120.27 C12.75,120.27 16,116.79 16,112.04 Z M116,112.04 L116,102.79 L100,102.79 L100,112.04 C100,116.79 103.25,120.27 108,120.27 C112.75,120.27 116,116.79 116,112.04 Z" id="Shape" stroke="#333333" stroke-width="2" fill="#79AB41" fill-rule="nonzero"></path>
                    <path d="M55,128.79 L55,145.79 L61,145.79 L61,128.79 L55,128.79 Z M35,143.04 L35,160.69 C35,165.108278 38.581722,168.69 43,168.69 C47.418278,168.69 51,165.108278 51,160.69 L51,145.96 C45.58226,145.525534 40.2219519,144.547278 35,143.04 Z M81,143.04 L81,160.69 C81,165.108278 77.418278,168.69 73,168.69 C68.581722,168.69 65,165.108278 65,160.69 L65,145.96 C70.4389912,145.698472 75.8192548,144.716574 81,143.04 Z" id="Shape" stroke="#333333" stroke-width="2" fill="#1C2D44" fill-rule="nonzero"></path>
                    <path d="M108,69.85 C103.25,69.85 100,73.69 100,78.44 L100,78.8 L97,78.8 L97,70.04 C97,71.78 79.26,73.04 57.92,73.04 C36.58,73.04 19,71.8 19,70.04 L19,78.79 L16,78.79 L16,78.27 C16,73.52 12.75,69.99 8,69.99 C3.25,69.99 0,73.52 0,78.27 L0,103 C0,103 0.72,104.71 8,104.71 C15.28,104.71 16,103 16,103 L16,90.79 L18.91,90.79 L18.91,131.91 C18.91,142.49 42.04,146.03 55.04,146.03 L55.04,128.79 L61.04,128.79 L61.04,146.04 C74.04,146.04 97.04,142.32 97.04,131.74 L97.04,90.79 L100.04,90.79 L100.04,103 C100.04,103 100.76,104.71 108.04,104.71 C115.32,104.71 116.04,103 116.04,103 L116.04,78.44 C116,73.69 112.75,69.85 108,69.85 Z" id="Shape" stroke="#333333" stroke-width="2" fill="#375A87" fill-rule="nonzero"></path>
                    <path d="M57.77,67.73 C40.77,67.73 25.77,67.01 21.66,66.8 C20.0266319,66.7296362 18.7503378,65.3644018 18.79,63.73 C18.79,61.11 19.9,56.13 22.87,50.73 C25.9683644,45.055794 30.4942253,40.2886458 36,36.9 L30.61,28.13 C30.2328136,27.5360327 30.0836058,26.8255192 30.19,26.13 C30.3443637,25.4401677 30.7792176,24.8458674 31.39,24.49 C31.8114142,24.2103409 32.3042914,24.0576184 32.81,24.05 C33.762248,24.1041129 34.6214569,24.6392342 35.09,25.47 L40.68,34.47 C46.0875214,32.1970581 51.9046203,31.060188 57.77,31.13 C63.836565,31.0540235 69.8647848,32.1016725 75.55,34.22 L81,25.43 C81.469366,24.6138736 82.3198987,24.0907583 83.26,24.04 C83.7657086,24.0476184 84.2585858,24.2003409 84.68,24.48 C85.2930188,24.8381223 85.7281759,25.4364634 85.88,26.13 C86.0015178,26.8572128 85.8444031,27.6035074 85.44,28.22 L80.32,36.52 C93.5,44.01 97.44,57.28 96.75,64.04 C96.6249561,65.5498503 95.3938117,66.7295183 93.88,66.79 C85.67,67.22 72.81,67.73 58.16,67.73 L57.77,67.73 Z" id="Shape" fill="#79AB41" fill-rule="nonzero"></path>
                    <path d="M83.26,25.04 C83.5784411,25.048725 83.8875483,25.1494453 84.15,25.33 C84.5369024,25.5610011 84.8084592,25.9444429 84.8979303,26.3860874 C84.9874014,26.8277319 84.8864911,27.2866304 84.62,27.65 L78.92,36.89 C92.73,44.19 96.39,57.78 95.76,63.95 C95.6843289,64.9655483 94.8576574,65.7620808 93.84,65.8 C85.01,66.26 72.42,66.73 58.17,66.73 L57.77,66.73 C43.08,66.73 29.28,66.19 21.71,65.8 C20.6090852,65.7566345 19.7505843,64.8310633 19.79,63.73 C19.84,58.32 24.43,44.59 37.4,37.25 L31.5,27.65 C31.2335089,27.2866304 31.1325986,26.8277319 31.2220697,26.3860874 C31.3115408,25.9444429 31.5830976,25.5610011 31.97,25.33 C32.2324517,25.1494453 32.5415589,25.048725 32.86,25.04 C33.449579,25.0972547 33.9749788,25.4363426 34.27,25.95 L40.34,35.77 C45.8169158,33.3058896 51.7646638,32.0637896 57.77,32.13 C63.993415,32.0318655 70.1749638,33.1635069 75.96,35.46 L81.85,25.92 C82.1450212,25.4063426 82.670421,25.0672547 83.26,25.01 L83.26,25.04 Z M83.26,23.01 C81.9624399,23.0557273 80.7814342,23.7711442 80.14,24.9 L75.14,32.99 C69.560611,31.0328743 63.6823345,30.0650061 57.77,30.13 C52.0615432,30.0714799 46.3962489,31.1243823 41.09,33.23 L35.94,24.93 C35.2985658,23.8011442 34.1175601,23.0857273 32.82,23.04 C32.1088714,23.0392141 31.4132619,23.2478969 30.82,23.64 C29.9798456,24.138638 29.3855318,24.9648791 29.18,25.92 C29.0070004,26.8905558 29.2070174,27.8906406 29.74,28.72 L34.59,36.58 C22.07,44.66 17.84,58.13 17.79,63.71 C17.7443798,65.8815889 19.4401108,67.6927361 21.61,67.79 C25.78,68.01 40.71,68.72 57.78,68.73 L58.17,68.73 C72.84,68.73 85.72,68.22 93.94,67.79 C95.9457519,67.6966868 97.5714961,66.1308384 97.74,64.13 C98.44,57.27 94.62,43.96 81.74,36.13 L86.34,28.68 C86.8729826,27.8506406 87.0729996,26.8505558 86.9,25.88 C86.6944682,24.9248791 86.1001544,24.098638 85.26,23.6 C84.6667381,23.2078969 83.9711286,22.9992141 83.26,23 L83.26,23.01 Z M34.36,91.65 L38.77,87.25 L28.77,88.25 L35.77,75.25 L32.77,85.25 L44.78,83.94 L38.77,91.25 L52.77,102.25 L34.36,91.65 Z M81.17,91.65 L76.77,87.25 L86.77,88.25 L79.77,75.25 L82.77,85.25 L70.75,83.94 L76.77,91.25 L62.77,102.25 L81.17,91.65 Z" id="Shape" fill="#333333" fill-rule="nonzero"></path>
                    <circle id="Oval" fill="#FFF917" fill-rule="nonzero" cx="65.9" cy="114.27" r="2.5"></circle>
                    <circle id="Oval" fill="#FFF917" fill-rule="nonzero" cx="65.9" cy="126.82" r="2.5"></circle>
                    <circle id="Oval" fill="#FFF917" fill-rule="nonzero" cx="65.9" cy="138.75" r="2.5"></circle>
                    <path d="M71.79,101.39 C71.79,100.65 71.79,100.28 72.47,100.3 C73.3094823,100.309196 74.14848,100.255714 74.98,100.14 C75.7653644,100.053495 76.543862,99.9131654 77.31,99.72 C77.76,99.61 77.81,100.04 77.81,100.56 L77.81,110.13 C77.81,110.13 78,113.2 75.36,113.79 C72.72,114.38 71.77,112.5 71.78,111.92 C71.79,111.34 71.77,102.18 71.79,101.39 Z M81.08,102.42 L80.97,109.23 L83.18,105.92 L81.08,102.42 Z M82.88,98.32 L87.29,97.38 L84.89,102.32 L82.88,98.32 Z M82.32,113.06 L86.64,112 L84.92,108.56 L82.32,113.06 Z M86.63,105.42 C86.63,105.42 90.12,98.61 90.55,96.99 C91.55,96.56 92.79,96.14 92.79,96.14 L92.64,110.21 C91.8778142,110.500135 91.0999202,110.747191 90.31,110.95 C89.31,110.05 86.63,105.42 86.63,105.42 Z" id="Shape" fill="#FFFB74" fill-rule="nonzero"></path>
                    <polygon id="Shape" stroke="#333333" stroke-width="2" fill="#F1F0F0" fill-rule="nonzero" points="46.74 78.79 54.87 94.79 54.74 128.79 61 128.79 61 95.04 69.74 78.79 46.74 78.79"></polygon>
                    <path d="M40.06,43.41 C41.06,43.41 44.67,43.41 43.28,47.63 C41.89,51.85 37.14,52.77 37.14,52.77 C37.14,52.77 32.23,53.54 33.76,48.55 C34.835645,45.8667523 37.2154496,43.925134 40.06,43.41 Z" id="Shape" fill="#F1F0F0" fill-rule="nonzero"></path>
                    <path d="M75.2,43.41 C74.2,43.41 70.59,43.41 71.98,47.63 C73.37,51.85 78.12,52.77 78.12,52.77 C78.12,52.77 83.03,53.54 81.5,48.55 C80.424355,45.8667523 78.0445504,43.925134 75.2,43.41 Z" id="Shape" fill="#F0EFEF" fill-rule="nonzero"></path>
                    <path d="M90.86,55.3 C90.8709397,51.951992 89.9871277,48.6618639 88.3,45.77 L89.21,45.77 C89.2523831,45.2624744 89.0097345,44.7733256 88.58,44.5 C87.82,43.72 87.76,43.98 86.73,44.01 L86.21,44.01 C85.8008139,43.8920517 85.4103031,43.7169951 85.05,43.49 C83.8455811,43.0197123 82.6047979,42.6484807 81.34,42.38 C75.9070403,41.2226819 70.3887539,40.5103213 64.84,40.25 C61.1,40.02 57.37,39.98 53.62,40.05 C48.2958423,39.9924037 42.9774206,40.4174758 37.73,41.32 C35.3,41.82 32.96,42.71 30.55,43.16 C29.49,43.36 27.75,44.16 27.97,45.43 C28.4734957,45.2992907 28.9844257,45.1991084 29.5,45.13 C27.9281301,47.7224844 26.9703516,50.640288 26.7,53.66 C26.62,54.47 26.52,55.89 27.76,56 C27.76,56 33.95,56.34 35.76,56.25 C38.5,56.13 41.27,56.13 44.02,56.19 C46.26,56.24 48.48,56.19 50.65,56.13 C51.4592066,56.0709587 52.170232,55.5713192 52.5,54.83 C52.918223,53.9847814 53.1759214,53.0692741 53.26,52.13 C53.63,49.74 53.9,47.3 54.49,44.95 C54.75,43.95 54.83,43.49 55.98,43.42 C56.98,43.36 57.92,43.36 58.88,43.42 C59.5518435,43.3349015 60.2341476,43.3963089 60.88,43.6 C61.67,44.09 61.46,46.42 61.5,47.3 C61.5,49.13 61.5,51 61.63,52.87 L61.63,52.42 C61.69,53.82 61.69,55.04 63.19,55.66 C64.5520743,56.0407825 65.9685374,56.189528 67.38,56.1 C71.99,56.31 76.6,56.33 81.2,56.55 L87.58,56.88 C88.24,56.88 90.09,57.4 90.64,56.82 C90.8611902,56.3459855 90.9377138,55.8172769 90.86,55.3 Z M52.27,43.86 C51.79,46.08 51.27,48.29 50.62,50.48 C50.5171234,51.2216149 50.1643689,51.9059585 49.62,52.42 C48.7915749,52.8109516 47.8685787,52.9566878 46.96,52.84 C41.96,52.96 36.96,53.08 31.96,53.3 C31.24,53.3 29.2,53.56 28.69,53.04 C28.5072604,52.4368713 28.5072604,51.7931287 28.69,51.19 C28.93,50.19 29.18,49.14 29.51,48.19 C29.8430432,46.8537783 30.6184226,45.6695624 31.71,44.83 C33.45,43.74 36.11,43.53 38.1,43.15 C39.69,42.85 52.87,41.15 52.25,43.9 C52.17,44.32 52.3,43.72 52.27,43.86 Z M88.74,53.04 C88.74,54.3 79.09,53.34 77.98,53.25 C75.75,53.07 73.51,53.03 71.27,52.96 C70.07,52.96 68.86,52.88 67.66,52.82 C66.7524249,52.9330093 65.8367548,52.6852397 65.11,52.13 C64.6723328,51.4457376 64.4017151,50.66814 64.32,49.86 C64.04,48.68 63.78,47.49 63.53,46.3 C63.37,45.55 62.88,44.39 63.18,43.65 C63.48,42.91 64.53,42.81 65.26,42.73 C67.6512081,42.5701158 70.0522484,42.6404392 72.43,42.94 C75.0885333,43.1160154 77.7315887,43.4768877 80.34,44.02 C82.5,44.5 85.82,44.75 87.2,46.7 C87.9232166,47.8919863 88.430964,49.2019747 88.7,50.57 C88.8294044,51.3873571 88.8428703,52.2188814 88.74,53.04 Z" id="Shape" fill="#2C2C2C" fill-rule="nonzero"></path>
                    <polygon id="Shape" stroke="#333333" stroke-width="2" fill="#79AB41" fill-rule="nonzero" points="69.74 79.04 46.74 79.04 43.74 73.04 72.74 73.04"></polygon>
                    <path d="M57.98,19.01 C45.9863704,18.949206 34.1832073,22.0094129 23.73,27.89 L23.73,35.77 C23.82,33.26 41.78,29.77 57.86,29.77 C73.94,29.77 92.23,32.84 92.23,35.77 L92.23,28.68 C92.23,27.67 78.26,19.01 57.98,19.01 Z" id="Shape" stroke="#333333" stroke-width="1.909" fill="#294465" fill-rule="nonzero"></path>
                    <path d="M57.98,0.96 C23.73,0.96 11.21,18.96 11.21,25.74 C11.21,30.19 12.39,32.51 16.21,34.45 C18.5393041,35.6096318 21.1551423,36.0681851 23.74,35.77 L23.74,27.89 C34.1932073,22.0094129 45.9963704,18.949206 57.99,19.01 C78.27,19.01 92.24,27.68 92.24,28.68 L92.24,35.77 C94.631218,35.8324909 97.0109088,35.4177448 99.24,34.55 C102.508914,32.8463963 104.516909,29.4246483 104.41,25.74 C104.39,18.78 92.23,0.96 57.98,0.96 Z" id="Shape" stroke="#333333" stroke-width="1.909" fill="#294465" fill-rule="nonzero"></path>
                    <path d="M57.87,29.76 C41.79,29.76 23.87,33.26 23.74,35.76 C23.74,35.76 23.29,43.92 28.64,43.92 C33.99,43.92 45.91,41.13 57.87,41.13 C69.83,41.13 81.14,43.93 86.5,43.93 C92.2,43.93 92.2,38.7 92.2,35.77 C92.2,32.84 73.94,29.76 57.87,29.76 Z" id="Shape" stroke="#333333" stroke-width="1.909" fill="#375A87" fill-rule="nonzero"></path>
                    <path d="M57.8,26.13 C55.7,26.13 43.36,22.85 43.36,22.85 C43.2888354,22.8717637 43.2116009,22.8592837 43.1509123,22.8162144 C43.0902238,22.7731452 43.052948,22.7043597 43.05,22.63 C43.0482107,22.5618565 43.0781107,22.4967327 43.1309561,22.4536735 C43.1838016,22.4106142 43.2536223,22.394484 43.32,22.41 L53.78,22.41 C54.78,23.7 57.78,23.86 57.78,23.86 C57.78,23.86 60.78,23.7 61.78,22.41 L72.27,22.41 C72.3363777,22.394484 72.4061984,22.4106142 72.4590439,22.4536735 C72.5118893,22.4967327 72.5417893,22.5618565 72.54,22.63 C72.537052,22.7043597 72.4997762,22.7731452 72.4390877,22.8162144 C72.3783991,22.8592837 72.3011646,22.8717637 72.23,22.85 C72.23,22.85 59.9,26.13 57.8,26.13 Z" id="Shape" fill="#FFF917" fill-rule="nonzero"></path>
                    <path d="M90.05,34.28 C80.39,30.93 72.99,29.76 57.98,29.76 C42.97,29.76 35.57,30.93 25.91,34.28" id="Shape" stroke="#FFF917" stroke-width="3.866" stroke-linecap="round"></path>
                    <path d="M36.1,104.13 C34.74,104.01 26.97,100.95 26.97,100.95 C26.9224237,100.956116 26.8746135,100.940564 26.8397403,100.907628 C26.8048671,100.874692 26.7866105,100.827848 26.79,100.78 C26.786807,100.732312 26.8081622,100.686291 26.8466394,100.657939 C26.8851165,100.629588 26.9353986,100.622824 26.98,100.64 L33.74,101.25 C34.31,102.25 36.25,102.52 36.25,102.52 C36.25,102.52 38.25,102.58 38.95,101.73 L45.71,102.34 C45.7562841,102.332046 45.803473,102.347828 45.8356595,102.382026 C45.867846,102.416224 45.8807419,102.464282 45.87,102.51 C45.8663501,102.559181 45.8402243,102.603931 45.7991908,102.631286 C45.7581573,102.658642 45.7068016,102.665547 45.66,102.65 C45.66,102.65 37.5,104.29 36.1,104.13 Z" id="Shape" fill="#FFF917" fill-rule="nonzero"></path>
                </g>
                <g id="uer-droid-tilley" transform="translate(192.000000, 0.000000)">
                    <path d="M56.63,32.18 C19.63,32.18 4.87,25.35 4.87,25.35 C4.64769998,25.5646305 4.54652215,25.8756586 4.6,26.18 C4.6,32.29 18.4,47.75 56.6,47.75 C94.8,47.75 108.95,31.89 108.95,25.98 C108.971874,25.7423426 108.908029,25.5046982 108.77,25.31 C108.14,27.31 93.94,32.18 56.63,32.18 Z" id="Shape" stroke="#333333" stroke-width="2" fill="#474943" fill-rule="nonzero"></path>
                    <path d="M94,59.26 L94,56.49 C85,56.95 72.4,57.43 58,57.42 C43.34,57.42 29,56.88 22,56.49 L22,59.26 C20,59.63 18.87,60.26 18.87,60.73 C18.87,62.47 36.38,63.73 57.72,63.73 C79.06,63.73 96.9,62.49 96.9,60.73 C96.9,60.3 96,59.63 94,59.26 Z" id="Shape" stroke="#333333" stroke-width="2" fill="#5A863D" fill-rule="nonzero"></path>
                    <path d="M16,102.73 L16,93.48 L0,93.48 L0,102.73 C0,107.48 3.25,110.96 8,110.96 C12.75,110.96 16,107.48 16,102.73 Z M116,102.73 L116,93.48 L100,93.48 L100,102.73 C100,107.48 103.25,110.96 108,110.96 C112.75,110.96 116,107.48 116,102.73 Z" id="Shape" stroke="#333333" stroke-width="2" fill="#79AB41" fill-rule="nonzero"></path>
                    <path d="M55,119.48 L55,136.48 L61,136.48 L61,119.48 L55,119.48 Z M35,133.73 L35,151.38 C35,155.798278 38.581722,159.38 43,159.38 C47.418278,159.38 51,155.798278 51,151.38 L51,136.65 C45.58226,136.215534 40.2219519,135.237278 35,133.73 Z M81,133.73 L81,151.38 C81,155.798278 77.418278,159.38 73,159.38 C68.581722,159.38 65,155.798278 65,151.38 L65,136.65 C70.4389912,136.388472 75.8192548,135.406574 81,133.73 Z" id="Shape" stroke="#333333" stroke-width="2" fill="#5C3C2D" fill-rule="nonzero"></path>
                    <path d="M108,60.54 C103.25,60.54 100,64.38 100,69.13 L100,69.49 L97,69.49 L97,60.73 C97,62.47 79.26,63.73 57.92,63.73 C36.58,63.73 19,62.49 19,60.73 L19,69.48 L16,69.48 L16,68.96 C16,64.21 12.75,60.68 8,60.68 C3.25,60.68 0,64.21 0,68.96 L0,93.69 C0,93.69 0.72,95.4 8,95.4 C15.28,95.4 16,93.69 16,93.69 L16,81.48 L18.91,81.48 L18.91,122.6 C18.91,133.18 42.04,136.72 55.04,136.72 L55.04,119.48 L61.04,119.48 L61.04,136.73 C74.04,136.73 97.04,133.01 97.04,122.43 L97.04,81.48 L100.04,81.48 L100.04,93.69 C100.04,93.69 100.76,95.4 108.04,95.4 C115.32,95.4 116.04,93.69 116.04,93.69 L116.04,69.13 C116,64.38 112.75,60.54 108,60.54 Z" id="Shape" stroke="#333333" stroke-width="2" fill="#D2D3CE" fill-rule="nonzero"></path>
                    <path d="M57.77,58.42 C40.77,58.42 25.77,57.7 21.66,57.49 C20.0266319,57.4196362 18.7503378,56.0544018 18.79,54.42 C18.79,51.8 19.9,46.82 22.87,41.42 C25.9683644,35.745794 30.4942253,30.9786458 36,27.59 L30.61,18.82 C30.2328136,18.2260327 30.0836058,17.5155192 30.19,16.82 C30.3443637,16.1301677 30.7792176,15.5358674 31.39,15.18 C31.8114142,14.9003409 32.3042914,14.7476184 32.81,14.74 C33.762248,14.7941129 34.6214569,15.3292342 35.09,16.16 L40.68,25.16 C46.0875214,22.8870581 51.9046203,21.750188 57.77,21.82 C63.836565,21.7440235 69.8647848,22.7916725 75.55,24.91 L81,16.12 C81.469366,15.3038736 82.3198987,14.7807583 83.26,14.73 C83.7657086,14.7376184 84.2585858,14.8903409 84.68,15.17 C85.2930188,15.5281223 85.7281759,16.1264634 85.88,16.82 C86.0015178,17.5472128 85.8444031,18.2935074 85.44,18.91 L80.32,27.21 C93.5,34.7 97.44,47.97 96.75,54.73 C96.6249561,56.2398503 95.3938117,57.4195183 93.88,57.48 C85.67,57.91 72.81,58.42 58.16,58.42 L57.77,58.42 Z" id="Shape" fill="#79AB41" fill-rule="nonzero"></path>
                    <path d="M83.26,15.73 C83.5784411,15.738725 83.8875483,15.8394453 84.15,16.02 C84.5369024,16.2510011 84.8084592,16.6344429 84.8979303,17.0760874 C84.9874014,17.5177319 84.8864911,17.9766304 84.62,18.34 L78.92,27.58 C92.73,34.88 96.39,48.47 95.76,54.64 C95.6843289,55.6555483 94.8576574,56.4520808 93.84,56.49 C85.01,56.95 72.42,57.42 58.17,57.42 L57.77,57.42 C43.08,57.42 29.28,56.88 21.71,56.49 C20.6090852,56.4466345 19.7505843,55.5210633 19.79,54.42 C19.84,49.01 24.43,35.28 37.4,27.94 L31.5,18.34 C31.2335089,17.9766304 31.1325986,17.5177319 31.2220697,17.0760874 C31.3115408,16.6344429 31.5830976,16.2510011 31.97,16.02 C32.2324517,15.8394453 32.5415589,15.738725 32.86,15.73 C33.449579,15.7872547 33.9749788,16.1263426 34.27,16.64 L40.34,26.46 C45.8169158,23.9958896 51.7646638,22.7537896 57.77,22.82 C63.993415,22.7218655 70.1749638,23.8535069 75.96,26.15 L81.85,16.61 C82.1450212,16.0963426 82.670421,15.7572547 83.26,15.7 L83.26,15.73 Z M83.26,13.7 C81.9624399,13.7457273 80.7814342,14.4611442 80.14,15.59 L75.14,23.68 C69.560611,21.7228743 63.6823345,20.7550061 57.77,20.82 C52.0615432,20.7614799 46.3962489,21.8143823 41.09,23.92 L35.94,15.62 C35.2985658,14.4911442 34.1175601,13.7757273 32.82,13.73 C32.1088714,13.7292141 31.4132619,13.9378969 30.82,14.33 C29.9798456,14.828638 29.3855318,15.6548791 29.18,16.61 C29.0070004,17.5805558 29.2070174,18.5806406 29.74,19.41 L34.59,27.27 C22.07,35.35 17.84,48.82 17.79,54.4 C17.7443798,56.5715889 19.4401108,58.3827361 21.61,58.48 C25.78,58.7 40.71,59.41 57.78,59.42 L58.17,59.42 C72.84,59.42 85.72,58.91 93.94,58.48 C95.9457519,58.3866868 97.5714961,56.8208384 97.74,54.82 C98.44,47.96 94.62,34.65 81.74,26.82 L86.34,19.37 C86.8729826,18.5406406 87.0729996,17.5405558 86.9,16.57 C86.6944682,15.6148791 86.1001544,14.788638 85.26,14.29 C84.6667381,13.8978969 83.9711286,13.6892141 83.26,13.69 L83.26,13.7 Z M30.75,75.95 L35.76,65.95 L34.75,72.95 L52.74,82.42 L30.75,75.95 Z M84.75,75.95 L79.76,65.95 L80.75,72.95 L62.74,82.42 L84.75,75.95 Z" id="Shape" fill="#333333" fill-rule="nonzero"></path>
                    <circle id="Oval" fill="#333333" fill-rule="nonzero" cx="66.9" cy="92.9" r="2.5"></circle>
                    <circle id="Oval" fill="#333333" fill-rule="nonzero" cx="66.9" cy="105.45" r="2.5"></circle>
                    <circle id="Oval" fill="#333333" fill-rule="nonzero" cx="66.9" cy="117.38" r="2.5"></circle>
                    <path d="M72.79,87.11 C72.79,86.37 72.79,86 73.47,86.02 C74.3104806,86.0159525 75.1494837,85.9490997 75.98,85.82 C76.7653644,85.7334954 77.543862,85.5931654 78.31,85.4 C78.76,85.29 78.81,85.72 78.81,86.24 L78.81,95.81 C78.81,95.81 79,98.88 76.36,99.47 C73.72,100.06 72.77,98.18 72.78,97.6 C72.79,97.02 72.77,87.89 72.79,87.11 Z M82.08,88.14 L81.97,94.95 L84.18,91.64 L82.08,88.14 Z M83.88,84.04 L88.29,83.11 L85.89,88.05 L83.88,84.04 Z M83.32,98.78 L87.64,97.72 L85.92,94.28 L83.32,98.78 Z M87.63,91.13 C87.63,91.13 91.12,84.32 91.5,82.7 C92.5,82.27 93.74,81.85 93.74,81.85 L93.64,95.92 C92.8778142,96.2101346 92.0999202,96.4571911 91.31,96.66 C90.31,95.76 87.63,91.13 87.63,91.13 Z" id="Shape" fill="#333333" fill-rule="nonzero"></path>
                    <polygon id="Shape" stroke="#333333" stroke-width="2" fill="#D2D3CE" fill-rule="nonzero" points="46.74 69.49 54.87 79.49 54.74 119.49 61 119.49 61 79.73 69.74 69.49 46.74 69.49"></polygon>
                    <path d="M40.06,34.1 C41.06,34.1 44.67,34.1 43.28,38.32 C41.89,42.54 37.14,43.46 37.14,43.46 C37.14,43.46 32.23,44.23 33.76,39.24 C34.835645,36.5567523 37.2154496,34.615134 40.06,34.1 Z" id="Shape" fill="#F1F0F0" fill-rule="nonzero"></path>
                    <path d="M75.2,34.1 C74.2,34.1 70.59,34.1 71.98,38.32 C73.37,42.54 78.12,43.46 78.12,43.46 C78.12,43.46 83.03,44.23 81.5,39.24 C80.424355,36.5567523 78.0445504,34.615134 75.2,34.1 Z" id="Shape" fill="#F0EFEF" fill-rule="nonzero"></path>
                    <path d="M90.86,45.99 C90.8709397,42.641992 89.9871277,39.3518639 88.3,36.46 L89.21,36.46 C89.2523831,35.9524744 89.0097345,35.4633256 88.58,35.19 C87.82,34.41 87.76,34.67 86.73,34.7 L86.21,34.7 C85.8008139,34.5820517 85.4103031,34.4069951 85.05,34.18 C83.8455811,33.7097123 82.6047979,33.3384807 81.34,33.07 C75.9070403,31.9126819 70.3887539,31.2003213 64.84,30.94 C61.1,30.71 57.37,30.67 53.62,30.74 C48.2958423,30.6824037 42.9774206,31.1074758 37.73,32.01 C35.3,32.51 32.96,33.4 30.55,33.85 C29.49,34.05 27.75,34.85 27.97,36.12 C28.4734957,35.9892907 28.9844257,35.8891084 29.5,35.82 C27.9281301,38.4124844 26.9703516,41.330288 26.7,44.35 C26.62,45.16 26.52,46.58 27.76,46.69 C27.76,46.69 33.95,47.03 35.76,46.94 C38.5,46.82 41.27,46.82 44.02,46.88 C46.26,46.93 48.48,46.88 50.65,46.82 C51.4592066,46.7609587 52.170232,46.2613192 52.5,45.52 C52.918223,44.6747814 53.1759214,43.7592741 53.26,42.82 C53.63,40.43 53.9,37.99 54.49,35.64 C54.75,34.64 54.83,34.18 55.98,34.11 C56.98,34.05 57.92,34.05 58.88,34.11 C59.5518435,34.0249015 60.2341476,34.0863089 60.88,34.29 C61.67,34.78 61.46,37.11 61.5,37.99 C61.5,39.82 61.5,41.69 61.63,43.56 L61.63,43.11 C61.69,44.51 61.69,45.73 63.19,46.35 C64.5520743,46.7307825 65.9685374,46.879528 67.38,46.79 C71.99,47 76.6,47.02 81.2,47.24 L87.58,47.57 C88.24,47.57 90.09,48.09 90.64,47.51 C90.8611902,47.0359855 90.9377138,46.5072769 90.86,45.99 Z M52.27,34.55 C51.79,36.77 51.27,38.98 50.62,41.17 C50.5171234,41.9116149 50.1643689,42.5959585 49.62,43.11 C48.7915749,43.5009516 47.8685787,43.6466878 46.96,43.53 C41.96,43.65 36.96,43.77 31.96,43.99 C31.24,43.99 29.2,44.25 28.69,43.73 C28.5072604,43.1268713 28.5072604,42.4831287 28.69,41.88 C28.93,40.88 29.18,39.83 29.51,38.88 C29.8430432,37.5437783 30.6184226,36.3595624 31.71,35.52 C33.45,34.43 36.11,34.22 38.1,33.84 C39.69,33.54 52.87,31.84 52.25,34.59 C52.17,35.01 52.3,34.41 52.27,34.55 Z M88.74,43.73 C88.74,44.99 79.09,44.03 77.98,43.94 C75.75,43.76 73.51,43.72 71.27,43.65 C70.07,43.65 68.86,43.57 67.66,43.51 C66.7524249,43.6230093 65.8367548,43.3752397 65.11,42.82 C64.6723328,42.1357376 64.4017151,41.35814 64.32,40.55 C64.04,39.37 63.78,38.18 63.53,36.99 C63.37,36.24 62.88,35.08 63.18,34.34 C63.48,33.6 64.53,33.5 65.26,33.42 C67.6512081,33.2601158 70.0522484,33.3304392 72.43,33.63 C75.0885333,33.8060154 77.7315887,34.1668877 80.34,34.71 C82.5,35.19 85.82,35.44 87.2,37.39 C87.9232166,38.5819863 88.430964,39.8919747 88.7,41.26 C88.8294044,42.0773571 88.8428703,42.9088814 88.74,43.73 Z" id="Shape" fill="#2C2C2C" fill-rule="nonzero"></path>
                    <polygon id="Shape" stroke="#333333" stroke-width="2" fill="#79AB41" fill-rule="nonzero" points="69.74 69.73 46.74 69.73 41.74 63.73 74.78 63.73"></polygon>
                    <path d="M58.5,29.71 C72.12,29.71 87.34,25.39 87.41,22.29 C87.41,22.29 87.66,3.17 83.26,2.06 C78.63,0.9 68.59,0 58.5,0 C50.3479453,0.0345783391 42.2118185,0.723457146 34.17,2.06 C29.41,2.91 29.34,18.66 29.34,22.29 C29.34,25.92 44.84,29.71 58.5,29.71 Z" id="Shape" stroke="#333333" stroke-width="2" fill="#8E9185" fill-rule="nonzero"></path>
                    <path d="M56.63,33.12 C93.94,33.12 108.14,27.79 108.8,25.59 L108.8,25 C108.53,23.89 107.07,23.26 103.29,22.73 C100.504277,22.3452256 97.6899405,22.2080225 94.88,22.32 C92.41,22.32 74.73,24.18 56.78,24.18 C38.83,24.18 21.55,22.29 18.4,22.32 C15.7948511,22.2963243 13.1905105,22.4232025 10.6,22.7 C10.6,22.7 4.66,23.44 4.84,25.53 L4.84,25.59 C5.5,27.82 19.31,33.12 56.63,33.12 Z" id="Shape" stroke="#333333" stroke-width="2.093" fill="#8E9185" fill-rule="nonzero"></path>
                    <ellipse id="Oval" fill="#333333" fill-rule="nonzero" cx="36.53" cy="8.73" rx="2" ry="2.5"></ellipse>
                    <ellipse id="Oval" fill="#333333" fill-rule="nonzero" cx="80.73" cy="8.73" rx="2" ry="2.5"></ellipse>
                    <path d="M27,83.48 L27,97.39 C27,97.39 31.51,100.73 35,100.73 C37.3643341,100.67064 39.7136184,100.335028 42,99.73 L42,86.48" id="Shape" stroke="#333333" stroke-width="2" stroke-linecap="round" stroke-linejoin="round"></path>
                    <ellipse id="Oval" fill="#333333" fill-rule="nonzero" cx="34.11" cy="87.9" rx="2.36" ry="2.5"></ellipse>
                    <path d="M27,107.48 L27,121.39 C27,121.39 31.51,124.73 35,124.73 C37.3643341,124.67064 39.7136184,124.335028 42,123.73 L42,110.48" id="Shape" stroke="#333333" stroke-width="2" stroke-linecap="round" stroke-linejoin="round"></path>
                    <ellipse id="Oval" fill="#333333" fill-rule="nonzero" cx="34.11" cy="111.9" rx="2.36" ry="2.5"></ellipse>
                </g>
                <g id="uer-droid-flash-affin" transform="translate(189.000000, 204.000000)">
                    <path d="M38.308,123.357 L38.307,141.007 C38.307,145.425 41.889,149.007 46.307,149.007 C50.725,149.007 54.307,145.425 54.307,141.007 L54.307,126.277 C48.889,125.843 43.529,124.864 38.307,123.357 L38.308,123.357 Z" id="Shape" stroke="#424242" stroke-width="2" fill="#B71C1C" fill-rule="nonzero"></path>
                    <path d="M84.308,123.357 L84.307,141.007 C84.308,145.425 80.726,149.007 76.308,149.007 C71.889,149.007 68.307,145.425 68.307,141.007 L68.308,126.277 C73.746,126.015 79.127,125.034 84.307,123.357 L84.308,123.357 Z" id="Shape" stroke="#424242" stroke-width="2" fill="#B71C1C" fill-rule="nonzero"></path>
                    <path d="M96.308,48.887 L96.307,46.117 C87.308,46.577 75.678,47.057 61.307,47.047 C46.647,47.047 32.308,46.507 25.307,46.107 L25.308,48.887 C23.308,49.257 22.308,49.677 22.308,50.107 C22.308,51.847 39.968,53.107 61.308,53.107 C82.648,53.107 100.308,51.847 100.308,50.107 C100.308,49.677 98.308,49.257 96.308,48.887 Z" id="Shape" stroke="#424242" stroke-width="2" fill="#558B2F" fill-rule="nonzero"></path>
                    <path d="M58.308,110.107 L64.307,110.107" id="Shape" stroke="#E0E0E0" stroke-width="2"></path>
                    <polygon id="Shape" stroke="#424242" stroke-width="2" fill="#B71C1C" fill-rule="nonzero" points="75.508 60.107 47.108 60.107 57.308 111.107 57.308 126.107 65.308 126.107 65.308 111.107"></polygon>
                    <g id="Clipped" transform="translate(47.000000, 61.000000)">
                        <mask id="mask-2" fill="white">
                            <use xlink:href="#path-1"></use>
                        </mask>
                        <g id="Shape"></g>
                        <g id="Group" mask="url(#mask-2)" fill-rule="nonzero">
                            <g transform="translate(2.000000, 1.000000)" id="Shape">
                                <path d="M12.108,28.447 C6.032,28.447 1.107,23.522 1.107,17.447 C1.107,11.372 6.032,6.447 12.107,6.447 C18.183,6.447 23.108,11.372 23.108,17.447 C23.107,23.522 18.183,28.447 12.107,28.447" stroke="none" fill="#FFFFFF"></path>
                                <path d="M12.108,5.867 C5.723,5.867 0.547,11.043 0.547,17.427 C0.547,23.811 5.723,28.987 12.107,28.987 C18.484,28.987 23.656,23.824 23.668,17.447 C23.673,11.057 18.497,5.873 12.107,5.867 L12.108,5.867 Z M12.109,6.977 C17.879,6.977 22.559,11.656 22.559,17.427 C22.558,23.198 17.879,27.877 12.108,27.877 C6.345,27.877 1.67,23.211 1.658,17.447 C1.648,11.676 6.318,6.988 12.089,6.977 C12.096,6.977 12.102,6.977 12.109,6.977 Z" stroke="none" fill="#FFFFFF"></path>
                                <polygon stroke="#FBC02D" stroke-width="1" fill="#FFEE58" points="20.238 0.357 7.348 15.647 11.038 15.647 5.758 24.467 9.088 24.467 4.318 34.137 17.228 19.457 14.118 19.457 18.778 11.087 15.358 11.087 20.238 0.357"></polygon>
                            </g>
                        </g>
                    </g>
                    <path d="M76.958,52.867 C72.148,53.027 66.858,53.107 61.308,53.107 C55.758,53.107 50.468,53.017 45.658,52.867 L47.108,60.107 L75.508,60.107 L76.958,52.867 Z" id="Shape" stroke="#424242" stroke-width="2" fill="#7CB342" fill-rule="nonzero"></path>
                    <path d="M65.308,110.107 L65.307,126.107 C78.448,125.937 100.308,122.367 100.308,112.057 L100.308,50.107 C100.308,51.387 90.618,52.417 76.958,52.867 L65.308,110.107 Z" id="Shape" stroke="#424242" stroke-width="2" fill="#EEEEEE" fill-rule="nonzero" stroke-linejoin="round"></path>
                    <path d="M45.658,52.867 C31.998,52.447 22.307,51.397 22.307,50.107 L22.307,112.037 C22.307,122.347 44.167,125.937 57.308,126.107 L57.308,110.107 L45.658,52.867 Z" id="Shape" stroke="#424242" stroke-width="2" fill="#EEEEEE" fill-rule="nonzero" stroke-linejoin="round"></path>
                    <circle id="Oval" fill="#9E9E9E" cx="73.308" cy="108.157" r="2.5"></circle>
                    <circle id="Oval" fill="#9E9E9E" cx="73.308" cy="119.077" r="2.5"></circle>
                    <path d="M60.308,47.127 L60.308,47.106 C46.819,47.081 33.821,46.551 25.206,46.106 C23.072,46.071 21.308,44.276 21.308,42.106 C21.357,36.604 25.509,22.93 37.937,14.904 L33.066,6.971 C32.567,6.185 32.367,5.231 32.51,4.296 C32.736,3.271 33.346,2.438 34.194,1.943 C34.727,1.587 35.405,1.377 36.103,1.367 C37.473,1.443 38.629,2.163 39.269,3.295 L44.383,11.528 C49.764,9.269 55.453,8.119 61.306,8.107 C67.205,8.107 72.967,9.187 78.449,11.317 L83.457,3.221 C84.081,2.134 85.23,1.428 86.514,1.358 C87.282,1.368 87.958,1.578 88.54,1.964 C89.343,2.431 89.953,3.269 90.164,4.233 C90.337,5.262 90.127,6.258 89.583,7.086 L85.02,14.486 C90.513,17.769 94.972,22.479 97.954,28.163 C100.902,33.833 101.617,39.197 101.303,42.327 C101.079,44.335 99.465,45.926 97.465,46.121 C89.156,46.556 76.458,47.127 61.658,47.127 L60.308,47.127 Z" id="Shape" fill="#7CB342" fill-rule="nonzero"></path>
                    <path d="M86.529,0.356 L86.46,0.36 C84.849,0.447 83.406,1.328 82.592,2.719 L78.032,10.09 C72.669,8.11 67.052,7.107 61.312,7.107 C55.605,7.118 50.057,8.185 44.787,10.282 L40.116,2.763 C39.304,1.356 37.856,0.462 36.231,0.37 L36.16,0.366 L36.088,0.367 C35.216,0.38 34.372,0.636 33.64,1.109 C32.579,1.746 31.817,2.8 31.546,4.01 L31.531,4.077 L31.521,4.144 C31.341,5.318 31.593,6.517 32.23,7.519 L36.58,14.606 C24.87,22.603 20.367,35.522 20.308,42.089 C20.308,44.805 22.492,47.04 25.185,47.106 C33.603,47.541 46.179,48.055 59.308,48.103 L59.308,48.107 L61.308,48.127 L61.658,48.127 C76.473,48.127 89.193,47.555 97.472,47.124 L97.517,47.122 L97.563,47.117 C100.03,46.876 102.02,44.912 102.296,42.449 C102.626,39.153 101.891,33.566 98.842,27.704 C95.93,22.151 91.652,17.505 86.396,14.16 L90.438,7.607 C91.107,6.572 91.364,5.334 91.161,4.117 L91.152,4.068 L91.142,4.019 C90.875,2.802 90.113,1.741 89.046,1.099 C88.315,0.627 87.47,0.37 86.598,0.357 L86.529,0.356 Z M86.568,2.357 C87.074,2.364 87.566,2.517 87.988,2.797 C88.601,3.155 89.036,3.753 89.188,4.447 C89.309,5.174 89.152,5.92 88.748,6.537 L83.628,14.837 C89.353,18.03 94.023,22.822 97.068,28.627 C99.918,34.107 100.608,39.237 100.308,42.227 C100.136,43.767 98.91,44.976 97.368,45.127 C89.098,45.557 76.368,46.127 61.658,46.127 L61.308,46.127 L61.308,46.107 C47.308,46.107 33.958,45.557 25.258,45.107 C23.621,45.08 22.308,43.744 22.308,42.107 C22.358,36.567 26.608,22.927 39.308,15.227 L33.918,6.447 C33.541,5.853 33.392,5.142 33.498,4.447 C33.652,3.757 34.087,3.163 34.698,2.807 C35.119,2.527 35.612,2.374 36.118,2.367 C37.07,2.421 37.929,2.956 38.398,3.787 L43.988,12.787 C49.443,10.372 55.342,9.119 61.308,9.107 L61.312,9.107 C67.329,9.107 73.289,10.279 78.858,12.557 L84.308,3.747 C84.777,2.931 85.628,2.408 86.568,2.357 Z" id="Shape" fill="#424242" fill-rule="nonzero"></path>
                    <path d="M43.898,21.727 C44.897,21.727 48.507,21.727 47.117,25.947 C45.727,30.167 40.977,31.087 40.977,31.087 C40.977,31.087 36.067,31.857 37.597,26.867 C38.674,24.184 41.053,22.242 43.897,21.727" id="Shape" fill="#F1F0F0" fill-rule="nonzero"></path>
                    <path d="M78.508,21.727 C77.508,21.727 73.898,21.727 75.288,25.947 C76.678,30.167 81.428,31.087 81.428,31.087 C81.428,31.087 86.338,31.857 84.808,26.867 C83.732,24.184 81.353,22.242 78.508,21.727" id="Shape" fill="#F0EFEF" fill-rule="nonzero"></path>
                    <path d="M93.508,31.567 C93.508,32.887 83.398,31.877 82.238,31.787 C79.898,31.607 77.558,31.557 75.238,31.477 C73.978,31.477 72.718,31.397 71.458,31.337 C70.538,31.337 69.458,31.337 68.778,30.587 C68.32,29.873 68.036,29.061 67.948,28.217 C67.598,26.977 67.308,25.737 67.058,24.447 C66.898,23.667 66.378,22.447 66.688,21.667 C66.998,20.887 68.108,20.787 68.858,20.667 C71.363,20.5 73.878,20.573 76.368,20.887 C79.151,21.071 81.918,21.449 84.648,22.017 C86.908,22.517 90.388,22.777 91.838,24.827 C92.595,26.075 93.126,27.445 93.408,28.877 C93.56,29.766 93.58,30.672 93.468,31.567 L93.508,31.567 Z M55.308,21.957 C54.798,24.277 54.218,26.597 53.578,28.887 C53.477,29.646 53.125,30.35 52.578,30.887 C51.713,31.297 50.748,31.45 49.798,31.327 C44.578,31.457 39.358,31.577 34.138,31.807 C33.378,31.807 31.248,32.087 30.708,31.527 C30.518,30.898 30.518,30.226 30.708,29.597 C30.958,28.527 31.228,27.447 31.568,26.407 C31.92,25.01 32.734,23.773 33.878,22.897 C35.698,21.747 38.488,21.537 40.568,21.137 C42.228,20.827 56.038,19.037 55.388,21.927 C55.168,22.447 55.308,21.807 55.308,21.957 Z M95.688,33.937 C95.703,30.424 94.778,26.971 93.008,23.937 L94.008,23.937 C94.053,23.405 93.799,22.892 93.348,22.607 C92.558,21.787 92.498,22.057 91.418,22.097 L90.818,22.097 C90.391,21.971 89.984,21.786 89.608,21.547 C88.347,21.076 87.049,20.708 85.728,20.447 C80.038,19.235 74.259,18.489 68.448,18.217 C64.528,17.977 60.628,17.927 56.698,18.007 C51.123,17.947 45.553,18.392 40.058,19.337 C37.508,19.857 35.058,20.797 32.538,21.267 C31.428,21.477 29.608,22.267 29.838,23.647 C30.351,23.513 30.872,23.41 31.398,23.337 C29.753,26.051 28.751,29.106 28.468,32.267 C28.378,33.117 28.278,34.607 29.578,34.717 C29.578,34.717 36.058,35.077 37.988,34.977 C40.878,34.827 43.748,34.807 46.628,34.867 C48.968,34.917 51.298,34.867 53.568,34.807 C54.438,34.769 55.213,34.243 55.568,33.447 C55.99,32.548 56.241,31.578 56.308,30.587 C56.698,28.087 56.978,25.527 57.598,23.067 C57.878,21.967 57.958,21.537 59.158,21.457 C60.158,21.387 61.158,21.397 62.158,21.457 C62.831,21.382 63.512,21.447 64.158,21.647 C64.988,22.157 64.768,24.647 64.798,25.527 C64.878,27.527 64.878,29.457 64.998,31.417 L64.998,30.947 C65.058,32.417 65.068,33.687 66.638,34.337 C68.062,34.735 69.543,34.89 71.018,34.797 C75.838,35.017 80.668,35.037 85.498,35.267 L92.178,35.617 C92.868,35.617 94.808,36.157 95.378,35.557 C95.643,35.061 95.751,34.496 95.688,33.937 Z" id="Shape" fill="#263238" fill-rule="nonzero"></path>
                    <path d="M80.148,74.107 L89.308,74.107 L89.308,58.107 L80.148,58.107 C75.398,58.107 71.918,61.357 71.918,66.107 C71.918,70.857 75.398,74.107 80.148,74.107 Z" id="Shape" stroke="#424242" stroke-width="2" fill="#7CB342" fill-rule="nonzero"></path>
                    <path d="M113.908,74.107 C118.658,74.107 122.187,70.857 122.187,66.107 C122.187,61.357 118.658,58.107 113.908,58.107 L89.177,58.107 C89.177,58.107 87.467,58.827 87.467,66.107 C87.467,73.387 89.177,74.107 89.177,74.107 L113.907,74.107 L113.908,74.107 Z" id="Shape" stroke="#424242" stroke-width="2" fill="#EEEEEE" fill-rule="nonzero"></path>
                    <path d="M42.957,58.107 L34.307,58.107 L34.307,74.107 L42.957,74.107 C47.707,74.107 51.187,70.857 51.187,66.107 C51.187,61.357 47.707,58.107 42.957,58.107 Z" id="Shape" stroke="#424242" stroke-width="2" fill="#7CB342" fill-rule="nonzero"></path>
                    <path d="M9.188,58.107 C4.438,58.107 0.908,61.357 0.908,66.107 C0.908,70.857 4.438,74.107 9.188,74.107 L33.918,74.107 C33.918,74.107 35.627,73.387 35.627,66.107 C35.627,58.827 33.918,58.107 33.918,58.107 L9.187,58.107 L9.188,58.107 Z" id="Shape" stroke="#424242" stroke-width="2" fill="#EEEEEE" fill-rule="nonzero"></path>
                </g>
            </g>
        </g>
    </g>
</svg>