<?xml version="1.0" encoding="UTF-8"?>
<svg width="384px" height="384px" viewBox="0 0 384 384" version="1.1" xmlns="http://www.w3.org/2000/svg" xmlns:xlink="http://www.w3.org/1999/xlink">
    <!-- Generator: Sketch 51.2 (57519) - http://www.bohemiancoding.com/sketch -->
    <title>Group 4</title>
    <desc>Created with Sketch.</desc>
    <defs></defs>
    <g id="Page-1" stroke="none" stroke-width="1" fill="none" fill-rule="evenodd">
        <g id="Group-4">
            <g id="Group-3-Copy" fill-rule="nonzero" stroke="rbga(0,0,0,0)">
                <rect id="Rectangle" x="0.5" y="0.5" width="383" height="383"></rect>
            </g>
            <g id="tag-emoji_u1f3f7-2" transform="translate(213.000000, 270.000000)">
                <path d="M3.274,54.682 C15.878,54.31 23.658,50.811 34.035,36.19" id="Shape" stroke="#6D6D6D" stroke-width="5"></path>
                <path d="M36.906,38.124 C31.815,38.124 27.687,34.024 27.687,28.966 C27.687,23.908 31.815,19.808 36.906,19.808 C41.997,19.808 46.125,23.908 46.125,28.966 C46.125,34.024 41.997,38.124 36.906,38.124 M121.156,0.072 C117.328,0.072 54.768,0.08 47.421,0.08 C44.522,0.08 22,13.097 22,16.098 L22,41.927 C22,44.491 44.71,60 47.794,60 L121.259,60 C124.186,60 127,56.856 127,53.805 L127,6.059 C127,2.92 124.984,0.072 121.156,0.072" id="Shape" fill="#FCC21B" fill-rule="nonzero"></path>
                <path d="M34.576,34.048 C35.354,34.563 36.243,34.926 37.204,35.082 C39.69,31.204 40.278,26.691 39.075,22.315 C39.036,22.175 39.013,22.034 38.971,21.895 C38.516,20.392 37.847,18.911 36.971,17.48 C36.87,17.315 36.778,17.148 36.672,16.985 C36.102,16.113 35.452,15.262 34.723,14.439 C29.264,8.277 19.471,4.406 9.898,9.649 C3.238,13.297 -0.257,19.683 0.31,27.17 C1.142,38.16 11.075,52.57 31.392,59.987 C31.675,60.09 31.964,60.138 32.249,60.138 C33.269,60.138 34.227,59.509 34.598,58.495 C35.071,57.198 34.403,55.763 33.107,55.289 C20.4,50.651 6.277,39.755 5.296,26.793 C5,22.884 5.975,17.498 12.3,14.034 C19.456,10.115 26.839,13.08 30.981,17.755 C31.271,18.082 31.551,18.437 31.824,18.804 C31.964,18.994 32.095,19.198 32.229,19.397 C33.018,20.567 33.693,21.883 34.129,23.3 C34.21,23.562 34.273,23.83 34.337,24.098 C34.958,26.7 34.747,29.543 33.067,32.246 C33.461,32.932 33.972,33.542 34.576,34.048" id="Shape" fill="#6D6D6D" fill-rule="nonzero"></path>
                <path d="M38.906,17.307 C38.245,17.307 37.602,17.375 36.971,17.48 C37.847,18.911 38.517,20.392 38.971,21.895 C39.013,22.035 39.036,22.176 39.075,22.315 C42.701,22.405 45.625,25.35 45.625,28.965 C45.625,32.637 42.611,35.623 38.906,35.623 C37.257,35.623 35.747,35.029 34.576,34.048 C33.972,33.542 33.461,32.932 33.067,32.246 C32.51,31.277 32.188,30.158 32.188,28.965 C32.188,27.043 33.018,25.314 34.337,24.098 C34.273,23.83 34.21,23.562 34.129,23.3 C33.693,21.883 33.018,20.567 32.229,19.397 C29.187,21.505 27.188,25.005 27.188,28.965 C27.188,35.393 32.445,40.623 38.906,40.623 C45.368,40.623 50.625,35.393 50.625,28.965 C50.625,22.537 45.368,17.307 38.906,17.307" id="Shape" fill="#444444" fill-rule="nonzero"></path>
                <path d="M38.289,16.861 C37.739,16.861 37.202,16.912 36.672,16.985 C37.706,18.567 38.465,20.219 38.971,21.895 C42.356,22.235 45.007,25.076 45.007,28.519 C45.007,32.191 41.994,35.177 38.289,35.177 C37.919,35.177 37.559,35.14 37.205,35.083 C35.458,34.8 33.939,33.85 32.919,32.504 C32.076,31.391 31.57,30.014 31.57,28.519 C31.57,26.405 32.574,24.521 34.13,23.3 C33.619,21.642 32.793,20.109 31.824,18.805 C28.661,20.895 26.57,24.467 26.57,28.519 C26.57,34.947 31.827,40.177 38.289,40.177 C44.75,40.177 50.007,34.947 50.007,28.519 C50.007,22.091 44.75,16.861 38.289,16.861" id="Shape" fill="#7C5E54" fill-rule="nonzero"></path>
            </g>
            <g id="ribbon-emoji_u1f397" transform="translate(65.000000, 48.000000)" fill-rule="nonzero">
                <path d="M43,84.58 C28.5,101.05 15,112 15,112 L0,94.42 C0,94.42 17.15,83.9 31.03,69.41 C34.8,74.82 38.9,79.92 43,84.58" id="Shape" fill="#FFC107"></path>
                <path d="M54.97,69.41 C50.83,65.08 46.71,60.32 43,55.23 C49.96,45.68 55.49,35 57.03,23.99 L57.03,23.98 C58.08,16.58 57.32,9.04 54,1.59 C69.03,6.41 72,20.69 72,24 C72,39.85 64.54,55.66 54.97,69.41" id="Shape" fill="#FFCA28"></path>
                <path d="M54.97,69.41 C50.83,65.08 46.71,60.32 43,55.23 C36.03,45.67 30.5,34.98 28.97,23.96 L28.95,23.96 C28.95,23.96 28.96,23.95 28.97,23.95 L28.97,23.94 C27.92,16.55 28.68,9.03 32,1.59 C16.96,6.4 14,20.69 14,24 C14,39.85 21.46,55.66 31.03,69.41 C34.8,74.82 38.9,79.92 43,84.58 C57.5,101.05 71,112 71,112 L86,94.42 C86,94.42 68.85,83.9 54.97,69.41" id="Shape" fill="#FFD54F"></path>
                <path d="M28.97,23.96 L28.95,23.96 C28.95,23.96 28.96,23.95 28.97,23.95 L28.97,23.94 C29.33,23.67 34.25,19.97 42.94,19.97 C51.69,19.97 56.72,23.74 57.03,23.98 L57.03,23.99 L57.03,23.98 C58.08,16.58 57.32,9.04 54,1.59 L53.99,1.59 C50.87,0.59 47.23,-3.55271368e-15 42.99,-3.55271368e-15 C38.75,-3.55271368e-15 35.12,0.59 32,1.59 C28.68,9.03 27.92,16.55 28.97,23.94 L28.97,23.96 Z" id="Shape" fill="#FFB300"></path>
            </g>
            <g id="movie-ticket-emoji_u1f39f-2" transform="translate(216.000000, 65.000000)">
                <path d="M127.802,17.504 L127.802,8.999 C122.852,8.999 118.802,4.949 118.802,-7.10542736e-15 L9.199,-7.10542736e-15 L9.199,0.294 C9.04,5.108 5.064,8.999 0.214,8.999 L0.214,17.504 C3.732,18.729 6.278,22.078 6.278,26 C6.278,29.921 3.732,33.27 0.214,34.495 L0.214,43.504 C3.732,44.729 6.278,48.078 6.278,51.999 C6.278,55.921 3.732,59.27 0.214,60.495 L0.214,68.999 C5.085,68.999 9.043,72.873 9.199,77.707 L9.199,77.999 L118.802,77.999 C118.802,77.997 118.802,77.995 118.802,77.993 C118.806,73.025 122.834,68.999 127.802,68.999 L127.802,60.495 C124.284,59.27 121.737,55.921 121.737,51.999 C121.737,48.078 124.284,44.729 127.802,43.504 L127.802,34.495 C124.284,33.27 121.737,29.921 121.737,25.999 C121.737,22.078 124.284,18.729 127.802,17.504" id="Shape" fill="#E06055" fill-rule="nonzero"></path>
                <path d="M107.625,69.327 L20.374,69.327 C18.793,69.327 17.5,68.033 17.5,66.452 L17.5,12.202 C17.5,10.621 18.793,9.327 20.374,9.327 L107.625,9.327 C109.206,9.327 110.5,10.621 110.5,12.202 L110.5,66.452 C110.5,68.033 109.206,69.327 107.625,69.327 Z" id="Shape" stroke="#DB4437" stroke-width="4.95"></path>
                <path d="M42.811,9.712 L42.811,69.712" id="Shape" stroke="#DB4437" stroke-width="4.95"></path>
                <path d="M84.76,9.327 L84.759,69.327" id="Shape" stroke="#DB4437" stroke-width="4.95"></path>
            </g>
            <g id="film-emoji_u1f39e" transform="translate(46.000000, 255.000000)">
                <rect id="Rectangle-path" fill="#424242" x="0" y="0" width="128" height="86"></rect>
                <path d="M0,68 L16,68 C17.105,68 18,67.105 18,66 L18,20 C18,18.895 17.105,18 16,18 L0,18 L0,68 Z" id="Shape" fill="#757575" fill-rule="nonzero"></path>
                <path d="M112,68 L128,68 L128,18 L112,18 C110.895,18 110,18.895 110,20 L110,66 C110,67.105 110.895,68 112,68" id="Shape" fill="#757575" fill-rule="nonzero"></path>
                <path d="M25,68 L103,68 C104.105,68 105,67.105 105,66 L105,20 C105,18.895 104.105,18 103,18 L25,18 C23.895,18 23,18.895 23,20 L23,66 C23,67.105 23.895,68 25,68" id="Shape" fill="#757575" fill-rule="nonzero"></path>
                <path d="M7,12.944 L1,12.943 C0.45,12.943 0,12.493 0,11.943 L0,5.943 C0,5.393 0.45,4.943 1,4.943 L7,4.943 C7.55,4.943 8,5.393 8,5.943 L8,11.943 C8,12.493 7.55,12.943 7,12.943" id="Shape" fill="#757575" fill-rule="nonzero"></path>
                <path d="M24.143,12.944 L18.143,12.943 C17.593,12.943 17.143,12.493 17.143,11.943 L17.143,5.943 C17.143,5.393 17.593,4.943 18.143,4.943 L24.143,4.943 C24.693,4.943 25.143,5.393 25.143,5.943 L25.143,11.943 C25.143,12.493 24.693,12.943 24.143,12.943" id="Shape" fill="#757575" fill-rule="nonzero"></path>
                <path d="M41.286,12.944 L35.286,12.943 C34.736,12.943 34.286,12.493 34.286,11.943 L34.286,5.943 C34.286,5.393 34.736,4.943 35.286,4.943 L41.286,4.943 C41.836,4.943 42.286,5.393 42.286,5.943 L42.286,11.943 C42.286,12.493 41.836,12.943 41.286,12.943" id="Shape" fill="#757575" fill-rule="nonzero"></path>
                <path d="M75.571,12.944 L69.571,12.943 C69.021,12.943 68.571,12.493 68.571,11.943 L68.571,5.943 C68.571,5.393 69.021,4.943 69.571,4.943 L75.571,4.943 C76.121,4.943 76.571,5.393 76.571,5.943 L76.571,11.943 C76.571,12.493 76.121,12.943 75.571,12.943" id="Shape" fill="#757575" fill-rule="nonzero"></path>
                <path d="M58.429,12.944 L52.429,12.943 C51.879,12.943 51.429,12.493 51.429,11.943 L51.429,5.943 C51.429,5.393 51.879,4.943 52.429,4.943 L58.429,4.943 C58.979,4.943 59.429,5.393 59.429,5.943 L59.429,11.943 C59.429,12.493 58.979,12.943 58.429,12.943" id="Shape" fill="#757575" fill-rule="nonzero"></path>
                <path d="M92.714,12.944 L86.714,12.943 C86.164,12.943 85.714,12.493 85.714,11.943 L85.714,5.943 C85.714,5.393 86.164,4.943 86.714,4.943 L92.714,4.943 C93.264,4.943 93.714,5.393 93.714,5.943 L93.714,11.943 C93.714,12.493 93.264,12.943 92.714,12.943" id="Shape" fill="#757575" fill-rule="nonzero"></path>
                <path d="M109.857,12.944 L103.857,12.943 C103.307,12.943 102.857,12.493 102.857,11.943 L102.857,5.943 C102.857,5.393 103.307,4.943 103.857,4.943 L109.857,4.943 C110.407,4.943 110.857,5.393 110.857,5.943 L110.857,11.943 C110.857,12.493 110.407,12.943 109.857,12.943" id="Shape" fill="#757575" fill-rule="nonzero"></path>
                <path d="M127,12.944 L121,12.943 C120.45,12.943 120,12.493 120,11.943 L120,5.943 C120,5.393 120.45,4.943 121,4.943 L127,4.943 C127.55,4.943 128,5.393 128,5.943 L128,11.943 C128,12.493 127.55,12.943 127,12.943" id="Shape" fill="#757575" fill-rule="nonzero"></path>
                <path d="M7,81 L1,81 C0.45,81 0,80.55 0,80 L0,74 C0,73.45 0.45,73 1,73 L7,73 C7.55,73 8,73.45 8,74 L8,80 C8,80.55 7.55,81 7,81" id="Shape" fill="#757575" fill-rule="nonzero"></path>
                <path d="M24.143,81 L18.143,81 C17.593,81 17.143,80.55 17.143,80 L17.143,74 C17.143,73.45 17.593,73 18.143,73 L24.143,73 C24.693,73 25.143,73.45 25.143,74 L25.143,80 C25.143,80.55 24.693,81 24.143,81" id="Shape" fill="#757575" fill-rule="nonzero"></path>
                <path d="M41.286,81 L35.286,81 C34.736,81 34.286,80.55 34.286,80 L34.286,74 C34.286,73.45 34.736,73 35.286,73 L41.286,73 C41.836,73 42.286,73.45 42.286,74 L42.286,80 C42.286,80.55 41.836,81 41.286,81" id="Shape" fill="#757575" fill-rule="nonzero"></path>
                <path d="M75.571,81 L69.571,81 C69.021,81 68.571,80.55 68.571,80 L68.571,74 C68.571,73.45 69.021,73 69.571,73 L75.571,73 C76.121,73 76.571,73.45 76.571,74 L76.571,80 C76.571,80.55 76.121,81 75.571,81" id="Shape" fill="#757575" fill-rule="nonzero"></path>
                <path d="M58.429,81 L52.429,81 C51.879,81 51.429,80.55 51.429,80 L51.429,74 C51.429,73.45 51.879,73 52.429,73 L58.429,73 C58.979,73 59.429,73.45 59.429,74 L59.429,80 C59.429,80.55 58.979,81 58.429,81" id="Shape" fill="#757575" fill-rule="nonzero"></path>
                <path d="M92.714,81 L86.714,81 C86.164,81 85.714,80.55 85.714,80 L85.714,74 C85.714,73.45 86.164,73 86.714,73 L92.714,73 C93.264,73 93.714,73.45 93.714,74 L93.714,80 C93.714,80.55 93.264,81 92.714,81" id="Shape" fill="#757575" fill-rule="nonzero"></path>
                <path d="M109.857,81 L103.857,81 C103.307,81 102.857,80.55 102.857,80 L102.857,74 C102.857,73.45 103.307,73 103.857,73 L109.857,73 C110.407,73 110.857,73.45 110.857,74 L110.857,80 C110.857,80.55 110.407,81 109.857,81" id="Shape" fill="#757575" fill-rule="nonzero"></path>
                <path d="M127,81 L121,81 C120.45,81 120,80.55 120,80 L120,74 C120,73.45 120.45,73 121,73 L127,73 C127.55,73 128,73.45 128,74 L128,80 C128,80.55 127.55,81 127,81" id="Shape" fill="#757575" fill-rule="nonzero"></path>
            </g>
        </g>
    </g>
</svg>