<?xml version="1.0" encoding="utf-8"?>
<!-- Generator: Adobe Illustrator 19.1.0, SVG Export Plug-In . SVG Version: 6.00 Build 0)  -->
<!DOCTYPE svg PUBLIC "-//W3C//DTD SVG 1.1//EN" "http://www.w3.org/Graphics/SVG/1.1/DTD/svg11.dtd">
<svg version="1.1" id="Layer_1" xmlns="http://www.w3.org/2000/svg" xmlns:xlink="http://www.w3.org/1999/xlink" x="0px" y="0px"
	 width="1215.1px" height="857.8px" viewBox="0 0 1215.1 857.8" enable-background="new 0 0 1215.1 857.8" xml:space="preserve">
<g>
	<g>
		<g>
			<path fill="#FFFFFF" stroke="#000000" stroke-width="0.9145" stroke-miterlimit="10" d="M294.5,362.6H173c-6.6,0-12-5.4-12-12
				v-156c0-6.6,5.4-12,12-12h121.6c6.6,0,12,5.4,12,12v156C306.5,357.2,301.1,362.6,294.5,362.6z"/>
			<g>
				<rect x="161" y="203.3" fill="none" width="145.6" height="65.7"/>
				<path d="M211.3,212.9v-8.4h3.6v8.8c0,3.1,1,4.1,2.7,4.1c1.8,0,2.8-1.1,2.8-4.1v-8.8h3.4v8.4c0,5.3-2.1,7.5-6.2,7.5
					C213.5,220.4,211.3,218.1,211.3,212.9z"/>
				<path d="M225.8,218.8l1.6-2.2c1.1,0.8,2.1,1.2,3.1,1.2c1.1,0,1.5-0.4,1.5-1c0-0.8-1.2-1.2-2.4-1.6c-1.4-0.6-3.1-1.5-3.1-3.5
					c0-2.2,1.8-3.7,4.6-3.7c1.8,0,3.2,0.7,4.2,1.5l-1.6,2.1c-0.9-0.6-1.7-1-2.5-1c-0.9,0-1.3,0.3-1.3,0.9c0,0.8,1.1,1.1,2.3,1.5
					c1.5,0.6,3.2,1.4,3.2,3.6c0,2.2-1.7,3.8-4.9,3.8C228.8,220.4,227,219.7,225.8,218.8z"/>
				<path d="M236.8,214.2c0-3.9,2.8-6.2,5.6-6.2c3.4,0,5.1,2.5,5.1,5.7c0,0.6-0.1,1.3-0.1,1.6h-7.1c0.3,1.7,1.5,2.5,3.1,2.5
					c0.9,0,1.7-0.3,2.6-0.8l1.2,2.1c-1.2,0.8-2.8,1.3-4.2,1.3C239.4,220.4,236.8,218.1,236.8,214.2z M244.5,212.9
					c0-1.3-0.6-2.3-2-2.3c-1.1,0-2.1,0.7-2.3,2.3H244.5z"/>
				<path d="M249.9,208.2h2.9l0.2,2.1h0.1c0.9-1.6,2.2-2.4,3.4-2.4c0.7,0,1.1,0.1,1.4,0.2l-0.6,3c-0.4-0.1-0.8-0.2-1.3-0.2
					c-0.9,0-2,0.6-2.6,2.2v6.9h-3.5V208.2z"/>
				<path d="M195.4,245.2h-4.8l-1,3.7h-3.6l4.9-15.6h4.2l4.9,15.6h-3.7L195.4,245.2z M194.7,242.4l-0.4-1.4c-0.4-1.6-0.9-3.4-1.3-5
					h-0.1c-0.4,1.7-0.8,3.5-1.2,5l-0.4,1.4H194.7z"/>
				<path d="M200.8,243c0-4,2.9-6.2,6.2-6.2c1.5,0,2.6,0.5,3.5,1.3l-1.7,2.3c-0.6-0.5-1.1-0.7-1.6-0.7c-1.7,0-2.8,1.3-2.8,3.4
					c0,2.1,1.1,3.4,2.7,3.4c0.8,0,1.5-0.4,2.1-0.9l1.4,2.3c-1.2,1-2.6,1.4-3.9,1.4C203.4,249.2,200.8,246.9,200.8,243z"/>
				<path d="M211.4,243c0-4,2.9-6.2,6.2-6.2c1.5,0,2.6,0.5,3.5,1.3l-1.7,2.3c-0.6-0.5-1.1-0.7-1.6-0.7c-1.7,0-2.8,1.3-2.8,3.4
					c0,2.1,1.1,3.4,2.7,3.4c0.8,0,1.5-0.4,2.1-0.9l1.4,2.3c-1.2,1-2.6,1.4-3.9,1.4C213.9,249.2,211.4,246.9,211.4,243z"/>
				<path d="M221.9,243c0-4,2.8-6.2,5.8-6.2c3,0,5.8,2.3,5.8,6.2s-2.8,6.2-5.8,6.2C224.7,249.2,221.9,246.9,221.9,243z M229.9,243
					c0-2.1-0.7-3.4-2.2-3.4c-1.5,0-2.2,1.3-2.2,3.4c0,2.1,0.7,3.4,2.2,3.4C229.1,246.4,229.9,245,229.9,243z"/>
				<path d="M235.8,244.4V237h3.5v6.9c0,1.7,0.5,2.3,1.5,2.3c0.9,0,1.4-0.4,2.1-1.3V237h3.5v11.9h-2.9l-0.3-1.7h-0.1
					c-1,1.2-2.1,1.9-3.7,1.9C236.9,249.2,235.8,247.4,235.8,244.4z"/>
				<path d="M249.5,237h2.9l0.2,1.5h0.1c1-1,2.2-1.8,3.8-1.8c2.6,0,3.7,1.8,3.7,4.8v7.4h-3.5V242c0-1.7-0.5-2.3-1.5-2.3
					c-0.9,0-1.4,0.4-2.2,1.2v8h-3.5V237z"/>
				<path d="M263.7,244.6v-4.8h-1.6v-2.6l1.8-0.1l0.4-3.2h2.9v3.2h2.9v2.8h-2.9v4.8c0,1.3,0.6,1.9,1.5,1.9c0.4,0,0.8-0.1,1.1-0.2
					l0.6,2.6c-0.6,0.2-1.5,0.4-2.6,0.4C264.9,249.2,263.7,247.4,263.7,244.6z"/>
				<path d="M271.2,247.6l1.6-2.2c1.1,0.8,2.1,1.2,3.1,1.2c1.1,0,1.5-0.4,1.5-1c0-0.8-1.2-1.2-2.4-1.6c-1.4-0.6-3.1-1.5-3.1-3.5
					c0-2.2,1.8-3.7,4.6-3.7c1.8,0,3.2,0.7,4.2,1.5l-1.6,2.1c-0.9-0.6-1.7-1-2.5-1c-0.9,0-1.3,0.3-1.3,0.9c0,0.8,1.1,1.1,2.3,1.5
					c1.5,0.6,3.2,1.4,3.2,3.6c0,2.2-1.7,3.8-4.9,3.8C274.2,249.2,272.4,248.5,271.2,247.6z"/>
			</g>
		</g>
		<g>
			<rect x="112.7" y="99.5" fill="none" width="242.1" height="56"/>
			<path fill="#3FA9F5" d="M197.7,100.7h5.4c3.4,0,6.2,1.2,6.2,5c0,3.7-2.8,5.3-6.1,5.3h-1.9v5.3h-3.5V100.7z M203,108.2
				c1.9,0,2.9-0.9,2.9-2.5s-1.1-2.2-3-2.2h-1.6v4.7H203z"/>
			<path fill="#3FA9F5" d="M211.7,99.5h3.5v4.1l-0.2,2.1c0.9-0.8,2.1-1.6,3.7-1.6c2.6,0,3.7,1.8,3.7,4.8v7.4h-3.5v-6.9
				c0-1.7-0.5-2.3-1.5-2.3c-0.9,0-1.4,0.4-2.2,1.2v8h-3.5V99.5z"/>
			<path fill="#3FA9F5" d="M224.9,113c0-2.5,2-3.9,6.7-4.3c-0.1-1.1-0.6-1.7-1.9-1.7c-1,0-2,0.4-3.1,1.1l-1.3-2.3
				c1.5-0.9,3.2-1.6,5.1-1.6c3,0,4.7,1.7,4.7,5.4v6.8h-2.9l-0.2-1.2h-0.1c-1,0.9-2.1,1.5-3.5,1.5C226.3,116.6,224.9,115,224.9,113z
				 M231.6,112.9v-2.1c-2.5,0.3-3.3,1.1-3.3,2c0,0.8,0.5,1.1,1.4,1.1C230.4,113.9,231,113.5,231.6,112.9z"/>
			<path fill="#3FA9F5" d="M237,115l1.6-2.2c1.1,0.8,2.1,1.2,3.1,1.2c1.1,0,1.5-0.4,1.5-1c0-0.8-1.2-1.2-2.4-1.6
				c-1.4-0.6-3.1-1.5-3.1-3.5c0-2.2,1.8-3.7,4.6-3.7c1.8,0,3.2,0.7,4.2,1.5l-1.6,2.1c-0.9-0.6-1.7-1-2.5-1c-0.9,0-1.3,0.3-1.3,0.9
				c0,0.8,1.1,1.1,2.3,1.5c1.5,0.6,3.2,1.4,3.2,3.6c0,2.2-1.7,3.8-4.9,3.8C240,116.6,238.2,116,237,115z"/>
			<path fill="#3FA9F5" d="M248,110.4c0-3.9,2.8-6.2,5.6-6.2c3.4,0,5.1,2.5,5.1,5.7c0,0.6-0.1,1.3-0.1,1.6h-7.1
				c0.3,1.7,1.5,2.5,3.1,2.5c0.9,0,1.7-0.3,2.6-0.8l1.2,2.1c-1.2,0.8-2.8,1.3-4.2,1.3C250.6,116.6,248,114.3,248,110.4z
				 M255.7,109.1c0-1.3-0.6-2.3-2-2.3c-1.1,0-2.1,0.7-2.3,2.3H255.7z"/>
			<path fill="#3FA9F5" d="M266.2,100.7h3.5v15.6h-3.5V100.7z"/>
			<path fill="#3FA9F5" d="M136.4,129.5h3.9l2.5,7c0.3,0.9,0.6,1.9,0.9,2.9h0.1c0.3-1,0.6-2,0.9-2.9l2.5-7h3.8v15.6h-3.2v-5.7
				c0-1.5,0.3-3.8,0.5-5.3h-0.1l-1.3,3.7l-2.2,6h-1.9l-2.2-6l-1.2-3.7h-0.1c0.2,1.5,0.5,3.8,0.5,5.3v5.7h-3.2V129.5z"/>
			<path fill="#3FA9F5" d="M154.1,129.6c0-1.1,0.9-1.8,2-1.8c1.2,0,2,0.7,2,1.8s-0.8,1.8-2,1.8C155,131.5,154.1,130.7,154.1,129.6z
				 M154.4,133.2h3.5v11.9h-3.5V133.2z"/>
			<path fill="#3FA9F5" d="M161,133.2h2.9l0.2,1.5h0.1c1-1,2.2-1.8,3.8-1.8c2.6,0,3.7,1.8,3.7,4.8v7.4h-3.5v-6.9
				c0-1.7-0.5-2.3-1.5-2.3c-0.9,0-1.4,0.4-2.2,1.2v8H161V133.2z"/>
			<path fill="#3FA9F5" d="M177.8,129.5h3.7l1.9,7.3c0.5,1.7,0.8,3.3,1.3,5h0.1c0.5-1.7,0.8-3.3,1.2-5l1.8-7.3h3.6l-4.7,15.6h-4.2
				L177.8,129.5z"/>
			<path fill="#3FA9F5" d="M192.6,129.6c0-1.1,0.9-1.8,2-1.8c1.2,0,2,0.7,2,1.8s-0.8,1.8-2,1.8C193.5,131.5,192.6,130.7,192.6,129.6
				z M192.9,133.2h3.5v11.9h-3.5V133.2z"/>
			<path fill="#3FA9F5" d="M199,141.8c0-2.5,2-3.9,6.7-4.3c-0.1-1.1-0.6-1.7-1.9-1.7c-1,0-2,0.4-3.1,1.1l-1.3-2.3
				c1.5-0.9,3.2-1.6,5.1-1.6c3,0,4.7,1.7,4.7,5.4v6.8h-2.9l-0.2-1.2H206c-1,0.9-2.1,1.5-3.5,1.5C200.3,145.4,199,143.8,199,141.8z
				 M205.7,141.7v-2.1c-2.5,0.3-3.3,1.1-3.3,2c0,0.8,0.5,1.1,1.4,1.1C204.5,142.7,205,142.3,205.7,141.7z"/>
			<path fill="#3FA9F5" d="M215.3,143.9L215.3,143.9l-0.4,1.3h-2.8v-16.8h3.5v4.1l-0.1,1.8c0.9-0.8,2-1.3,3.1-1.3
				c2.9,0,4.7,2.4,4.7,6c0,4.1-2.4,6.5-5,6.5C217.4,145.4,216.2,144.9,215.3,143.9z M219.8,139c0-2.1-0.6-3.2-2.1-3.2
				c-0.7,0-1.4,0.3-2,1.1v4.9c0.6,0.6,1.3,0.8,1.9,0.8C218.8,142.5,219.8,141.5,219.8,139z"/>
			<path fill="#3FA9F5" d="M225.9,141.4v-13.1h3.5v13.3c0,0.7,0.3,1,0.6,1c0.1,0,0.2,0,0.4,0l0.4,2.6c-0.4,0.2-1,0.3-1.8,0.3
				C226.7,145.4,225.9,143.8,225.9,141.4z"/>
			<path fill="#3FA9F5" d="M232.1,139.2c0-3.9,2.8-6.2,5.6-6.2c3.4,0,5.1,2.5,5.1,5.7c0,0.6-0.1,1.3-0.1,1.6h-7.1
				c0.3,1.7,1.5,2.5,3.1,2.5c0.9,0,1.7-0.3,2.6-0.8l1.2,2.1c-1.2,0.8-2.8,1.3-4.2,1.3C234.7,145.4,232.1,143.1,232.1,139.2z
				 M239.8,137.9c0-1.3-0.6-2.3-2-2.3c-1.1,0-2.1,0.7-2.3,2.3H239.8z"/>
			<path fill="#3FA9F5" d="M250.3,129.5h5.4c3.4,0,6.2,1.2,6.2,5c0,3.7-2.8,5.3-6.1,5.3h-1.9v5.3h-3.5V129.5z M255.6,137
				c1.9,0,2.9-0.9,2.9-2.5s-1.1-2.2-3-2.2h-1.6v4.7H255.6z"/>
			<path fill="#3FA9F5" d="M264.3,133.2h2.9l0.2,2.1h0.1c0.9-1.6,2.2-2.4,3.4-2.4c0.7,0,1.1,0.1,1.4,0.2l-0.6,3
				c-0.4-0.1-0.8-0.2-1.3-0.2c-0.9,0-2,0.6-2.6,2.2v6.9h-3.5V133.2z"/>
			<path fill="#3FA9F5" d="M272.9,139.2c0-4,2.8-6.2,5.8-6.2c3,0,5.8,2.3,5.8,6.2s-2.8,6.2-5.8,6.2
				C275.7,145.4,272.9,143.1,272.9,139.2z M280.9,139.2c0-2.1-0.7-3.4-2.2-3.4c-1.5,0-2.2,1.3-2.2,3.4c0,2.1,0.7,3.4,2.2,3.4
				C280.2,142.6,280.9,141.3,280.9,139.2z"/>
			<path fill="#3FA9F5" d="M286.3,139.2c0-3.9,2.4-6.2,4.9-6.2c1.3,0,2.1,0.5,2.9,1.2l-0.1-1.8v-4.1h3.5v16.8h-2.9l-0.2-1.2h-0.1
				c-0.8,0.8-2,1.5-3.2,1.5C288.2,145.4,286.3,143.1,286.3,139.2z M294.1,141.5v-4.9c-0.6-0.6-1.3-0.8-2-0.8c-1.1,0-2.1,1.1-2.1,3.3
				c0,2.4,0.8,3.4,2.2,3.4C292.9,142.5,293.5,142.3,294.1,141.5z"/>
			<path fill="#3FA9F5" d="M300.6,140.6v-7.4h3.5v6.9c0,1.7,0.5,2.3,1.5,2.3c0.9,0,1.4-0.4,2.1-1.3v-7.9h3.5v11.9h-2.9l-0.3-1.7H308
				c-1,1.2-2.1,1.9-3.7,1.9C301.7,145.4,300.6,143.6,300.6,140.6z"/>
			<path fill="#3FA9F5" d="M313.6,139.2c0-4,2.9-6.2,6.2-6.2c1.5,0,2.6,0.5,3.5,1.3l-1.7,2.3c-0.6-0.5-1.1-0.7-1.6-0.7
				c-1.7,0-2.8,1.3-2.8,3.4c0,2.1,1.1,3.4,2.7,3.4c0.8,0,1.5-0.4,2.1-0.9l1.4,2.3c-1.2,1-2.6,1.4-3.9,1.4
				C316.2,145.4,313.6,143.1,313.6,139.2z"/>
			<path fill="#3FA9F5" d="M325.8,140.8V136h-1.6v-2.6l1.8-0.1l0.4-3.2h2.9v3.2h2.9v2.8h-2.9v4.8c0,1.3,0.6,1.9,1.5,1.9
				c0.4,0,0.8-0.1,1.1-0.2l0.6,2.6c-0.6,0.2-1.5,0.4-2.6,0.4C326.9,145.4,325.8,143.6,325.8,140.8z"/>
		</g>
		<g>
			<path fill="#FFFFFF" stroke="#000000" stroke-width="0.9145" stroke-miterlimit="10" d="M294.5,727.2H173c-6.6,0-12-5.4-12-12
				v-156c0-6.6,5.4-12,12-12h121.6c6.6,0,12,5.4,12,12v156C306.5,721.8,301.1,727.2,294.5,727.2z"/>
			<g>
				<rect x="161" y="572" fill="none" width="145.6" height="65.7"/>
				<path d="M178.8,581.1c0-5.2,3.5-8.2,7.6-8.2c2.3,0,3.9,1,4.9,2l-1.8,2.3c-0.8-0.7-1.6-1.2-3-1.2c-2.4,0-4.1,1.9-4.1,5
					c0,3.2,1.5,5.1,4.4,5.1c0.6,0,1.3-0.2,1.7-0.5v-2.7h-2.6V580h5.7v7.2c-1.1,1.1-3,1.9-5.2,1.9
					C182.2,589.1,178.8,586.4,178.8,581.1z"/>
				<path d="M194.5,584.3v-7.4h3.5v6.9c0,1.7,0.5,2.3,1.5,2.3c0.9,0,1.4-0.4,2.1-1.3v-7.9h3.5v11.9h-2.9l-0.3-1.7h-0.1
					c-1,1.2-2.1,1.9-3.7,1.9C195.6,589.1,194.5,587.3,194.5,584.3z"/>
				<path d="M207.9,573.3c0-1.1,0.9-1.8,2-1.8c1.2,0,2,0.7,2,1.8s-0.8,1.8-2,1.8C208.8,575.2,207.9,574.4,207.9,573.3z M208.2,576.9
					h3.5v11.9h-3.5V576.9z"/>
				<path d="M214.2,582.9c0-3.9,2.4-6.2,4.9-6.2c1.3,0,2.1,0.5,2.9,1.2l-0.1-1.8V572h3.5v16.8h-2.9l-0.2-1.2h-0.1
					c-0.8,0.8-2,1.5-3.2,1.5C216.2,589.1,214.2,586.8,214.2,582.9z M222,585.2v-4.9c-0.6-0.6-1.3-0.8-2-0.8c-1.1,0-2.1,1.1-2.1,3.3
					c0,2.4,0.8,3.4,2.2,3.4C220.8,586.2,221.4,586,222,585.2z"/>
				<path d="M227.9,582.9c0-3.9,2.8-6.2,5.6-6.2c3.4,0,5.1,2.5,5.1,5.7c0,0.6-0.1,1.3-0.1,1.6h-7.1c0.3,1.7,1.5,2.5,3.1,2.5
					c0.9,0,1.7-0.3,2.6-0.8l1.2,2.1c-1.2,0.8-2.8,1.3-4.2,1.3C230.5,589.1,227.9,586.8,227.9,582.9z M235.6,581.6
					c0-1.3-0.6-2.3-2-2.3c-1.1,0-2.1,0.7-2.3,2.3H235.6z"/>
				<path d="M241,585.1V572h3.5v13.3c0,0.7,0.3,1,0.6,1c0.1,0,0.2,0,0.4,0l0.4,2.6c-0.4,0.2-1,0.3-1.8,0.3
					C241.9,589.1,241,587.5,241,585.1z"/>
				<path d="M247.6,573.3c0-1.1,0.9-1.8,2-1.8c1.2,0,2,0.7,2,1.8s-0.8,1.8-2,1.8C248.5,575.2,247.6,574.4,247.6,573.3z M247.9,576.9
					h3.5v11.9h-3.5V576.9z"/>
				<path d="M254.5,576.9h2.9l0.2,1.5h0.1c1-1,2.2-1.8,3.8-1.8c2.6,0,3.7,1.8,3.7,4.8v7.4h-3.5v-6.9c0-1.7-0.5-2.3-1.5-2.3
					c-0.9,0-1.4,0.4-2.2,1.2v8h-3.5V576.9z"/>
				<path d="M267.6,582.9c0-3.9,2.8-6.2,5.6-6.2c3.4,0,5.1,2.5,5.1,5.7c0,0.6-0.1,1.3-0.1,1.6H271c0.3,1.7,1.5,2.5,3.1,2.5
					c0.9,0,1.7-0.3,2.6-0.8l1.2,2.1c-1.2,0.8-2.8,1.3-4.2,1.3C270.2,589.1,267.6,586.8,267.6,582.9z M275.2,581.6
					c0-1.3-0.6-2.3-2-2.3c-1.1,0-2.1,0.7-2.3,2.3H275.2z"/>
				<path d="M279.6,587.5l1.6-2.2c1.1,0.8,2.1,1.2,3.1,1.2c1.1,0,1.5-0.4,1.5-1c0-0.8-1.2-1.2-2.4-1.6c-1.4-0.6-3.1-1.5-3.1-3.5
					c0-2.2,1.8-3.7,4.6-3.7c1.8,0,3.2,0.7,4.2,1.5l-1.6,2.1c-0.9-0.6-1.7-1-2.5-1c-0.9,0-1.3,0.3-1.3,0.9c0,0.8,1.1,1.1,2.3,1.5
					c1.5,0.6,3.2,1.4,3.2,3.6c0,2.2-1.7,3.8-4.9,3.8C282.6,589.1,280.8,588.5,279.6,587.5z"/>
			</g>
			<g>
				<g>
					<path fill="#DBDADA" d="M280.7,653.9h-73.1c-0.7,0-1.3-0.6-1.3-1.3v-6.5c0-0.7,0.6-1.3,1.3-1.3h73.1c0.7,0,1.3,0.6,1.3,1.3v6.5
						C282.1,653.3,281.5,653.9,280.7,653.9z"/>
					<path fill="#DBDADA" d="M280.7,671h-73.1c-0.7,0-1.3-0.6-1.3-1.3v-6.5c0-0.7,0.6-1.3,1.3-1.3h73.1c0.7,0,1.3,0.6,1.3,1.3v6.5
						C282.1,670.4,281.5,671,280.7,671z"/>
					<path fill="#DBDADA" d="M280.7,688.1h-73.1c-0.7,0-1.3-0.6-1.3-1.3v-6.5c0-0.7,0.6-1.3,1.3-1.3h73.1c0.7,0,1.3,0.6,1.3,1.3v6.5
						C282.1,687.5,281.5,688.1,280.7,688.1z"/>
				</g>
				<g>
					<path fill="#DBDADA" d="M194.6,653.9h-7.9c-0.7,0-1.3-0.6-1.3-1.3v-6.5c0-0.7,0.6-1.3,1.3-1.3h7.9c0.7,0,1.3,0.6,1.3,1.3v6.5
						C196,653.3,195.4,653.9,194.6,653.9z"/>
					<path fill="#DBDADA" d="M194.6,671h-7.9c-0.7,0-1.3-0.6-1.3-1.3v-6.5c0-0.7,0.6-1.3,1.3-1.3h7.9c0.7,0,1.3,0.6,1.3,1.3v6.5
						C196,670.4,195.4,671,194.6,671z"/>
					<path fill="#DBDADA" d="M194.6,688.1h-7.9c-0.7,0-1.3-0.6-1.3-1.3v-6.5c0-0.7,0.6-1.3,1.3-1.3h7.9c0.7,0,1.3,0.6,1.3,1.3v6.5
						C196,687.5,195.4,688.1,194.6,688.1z"/>
				</g>
			</g>
		</g>
		<g>
			<path fill="none" stroke="#3FA9F5" stroke-width="3" stroke-miterlimit="10" stroke-dasharray="23.9652,11.9826" d="M342.8,770.8
				H124.7c-6.6,0-12-5.4-12-12V97.9c0-6.6,5.4-12,12-12h218.1c6.6,0,12,5.4,12,12v660.9C354.8,765.4,349.4,770.8,342.8,770.8z"/>
		</g>
		<g>
			<g>
				<rect x="214" y="403.1" fill="none" width="92.6" height="106.3"/>
				<path d="M215.7,404.2h1.7l0.6,7.6c0.1,1.5,0.3,3,0.3,4.5h0.1c0.7-1.5,1.4-3.1,2.2-4.5l3.8-7.6h1.8l-7.2,13.8h-2L215.7,404.2z"/>
				<path d="M227.1,407.8h1.6l-2.1,10.2H225L227.1,407.8z M227.4,404.7c0-0.7,0.6-1.2,1.2-1.2c0.5,0,1,0.4,1,1
					c0,0.7-0.6,1.2-1.2,1.2C227.9,405.7,227.4,405.4,227.4,404.7z"/>
				<path d="M235.6,407.6c2.3,0,3.1,1.6,3.1,3.7c0,0.8-0.2,1.6-0.4,2h-6.6c-0.4,2.6,1,3.7,2.8,3.7c0.8,0,1.6-0.4,2.3-0.9l0.6,1.1
					c-0.8,0.6-2,1.1-3.3,1.1c-2.4,0-4-1.5-4-4.3C230.1,410.2,232.9,407.6,235.6,407.6z M237.3,412.2c0.1-0.3,0.1-0.7,0.1-1
					c0-1.2-0.5-2.3-2-2.3c-1.5,0-3,1.3-3.5,3.3H237.3z"/>
				<path d="M240.6,407.8h1.6l0.3,6l0.1,2.9h0.1c0.4-0.9,0.8-1.9,1.2-2.9l2.7-6h1.6l0.4,6c0,1,0.1,1.9,0.1,2.9h0.1
					c0.4-0.9,0.7-1.9,1.2-2.9l2.7-6h1.5l-4.6,10.2h-2l-0.3-5.6l-0.1-3H247c-0.4,1-0.8,2-1.2,3l-2.5,5.6h-1.9L240.6,407.8z"/>
				<path d="M214.2,441l1.2-0.9c0.8,1.2,2,2,3.5,2c1.7,0,3-1,3-2.6c0-1-0.7-1.6-1.7-2.3l-1.6-1c-1.2-0.7-2.1-1.7-2.1-3.2
					c0-2.1,1.8-3.8,4.3-3.8c1.6,0,3,0.8,3.9,1.9l-1.1,1c-0.7-0.8-1.7-1.5-3-1.5c-1.6,0-2.5,1.1-2.5,2.2c0,1.1,0.8,1.6,1.8,2.2
					l1.6,0.9c1.3,0.8,2.1,1.7,2.1,3.2c0,2.5-2,4.2-4.8,4.2C216.9,443.5,215.3,442.7,214.2,441z"/>
				<path d="M225.4,439.4c0-3.9,2.7-6.6,5.5-6.6c2.2,0,3.7,1.6,3.7,4.1c0,3.9-2.7,6.6-5.5,6.6C226.8,443.5,225.4,441.9,225.4,439.4z
					 M232.9,437c0-1.8-0.8-2.9-2.2-2.9c-1.9,0-3.7,2.3-3.7,5.2c0,1.8,0.8,2.9,2.2,2.9C231.1,442.1,232.9,439.8,232.9,437z"/>
				<path d="M238.1,433h1.3l-0.2,2h0.1c0.8-1.2,1.9-2.2,3.2-2.2c0.4,0,0.7,0.1,1,0.2l-0.6,1.4c-0.2-0.1-0.5-0.2-0.9-0.2
					c-1,0-2.1,0.9-3,2.6l-1.3,6.4H236L238.1,433z"/>
				<path d="M244,441.2c0-0.4,0.1-0.8,0.1-1.1l1.2-5.8h-1.5l0.2-1.2l1.6-0.1l0.8-2.8h1.4l-0.6,2.8h2.6l-0.3,1.3h-2.6l-1.2,5.8
					c0,0.3-0.1,0.5-0.1,0.8c0,0.8,0.3,1.3,1.3,1.3c0.4,0,0.8-0.2,1.1-0.3l0.4,1.2c-0.5,0.2-1.1,0.5-1.9,0.5
					C244.7,443.5,244,442.5,244,441.2z"/>
				<path d="M214.2,466.2l1.2-0.9c0.8,1.2,2,2,3.5,2c1.7,0,3-1,3-2.6c0-1-0.7-1.6-1.7-2.3l-1.6-1c-1.2-0.7-2.1-1.7-2.1-3.2
					c0-2.1,1.8-3.8,4.3-3.8c1.6,0,3,0.8,3.9,1.9l-1.1,1c-0.7-0.8-1.7-1.5-3-1.5c-1.6,0-2.5,1.1-2.5,2.2c0,1.1,0.8,1.6,1.8,2.2
					l1.6,0.9c1.3,0.8,2.1,1.7,2.1,3.2c0,2.5-2,4.2-4.8,4.2C216.9,468.7,215.3,467.9,214.2,466.2z"/>
				<path d="M230.8,458c2.3,0,3.1,1.6,3.1,3.7c0,0.8-0.2,1.6-0.4,2H227c-0.4,2.6,1,3.7,2.8,3.7c0.8,0,1.6-0.4,2.3-0.9l0.6,1.1
					c-0.8,0.6-2,1.1-3.3,1.1c-2.4,0-4-1.5-4-4.3C225.4,460.6,228.2,458,230.8,458z M232.5,462.6c0.1-0.3,0.1-0.7,0.1-1
					c0-1.2-0.5-2.3-2-2.3c-1.5,0-3,1.3-3.5,3.3H232.5z"/>
				<path d="M235.5,465c0-3.9,2.7-7,5.5-7c1.1,0,2,0.6,2.5,1.5h0.1l0.4-1.3h1.3l-2,10.2h-1.3l0.2-1.5H242c-1,1-2.3,1.8-3.5,1.8
					C236.7,468.7,235.5,467.4,235.5,465z M242.2,465.4l0.9-4.6c-0.6-1.1-1.3-1.5-2.1-1.5c-2,0-3.9,2.6-3.9,5.4
					c0,1.8,0.7,2.6,1.9,2.6C240.1,467.3,241.2,466.7,242.2,465.4z"/>
				<path d="M248.6,458.2h1.3l-0.2,2h0.1c0.8-1.2,1.9-2.2,3.2-2.2c0.4,0,0.7,0.1,1,0.2l-0.6,1.4c-0.2-0.1-0.5-0.2-0.9-0.2
					c-1,0-2.1,0.9-3,2.6l-1.3,6.4h-1.6L248.6,458.2z"/>
				<path d="M253.7,464.6c0-3.8,2.7-6.6,5.7-6.6c1.2,0,2,0.5,2.6,1.2l-0.9,1c-0.5-0.6-1-0.9-1.8-0.9c-2,0-3.9,2.4-3.9,5.2
					c0,1.8,0.8,2.9,2.4,2.9c0.9,0,1.6-0.4,2.3-0.9l0.7,1c-0.7,0.6-1.8,1.2-3.3,1.2C255.2,468.7,253.7,467.2,253.7,464.6z"/>
				<path d="M265.7,453.5h1.6l-1,4.9l-0.3,1.3h0.1c1.2-1,2.3-1.7,3.5-1.7c1.7,0,2.4,1,2.4,2.5c0,0.5,0,0.8-0.2,1.4l-1.3,6.5h-1.6
					l1.3-6.3c0.1-0.5,0.2-0.8,0.2-1.2c0-1-0.5-1.6-1.5-1.6c-0.8,0-1.8,0.6-3.1,1.8l-1.4,7.2h-1.6L265.7,453.5z"/>
				<path d="M217.4,479.8h7.6l-0.3,1.4h-6l-0.9,4.5h5.1l-0.3,1.4h-5l-1.1,5.2h6.2l-0.3,1.4h-7.8L217.4,479.8z"/>
				<path d="M233.7,482.7l0.8-4h1.6l-3,14.9h-1.3l0.2-1.5h-0.1c-1,1-2.3,1.8-3.5,1.8c-1.8,0-2.9-1.3-2.9-3.7c0-3.9,2.7-7,5.5-7
					c1.1,0,1.9,0.6,2.4,1.5h0.1L233.7,482.7z M232.1,490.6l0.9-4.6c-0.6-1.1-1.3-1.5-2.1-1.5c-2,0-3.9,2.6-3.9,5.4
					c0,1.8,0.7,2.6,1.9,2.6C229.9,492.5,231,491.9,232.1,490.6z"/>
				<path d="M238.4,483.4h1.6l-2.1,10.2h-1.6L238.4,483.4z M238.8,480.3c0-0.7,0.6-1.2,1.2-1.2c0.5,0,1,0.4,1,1
					c0,0.7-0.6,1.2-1.2,1.2C239.3,481.3,238.8,481,238.8,480.3z"/>
				<path d="M242.2,491.6c0-0.4,0.1-0.8,0.1-1.1l1.2-5.8H242l0.2-1.2l1.6-0.1l0.8-2.8h1.4l-0.6,2.8h2.6l-0.3,1.3h-2.6l-1.2,5.8
					c0,0.3-0.1,0.5-0.1,0.8c0,0.8,0.3,1.3,1.3,1.3c0.4,0,0.8-0.2,1.1-0.3l0.4,1.2c-0.5,0.2-1.1,0.5-1.9,0.5
					C242.8,493.9,242.2,492.9,242.2,491.6z"/>
			</g>
			<g>
				<g>
					<line fill="none" stroke="#000000" stroke-miterlimit="10" x1="185" y1="400.9" x2="185" y2="507.9"/>
					<g>
						<polygon points="180.5,501.8 185.5,506.9 190.5,501.8 190.5,506.1 185.5,511.2 180.5,506.1 						"/>
					</g>
				</g>
			</g>
		</g>
	</g>
	<g>
		<g>
			<rect x="510.4" y="99.5" fill="none" width="249.7" height="56"/>
			<path fill="#7AC943" d="M595.6,100.7h5.4c3.4,0,6.2,1.2,6.2,5c0,3.7-2.8,5.3-6.1,5.3h-1.9v5.3h-3.5V100.7z M600.9,108.2
				c1.9,0,2.9-0.9,2.9-2.5c0-1.6-1.1-2.2-3-2.2h-1.6v4.7H600.9z"/>
			<path fill="#7AC943" d="M609.7,99.5h3.5v4.1l-0.2,2.1c0.9-0.8,2.1-1.6,3.7-1.6c2.6,0,3.7,1.8,3.7,4.8v7.4h-3.5v-6.9
				c0-1.7-0.5-2.3-1.5-2.3c-0.9,0-1.4,0.4-2.2,1.2v8h-3.5V99.5z"/>
			<path fill="#7AC943" d="M622.8,113c0-2.5,2-3.9,6.7-4.3c-0.1-1.1-0.6-1.7-1.9-1.7c-1,0-2,0.4-3.1,1.1l-1.3-2.3
				c1.5-0.9,3.2-1.6,5.1-1.6c3,0,4.7,1.7,4.7,5.4v6.8h-2.9l-0.2-1.2h-0.1c-1,0.9-2.1,1.5-3.5,1.5C624.2,116.6,622.8,115,622.8,113z
				 M629.5,112.9v-2.1c-2.5,0.3-3.3,1.1-3.3,2c0,0.8,0.5,1.1,1.4,1.1C628.4,113.9,628.9,113.5,629.5,112.9z"/>
			<path fill="#7AC943" d="M635,115l1.6-2.2c1.1,0.8,2.1,1.2,3.1,1.2c1.1,0,1.5-0.4,1.5-1c0-0.8-1.2-1.2-2.4-1.6
				c-1.4-0.6-3.1-1.5-3.1-3.5c0-2.2,1.8-3.7,4.6-3.7c1.8,0,3.2,0.7,4.2,1.5l-1.6,2.1c-0.9-0.6-1.7-1-2.5-1c-0.9,0-1.3,0.3-1.3,0.9
				c0,0.8,1.1,1.1,2.3,1.5c1.5,0.6,3.2,1.4,3.2,3.6c0,2.2-1.7,3.8-4.9,3.8C638,116.6,636.2,116,635,115z"/>
			<path fill="#7AC943" d="M645.9,110.4c0-3.9,2.8-6.2,5.6-6.2c3.4,0,5.1,2.5,5.1,5.7c0,0.6-0.1,1.3-0.1,1.6h-7.1
				c0.3,1.7,1.5,2.5,3.1,2.5c0.9,0,1.7-0.3,2.6-0.8l1.2,2.1c-1.2,0.8-2.8,1.3-4.2,1.3C648.6,116.6,645.9,114.3,645.9,110.4z
				 M653.6,109.1c0-1.3-0.6-2.3-2-2.3c-1.1,0-2.1,0.7-2.3,2.3H653.6z"/>
			<path fill="#7AC943" d="M664.2,100.7h3.5v15.6h-3.5V100.7z"/>
			<path fill="#7AC943" d="M671.4,100.7h3.5v15.6h-3.5V100.7z"/>
			<path fill="#7AC943" d="M542.4,137.4c0-5.2,3.5-8.2,7.6-8.2c2.3,0,3.9,1,4.9,2l-1.8,2.3c-0.8-0.7-1.6-1.2-3-1.2
				c-2.4,0-4.1,1.9-4.1,5c0,3.2,1.5,5.1,4.4,5.1c0.6,0,1.3-0.2,1.7-0.5v-2.7h-2.6v-2.9h5.7v7.2c-1.1,1.1-3,1.9-5.2,1.9
				C545.8,145.4,542.4,142.7,542.4,137.4z"/>
			<path fill="#7AC943" d="M558.2,133.2h2.9l0.2,2.1h0.1c0.9-1.6,2.2-2.4,3.4-2.4c0.7,0,1.1,0.1,1.4,0.2l-0.6,3
				c-0.4-0.1-0.8-0.2-1.3-0.2c-0.9,0-2,0.6-2.6,2.2v6.9h-3.5V133.2z"/>
			<path fill="#7AC943" d="M566.8,139.2c0-3.9,2.8-6.2,5.6-6.2c3.4,0,5.1,2.5,5.1,5.7c0,0.6-0.1,1.3-0.1,1.6h-7.1
				c0.3,1.7,1.5,2.5,3.1,2.5c0.9,0,1.7-0.3,2.6-0.8l1.2,2.1c-1.2,0.8-2.8,1.3-4.2,1.3C569.4,145.4,566.8,143.1,566.8,139.2z
				 M574.5,137.9c0-1.3-0.6-2.3-2-2.3c-1.1,0-2.1,0.7-2.3,2.3H574.5z"/>
			<path fill="#7AC943" d="M579.2,139.2c0-3.9,2.8-6.2,5.6-6.2c3.4,0,5.1,2.5,5.1,5.7c0,0.6-0.1,1.3-0.1,1.6h-7.1
				c0.3,1.7,1.5,2.5,3.1,2.5c0.9,0,1.7-0.3,2.6-0.8l1.2,2.1c-1.2,0.8-2.8,1.3-4.2,1.3C581.8,145.4,579.2,143.1,579.2,139.2z
				 M586.9,137.9c0-1.3-0.6-2.3-2-2.3c-1.1,0-2.1,0.7-2.3,2.3H586.9z"/>
			<path fill="#7AC943" d="M592.4,133.2h2.9l0.2,1.5h0.1c1-1,2.2-1.8,3.8-1.8c2.6,0,3.7,1.8,3.7,4.8v7.4h-3.5v-6.9
				c0-1.7-0.5-2.3-1.5-2.3c-0.9,0-1.4,0.4-2.2,1.2v8h-3.5V133.2z"/>
			<path fill="#7AC943" d="M618.5,141.4h-4.8l-1,3.7h-3.6l4.9-15.6h4.2l4.9,15.6h-3.7L618.5,141.4z M617.8,138.7l-0.4-1.4
				c-0.4-1.6-0.9-3.4-1.3-5h-0.1c-0.4,1.7-0.8,3.5-1.2,5l-0.4,1.4H617.8z"/>
			<path fill="#7AC943" d="M623.9,139.2c0-4,2.9-6.2,6.2-6.2c1.5,0,2.6,0.5,3.5,1.3l-1.7,2.3c-0.6-0.5-1.1-0.7-1.6-0.7
				c-1.7,0-2.8,1.3-2.8,3.4c0,2.1,1.1,3.4,2.7,3.4c0.8,0,1.5-0.4,2.1-0.9l1.4,2.3c-1.2,1-2.6,1.4-3.9,1.4
				C626.5,145.4,623.9,143.1,623.9,139.2z"/>
			<path fill="#7AC943" d="M636.1,140.8V136h-1.6v-2.6l1.8-0.1l0.4-3.2h2.9v3.2h2.9v2.8h-2.9v4.8c0,1.3,0.6,1.9,1.5,1.9
				c0.4,0,0.8-0.1,1.1-0.2l0.6,2.6c-0.6,0.2-1.5,0.4-2.6,0.4C637.2,145.4,636.1,143.6,636.1,140.8z"/>
			<path fill="#7AC943" d="M644.5,129.6c0-1.1,0.9-1.8,2-1.8c1.2,0,2,0.7,2,1.8s-0.8,1.8-2,1.8C645.4,131.5,644.5,130.7,644.5,129.6
				z M644.8,133.2h3.5v11.9h-3.5V133.2z"/>
			<path fill="#7AC943" d="M650.7,139.2c0-4,2.8-6.2,5.8-6.2c3,0,5.8,2.3,5.8,6.2c0,4-2.8,6.2-5.8,6.2
				C653.5,145.4,650.7,143.1,650.7,139.2z M658.7,139.2c0-2.1-0.7-3.4-2.2-3.4c-1.5,0-2.2,1.3-2.2,3.4c0,2.1,0.7,3.4,2.2,3.4
				C658,142.6,658.7,141.3,658.7,139.2z"/>
			<path fill="#7AC943" d="M664.7,133.2h2.9l0.2,1.5h0.1c1-1,2.2-1.8,3.8-1.8c2.6,0,3.7,1.8,3.7,4.8v7.4h-3.5v-6.9
				c0-1.7-0.5-2.3-1.5-2.3c-0.9,0-1.4,0.4-2.2,1.2v8h-3.5V133.2z"/>
			<path fill="#7AC943" d="M683.6,129.5h5.4c3.4,0,6.2,1.2,6.2,5c0,3.7-2.8,5.3-6.1,5.3h-1.9v5.3h-3.5V129.5z M688.8,137
				c1.9,0,2.9-0.9,2.9-2.5c0-1.6-1.1-2.2-3-2.2h-1.6v4.7H688.8z"/>
			<path fill="#7AC943" d="M697.6,141.4v-13.1h3.5v13.3c0,0.7,0.3,1,0.6,1c0.1,0,0.2,0,0.4,0l0.4,2.6c-0.4,0.2-1,0.3-1.8,0.3
				C698.4,145.4,697.6,143.8,697.6,141.4z"/>
			<path fill="#7AC943" d="M703.9,141.8c0-2.5,2-3.9,6.7-4.3c-0.1-1.1-0.6-1.7-1.9-1.7c-1,0-2,0.4-3.1,1.1l-1.3-2.3
				c1.5-0.9,3.2-1.6,5.1-1.6c3,0,4.7,1.7,4.7,5.4v6.8h-2.9l-0.2-1.2h-0.1c-1,0.9-2.1,1.5-3.5,1.5
				C705.2,145.4,703.9,143.8,703.9,141.8z M710.6,141.7v-2.1c-2.5,0.3-3.3,1.1-3.3,2c0,0.8,0.5,1.1,1.4,1.1
				C709.4,142.7,710,142.3,710.6,141.7z"/>
			<path fill="#7AC943" d="M717.1,133.2h2.9l0.2,1.5h0.1c1-1,2.2-1.8,3.8-1.8c2.6,0,3.7,1.8,3.7,4.8v7.4h-3.5v-6.9
				c0-1.7-0.5-2.3-1.5-2.3c-0.9,0-1.4,0.4-2.2,1.2v8h-3.5V133.2z"/>
		</g>
		<g>
			<path fill="#FFFFFF" stroke="#000000" stroke-width="0.9145" stroke-miterlimit="10" d="M560.1,727.8H438.5c-6.6,0-12-5.4-12-12
				v-156c0-6.6,5.4-12,12-12h121.6c6.6,0,12,5.4,12,12v156C572.1,722.4,566.7,727.8,560.1,727.8z"/>
			<g>
				<rect x="426.5" y="568.5" fill="none" width="145.6" height="26.3"/>
				<path d="M491.6,589.2c-0.6,0.3-1.6,0.5-2.8,0.5c-3.3,0-5.7-1.8-6.8-4.2c-3.3-0.7-5.5-3.6-5.5-8c0-5.1,2.9-8,7.1-8
					c4.2,0,7.1,3,7.1,8c0,4.2-1.9,7-5,7.9c0.7,1.1,2.1,1.5,3.4,1.5c0.7,0,1.3-0.1,1.7-0.3L491.6,589.2z M483.6,582.7
					c2.1,0,3.5-2,3.5-5.3c0-3.1-1.3-5-3.5-5c-2.1,0-3.5,1.9-3.5,5C480.1,580.8,481.5,582.7,483.6,582.7z"/>
				<path d="M493.3,580.8v-7.4h3.5v6.9c0,1.7,0.5,2.3,1.5,2.3c0.9,0,1.4-0.4,2.1-1.3v-7.9h3.5v11.9h-2.9l-0.3-1.7h-0.1
					c-1,1.2-2.1,1.9-3.7,1.9C494.4,585.6,493.3,583.8,493.3,580.8z"/>
				<path d="M506.7,569.8c0-1.1,0.9-1.8,2-1.8c1.2,0,2,0.7,2,1.8s-0.8,1.8-2,1.8C507.6,571.7,506.7,570.9,506.7,569.8z M507,573.4
					h3.5v11.9H507V573.4z"/>
				<path d="M513,583.4l5-7.2h-4.4v-2.8h8.8v1.9l-5,7.3h5.2v2.8H513V583.4z"/>
			</g>
			<g>
				<rect x="426.5" y="626.2" fill="none" width="145.6" height="53.9"/>
				<path fill="#B8B5B5" d="M455.5,635.5l-3.9-8.2h2.5l1.4,3.3c0.4,1,0.7,1.9,1.2,2.9h0.1c0.4-1,0.8-1.9,1.2-2.9l1.4-3.3h2.4
					l-3.9,8.2v4.9h-2.3V635.5z"/>
				<path fill="#B8B5B5" d="M461.5,635.4c0-3.3,2.2-5.2,4.7-5.2c2.5,0,4.7,1.9,4.7,5.2c0,3.3-2.2,5.1-4.7,5.1
					C463.8,640.6,461.5,638.7,461.5,635.4z M468.5,635.4c0-2-0.9-3.3-2.3-3.3c-1.4,0-2.3,1.3-2.3,3.3c0,2,0.9,3.3,2.3,3.3
					C467.6,638.7,468.5,637.4,468.5,635.4z"/>
				<path fill="#B8B5B5" d="M473.1,636.7v-6.2h2.3v5.9c0,1.6,0.5,2.2,1.5,2.2c0.9,0,1.4-0.4,2.2-1.4v-6.7h2.3v9.8h-1.9l-0.2-1.4
					h-0.1c-0.9,1-1.8,1.7-3.2,1.7C474,640.6,473.1,639.1,473.1,636.7z"/>
				<path fill="#B8B5B5" d="M484.2,631.5c1.1-0.6,1.7-1.3,1.7-2.5c-0.1,0-0.1,0-0.2,0c-0.7,0-1.3-0.5-1.3-1.2c0-0.8,0.5-1.4,1.3-1.4
					c1,0,1.6,0.8,1.6,2.2c0,1.7-0.8,3.1-2.5,3.9L484.2,631.5z"/>
				<path fill="#B8B5B5" d="M489.6,630.5h1.9l0.2,1.7h0.1c0.7-1.3,1.7-2,2.8-2c0.5,0,0.8,0.1,1.1,0.2l-0.4,2c-0.3-0.1-0.6-0.2-1-0.2
					c-0.8,0-1.7,0.5-2.3,2v6h-2.3V630.5z"/>
				<path fill="#B8B5B5" d="M496.2,635.4c0-3.2,2.2-5.2,4.5-5.2c2.7,0,4.1,1.9,4.1,4.7c0,0.4,0,0.9-0.1,1.1h-6.2
					c0.2,1.7,1.3,2.7,2.9,2.7c0.8,0,1.6-0.3,2.3-0.7l0.8,1.4c-0.9,0.6-2.1,1.1-3.4,1.1C498.4,640.6,496.2,638.7,496.2,635.4z
					 M502.8,634.5c0-1.5-0.7-2.4-2-2.4c-1.2,0-2.2,0.9-2.4,2.4H502.8z"/>
				<path fill="#B8B5B5" d="M510,638.8l1.1-1.5c0.8,0.8,1.7,1.4,3,1.4c1.4,0,2.3-0.7,2.3-1.9c0-1.3-0.8-2.2-3.7-2.2v-1.7
					c2.5,0,3.3-0.9,3.3-2c0-1.1-0.7-1.7-1.9-1.7c-1,0-1.8,0.5-2.6,1.2l-1.2-1.4c1.1-1,2.3-1.6,3.8-1.6c2.4,0,4.1,1.2,4.1,3.4
					c0,1.4-0.8,2.4-2.2,2.9v0.1c1.5,0.4,2.6,1.5,2.6,3.2c0,2.3-2,3.7-4.5,3.7C512.3,640.6,510.9,639.8,510,638.8z"/>
				<path fill="#B8B5B5" d="M520.3,638.8l1.1-1.5c0.8,0.8,1.7,1.4,3,1.4c1.4,0,2.3-0.7,2.3-1.9c0-1.3-0.8-2.2-3.7-2.2v-1.7
					c2.5,0,3.3-0.9,3.3-2c0-1.1-0.7-1.7-1.9-1.7c-1,0-1.8,0.5-2.6,1.2l-1.2-1.4c1.1-1,2.3-1.6,3.8-1.6c2.4,0,4.1,1.2,4.1,3.4
					c0,1.4-0.8,2.4-2.2,2.9v0.1c1.5,0.4,2.6,1.5,2.6,3.2c0,2.3-2,3.7-4.5,3.7C522.6,640.6,521.2,639.8,520.3,638.8z"/>
				<path fill="#B8B5B5" d="M530.7,631.1c0-2.6,1.3-4.1,3.1-4.1s3.1,1.5,3.1,4.1c0,2.6-1.3,4.2-3.1,4.2S530.7,633.8,530.7,631.1z
					 M535.3,631.1c0-2-0.6-2.8-1.5-2.8c-0.8,0-1.5,0.8-1.5,2.8c0,2,0.6,2.8,1.5,2.8C534.6,633.9,535.3,633.1,535.3,631.1z
					 M541.4,627h1.4l-7.1,13.6h-1.4L541.4,627z M540.1,636.4c0-2.6,1.3-4.1,3.1-4.1c1.8,0,3.1,1.5,3.1,4.1c0,2.6-1.3,4.2-3.1,4.2
					C541.3,640.6,540.1,639,540.1,636.4z M544.6,636.4c0-2-0.6-2.8-1.5-2.8c-0.8,0-1.5,0.8-1.5,2.8c0,2,0.6,2.8,1.5,2.8
					C544,639.2,544.6,638.4,544.6,636.4z"/>
				<path fill="#B8B5B5" d="M475.2,659.4c0-3.2,2-5.2,4.2-5.2c1.1,0,1.8,0.4,2.6,1.1l-0.1-1.6v-3.6h2.3v14.1h-1.9l-0.2-1.1H482
					c-0.7,0.7-1.7,1.3-2.8,1.3C476.8,664.6,475.2,662.7,475.2,659.4z M481.8,661.6V657c-0.7-0.6-1.3-0.8-2-0.8
					c-1.3,0-2.3,1.2-2.3,3.2c0,2.1,0.8,3.3,2.2,3.3C480.5,662.7,481.2,662.3,481.8,661.6z"/>
				<path fill="#B8B5B5" d="M486.4,659.4c0-3.3,2.2-5.2,4.7-5.2c2.5,0,4.7,1.9,4.7,5.2c0,3.3-2.2,5.1-4.7,5.1
					C488.6,664.6,486.4,662.7,486.4,659.4z M493.4,659.4c0-2-0.9-3.3-2.3-3.3c-1.4,0-2.3,1.3-2.3,3.3c0,2,0.9,3.3,2.3,3.3
					C492.5,662.7,493.4,661.4,493.4,659.4z"/>
				<path fill="#B8B5B5" d="M498,654.5h1.9l0.2,1.3h0.1c0.9-0.9,1.9-1.6,3.2-1.6c2.1,0,3,1.4,3,3.9v6.2h-2.3v-5.9
					c0-1.6-0.5-2.2-1.5-2.2c-0.9,0-1.4,0.4-2.2,1.2v6.9H498V654.5z"/>
				<path fill="#B8B5B5" d="M508.6,659.4c0-3.2,2.2-5.2,4.5-5.2c2.7,0,4.1,1.9,4.1,4.7c0,0.4,0,0.9-0.1,1.1h-6.2
					c0.2,1.7,1.3,2.7,2.9,2.7c0.8,0,1.6-0.3,2.3-0.7l0.8,1.4c-0.9,0.6-2.1,1.1-3.4,1.1C510.7,664.6,508.6,662.7,508.6,659.4z
					 M515.2,658.5c0-1.5-0.7-2.4-2-2.4c-1.2,0-2.2,0.9-2.4,2.4H515.2z"/>
				<path fill="#B8B5B5" d="M519.6,663c0-0.9,0.7-1.6,1.5-1.6s1.5,0.7,1.5,1.6s-0.6,1.6-1.5,1.6S519.6,663.9,519.6,663z M520,653.2
					l-0.1-2.3h2.3l-0.1,2.3l-0.3,6.8h-1.5L520,653.2z"/>
			</g>
			<g>
				<rect x="444.4" y="679.2" fill="none" stroke="#B8B5B5" stroke-miterlimit="10" width="110.5" height="18.2"/>
				<rect x="444.4" y="679.2" fill="#B8B5B5" width="39.2" height="18.2"/>
			</g>
		</g>
		<g>
			<path fill="none" stroke="#7AC943" stroke-width="4" stroke-miterlimit="10" stroke-dasharray="24.1165,12.0582" d="
				M1139.7,812.4H75.5c-6.6,0-12-5.4-12-12v-743c0-6.6,5.4-12,12-12h1064.2c6.6,0,12,5.4,12,12v743
				C1151.7,807,1146.3,812.4,1139.7,812.4z"/>
		</g>
		<g>
			<g>
				<path fill="none" stroke="#000000" stroke-width="0.9145" stroke-miterlimit="10" d="M1085.6,770.8H656.3c-6.6,0-12-5.4-12-12
					v-565c0-6.6,5.4-12,12-12h429.3c6.6,0,12,5.4,12,12v565C1097.6,765.4,1092.2,770.8,1085.6,770.8z"/>
				<g>
					<rect x="798.1" y="202.3" fill="none" width="145.6" height="67.7"/>
					<path d="M840,215.8h-4.8l-1,3.8h-3.6l4.9-16.1h4.2l4.9,16.1H841L840,215.8z M839.3,213l-0.4-1.5c-0.4-1.6-0.9-3.5-1.3-5.2h-0.1
						c-0.4,1.7-0.8,3.6-1.2,5.2L836,213H839.3z"/>
					<path d="M845.5,211.7c0-5.3,3.4-8.5,7.4-8.5c2,0,3.6,1,4.7,2.1l-1.9,2.3c-0.8-0.7-1.6-1.3-2.8-1.3c-2.1,0-3.8,2-3.8,5.2
						c0,3.3,1.5,5.2,3.8,5.2c1.3,0,2.3-0.7,3-1.5l1.9,2.3c-1.3,1.6-3,2.4-5.1,2.4C848.8,219.9,845.5,217.1,845.5,211.7z"/>
					<path d="M862.9,206.6h-4.3v-3.1h12.1v3.1h-4.3v13.1h-3.6V206.6z"/>
					<path d="M873.2,203.5h3.5v16.1h-3.5V203.5z"/>
					<path d="M879.7,211.5c0-5.3,2.9-8.3,7.1-8.3c4.2,0,7.1,3,7.1,8.3c0,5.3-2.9,8.4-7.1,8.4C882.6,219.9,879.7,216.8,879.7,211.5z
						 M890.3,211.5c0-3.2-1.3-5.1-3.5-5.1c-2.1,0-3.5,1.9-3.5,5.1c0,3.2,1.3,5.3,3.5,5.3C889,216.8,890.3,214.7,890.3,211.5z"/>
					<path d="M896.9,203.5h3.6l4.1,8l1.5,3.6h0.1c-0.1-1.7-0.4-4-0.4-5.9v-5.7h3.4v16.1h-3.6l-4.1-8l-1.5-3.5h-0.1
						c0.1,1.8,0.4,3.9,0.4,5.8v5.7h-3.4V203.5z"/>
					<path d="M840.5,233.2h5.4c3.4,0,6.2,1.3,6.2,5.2c0,3.8-2.8,5.5-6.1,5.5h-1.9v5.5h-3.5V233.2z M845.8,240.9
						c1.9,0,2.9-0.9,2.9-2.6c0-1.7-1.1-2.3-3-2.3h-1.6v4.9H845.8z"/>
					<path d="M854.8,233.2h3.5v13.1h6.2v3.1h-9.7V233.2z"/>
					<path d="M874.5,245.5h-4.8l-1,3.8h-3.6l4.9-16.1h4.2l4.9,16.1h-3.7L874.5,245.5z M873.8,242.6l-0.4-1.5
						c-0.4-1.6-0.9-3.5-1.3-5.2H872c-0.4,1.7-0.8,3.6-1.2,5.2l-0.4,1.5H873.8z"/>
					<path d="M880.9,233.2h3.6l4.1,8l1.5,3.6h0.1c-0.1-1.7-0.4-4-0.4-5.9v-5.7h3.4v16.1h-3.6l-4.1-8l-1.5-3.5h-0.1
						c0.1,1.8,0.4,3.9,0.4,5.8v5.7h-3.4V233.2z"/>
					<path d="M896.9,247.3c0-1.3,0.9-2.3,2.1-2.3c1.2,0,2.1,1,2.1,2.3c0,1.3-0.9,2.3-2.1,2.3C897.9,249.6,896.9,248.6,896.9,247.3z
						 M897.4,236l-0.1-3.3h3.6l-0.1,3.3l-0.5,7.6h-2.3L897.4,236z"/>
				</g>
			</g>
			<g>
				<path fill="#FFFFFF" stroke="#000000" stroke-width="0.9145" stroke-miterlimit="10" d="M820.2,484.9H698.6c-6.6,0-12-5.4-12-12
					v-156c0-6.6,5.4-12,12-12h121.6c6.6,0,12,5.4,12,12v156C832.2,479.5,826.8,484.9,820.2,484.9z"/>
				<g>
					<rect x="686.6" y="325.7" fill="none" width="145.6" height="65.7"/>
					<path d="M717,326.9h4.4c4.8,0,7.8,2.4,7.8,7.8c0,5.4-3.1,7.9-7.7,7.9H717V326.9z M721.2,339.6c2.7,0,4.4-1.3,4.4-5
						s-1.8-4.9-4.4-4.9h-0.7v9.9H721.2z"/>
					<path d="M731.3,336.6c0-3.9,2.8-6.2,5.6-6.2c3.4,0,5.1,2.5,5.1,5.7c0,0.6-0.1,1.3-0.1,1.6h-7.1c0.3,1.7,1.5,2.5,3.1,2.5
						c0.9,0,1.7-0.3,2.6-0.8l1.2,2.1c-1.2,0.8-2.8,1.3-4.2,1.3C733.9,342.8,731.3,340.5,731.3,336.6z M738.9,335.3
						c0-1.3-0.6-2.3-2-2.3c-1.1,0-2.1,0.7-2.3,2.3H738.9z"/>
					<path d="M744.6,338.2v-4.8H743v-2.6l1.8-0.1l0.4-3.2h2.9v3.2h2.9v2.8h-2.9v4.8c0,1.3,0.6,1.9,1.5,1.9c0.4,0,0.8-0.1,1.1-0.2
						l0.6,2.6c-0.6,0.2-1.5,0.4-2.6,0.4C745.8,342.8,744.6,340.9,744.6,338.2z"/>
					<path d="M752.3,339.2c0-2.5,2-3.9,6.7-4.3c-0.1-1.1-0.6-1.7-1.9-1.7c-1,0-2,0.4-3.1,1.1l-1.3-2.3c1.5-0.9,3.2-1.6,5.1-1.6
						c3,0,4.7,1.7,4.7,5.4v6.8h-2.9l-0.2-1.2h-0.1c-1,0.9-2.1,1.5-3.5,1.5C753.7,342.8,752.3,341.2,752.3,339.2z M759,339V337
						c-2.5,0.3-3.3,1.1-3.3,2c0,0.8,0.5,1.1,1.4,1.1C757.8,340.1,758.4,339.7,759,339z"/>
					<path d="M765.2,327c0-1.1,0.9-1.8,2-1.8c1.2,0,2,0.7,2,1.8s-0.8,1.8-2,1.8C766.1,328.8,765.2,328.1,765.2,327z M765.5,330.6
						h3.5v11.9h-3.5V330.6z"/>
					<path d="M772.1,338.8v-13.1h3.5V339c0,0.7,0.3,1,0.6,1c0.1,0,0.2,0,0.4,0l0.4,2.6c-0.4,0.2-1,0.3-1.8,0.3
						C772.9,342.8,772.1,341.2,772.1,338.8z"/>
					<path d="M778.3,336.6c0-3.9,2.8-6.2,5.6-6.2c3.4,0,5.1,2.5,5.1,5.7c0,0.6-0.1,1.3-0.1,1.6h-7.1c0.3,1.7,1.5,2.5,3.1,2.5
						c0.9,0,1.7-0.3,2.6-0.8l1.2,2.1c-1.2,0.8-2.8,1.3-4.2,1.3C780.9,342.8,778.3,340.5,778.3,336.6z M786,335.3
						c0-1.3-0.6-2.3-2-2.3c-1.1,0-2.1,0.7-2.3,2.3H786z"/>
					<path d="M790.8,336.6c0-3.9,2.4-6.2,4.9-6.2c1.3,0,2.1,0.5,2.9,1.2l-0.1-1.8v-4.1h3.5v16.8h-2.9l-0.2-1.2h-0.1
						c-0.8,0.8-2,1.5-3.2,1.5C792.7,342.8,790.8,340.4,790.8,336.6z M798.5,338.8V334c-0.6-0.6-1.3-0.8-2-0.8
						c-1.1,0-2.1,1.1-2.1,3.3c0,2.4,0.8,3.4,2.2,3.4C797.3,339.9,797.9,339.6,798.5,338.8z"/>
					<path d="M699.1,364.1v-8.4h3.6v8.8c0,3.1,1,4.1,2.7,4.1s2.8-1.1,2.8-4.1v-8.8h3.4v8.4c0,5.3-2.1,7.5-6.2,7.5
						C701.3,371.6,699.1,369.3,699.1,364.1z"/>
					<path d="M713.6,369.9l1.6-2.2c1.1,0.8,2.1,1.2,3.1,1.2c1.1,0,1.5-0.4,1.5-1c0-0.8-1.2-1.2-2.4-1.6c-1.4-0.6-3.1-1.5-3.1-3.5
						c0-2.2,1.8-3.7,4.6-3.7c1.8,0,3.2,0.7,4.2,1.5l-1.6,2.1c-0.9-0.6-1.7-1-2.5-1c-0.9,0-1.3,0.3-1.3,0.9c0,0.8,1.1,1.1,2.3,1.5
						c1.5,0.6,3.2,1.4,3.2,3.6c0,2.2-1.7,3.8-4.9,3.8C716.6,371.6,714.8,370.9,713.6,369.9z"/>
					<path d="M724.6,365.4c0-3.9,2.8-6.2,5.6-6.2c3.4,0,5.1,2.5,5.1,5.7c0,0.6-0.1,1.3-0.1,1.6H728c0.3,1.7,1.5,2.5,3.1,2.5
						c0.9,0,1.7-0.3,2.6-0.8l1.2,2.1c-1.2,0.8-2.8,1.3-4.2,1.3C727.2,371.6,724.6,369.3,724.6,365.4z M732.3,364.1
						c0-1.3-0.6-2.3-2-2.3c-1.1,0-2.1,0.7-2.3,2.3H732.3z"/>
					<path d="M737.7,359.4h2.9l0.2,2.1h0.1c0.9-1.6,2.2-2.4,3.4-2.4c0.7,0,1.1,0.1,1.4,0.2l-0.6,3c-0.4-0.1-0.8-0.2-1.3-0.2
						c-0.9,0-2,0.6-2.6,2.2v6.9h-3.5V359.4z"/>
					<path d="M752.4,355.7h5.4c3.4,0,6.2,1.2,6.2,5c0,3.7-2.8,5.3-6.1,5.3h-1.9v5.3h-3.5V355.7z M757.6,363.2c1.9,0,2.9-0.9,2.9-2.5
						c0-1.6-1.1-2.2-3-2.2h-1.6v4.7H757.6z"/>
					<path d="M766.4,359.4h2.9l0.2,2.1h0.1c0.9-1.6,2.2-2.4,3.4-2.4c0.7,0,1.1,0.1,1.4,0.2l-0.6,3c-0.4-0.1-0.8-0.2-1.3-0.2
						c-0.9,0-2,0.6-2.6,2.2v6.9h-3.5V359.4z"/>
					<path d="M775,365.4c0-4,2.8-6.2,5.8-6.2c3,0,5.8,2.3,5.8,6.2c0,4-2.8,6.2-5.8,6.2C777.8,371.6,775,369.3,775,365.4z M783,365.4
						c0-2.1-0.7-3.4-2.2-3.4c-1.5,0-2.2,1.3-2.2,3.4c0,2.1,0.7,3.4,2.2,3.4C782.2,368.7,783,367.4,783,365.4z"/>
					<path d="M795.6,357.2c-0.4-0.1-0.8-0.2-1.2-0.2c-0.9,0-1.4,0.5-1.4,1.7v0.7h2.1v2.8H793v9.1h-3.5v-9.1h-1.6v-2.6l1.6-0.1v-0.6
						c0-2.5,1.2-4.6,4.4-4.6c1,0,1.8,0.2,2.4,0.4L795.6,357.2z"/>
					<path d="M796.8,355.8c0-1.1,0.9-1.8,2-1.8c1.2,0,2,0.7,2,1.8s-0.8,1.8-2,1.8C797.6,357.6,796.8,356.9,796.8,355.8z
						 M797.1,359.4h3.5v11.9h-3.5V359.4z"/>
					<path d="M803.7,367.6v-13.1h3.5v13.3c0,0.7,0.3,1,0.6,1c0.1,0,0.2,0,0.4,0l0.4,2.6c-0.4,0.2-1,0.3-1.8,0.3
						C804.5,371.6,803.7,370,803.7,367.6z"/>
					<path d="M809.9,365.4c0-3.9,2.8-6.2,5.6-6.2c3.4,0,5.1,2.5,5.1,5.7c0,0.6-0.1,1.3-0.1,1.6h-7.1c0.3,1.7,1.5,2.5,3.1,2.5
						c0.9,0,1.7-0.3,2.6-0.8l1.2,2.1c-1.2,0.8-2.8,1.3-4.2,1.3C812.5,371.6,809.9,369.3,809.9,365.4z M817.5,364.1
						c0-1.3-0.6-2.3-2-2.3c-1.1,0-2.1,0.7-2.3,2.3H817.5z"/>
				</g>
				<g>
					<g>
						<path fill="#DBDADA" d="M804.4,410.7h-73.1c-0.7,0-1.3-0.6-1.3-1.3v-6.5c0-0.7,0.6-1.3,1.3-1.3h73.1c0.7,0,1.3,0.6,1.3,1.3
							v6.5C805.7,410.1,805.1,410.7,804.4,410.7z"/>
						<path fill="#DBDADA" d="M804.4,427.8h-73.1c-0.7,0-1.3-0.6-1.3-1.3V420c0-0.7,0.6-1.3,1.3-1.3h73.1c0.7,0,1.3,0.6,1.3,1.3v6.5
							C805.7,427.2,805.1,427.8,804.4,427.8z"/>
						<path fill="#DBDADA" d="M804.4,444.9h-73.1c-0.7,0-1.3-0.6-1.3-1.3v-6.5c0-0.7,0.6-1.3,1.3-1.3h73.1c0.7,0,1.3,0.6,1.3,1.3
							v6.5C805.7,444.3,805.1,444.9,804.4,444.9z"/>
					</g>
					<g>
						<path fill="#DBDADA" d="M718.3,410.7h-7.9c-0.7,0-1.3-0.6-1.3-1.3v-6.5c0-0.7,0.6-1.3,1.3-1.3h7.9c0.7,0,1.3,0.6,1.3,1.3v6.5
							C719.6,410.1,719,410.7,718.3,410.7z"/>
						<path fill="#DBDADA" d="M718.3,427.8h-7.9c-0.7,0-1.3-0.6-1.3-1.3V420c0-0.7,0.6-1.3,1.3-1.3h7.9c0.7,0,1.3,0.6,1.3,1.3v6.5
							C719.6,427.2,719,427.8,718.3,427.8z"/>
						<path fill="#DBDADA" d="M718.3,444.9h-7.9c-0.7,0-1.3-0.6-1.3-1.3v-6.5c0-0.7,0.6-1.3,1.3-1.3h7.9c0.7,0,1.3,0.6,1.3,1.3v6.5
							C719.6,444.3,719,444.9,718.3,444.9z"/>
					</g>
				</g>
			</g>
			<g>
				<path fill="#FFFFFF" stroke="#000000" stroke-width="0.9145" stroke-miterlimit="10" d="M1041.7,728.8H920.2
					c-6.6,0-12-5.4-12-12v-156c0-6.6,5.4-12,12-12h121.6c6.6,0,12,5.4,12,12v156C1053.7,723.4,1048.3,728.8,1041.7,728.8z"/>
				<g>
					<rect x="908.2" y="570.5" fill="none" width="145.6" height="61.2"/>
					<path d="M956.7,574.7h-4.3v-3h12.1v3h-4.3v12.7h-3.6V574.7z"/>
					<path d="M965.7,575.4h2.9l0.2,2.1h0.1c0.9-1.6,2.2-2.4,3.4-2.4c0.7,0,1.1,0.1,1.4,0.2l-0.6,3c-0.4-0.1-0.8-0.2-1.3-0.2
						c-0.9,0-2,0.6-2.6,2.2v6.9h-3.5V575.4z"/>
					<path d="M974,584c0-2.5,2-3.9,6.7-4.3c-0.1-1.1-0.6-1.7-1.9-1.7c-1,0-2,0.4-3.1,1.1l-1.3-2.3c1.5-0.9,3.2-1.6,5.1-1.6
						c3,0,4.7,1.7,4.7,5.4v6.8h-2.9l-0.2-1.2h-0.1c-1,0.9-2.1,1.5-3.5,1.5C975.4,587.6,974,586,974,584z M980.7,583.9v-2.1
						c-2.5,0.3-3.3,1.1-3.3,2c0,0.8,0.5,1.1,1.4,1.1C979.6,584.9,980.1,584.5,980.7,583.9z"/>
					<path d="M986.5,581.4c0-4,2.9-6.2,6.2-6.2c1.5,0,2.6,0.5,3.5,1.3l-1.7,2.3c-0.6-0.5-1.1-0.7-1.6-0.7c-1.7,0-2.8,1.3-2.8,3.4
						c0,2.1,1.1,3.4,2.7,3.4c0.8,0,1.5-0.4,2.1-0.9l1.4,2.3c-1.2,1-2.6,1.4-3.9,1.4C989.1,587.6,986.5,585.3,986.5,581.4z"/>
					<path d="M998.5,570.5h3.4v9.6h0.1l3.8-4.7h3.8l-4.2,4.9l4.5,7h-3.8l-2.7-4.6l-1.5,1.7v2.9h-3.4V570.5z"/>
					<path d="M936.4,600.5h5.4c3.4,0,6.2,1.2,6.2,5c0,3.7-2.8,5.3-6.1,5.3h-1.9v5.3h-3.5V600.5z M941.7,608c1.9,0,2.9-0.9,2.9-2.5
						c0-1.6-1.1-2.2-3-2.2h-1.6v4.7H941.7z"/>
					<path d="M950.4,604.2h2.9l0.2,2.1h0.1c0.9-1.6,2.2-2.4,3.4-2.4c0.7,0,1.1,0.1,1.4,0.2l-0.6,3c-0.4-0.1-0.8-0.2-1.3-0.2
						c-0.9,0-2,0.6-2.6,2.2v6.9h-3.5V604.2z"/>
					<path d="M959,610.2c0-4,2.8-6.2,5.8-6.2c3,0,5.8,2.3,5.8,6.2c0,4-2.8,6.2-5.8,6.2C961.8,616.4,959,614.1,959,610.2z M967,610.2
						c0-2.1-0.7-3.4-2.2-3.4c-1.5,0-2.2,1.3-2.2,3.4c0,2.1,0.7,3.4,2.2,3.4C966.3,613.6,967,612.2,967,610.2z"/>
					<path d="M972.3,618.2c0-1,0.6-1.8,1.7-2.4v-0.1c-0.6-0.4-1.1-1-1.1-2c0-0.9,0.6-1.7,1.3-2.2v-0.1c-0.8-0.6-1.6-1.7-1.6-3.1
						c0-2.9,2.4-4.3,4.9-4.3c0.7,0,1.3,0.1,1.8,0.3h4.3v2.6h-1.9c0.2,0.4,0.4,0.9,0.4,1.6c0,2.7-2.1,4-4.7,4c-0.4,0-0.9-0.1-1.4-0.2
						c-0.3,0.3-0.4,0.5-0.4,0.9c0,0.6,0.5,0.9,1.8,0.9h1.9c2.9,0,4.5,0.9,4.5,3c0,2.5-2.6,4.3-6.6,4.3
						C974.5,621.2,972.3,620.3,972.3,618.2z M980.6,617.5c0-0.7-0.6-0.9-1.8-0.9h-1.2c-0.8,0-1.3,0-1.7-0.1
						c-0.4,0.4-0.6,0.7-0.6,1.2c0,0.9,1.1,1.4,2.6,1.4S980.6,618.3,980.6,617.5z M979.2,608.2c0-1.2-0.7-1.9-1.6-1.9
						c-0.9,0-1.6,0.6-1.6,1.9c0,1.3,0.7,2,1.6,2C978.5,610.2,979.2,609.6,979.2,608.2z"/>
					<path d="M985.9,604.2h2.9l0.2,2.1h0.1c0.9-1.6,2.2-2.4,3.4-2.4c0.7,0,1.1,0.1,1.4,0.2l-0.6,3c-0.4-0.1-0.8-0.2-1.3-0.2
						c-0.9,0-2,0.6-2.6,2.2v6.9h-3.5V604.2z"/>
					<path d="M994.5,610.2c0-3.9,2.8-6.2,5.6-6.2c3.4,0,5.1,2.5,5.1,5.7c0,0.6-0.1,1.3-0.1,1.6h-7.1c0.3,1.7,1.5,2.5,3.1,2.5
						c0.9,0,1.7-0.3,2.6-0.8l1.2,2.1c-1.2,0.8-2.8,1.3-4.2,1.3C997.1,616.4,994.5,614.1,994.5,610.2z M1002.2,608.9
						c0-1.3-0.6-2.3-2-2.3c-1.1,0-2.1,0.7-2.3,2.3H1002.2z"/>
					<path d="M1006.6,614.8l1.6-2.2c1.1,0.8,2.1,1.2,3.1,1.2c1.1,0,1.5-0.4,1.5-1c0-0.8-1.2-1.2-2.4-1.6c-1.4-0.6-3.1-1.5-3.1-3.5
						c0-2.2,1.8-3.7,4.6-3.7c1.8,0,3.2,0.7,4.2,1.5l-1.6,2.1c-0.9-0.6-1.7-1-2.5-1c-0.9,0-1.3,0.3-1.3,0.9c0,0.8,1.1,1.1,2.3,1.5
						c1.5,0.6,3.2,1.4,3.2,3.6c0,2.2-1.7,3.8-4.9,3.8C1009.6,616.4,1007.8,615.8,1006.6,614.8z"/>
					<path d="M1017.2,614.8l1.6-2.2c1.1,0.8,2.1,1.2,3.1,1.2c1.1,0,1.5-0.4,1.5-1c0-0.8-1.2-1.2-2.4-1.6c-1.4-0.6-3.1-1.5-3.1-3.5
						c0-2.2,1.8-3.7,4.6-3.7c1.8,0,3.2,0.7,4.2,1.5l-1.6,2.1c-0.9-0.6-1.7-1-2.5-1c-0.9,0-1.3,0.3-1.3,0.9c0,0.8,1.1,1.1,2.3,1.5
						c1.5,0.6,3.2,1.4,3.2,3.6c0,2.2-1.7,3.8-4.9,3.8C1020.2,616.4,1018.4,615.8,1017.2,614.8z"/>
				</g>
				<g>
					<rect x="907.4" y="631.7" fill="none" width="145.6" height="18.7"/>
					<path fill="#B8B5B5" d="M940.3,635.1h-6v-1.9h8.5v1.4c-3,3.7-3.5,6.4-3.7,11.3h-2.3C937,641.3,937.9,638.5,940.3,635.1z"/>
					<path fill="#B8B5B5" d="M944.2,644.3l1.1-1.5c0.8,0.7,1.7,1.4,3,1.4c1.4,0,2.5-0.9,2.5-2.4c0-1.5-0.9-2.4-2.3-2.4
						c-0.8,0-1.3,0.2-2,0.7l-1.1-0.7l0.4-6.3h6.8v1.9h-4.8l-0.3,3.1c0.5-0.3,1-0.4,1.7-0.4c2.2,0,4,1.2,4,4c0,2.8-2.1,4.4-4.5,4.4
						C946.5,646.1,945.1,645.3,944.2,644.3z"/>
					<path fill="#B8B5B5" d="M954.6,636.7c0-2.6,1.3-4.1,3.1-4.1c1.8,0,3.1,1.5,3.1,4.1c0,2.6-1.3,4.2-3.1,4.2
						C955.8,640.8,954.6,639.3,954.6,636.7z M959.1,636.7c0-2-0.6-2.8-1.5-2.8s-1.5,0.8-1.5,2.8c0,2,0.6,2.8,1.5,2.8
						S959.1,638.6,959.1,636.7z M965.2,632.5h1.4l-7.1,13.6h-1.4L965.2,632.5z M963.9,641.9c0-2.6,1.3-4.1,3.1-4.1s3.1,1.5,3.1,4.1
						c0,2.6-1.3,4.2-3.1,4.2S963.9,644.6,963.9,641.9z M968.5,641.9c0-2-0.6-2.8-1.5-2.8s-1.5,0.8-1.5,2.8c0,2,0.6,2.8,1.5,2.8
						S968.5,643.9,968.5,641.9z"/>
					<path fill="#B8B5B5" d="M976.6,642.5v-4.7h-1.4v-1.7l1.5-0.1l0.3-2.7h1.9v2.7h2.5v1.8h-2.5v4.7c0,1.2,0.4,1.7,1.4,1.7
						c0.3,0,0.7-0.1,1-0.2l0.4,1.7c-0.5,0.2-1.2,0.4-2,0.4C977.4,646.1,976.6,644.7,976.6,642.5z"/>
					<path fill="#B8B5B5" d="M983.5,631.7h2.3v3.6l-0.1,1.9c0.8-0.8,1.8-1.5,3.1-1.5c2.1,0,3,1.4,3,3.9v6.2h-2.3V640
						c0-1.6-0.5-2.2-1.5-2.2c-0.9,0-1.4,0.4-2.2,1.2v6.9h-2.3V631.7z"/>
					<path fill="#B8B5B5" d="M994,641c0-3.2,2.2-5.2,4.5-5.2c2.7,0,4.1,1.9,4.1,4.7c0,0.4,0,0.9-0.1,1.1h-6.2
						c0.2,1.7,1.3,2.7,2.9,2.7c0.8,0,1.6-0.3,2.3-0.7l0.8,1.4c-0.9,0.6-2.1,1.1-3.4,1.1C996.1,646.1,994,644.2,994,641z M1000.6,640
						c0-1.5-0.7-2.4-2-2.4c-1.2,0-2.2,0.9-2.4,2.4H1000.6z"/>
					<path fill="#B8B5B5" d="M1004.8,636h1.9l0.2,1.7h0.1c0.7-1.3,1.7-2,2.8-2c0.5,0,0.8,0.1,1.1,0.2l-0.4,2c-0.3-0.1-0.6-0.2-1-0.2
						c-0.8,0-1.7,0.5-2.3,2v6h-2.3V636z"/>
					<path fill="#B8B5B5" d="M1011.4,641c0-3.2,2.2-5.2,4.5-5.2c2.7,0,4.1,1.9,4.1,4.7c0,0.4,0,0.9-0.1,1.1h-6.2
						c0.2,1.7,1.3,2.7,2.9,2.7c0.8,0,1.6-0.3,2.3-0.7l0.8,1.4c-0.9,0.6-2.1,1.1-3.4,1.1C1013.5,646.1,1011.4,644.2,1011.4,641z
						 M1018,640c0-1.5-0.7-2.4-2-2.4c-1.2,0-2.2,0.9-2.4,2.4H1018z"/>
					<path fill="#B8B5B5" d="M1022.3,644.5c0-0.9,0.7-1.6,1.5-1.6c0.8,0,1.5,0.7,1.5,1.6s-0.6,1.6-1.5,1.6
						C1023,646.1,1022.3,645.4,1022.3,644.5z M1022.8,634.7l-0.1-2.3h2.3l-0.1,2.3l-0.3,6.8h-1.5L1022.8,634.7z"/>
				</g>
				<g>
					<path fill="#B8B5B5" stroke="#B8B5B5" stroke-miterlimit="10" d="M950.2,682.4c0,15,12.5,27.4,27.9,27.4s27.9-12.8,27.9-28.2
						s-13-28.2-28-28.2v9.4c10,0,18.6,8.3,18.6,18.5c0,10.2-8.3,19.1-18.5,19.1s-18.5-7.9-18.5-17.9H950.2z"/>
					<path fill="none" stroke="#B8B5B5" stroke-miterlimit="10" d="M978,653.3c-15,0-27.8,13.1-27.8,28.1h9.4
						c0-10,8.4-18.7,18.4-18.7V653.3z"/>
				</g>
			</g>
			<g>
				<path fill="#FFFFFF" stroke="#000000" stroke-width="0.9145" stroke-miterlimit="10" d="M835.8,741H714.2c-6.6,0-12-5.4-12-12
					V573c0-6.6,5.4-12,12-12h121.6c6.6,0,12,5.4,12,12v156C847.8,735.6,842.4,741,835.8,741z"/>
				<path fill="#FFFFFF" stroke="#000000" stroke-width="0.9145" stroke-miterlimit="10" d="M828.2,734.5H706.6c-6.6,0-12-5.4-12-12
					v-156c0-6.6,5.4-12,12-12h121.6c6.6,0,12,5.4,12,12v156C840.2,729.1,834.8,734.5,828.2,734.5z"/>
				<path fill="#FFFFFF" stroke="#000000" stroke-width="0.9145" stroke-miterlimit="10" d="M820.9,728.5H699.3c-6.6,0-12-5.4-12-12
					v-156c0-6.6,5.4-12,12-12h121.6c6.6,0,12,5.4,12,12v156C832.9,723.1,827.5,728.5,820.9,728.5z"/>
				<g>
					<rect x="687.3" y="569.3" fill="none" width="145.6" height="121.7"/>
					<path d="M716.5,582.4h-4.8l-1,3.7h-3.6l4.9-15.6h4.2l4.9,15.6h-3.7L716.5,582.4z M715.8,579.6l-0.4-1.4c-0.4-1.6-0.9-3.4-1.3-5
						h-0.1c-0.4,1.7-0.8,3.5-1.2,5l-0.4,1.4H715.8z"/>
					<path d="M722.5,581.6v-7.4h3.5v6.9c0,1.7,0.5,2.3,1.5,2.3c0.9,0,1.4-0.4,2.1-1.3v-7.9h3.5v11.9h-2.9l-0.3-1.7H730
						c-1,1.2-2.1,1.9-3.7,1.9C723.6,586.4,722.5,584.5,722.5,581.6z"/>
					<path d="M736.8,581.8v-4.8h-1.6v-2.6l1.8-0.1l0.4-3.2h2.9v3.2h2.9v2.8h-2.9v4.8c0,1.3,0.6,1.9,1.5,1.9c0.4,0,0.8-0.1,1.1-0.2
						l0.6,2.6c-0.6,0.2-1.5,0.4-2.6,0.4C737.9,586.4,736.8,584.5,736.8,581.8z"/>
					<path d="M744.3,580.1c0-4,2.8-6.2,5.8-6.2c3,0,5.8,2.3,5.8,6.2c0,4-2.8,6.2-5.8,6.2C747.1,586.4,744.3,584.1,744.3,580.1z
						 M752.3,580.1c0-2.1-0.7-3.4-2.2-3.4c-1.5,0-2.2,1.3-2.2,3.4c0,2.1,0.7,3.4,2.2,3.4C751.6,583.5,752.3,582.2,752.3,580.1z"/>
					<path d="M757.7,580.1c0-3.9,2.4-6.2,4.9-6.2c1.3,0,2.1,0.5,2.9,1.2l-0.1-1.8v-4.1h3.5v16.8h-2.9l-0.2-1.2h-0.1
						c-0.8,0.8-2,1.5-3.2,1.5C759.7,586.4,757.7,584,757.7,580.1z M765.5,582.4v-4.9c-0.6-0.6-1.3-0.8-2-0.8c-1.1,0-2.1,1.1-2.1,3.3
						c0,2.4,0.8,3.4,2.2,3.4C764.3,583.5,764.9,583.2,765.5,582.4z"/>
					<path d="M771.4,580.1c0-4,2.8-6.2,5.8-6.2c3,0,5.8,2.3,5.8,6.2c0,4-2.8,6.2-5.8,6.2C774.2,586.4,771.4,584.1,771.4,580.1z
						 M779.4,580.1c0-2.1-0.7-3.4-2.2-3.4c-1.5,0-2.2,1.3-2.2,3.4c0,2.1,0.7,3.4,2.2,3.4C778.7,583.5,779.4,582.2,779.4,580.1z"/>
					<path d="M784.7,580.1c0-4,2.9-6.2,6.2-6.2c1.5,0,2.6,0.5,3.5,1.3l-1.7,2.3c-0.6-0.5-1.1-0.7-1.6-0.7c-1.7,0-2.8,1.3-2.8,3.4
						c0,2.1,1.1,3.4,2.7,3.4c0.8,0,1.5-0.4,2.1-0.9l1.4,2.3c-1.2,1-2.6,1.4-3.9,1.4C787.3,586.4,784.7,584.1,784.7,580.1z"/>
					<path d="M795.6,584.7l1.6-2.2c1.1,0.8,2.1,1.2,3.1,1.2c1.1,0,1.5-0.4,1.5-1c0-0.8-1.2-1.2-2.4-1.6c-1.4-0.6-3.1-1.5-3.1-3.5
						c0-2.2,1.8-3.7,4.6-3.7c1.8,0,3.2,0.7,4.2,1.5l-1.6,2.1c-0.9-0.6-1.7-1-2.5-1c-0.9,0-1.3,0.3-1.3,0.9c0,0.8,1.1,1.1,2.3,1.5
						c1.5,0.6,3.2,1.4,3.2,3.6c0,2.2-1.7,3.8-4.9,3.8C798.6,586.4,796.8,585.7,795.6,584.7z"/>
					<path d="M807.2,576.4c0-1.3,0.9-2.2,2.1-2.2c1.2,0,2.1,1,2.1,2.2c0,1.2-0.9,2.2-2.1,2.2C808.1,578.6,807.2,577.6,807.2,576.4z
						 M807.2,584.2c0-1.3,0.9-2.2,2.1-2.2c1.2,0,2.1,1,2.1,2.2c0,1.2-0.9,2.2-2.1,2.2C808.1,586.4,807.2,585.4,807.2,584.2z"/>
					<path d="M727.9,599.1h9.1v1.7h-7.1v5.3h6v1.7h-6v7.1h-2V599.1z"/>
					<path d="M738.4,609.1c0-3.9,2.5-6.1,5.4-6.1c2.9,0,5.4,2.2,5.4,6.1c0,3.9-2.5,6.1-5.4,6.1C740.9,615.2,738.4,612.9,738.4,609.1
						z M747.1,609.1c0-2.7-1.3-4.5-3.4-4.5c-2,0-3.4,1.8-3.4,4.5c0,2.7,1.4,4.5,3.4,4.5C745.8,613.5,747.1,611.7,747.1,609.1z"/>
					<path d="M752.2,603.2h1.6l0.2,2.1h0.1c0.8-1.5,2-2.4,3.3-2.4c0.5,0,0.9,0.1,1.2,0.2l-0.4,1.7c-0.4-0.1-0.6-0.2-1.1-0.2
						c-1,0-2.2,0.7-3,2.7v7.5h-2V603.2z"/>
					<path d="M760.5,603.2h1.6l0.2,1.7h0.1c1-1.1,2.2-2,3.6-2c1.8,0,2.7,0.8,3.2,2.2c1.2-1.3,2.4-2.2,3.8-2.2c2.4,0,3.6,1.6,3.6,4.6
						v7.4h-2v-7.1c0-2.2-0.7-3.1-2.2-3.1c-0.9,0-1.8,0.6-2.9,1.8v8.4h-2v-7.1c0-2.2-0.7-3.1-2.2-3.1c-0.9,0-1.8,0.6-2.9,1.8v8.4h-2
						V603.2z"/>
					<path d="M779.1,613.6l1-1.3c1,0.8,2,1.4,3.4,1.4c1.5,0,2.3-0.8,2.3-1.8c0-1.2-1.4-1.7-2.7-2.2c-1.7-0.6-3.5-1.4-3.5-3.4
						c0-1.9,1.5-3.3,4-3.3c1.5,0,2.7,0.6,3.6,1.3l-0.9,1.2c-0.8-0.6-1.6-1-2.7-1c-1.5,0-2.1,0.8-2.1,1.7c0,1.1,1.3,1.5,2.6,2
						c1.7,0.6,3.6,1.3,3.6,3.5c0,1.9-1.5,3.5-4.3,3.5C781.8,615.2,780.3,614.5,779.1,613.6z"/>
					<path d="M789.7,617.8c1.3-0.6,2.2-1.6,2.2-2.9c-0.1,0-0.2,0-0.2,0c-0.8,0-1.4-0.5-1.4-1.4c0-0.9,0.7-1.4,1.5-1.4
						c1,0,1.7,0.9,1.7,2.3c0,2.1-1.2,3.7-3.1,4.5L789.7,617.8z"/>
					<path d="M725.9,627.9h9.1v1.7h-7.1v4.9h6v1.7h-6v5.7h7.3v1.7h-9.3V627.9z"/>
					<path d="M738.4,632h1.6l0.2,1.7h0.1c1-1.1,2.2-2,3.6-2c1.8,0,2.7,0.8,3.2,2.2c1.2-1.3,2.4-2.2,3.8-2.2c2.4,0,3.6,1.6,3.6,4.6
						v7.4h-2v-7.1c0-2.2-0.7-3.1-2.2-3.1c-0.9,0-1.8,0.6-2.9,1.8v8.4h-2v-7.1c0-2.2-0.7-3.1-2.2-3.1c-0.9,0-1.8,0.6-2.9,1.8v8.4h-2
						V632z"/>
					<path d="M757.6,640.6c0-2.5,2.2-3.8,7.2-4.4c0-1.5-0.5-2.9-2.4-2.9c-1.3,0-2.6,0.6-3.5,1.2l-0.8-1.4c1.1-0.7,2.7-1.5,4.6-1.5
						c2.9,0,4.1,1.9,4.1,4.8v7.2h-1.6l-0.2-1.4h-0.1c-1.1,0.9-2.4,1.7-3.9,1.7C759,644,757.6,642.7,757.6,640.6z M764.7,640.8v-3.2
						c-3.9,0.5-5.2,1.4-5.2,2.9c0,1.3,0.9,1.9,2.1,1.9C762.7,642.4,763.6,641.8,764.7,640.8z"/>
					<path d="M770,628.3c0-0.8,0.6-1.3,1.4-1.3c0.8,0,1.4,0.5,1.4,1.3c0,0.7-0.6,1.3-1.4,1.3C770.6,629.6,770,629.1,770,628.3z
						 M770.4,632h2v11.7h-2V632z"/>
					<path d="M776.3,641.3v-14.7h2v14.9c0,0.6,0.3,0.9,0.6,0.9c0.1,0,0.2,0,0.4,0l0.3,1.5c-0.3,0.1-0.6,0.2-1.1,0.2
						C776.9,644,776.3,643,776.3,641.3z"/>
					<path d="M781.1,642.4l1-1.3c1,0.8,2,1.4,3.4,1.4c1.5,0,2.3-0.8,2.3-1.8c0-1.2-1.4-1.7-2.7-2.2c-1.7-0.6-3.5-1.4-3.5-3.4
						c0-1.9,1.5-3.3,4-3.3c1.5,0,2.7,0.6,3.6,1.3l-0.9,1.2c-0.8-0.6-1.6-1-2.7-1c-1.5,0-2.1,0.8-2.1,1.7c0,1.1,1.3,1.5,2.6,2
						c1.7,0.6,3.6,1.3,3.6,3.5c0,1.9-1.5,3.5-4.3,3.5C783.8,644,782.2,643.3,781.1,642.4z"/>
					<path d="M791.6,646.6c1.3-0.6,2.2-1.6,2.2-2.9c-0.1,0-0.2,0-0.2,0c-0.8,0-1.4-0.5-1.4-1.4c0-0.9,0.7-1.4,1.5-1.4
						c1,0,1.7,0.9,1.7,2.3c0,2.1-1.2,3.7-3.1,4.5L791.6,646.6z"/>
					<path d="M710.6,670.4l1.2-1.4c1.1,1.2,2.7,2,4.3,2c2.1,0,3.3-1,3.3-2.6c0-1.6-1.1-2.1-2.6-2.8l-2.3-1c-1.5-0.6-3.2-1.8-3.2-4.1
						c0-2.4,2.1-4.2,4.9-4.2c1.9,0,3.5,0.8,4.7,1.9l-1.1,1.3c-1-0.9-2.1-1.5-3.6-1.5c-1.8,0-2.9,0.9-2.9,2.3c0,1.5,1.4,2.1,2.6,2.6
						l2.2,1c1.8,0.8,3.2,1.9,3.2,4.2c0,2.5-2,4.5-5.4,4.5C713.9,672.8,711.9,671.8,710.6,670.4z"/>
					<path d="M724,657.1c0-0.8,0.6-1.3,1.4-1.3c0.8,0,1.4,0.5,1.4,1.3c0,0.7-0.6,1.3-1.4,1.3C724.6,658.4,724,657.9,724,657.1z
						 M724.3,660.8h2v11.7h-2V660.8z"/>
					<path d="M729.3,674.7c0-1,0.6-1.9,1.7-2.6V672c-0.6-0.4-1-1-1-1.9c0-1,0.7-1.8,1.3-2.2v-0.1c-0.8-0.6-1.5-1.8-1.5-3.1
						c0-2.5,2-4.2,4.4-4.2c0.6,0,1.2,0.1,1.7,0.3h4.1v1.5h-2.4c0.6,0.5,1,1.4,1,2.4c0,2.5-1.9,4.1-4.3,4.1c-0.6,0-1.2-0.1-1.8-0.4
						c-0.4,0.4-0.7,0.7-0.7,1.4c0,0.7,0.5,1.3,2.1,1.3h2.3c2.7,0,4.1,0.8,4.1,2.8c0,2.2-2.3,4-5.9,4
						C731.3,677.9,729.3,676.7,729.3,674.7z M738.2,674.1c0-1.1-0.8-1.4-2.4-1.4h-2c-0.5,0-1,0-1.5-0.2c-0.8,0.6-1.2,1.3-1.2,2
						c0,1.2,1.3,2,3.4,2C736.7,676.5,738.2,675.3,738.2,674.1z M736.6,664.7c0-1.7-1.1-2.7-2.5-2.7s-2.5,1-2.5,2.7s1.1,2.8,2.5,2.8
						C735.5,667.5,736.6,666.4,736.6,664.7z"/>
					<path d="M742.3,660.8h1.6l0.2,1.7h0.1c1.1-1.1,2.3-2,3.9-2c2.4,0,3.6,1.6,3.6,4.6v7.4h-2v-7.1c0-2.2-0.7-3.1-2.2-3.1
						c-1.2,0-2,0.6-3.2,1.8v8.4h-2V660.8z"/>
					<path d="M754.2,671.2l1-1.3c1,0.8,2,1.4,3.4,1.4c1.5,0,2.3-0.8,2.3-1.8c0-1.2-1.4-1.7-2.7-2.2c-1.7-0.6-3.5-1.4-3.5-3.4
						c0-1.9,1.5-3.3,4-3.3c1.5,0,2.7,0.6,3.6,1.3l-0.9,1.2c-0.8-0.6-1.6-1-2.7-1c-1.5,0-2.1,0.8-2.1,1.7c0,1.1,1.3,1.5,2.6,2
						c1.7,0.6,3.6,1.3,3.6,3.5c0,1.9-1.5,3.5-4.3,3.5C756.9,672.8,755.3,672.1,754.2,671.2z"/>
					<path d="M764.7,675.4c1.3-0.6,2.2-1.6,2.2-2.9c-0.1,0-0.2,0-0.2,0c-0.8,0-1.4-0.5-1.4-1.4c0-0.9,0.7-1.4,1.5-1.4
						c1,0,1.7,0.9,1.7,2.3c0,2.1-1.2,3.7-3.1,4.5L764.7,675.4z"/>
					<path d="M775.4,666.7c0-3.8,2.6-6.1,5.2-6.1c3,0,4.7,2.1,4.7,5.5c0,0.4,0,0.8-0.1,1.1h-7.9c0.1,2.5,1.7,4.1,3.9,4.1
						c1.1,0,2-0.4,2.9-0.9l0.7,1.3c-1,0.6-2.3,1.2-3.8,1.2C777.9,672.8,775.4,670.5,775.4,666.7z M783.6,665.7
						c0-2.4-1.1-3.6-2.9-3.6c-1.6,0-3.1,1.3-3.4,3.6H783.6z"/>
					<path d="M788.3,668.9v-6.5h-1.7v-1.5l1.8-0.1l0.2-3.3h1.7v3.3h3.1v1.6h-3.1v6.5c0,1.4,0.5,2.3,1.8,2.3c0.4,0,0.9-0.2,1.3-0.3
						l0.4,1.5c-0.6,0.2-1.4,0.4-2.2,0.4C789.1,672.8,788.3,671.2,788.3,668.9z"/>
					<path d="M794.9,666.7c0-3.9,2.6-6.1,5.6-6.1c1.5,0,2.6,0.6,3.4,1.4l-1,1.3c-0.7-0.6-1.4-1-2.3-1c-2.1,0-3.6,1.8-3.6,4.5
						c0,2.7,1.5,4.5,3.6,4.5c1.1,0,2-0.5,2.7-1.2l0.9,1.3c-1.1,0.9-2.4,1.5-3.8,1.5C797.2,672.8,794.9,670.5,794.9,666.7z"/>
					<path d="M806.3,671.3c0-0.9,0.6-1.5,1.4-1.5c0.8,0,1.4,0.6,1.4,1.5c0,0.9-0.6,1.5-1.4,1.5C806.9,672.8,806.3,672.1,806.3,671.3
						z"/>
				</g>
			</g>
			<g>
				<path fill="#FFFFFF" stroke="#000000" stroke-width="0.9145" stroke-miterlimit="10" d="M1041,484.9H919.4c-6.6,0-12-5.4-12-12
					v-156c0-6.6,5.4-12,12-12H1041c6.6,0,12,5.4,12,12v156C1053,479.5,1047.6,484.9,1041,484.9z"/>
				<g>
					<rect x="907.4" y="325.7" fill="none" width="145.6" height="87.3"/>
					<path d="M952.7,338.8h-4.8l-1,3.7h-3.6l4.9-15.6h4.2l4.9,15.6h-3.7L952.7,338.8z M952,336l-0.4-1.4c-0.4-1.6-0.9-3.4-1.3-5
						h-0.1c-0.4,1.7-0.8,3.5-1.2,5l-0.4,1.4H952z"/>
					<path d="M958.1,336.6c0-4,2.9-6.2,6.2-6.2c1.5,0,2.6,0.5,3.5,1.3l-1.7,2.3c-0.6-0.5-1.1-0.7-1.6-0.7c-1.7,0-2.8,1.3-2.8,3.4
						c0,2.1,1.1,3.4,2.7,3.4c0.8,0,1.5-0.4,2.1-0.9l1.4,2.3c-1.2,1-2.6,1.4-3.9,1.4C960.7,342.8,958.1,340.5,958.1,336.6z"/>
					<path d="M970.3,338.2v-4.8h-1.6v-2.6l1.8-0.1l0.4-3.2h2.9v3.2h2.9v2.8h-2.9v4.8c0,1.3,0.6,1.9,1.5,1.9c0.4,0,0.8-0.1,1.1-0.2
						l0.6,2.6c-0.6,0.2-1.5,0.4-2.6,0.4C971.4,342.8,970.3,340.9,970.3,338.2z"/>
					<path d="M978.7,327c0-1.1,0.9-1.8,2-1.8c1.2,0,2,0.7,2,1.8s-0.8,1.8-2,1.8C979.5,328.8,978.7,328.1,978.7,327z M979,330.6h3.5
						v11.9H979V330.6z"/>
					<path d="M984.3,330.6h3.6l1.5,5.6c0.3,1.2,0.6,2.4,0.9,3.7h0.1c0.3-1.2,0.6-2.5,0.9-3.7l1.6-5.6h3.4l-3.9,11.9h-4.1
						L984.3,330.6z"/>
					<path d="M997.3,336.6c0-3.9,2.8-6.2,5.6-6.2c3.4,0,5.1,2.5,5.1,5.7c0,0.6-0.1,1.3-0.1,1.6h-7.1c0.3,1.7,1.5,2.5,3.1,2.5
						c0.9,0,1.7-0.3,2.6-0.8l1.2,2.1c-1.2,0.8-2.8,1.3-4.2,1.3C999.9,342.8,997.3,340.5,997.3,336.6z M1004.9,335.3
						c0-1.3-0.6-2.3-2-2.3c-1.1,0-2.1,0.7-2.3,2.3H1004.9z"/>
					<path d="M1014,325.5h2.3l-4.8,20.9h-2.3L1014,325.5z"/>
					<path d="M941.2,355.7h5.4c3.4,0,6.2,1.2,6.2,5c0,3.7-2.8,5.3-6.1,5.3h-1.9v5.3h-3.5V355.7z M946.5,363.2c1.9,0,2.9-0.9,2.9-2.5
						s-1.1-2.2-3-2.2h-1.6v4.7H946.5z"/>
					<path d="M955.3,359.4h2.9l0.2,2.1h0.1c0.9-1.6,2.2-2.4,3.4-2.4c0.7,0,1.1,0.1,1.4,0.2l-0.6,3c-0.4-0.1-0.8-0.2-1.3-0.2
						c-0.9,0-2,0.6-2.6,2.2v6.9h-3.5V359.4z"/>
					<path d="M964.5,355.8c0-1.1,0.9-1.8,2-1.8c1.2,0,2,0.7,2,1.8s-0.8,1.8-2,1.8C965.4,357.6,964.5,356.9,964.5,355.8z
						 M964.8,359.4h3.5v11.9h-3.5V359.4z"/>
					<path d="M970.7,365.4c0-4,2.8-6.2,5.8-6.2c3,0,5.8,2.3,5.8,6.2s-2.8,6.2-5.8,6.2C973.5,371.6,970.7,369.3,970.7,365.4z
						 M978.7,365.4c0-2.1-0.7-3.4-2.2-3.4c-1.5,0-2.2,1.3-2.2,3.4c0,2.1,0.7,3.4,2.2,3.4C978,368.7,978.7,367.4,978.7,365.4z"/>
					<path d="M984.8,359.4h2.9l0.2,2.1h0.1c0.9-1.6,2.2-2.4,3.4-2.4c0.7,0,1.1,0.1,1.4,0.2l-0.6,3c-0.4-0.1-0.8-0.2-1.3-0.2
						c-0.9,0-2,0.6-2.6,2.2v6.9h-3.5V359.4z"/>
					<path d="M994,355.8c0-1.1,0.9-1.8,2-1.8c1.2,0,2,0.7,2,1.8s-0.8,1.8-2,1.8C994.9,357.6,994,356.9,994,355.8z M994.3,359.4h3.5
						v11.9h-3.5V359.4z"/>
					<path d="M1001.4,367v-4.8h-1.6v-2.6l1.8-0.1l0.4-3.2h2.9v3.2h2.9v2.8h-2.9v4.8c0,1.3,0.6,1.9,1.5,1.9c0.4,0,0.8-0.1,1.1-0.2
						l0.6,2.6c-0.6,0.2-1.5,0.4-2.6,0.4C1002.6,371.6,1001.4,369.7,1001.4,367z"/>
					<path d="M1009.8,375.7l0.6-2.7c0.2,0,0.5,0.1,0.8,0.1c1.2,0,1.8-0.6,2.1-1.6l0.2-0.6l-4.6-11.6h3.6l1.7,5.1
						c0.3,1.1,0.6,2.2,0.9,3.4h0.1c0.3-1.1,0.5-2.3,0.8-3.4l1.4-5.1h3.4l-4.1,12c-1.1,3-2.4,4.5-5.2,4.5
						C1010.7,376,1010.2,375.9,1009.8,375.7z"/>
					<path d="M933.2,387.4h-4.3v-3H941v3h-4.3v12.7h-3.6V387.4z"/>
					<path d="M941.1,396.8c0-2.5,2-3.9,6.7-4.3c-0.1-1.1-0.6-1.7-1.9-1.7c-1,0-2,0.4-3.1,1.1l-1.3-2.3c1.5-0.9,3.2-1.6,5.1-1.6
						c3,0,4.7,1.7,4.7,5.4v6.8h-2.9l-0.2-1.2h-0.1c-1,0.9-2.1,1.5-3.5,1.5C942.5,400.4,941.1,398.8,941.1,396.8z M947.8,396.6v-2.1
						c-2.5,0.3-3.3,1.1-3.3,2c0,0.8,0.5,1.1,1.4,1.1C946.6,397.7,947.2,397.3,947.8,396.6z"/>
					<path d="M953.2,398.7l1.6-2.2c1.1,0.8,2.1,1.2,3.1,1.2c1.1,0,1.5-0.4,1.5-1c0-0.8-1.2-1.2-2.4-1.6c-1.4-0.6-3.1-1.5-3.1-3.5
						c0-2.2,1.8-3.7,4.6-3.7c1.8,0,3.2,0.7,4.2,1.5l-1.6,2.1c-0.9-0.6-1.7-1-2.5-1c-0.9,0-1.3,0.3-1.3,0.9c0,0.8,1.1,1.1,2.3,1.5
						c1.5,0.6,3.2,1.4,3.2,3.6c0,2.2-1.7,3.8-4.9,3.8C956.2,400.4,954.4,399.7,953.2,398.7z"/>
					<path d="M964.9,383.3h3.4v9.6h0.1l3.8-4.7h3.8l-4.2,4.9l4.5,7h-3.8l-2.7-4.6l-1.5,1.7v2.9h-3.4V383.3z"/>
					<path d="M981.1,384.5h3.7l1.9,7.3c0.5,1.7,0.8,3.3,1.3,5h0.1c0.5-1.7,0.8-3.3,1.2-5l1.8-7.3h3.6l-4.7,15.6h-4.2L981.1,384.5z"
						/>
					<path d="M995.9,384.6c0-1.1,0.9-1.8,2-1.8c1.2,0,2,0.7,2,1.8s-0.8,1.8-2,1.8C996.8,386.4,995.9,385.7,995.9,384.6z
						 M996.2,388.2h3.5v11.9h-3.5V388.2z"/>
					<path d="M1002.1,394.2c0-3.9,2.8-6.2,5.6-6.2c3.4,0,5.1,2.5,5.1,5.7c0,0.6-0.1,1.3-0.1,1.6h-7.1c0.3,1.7,1.5,2.5,3.1,2.5
						c0.9,0,1.7-0.3,2.6-0.8l1.2,2.1c-1.2,0.8-2.8,1.3-4.2,1.3C1004.8,400.4,1002.1,398.1,1002.1,394.2z M1009.8,392.9
						c0-1.3-0.6-2.3-2-2.3c-1.1,0-2.1,0.7-2.3,2.3H1009.8z"/>
					<path d="M1014.1,388.2h3.5l1.2,5.5c0.2,1.2,0.3,2.3,0.5,3.5h0.1c0.2-1.2,0.4-2.4,0.7-3.5l1.3-5.5h3l1.3,5.5
						c0.3,1.2,0.5,2.3,0.7,3.5h0.1c0.2-1.2,0.3-2.4,0.6-3.5l1.1-5.5h3.3l-2.9,11.9h-4.1l-1.1-4.8c-0.2-1.1-0.4-2.2-0.6-3.5h-0.1
						c-0.2,1.3-0.4,2.4-0.6,3.5l-1.1,4.8h-4L1014.1,388.2z"/>
				</g>
				<g>
					<path fill="#DBDADA" d="M1024.7,429.9h-73.1c-0.7,0-1.3-0.6-1.3-1.3V422c0-0.7,0.6-1.3,1.3-1.3h73.1c0.7,0,1.3,0.6,1.3,1.3v6.5
						C1026,429.2,1025.4,429.9,1024.7,429.9z"/>
					<path fill="#DBDADA" d="M1024.7,447h-73.1c-0.7,0-1.3-0.6-1.3-1.3v-6.5c0-0.7,0.6-1.3,1.3-1.3h73.1c0.7,0,1.3,0.6,1.3,1.3v6.5
						C1026,446.4,1025.4,447,1024.7,447z"/>
					<path fill="#DBDADA" d="M1024.7,464.1h-73.1c-0.7,0-1.3-0.6-1.3-1.3v-6.5c0-0.7,0.6-1.3,1.3-1.3h73.1c0.7,0,1.3,0.6,1.3,1.3
						v6.5C1026,463.5,1025.4,464.1,1024.7,464.1z"/>
					<g>
						<path fill="#DBDADA" d="M934.2,428.3h1.7v-4.4h-1.4v-1.1c0.8-0.2,1.4-0.4,1.9-0.7h1.3v6.2h1.4v1.4h-4.8V428.3z"/>
						<path fill="#DBDADA" d="M933.8,445.7c1.9-1.8,3.3-3.1,3.3-4.2c0-0.7-0.4-1.2-1.1-1.2c-0.6,0-1,0.4-1.4,0.8l-1-0.9
							c0.8-0.8,1.5-1.2,2.6-1.2c1.5,0,2.5,1,2.5,2.4c0,1.3-1.2,2.7-2.4,3.9c0.4,0,0.9-0.1,1.3-0.1h1.5v1.5h-5.4V445.7z"/>
						<path fill="#DBDADA" d="M933.6,462.8l0.8-1.1c0.5,0.4,1,0.8,1.7,0.8c0.7,0,1.2-0.3,1.2-0.9c0-0.7-0.4-1.1-2.1-1.1v-1.2
							c1.4,0,1.8-0.4,1.8-1c0-0.5-0.3-0.8-0.9-0.8c-0.5,0-0.9,0.3-1.4,0.7l-0.9-1.1c0.7-0.6,1.5-1,2.4-1c1.6,0,2.6,0.8,2.6,2.1
							c0,0.8-0.5,1.3-1.3,1.7v0c0.9,0.3,1.5,0.9,1.5,1.9c0,1.4-1.3,2.2-2.8,2.2C935,463.9,934.2,463.4,933.6,462.8z"/>
					</g>
				</g>
			</g>
		</g>
	</g>
</g>
<g>
	<rect x="225.5" y="738.5" fill="none" width="46.8" height="35.9"/>
	<path fill="#3FA9F5" d="M225.8,752.3l3.6-2.3c1.7,2.7,2.9,5.4,4,8.1h0.1c2.4-7.9,6.1-14.9,10.3-19.3l3.4,3
		c-4.2,3.9-8.3,10.1-11,19.9l-5.2,0.6C229.7,758.4,228.2,755.6,225.8,752.3z"/>
</g>
<g>
	<g>
		<line fill="none" stroke="#000000" stroke-miterlimit="10" x1="329.2" y1="628.9" x2="402.8" y2="629.9"/>
		<g>
			<polygon points="396.7,634.9 401.9,629.8 396.9,624.7 401.2,624.8 406.2,629.9 401,634.9 			"/>
		</g>
	</g>
</g>
<g>
	<g>
		<path fill="none" stroke="#000000" stroke-miterlimit="10" d="M529.8,539.9c0,0-6.1-48.5,20.1-78.6c25.9-29.8,62.9-31.6,74.2-31.5
			"/>
		<g>
			<polygon points="617.9,434.8 623.2,429.8 618.2,424.6 622.5,424.7 627.5,430 622.2,434.9 			"/>
		</g>
	</g>
</g>
<g>
</g>
<g>
</g>
<g>
</g>
<g>
</g>
<g>
</g>
<g>
</g>
<g>
</g>
<g>
</g>
<g>
</g>
<g>
</g>
<g>
</g>
<g>
</g>
<g>
</g>
<g>
</g>
<g>
</g>
<g>
</g>
</svg>
