<svg xmlns="http://www.w3.org/2000/svg" width="120" height="120" viewBox="0 0 120 120"><path stroke="#FFFCF7" stroke-miterlimit="10" d="M59.579 31.837c-14.548 0-26.343 12.153-26.343 27.143 0 10.019 5.338 18.675 13.172 23.379v10.548h26.34v-10.549c7.847-4.704 13.172-13.36 13.172-23.379 0-14.989-11.795-27.142-26.341-27.142zM72.5 97.5c0 .553-.447 1-1 1h-24c-.552 0-1-.447-1-1v-2c0-.553.448-1 1-1h24c.553 0 1 .447 1 1v2zM72.5 103.5c0 .553-.447 1-1 1h-24c-.552 0-1-.447-1-1v-2c0-.553.448-1 1-1h24c.553 0 1 .447 1 1v2zM72.5 109.5c0 .553-.447 1-1 1h-24c-.552 0-1-.447-1-1v-2c0-.553.448-1 1-1h24c.553 0 1 .447 1 1v2zM27.5 60.5c0 .553-.448 1-1 1h-14c-.552 0-1-.447-1-1v-3c0-.552.448-1 1-1h14c.552 0 1 .448 1 1v3zM96.067 25.216c.389.389.389 1.025 0 1.414l-9.869 9.868c-.389.389-1.025.389-1.414 0l-2.347-2.346c-.389-.389-.389-1.025 0-1.414l9.869-9.869c.389-.389 1.025-.389 1.414 0l2.347 2.347zM26.279 23.933c.389-.389 1.025-.389 1.414 0l9.868 9.869c.389.389.389 1.025 0 1.414l-2.346 2.347c-.389.389-1.025.389-1.414 0l-9.868-9.869c-.389-.389-.389-1.025 0-1.414l2.346-2.347zM108.5 60.5c0 .553-.447 1-1 1h-14c-.553 0-1-.447-1-1v-3c0-.552.447-1 1-1h14c.553 0 1 .448 1 1v3zM61.5 25.5c0 .552-.447 1-1 1h-3c-.552 0-1-.448-1-1v-14c0-.552.448-1 1-1h3c.553 0 1 .448 1 1v14z" fill="none"/></svg>