<?xml version="1.0" encoding="utf-8"?>
<!-- Generator: Adobe Illustrator 16.0.4, SVG Export Plug-In . SVG Version: 6.00 Build 0)  -->
<!DOCTYPE svg PUBLIC "-//W3C//DTD SVG 1.1//EN" "http://www.w3.org/Graphics/SVG/1.1/DTD/svg11.dtd">
<svg version="1.1" id="Layer_1" xmlns="http://www.w3.org/2000/svg" xmlns:xlink="http://www.w3.org/1999/xlink" x="0px" y="0px"
	 width="250px" height="190px" viewBox="0 0 250 190" enable-background="new 0 0 250 190" xml:space="preserve">
<g>
	<rect x="49.001" y="22.258" fill="none" width="193" height="159"/>
	<path d="M53.527,24.162c0.404,0.029,0.762,0.119,1.072,0.268s0.569,0.34,0.778,0.571c0.207,0.231,0.365,0.497,0.475,0.795
		c0.107,0.299,0.162,0.612,0.162,0.94c0,0.064-0.003,0.133-0.009,0.207s-0.009,0.122-0.009,0.145h-1.459v-0.167
		c0-0.164-0.017-0.325-0.049-0.483s-0.088-0.303-0.166-0.435c-0.08-0.132-0.184-0.248-0.312-0.347s-0.29-0.173-0.483-0.22v2.856
		c0.311,0.105,0.625,0.221,0.944,0.347s0.608,0.294,0.866,0.505s0.467,0.475,0.628,0.791s0.242,0.715,0.242,1.195
		c0,0.469-0.067,0.877-0.202,1.226S55.685,33,55.448,33.237c-0.238,0.237-0.521,0.42-0.849,0.549s-0.686,0.211-1.072,0.246v2.127
		H52.64v-2.127c-0.486-0.041-0.898-0.146-1.234-0.316c-0.338-0.17-0.614-0.381-0.831-0.633s-0.374-0.535-0.47-0.848
		c-0.098-0.313-0.146-0.634-0.146-0.962c0-0.123,0.003-0.214,0.009-0.272s0.009-0.097,0.009-0.114h1.477v0.176
		c0,0.51,0.11,0.898,0.329,1.165c0.221,0.267,0.506,0.441,0.857,0.523v-3.217c-0.299-0.105-0.597-0.223-0.893-0.352
		s-0.561-0.293-0.795-0.492s-0.424-0.447-0.566-0.743c-0.145-0.296-0.216-0.664-0.216-1.103c0-0.375,0.058-0.715,0.171-1.02
		c0.115-0.305,0.278-0.57,0.492-0.795s0.474-0.41,0.778-0.554s0.647-0.242,1.028-0.294v-1.925h0.888V24.162z M52.64,25.437
		c-0.205,0.041-0.372,0.11-0.501,0.207s-0.23,0.207-0.304,0.33s-0.123,0.252-0.148,0.387c-0.027,0.135-0.04,0.261-0.04,0.378
		c0,0.316,0.093,0.565,0.276,0.747c0.186,0.182,0.424,0.334,0.717,0.457V25.437z M53.527,32.767c0.34-0.053,0.624-0.196,0.853-0.431
		s0.343-0.562,0.343-0.984c0-0.199-0.03-0.375-0.093-0.527c-0.061-0.152-0.145-0.289-0.25-0.409s-0.231-0.224-0.378-0.312
		s-0.305-0.17-0.475-0.246V32.767z"/>
	<path d="M58.467,35.271V22.923h3.841c0.727,0,1.378,0.126,1.955,0.378s1.068,0.628,1.473,1.129s0.713,1.125,0.928,1.872
		c0.213,0.747,0.32,1.619,0.32,2.615c0,1.055-0.107,1.979-0.32,2.773c-0.215,0.794-0.523,1.456-0.928,1.986
		s-0.896,0.929-1.473,1.195s-1.229,0.4-1.955,0.4H58.467z M60.058,24.364v9.466h2.101c0.486,0,0.924-0.092,1.313-0.277
		s0.723-0.461,0.998-0.831s0.488-0.833,0.637-1.393c0.15-0.56,0.225-1.214,0.225-1.964v-0.896c0-0.686-0.074-1.286-0.225-1.802
		c-0.148-0.516-0.361-0.943-0.637-1.283s-0.608-0.595-0.998-0.765s-0.827-0.255-1.313-0.255H60.058z"/>
	<path d="M71.879,25.586c0.955,0,1.67,0.233,2.145,0.699s0.712,1.118,0.712,1.956v5.309c0,0.223,0.053,0.382,0.158,0.479
		s0.223,0.145,0.352,0.145h0.571v1.028c-0.082,0.047-0.205,0.094-0.369,0.141s-0.366,0.07-0.606,0.07
		c-0.387,0-0.709-0.107-0.967-0.321s-0.434-0.497-0.527-0.848h-0.088c-0.246,0.393-0.566,0.697-0.963,0.914
		c-0.395,0.217-0.842,0.325-1.34,0.325c-0.158,0-0.328-0.013-0.51-0.04s-0.365-0.073-0.549-0.141
		c-0.186-0.067-0.364-0.164-0.537-0.29s-0.324-0.287-0.457-0.483c-0.131-0.196-0.236-0.435-0.316-0.716
		c-0.078-0.281-0.118-0.612-0.118-0.993c0-0.65,0.12-1.182,0.36-1.595s0.574-0.735,1.002-0.967s0.935-0.39,1.521-0.475
		s1.222-0.127,1.907-0.127v-1.222c0-0.229-0.021-0.437-0.062-0.624s-0.117-0.349-0.229-0.483s-0.264-0.24-0.457-0.316
		s-0.442-0.114-0.747-0.114c-0.281,0-0.514,0.044-0.699,0.132c-0.184,0.088-0.332,0.204-0.443,0.347s-0.19,0.305-0.237,0.483
		s-0.07,0.359-0.07,0.541v0.211h-1.459c-0.012-0.053-0.018-0.108-0.018-0.167v-0.22c0-0.434,0.075-0.816,0.224-1.147
		c0.15-0.331,0.359-0.606,0.629-0.826s0.59-0.385,0.963-0.497C71.024,25.642,71.434,25.586,71.879,25.586z M73.259,30.974
		c-0.48,0-0.918,0.022-1.314,0.066c-0.395,0.044-0.735,0.13-1.02,0.259s-0.505,0.308-0.663,0.536s-0.237,0.527-0.237,0.896
		c0,0.539,0.108,0.914,0.325,1.125s0.533,0.316,0.949,0.316c0.234,0,0.467-0.048,0.698-0.145s0.441-0.242,0.629-0.435
		s0.34-0.437,0.457-0.729s0.176-0.636,0.176-1.028V30.974z"/>
	<path d="M80.176,25.586c0.1,0,0.19,0.009,0.272,0.026s0.155,0.035,0.22,0.053l0.211,0.07v1.529h-0.492
		c-0.234,0-0.457,0.038-0.668,0.114s-0.397,0.201-0.558,0.374c-0.162,0.173-0.291,0.401-0.387,0.686
		c-0.098,0.284-0.146,0.637-0.146,1.059v5.774h-1.477v-9.466h1.116l0.202,1.239h0.105c0.059-0.182,0.132-0.359,0.22-0.532
		s0.196-0.328,0.325-0.466s0.279-0.249,0.452-0.334S79.947,25.586,80.176,25.586z"/>
	<path d="M83.542,30.191l3.059-4.386h1.644L85.44,29.69l2.944,5.581h-1.679l-2.153-4.315l-1.011,1.09v3.226h-1.477V22.255h1.477
		V30.191z"/>
	<path d="M93.087,31.29h-4.544v-1.758h4.544V31.29z"/>
	<path d="M98.896,22.703c0.627,0,1.204,0.097,1.731,0.29s0.981,0.483,1.362,0.87s0.678,0.873,0.892,1.459s0.321,1.274,0.321,2.065
		h-1.626c0-0.539-0.063-1.011-0.189-1.415s-0.306-0.74-0.54-1.006s-0.518-0.467-0.849-0.602s-0.698-0.202-1.103-0.202
		c-1.084,0-1.889,0.371-2.413,1.112s-0.786,1.865-0.786,3.371v0.905c0,1.512,0.262,2.637,0.786,3.375s1.329,1.107,2.413,1.107
		c0.416,0,0.792-0.066,1.13-0.198c0.336-0.132,0.623-0.33,0.861-0.593c0.236-0.264,0.42-0.595,0.549-0.993s0.193-0.864,0.193-1.397
		h1.573c0,0.797-0.107,1.485-0.321,2.065s-0.511,1.061-0.892,1.441s-0.835,0.664-1.362,0.848s-1.104,0.277-1.731,0.277
		c-1.6,0-2.81-0.529-3.63-1.586s-1.23-2.659-1.23-4.803c0-2.139,0.41-3.738,1.23-4.799S97.297,22.703,98.896,22.703z"/>
	<path d="M108.037,25.586c1.107,0,1.948,0.401,2.522,1.204s0.861,2.051,0.861,3.744c0,1.699-0.287,2.949-0.861,3.749
		s-1.415,1.2-2.522,1.2s-1.948-0.4-2.522-1.2s-0.861-2.049-0.861-3.749c0-1.693,0.287-2.941,0.861-3.744
		S106.93,25.586,108.037,25.586z M108.037,26.896c-0.621,0-1.083,0.275-1.384,0.826c-0.303,0.551-0.453,1.374-0.453,2.47v0.694
		c0,1.09,0.15,1.91,0.453,2.461c0.301,0.551,0.763,0.826,1.384,0.826c0.615,0,1.075-0.275,1.38-0.826s0.457-1.371,0.457-2.461
		v-0.694c0-1.096-0.152-1.919-0.457-2.47S108.652,26.896,108.037,26.896z"/>
	<path d="M116.246,25.586c1.107,0,1.948,0.401,2.522,1.204s0.861,2.051,0.861,3.744c0,1.699-0.287,2.949-0.861,3.749
		s-1.415,1.2-2.522,1.2s-1.948-0.4-2.522-1.2s-0.861-2.049-0.861-3.749c0-1.693,0.287-2.941,0.861-3.744
		S115.139,25.586,116.246,25.586z M116.246,26.896c-0.621,0-1.083,0.275-1.384,0.826c-0.303,0.551-0.453,1.374-0.453,2.47v0.694
		c0,1.09,0.15,1.91,0.453,2.461c0.301,0.551,0.763,0.826,1.384,0.826c0.615,0,1.075-0.275,1.38-0.826s0.457-1.371,0.457-2.461
		v-0.694c0-1.096-0.152-1.919-0.457-2.47S116.861,26.896,116.246,26.896z"/>
	<path d="M122.724,35.271h-1.468V22.255h1.468V35.271z"/>
	<path d="M126.582,27.748h-1.802v-1.942h1.802V27.748z M126.582,35.271h-1.802V33.32h1.802V35.271z"/>
	<path d="M138.729,26.518h1.081v1.371h-1.389l-0.606,2.786h1.283v1.371h-1.591l-0.721,3.226h-1.362l0.712-3.226h-1.617l-0.712,3.226
		h-1.38l0.721-3.226h-1.151v-1.371h1.459l0.615-2.786h-1.362v-1.371h1.67l0.844-3.779h1.371l-0.853,3.779h1.617l0.853-3.779h1.371
		L138.729,26.518z M135.441,27.889l-0.615,2.786h1.626l0.606-2.786H135.441z"/>
	<path d="M144.151,22.703c0.527,0,1,0.098,1.419,0.294s0.773,0.536,1.064,1.02c0.289,0.483,0.512,1.137,0.668,1.96
		c0.154,0.823,0.232,1.862,0.232,3.116c0,1.26-0.078,2.3-0.232,3.12c-0.156,0.82-0.379,1.474-0.668,1.96
		c-0.291,0.486-0.646,0.826-1.064,1.02s-0.892,0.29-1.419,0.29s-1.001-0.097-1.419-0.29c-0.42-0.193-0.773-0.533-1.064-1.02
		c-0.289-0.486-0.513-1.14-0.668-1.96s-0.232-1.86-0.232-3.12c0-1.254,0.077-2.292,0.232-3.116s0.379-1.477,0.668-1.96
		c0.291-0.483,0.645-0.823,1.064-1.02C143.15,22.801,143.624,22.703,144.151,22.703z M144.151,24.021
		c-0.369,0-0.674,0.111-0.914,0.334s-0.433,0.532-0.575,0.927c-0.145,0.396-0.244,0.864-0.299,1.406
		c-0.057,0.542-0.084,1.135-0.084,1.78v1.266c0,0.645,0.027,1.238,0.084,1.78c0.055,0.542,0.154,1.009,0.299,1.402
		c0.143,0.393,0.335,0.7,0.575,0.923s0.545,0.334,0.914,0.334s0.674-0.111,0.914-0.334s0.432-0.53,0.575-0.923
		s0.243-0.86,0.299-1.402s0.084-1.135,0.084-1.78v-1.266c0-0.645-0.028-1.238-0.084-1.78s-0.155-1.011-0.299-1.406
		s-0.335-0.705-0.575-0.927S144.521,24.021,144.151,24.021z"/>
	<path d="M152.36,22.703c0.527,0,1,0.098,1.419,0.294s0.773,0.536,1.064,1.02c0.289,0.483,0.512,1.137,0.668,1.96
		c0.154,0.823,0.232,1.862,0.232,3.116c0,1.26-0.078,2.3-0.232,3.12c-0.156,0.82-0.379,1.474-0.668,1.96
		c-0.291,0.486-0.646,0.826-1.064,1.02s-0.892,0.29-1.419,0.29s-1.001-0.097-1.419-0.29c-0.42-0.193-0.773-0.533-1.064-1.02
		c-0.289-0.486-0.513-1.14-0.668-1.96s-0.232-1.86-0.232-3.12c0-1.254,0.077-2.292,0.232-3.116s0.379-1.477,0.668-1.96
		c0.291-0.483,0.645-0.823,1.064-1.02C151.359,22.801,151.833,22.703,152.36,22.703z M152.36,24.021
		c-0.369,0-0.674,0.111-0.914,0.334s-0.433,0.532-0.575,0.927c-0.145,0.396-0.244,0.864-0.299,1.406
		c-0.057,0.542-0.084,1.135-0.084,1.78v1.266c0,0.645,0.027,1.238,0.084,1.78c0.055,0.542,0.154,1.009,0.299,1.402
		c0.143,0.393,0.335,0.7,0.575,0.923s0.545,0.334,0.914,0.334s0.674-0.111,0.914-0.334s0.432-0.53,0.575-0.923
		s0.243-0.86,0.299-1.402s0.084-1.135,0.084-1.78v-1.266c0-0.645-0.028-1.238-0.084-1.78s-0.155-1.011-0.299-1.406
		s-0.335-0.705-0.575-0.927S152.729,24.021,152.36,24.021z"/>
	<path d="M160.569,22.703c0.516,0,0.97,0.091,1.362,0.272s0.721,0.428,0.984,0.738s0.461,0.675,0.594,1.094
		c0.131,0.419,0.197,0.866,0.197,1.34c0,0.586-0.113,1.122-0.338,1.608c-0.227,0.486-0.564,0.879-1.016,1.178
		c0.562,0.281,0.97,0.677,1.222,1.187s0.378,1.099,0.378,1.767c0,0.492-0.064,0.957-0.193,1.393s-0.33,0.817-0.602,1.143
		c-0.273,0.325-0.623,0.583-1.051,0.773s-0.94,0.286-1.538,0.286s-1.11-0.095-1.538-0.286s-0.777-0.448-1.051-0.773
		c-0.271-0.325-0.473-0.706-0.602-1.143s-0.193-0.901-0.193-1.393c0-0.668,0.124-1.257,0.373-1.767s0.652-0.905,1.209-1.187
		c-0.439-0.299-0.771-0.691-0.993-1.178s-0.334-1.022-0.334-1.608c0-0.475,0.065-0.921,0.198-1.34
		c0.131-0.419,0.329-0.784,0.593-1.094s0.59-0.557,0.979-0.738S160.054,22.703,160.569,22.703z M160.569,29.62
		c-0.615,0-1.081,0.202-1.397,0.606s-0.475,0.958-0.475,1.661c0,0.352,0.039,0.668,0.119,0.949c0.078,0.281,0.197,0.52,0.355,0.716
		s0.353,0.349,0.584,0.457s0.503,0.163,0.813,0.163c0.305,0,0.574-0.054,0.809-0.163s0.431-0.261,0.589-0.457
		s0.277-0.435,0.355-0.716c0.08-0.281,0.119-0.598,0.119-0.949c0-0.709-0.158-1.264-0.475-1.666S161.185,29.62,160.569,29.62z
		 M160.569,24.021c-0.51,0-0.913,0.189-1.208,0.567c-0.297,0.378-0.444,0.904-0.444,1.578c0,0.668,0.147,1.192,0.444,1.573
		c0.295,0.381,0.698,0.571,1.208,0.571s0.915-0.19,1.218-0.571c0.301-0.381,0.452-0.905,0.452-1.573c0-0.674-0.151-1.2-0.452-1.578
		C161.484,24.21,161.079,24.021,160.569,24.021z"/>
	<path d="M168.849,22.703c0.527,0,0.979,0.103,1.358,0.308c0.377,0.205,0.688,0.488,0.932,0.848c0.242,0.36,0.422,0.785,0.535,1.274
		c0.115,0.489,0.172,1.018,0.172,1.586h-1.503c0-0.855-0.129-1.519-0.387-1.991s-0.65-0.708-1.178-0.708
		c-0.375,0-0.683,0.108-0.923,0.325s-0.43,0.527-0.566,0.932c-0.139,0.404-0.235,0.895-0.291,1.472s-0.086,1.223-0.092,1.938
		c0.264-0.369,0.58-0.658,0.949-0.866s0.776-0.312,1.222-0.312c0.521,0,0.976,0.104,1.362,0.312s0.707,0.491,0.963,0.848
		c0.254,0.357,0.444,0.779,0.57,1.266s0.189,1.005,0.189,1.556c0,0.615-0.081,1.17-0.242,1.666s-0.385,0.914-0.672,1.257
		s-0.629,0.606-1.023,0.791c-0.396,0.185-0.825,0.277-1.288,0.277c-0.551,0-1.046-0.1-1.485-0.299s-0.812-0.532-1.116-0.998
		s-0.538-1.085-0.698-1.859c-0.162-0.773-0.242-1.731-0.242-2.874c0-1.289,0.077-2.366,0.232-3.23s0.381-1.557,0.678-2.079
		c0.295-0.521,0.657-0.892,1.085-1.112S168.304,22.703,168.849,22.703z M168.849,28.812c-0.311,0-0.58,0.07-0.809,0.211
		s-0.417,0.333-0.567,0.576c-0.148,0.243-0.261,0.527-0.334,0.853s-0.109,0.672-0.109,1.042s0.036,0.716,0.109,1.042
		s0.186,0.609,0.334,0.853c0.15,0.243,0.339,0.435,0.567,0.576s0.498,0.211,0.809,0.211s0.578-0.07,0.804-0.211
		s0.414-0.333,0.562-0.576c0.15-0.243,0.26-0.527,0.33-0.853s0.105-0.672,0.105-1.042s-0.035-0.716-0.105-1.042
		s-0.18-0.609-0.33-0.853c-0.148-0.243-0.337-0.435-0.562-0.576S169.159,28.812,168.849,28.812z"/>
	<path d="M174.052,22.923h4.685c0.457,0,0.88,0.072,1.27,0.215s0.726,0.347,1.007,0.611s0.502,0.582,0.663,0.954
		s0.242,0.787,0.242,1.244c0,0.357-0.049,0.688-0.145,0.993c-0.098,0.305-0.23,0.579-0.4,0.822s-0.371,0.453-0.602,0.628
		c-0.232,0.176-0.479,0.311-0.743,0.404v0.07c0.305,0.094,0.59,0.236,0.856,0.426s0.498,0.419,0.695,0.686
		c0.195,0.267,0.35,0.571,0.461,0.914s0.167,0.71,0.167,1.103c0,0.521-0.093,0.984-0.276,1.389
		c-0.186,0.404-0.436,0.747-0.752,1.028s-0.685,0.495-1.104,0.642s-0.865,0.22-1.34,0.22h-4.685V22.923z M175.634,24.364v3.867
		h2.628c0.305,0,0.58-0.053,0.826-0.158s0.457-0.246,0.633-0.422s0.311-0.381,0.404-0.615s0.141-0.483,0.141-0.747
		c0-0.645-0.173-1.126-0.519-1.446s-0.803-0.479-1.371-0.479H175.634z M175.634,29.673v4.157h2.883c0.293,0,0.563-0.044,0.813-0.132
		c0.248-0.088,0.462-0.218,0.641-0.391s0.319-0.387,0.422-0.642s0.154-0.549,0.154-0.883c0-0.281-0.05-0.549-0.149-0.804
		s-0.241-0.479-0.427-0.672c-0.184-0.193-0.408-0.347-0.672-0.461s-0.56-0.171-0.888-0.171H175.634z"/>
	<path d="M186.778,22.703c0.48,0,0.919,0.073,1.313,0.22c0.396,0.146,0.735,0.363,1.02,0.65s0.504,0.642,0.66,1.063
		c0.154,0.422,0.232,0.908,0.232,1.459c0,0.363-0.041,0.687-0.123,0.971s-0.195,0.538-0.338,0.76
		c-0.145,0.223-0.314,0.419-0.51,0.589c-0.197,0.17-0.409,0.319-0.638,0.448v0.07c0.264,0.1,0.505,0.236,0.726,0.409
		c0.219,0.173,0.411,0.385,0.575,0.637s0.291,0.542,0.382,0.87s0.137,0.697,0.137,1.107c0,0.551-0.084,1.044-0.25,1.481
		c-0.168,0.437-0.4,0.806-0.699,1.107s-0.656,0.533-1.072,0.694s-0.87,0.242-1.362,0.242c-0.562,0-1.061-0.088-1.494-0.264
		s-0.799-0.425-1.095-0.747s-0.518-0.712-0.668-1.169c-0.148-0.457-0.224-0.967-0.224-1.529v-0.141h1.521v0.202
		c0,0.768,0.156,1.349,0.471,1.745c0.312,0.396,0.774,0.593,1.384,0.593c0.293,0,0.561-0.044,0.804-0.132s0.451-0.227,0.625-0.417
		c0.172-0.19,0.307-0.432,0.404-0.725c0.096-0.293,0.145-0.642,0.145-1.046c0-0.439-0.057-0.8-0.172-1.081
		c-0.113-0.281-0.267-0.505-0.457-0.672s-0.407-0.283-0.65-0.347s-0.496-0.097-0.76-0.097h-1.02v-1.31h1.063
		c0.234,0,0.46-0.044,0.677-0.132s0.405-0.221,0.566-0.4s0.291-0.404,0.387-0.677c0.098-0.272,0.146-0.59,0.146-0.954
		c0-0.381-0.046-0.708-0.136-0.98c-0.092-0.272-0.215-0.497-0.369-0.672c-0.156-0.176-0.336-0.305-0.541-0.387
		s-0.419-0.123-0.642-0.123c-0.246,0-0.475,0.044-0.686,0.132s-0.393,0.224-0.545,0.409s-0.271,0.417-0.356,0.699
		s-0.127,0.612-0.127,0.993v0.158h-1.503v-0.316c0-0.516,0.079-0.981,0.237-1.397s0.378-0.772,0.659-1.068s0.618-0.524,1.011-0.686
		S186.31,22.703,186.778,22.703z"/>
	<path d="M53.527,45.762c0.404,0.029,0.762,0.119,1.072,0.268s0.569,0.34,0.778,0.571c0.207,0.231,0.365,0.497,0.475,0.795
		c0.107,0.299,0.162,0.612,0.162,0.94c0,0.064-0.003,0.133-0.009,0.207s-0.009,0.122-0.009,0.145h-1.459v-0.167
		c0-0.164-0.017-0.325-0.049-0.483s-0.088-0.303-0.166-0.435c-0.08-0.132-0.184-0.248-0.312-0.347s-0.29-0.173-0.483-0.22v2.856
		c0.311,0.105,0.625,0.221,0.944,0.347s0.608,0.294,0.866,0.505s0.467,0.475,0.628,0.791s0.242,0.715,0.242,1.195
		c0,0.469-0.067,0.877-0.202,1.226s-0.321,0.642-0.558,0.879c-0.238,0.237-0.521,0.42-0.849,0.549s-0.686,0.211-1.072,0.246v2.127
		H52.64v-2.127c-0.486-0.041-0.898-0.146-1.234-0.316c-0.338-0.17-0.614-0.381-0.831-0.633s-0.374-0.535-0.47-0.848
		c-0.098-0.313-0.146-0.634-0.146-0.962c0-0.123,0.003-0.214,0.009-0.272s0.009-0.097,0.009-0.114h1.477v0.176
		c0,0.51,0.11,0.898,0.329,1.165c0.221,0.267,0.506,0.441,0.857,0.523v-3.217c-0.299-0.105-0.597-0.223-0.893-0.352
		s-0.561-0.293-0.795-0.492s-0.424-0.447-0.566-0.743c-0.145-0.296-0.216-0.664-0.216-1.103c0-0.375,0.058-0.715,0.171-1.02
		c0.115-0.305,0.278-0.57,0.492-0.795s0.474-0.41,0.778-0.554s0.647-0.242,1.028-0.294v-1.925h0.888V45.762z M52.64,47.037
		c-0.205,0.041-0.372,0.11-0.501,0.207s-0.23,0.207-0.304,0.33s-0.123,0.252-0.148,0.387c-0.027,0.135-0.04,0.261-0.04,0.378
		c0,0.316,0.093,0.565,0.276,0.747c0.186,0.182,0.424,0.334,0.717,0.457V47.037z M53.527,54.367c0.34-0.053,0.624-0.196,0.853-0.431
		s0.343-0.562,0.343-0.984c0-0.199-0.03-0.375-0.093-0.527c-0.061-0.152-0.145-0.289-0.25-0.409s-0.231-0.224-0.378-0.312
		s-0.305-0.17-0.475-0.246V54.367z"/>
	<path d="M58.467,56.872V44.523h3.841c0.727,0,1.378,0.126,1.955,0.378s1.068,0.628,1.473,1.129s0.713,1.125,0.928,1.872
		c0.213,0.747,0.32,1.619,0.32,2.615c0,1.055-0.107,1.979-0.32,2.773c-0.215,0.794-0.523,1.456-0.928,1.986
		s-0.896,0.929-1.473,1.195s-1.229,0.4-1.955,0.4H58.467z M60.058,45.964v9.466h2.101c0.486,0,0.924-0.092,1.313-0.277
		s0.723-0.461,0.998-0.831s0.488-0.833,0.637-1.393c0.15-0.56,0.225-1.214,0.225-1.964v-0.896c0-0.686-0.074-1.286-0.225-1.802
		c-0.148-0.516-0.361-0.943-0.637-1.283s-0.608-0.595-0.998-0.765s-0.827-0.255-1.313-0.255H60.058z"/>
	<path d="M71.879,47.186c0.955,0,1.67,0.233,2.145,0.699s0.712,1.118,0.712,1.956v5.309c0,0.223,0.053,0.382,0.158,0.479
		s0.223,0.145,0.352,0.145h0.571v1.028c-0.082,0.047-0.205,0.094-0.369,0.141s-0.366,0.07-0.606,0.07
		c-0.387,0-0.709-0.107-0.967-0.321s-0.434-0.497-0.527-0.848h-0.088c-0.246,0.393-0.566,0.697-0.963,0.914
		c-0.395,0.217-0.842,0.325-1.34,0.325c-0.158,0-0.328-0.013-0.51-0.04s-0.365-0.073-0.549-0.141
		c-0.186-0.067-0.364-0.164-0.537-0.29s-0.324-0.287-0.457-0.483c-0.131-0.196-0.236-0.435-0.316-0.716
		c-0.078-0.281-0.118-0.612-0.118-0.993c0-0.65,0.12-1.182,0.36-1.595s0.574-0.735,1.002-0.967s0.935-0.39,1.521-0.475
		s1.222-0.127,1.907-0.127v-1.222c0-0.229-0.021-0.437-0.062-0.624s-0.117-0.349-0.229-0.483s-0.264-0.24-0.457-0.316
		s-0.442-0.114-0.747-0.114c-0.281,0-0.514,0.044-0.699,0.132c-0.184,0.088-0.332,0.204-0.443,0.347s-0.19,0.305-0.237,0.483
		s-0.07,0.359-0.07,0.541v0.211h-1.459c-0.012-0.053-0.018-0.108-0.018-0.167v-0.22c0-0.434,0.075-0.816,0.224-1.147
		c0.15-0.331,0.359-0.606,0.629-0.826s0.59-0.385,0.963-0.497C71.024,47.242,71.434,47.186,71.879,47.186z M73.259,52.574
		c-0.48,0-0.918,0.022-1.314,0.066c-0.395,0.044-0.735,0.13-1.02,0.259s-0.505,0.308-0.663,0.536s-0.237,0.527-0.237,0.896
		c0,0.539,0.108,0.914,0.325,1.125s0.533,0.316,0.949,0.316c0.234,0,0.467-0.048,0.698-0.145s0.441-0.242,0.629-0.435
		s0.34-0.437,0.457-0.729s0.176-0.636,0.176-1.028V52.574z"/>
	<path d="M80.176,47.186c0.1,0,0.19,0.009,0.272,0.026s0.155,0.035,0.22,0.053l0.211,0.07v1.529h-0.492
		c-0.234,0-0.457,0.038-0.668,0.114s-0.397,0.201-0.558,0.374c-0.162,0.173-0.291,0.401-0.387,0.686
		c-0.098,0.284-0.146,0.637-0.146,1.059v5.774h-1.477v-9.466h1.116l0.202,1.239h0.105c0.059-0.182,0.132-0.359,0.22-0.532
		s0.196-0.328,0.325-0.466s0.279-0.249,0.452-0.334S79.947,47.186,80.176,47.186z"/>
	<path d="M83.542,51.792l3.059-4.386h1.644l-2.804,3.885l2.944,5.581h-1.679l-2.153-4.315l-1.011,1.09v3.226h-1.477V43.855h1.477
		V51.792z"/>
	<path d="M93.087,52.89h-4.544v-1.758h4.544V52.89z"/>
	<path d="M104.17,56.872h-2.048l-1.512-8.376c-0.035-0.205-0.073-0.447-0.114-0.725s-0.079-0.549-0.114-0.813
		c-0.041-0.305-0.082-0.615-0.123-0.932h-0.07c-0.035,0.316-0.073,0.627-0.114,0.932c-0.035,0.264-0.073,0.535-0.114,0.813
		s-0.079,0.52-0.114,0.725l-1.468,8.376h-2.057l-2.865-12.349h1.67l1.898,8.534c0.041,0.182,0.082,0.398,0.123,0.65
		s0.082,0.492,0.123,0.721c0.041,0.27,0.085,0.545,0.132,0.826h0.07c0.023-0.223,0.05-0.454,0.079-0.694
		c0.029-0.205,0.062-0.438,0.097-0.699s0.076-0.529,0.123-0.804l1.433-8.534h2.188l1.538,8.534c0.041,0.223,0.082,0.461,0.123,0.716
		s0.076,0.494,0.105,0.716c0.035,0.258,0.067,0.513,0.097,0.765h0.07l0.123-0.791c0.035-0.223,0.075-0.461,0.118-0.716
		c0.045-0.255,0.09-0.485,0.137-0.69l1.89-8.534h1.441L104.17,56.872z"/>
	<path d="M110.691,47.186c0.955,0,1.67,0.233,2.145,0.699s0.712,1.118,0.712,1.956v5.309c0,0.223,0.053,0.382,0.158,0.479
		s0.223,0.145,0.352,0.145h0.571v1.028c-0.082,0.047-0.205,0.094-0.369,0.141s-0.366,0.07-0.606,0.07
		c-0.387,0-0.709-0.107-0.967-0.321s-0.434-0.497-0.527-0.848h-0.088c-0.246,0.393-0.566,0.697-0.963,0.914
		c-0.395,0.217-0.842,0.325-1.34,0.325c-0.158,0-0.328-0.013-0.51-0.04s-0.365-0.073-0.549-0.141
		c-0.186-0.067-0.364-0.164-0.537-0.29s-0.324-0.287-0.457-0.483c-0.131-0.196-0.236-0.435-0.316-0.716
		c-0.078-0.281-0.118-0.612-0.118-0.993c0-0.65,0.12-1.182,0.36-1.595s0.574-0.735,1.002-0.967s0.935-0.39,1.521-0.475
		s1.222-0.127,1.907-0.127v-1.222c0-0.229-0.021-0.437-0.062-0.624s-0.117-0.349-0.229-0.483s-0.264-0.24-0.457-0.316
		s-0.442-0.114-0.747-0.114c-0.281,0-0.514,0.044-0.699,0.132c-0.184,0.088-0.332,0.204-0.443,0.347s-0.19,0.305-0.237,0.483
		s-0.07,0.359-0.07,0.541v0.211h-1.459c-0.012-0.053-0.018-0.108-0.018-0.167v-0.22c0-0.434,0.075-0.816,0.224-1.147
		c0.15-0.331,0.359-0.606,0.629-0.826s0.59-0.385,0.963-0.497C109.837,47.242,110.246,47.186,110.691,47.186z M112.071,52.574
		c-0.48,0-0.918,0.022-1.314,0.066c-0.395,0.044-0.735,0.13-1.02,0.259s-0.505,0.308-0.663,0.536s-0.237,0.527-0.237,0.896
		c0,0.539,0.108,0.914,0.325,1.125s0.533,0.316,0.949,0.316c0.234,0,0.467-0.048,0.698-0.145s0.441-0.242,0.629-0.435
		s0.34-0.437,0.457-0.729s0.176-0.636,0.176-1.028V52.574z"/>
	<path d="M118.988,47.186c0.1,0,0.19,0.009,0.272,0.026s0.155,0.035,0.22,0.053l0.211,0.07v1.529h-0.492
		c-0.234,0-0.457,0.038-0.668,0.114s-0.397,0.201-0.558,0.374c-0.162,0.173-0.291,0.401-0.387,0.686
		c-0.098,0.284-0.146,0.637-0.146,1.059v5.774h-1.477v-9.466h1.116l0.202,1.239h0.105c0.059-0.182,0.132-0.359,0.22-0.532
		s0.196-0.328,0.325-0.466s0.279-0.249,0.452-0.334S118.76,47.186,118.988,47.186z"/>
	<path d="M128.779,47.186c0.334,0,0.637,0.05,0.91,0.149c0.271,0.1,0.506,0.264,0.703,0.492c0.195,0.229,0.348,0.524,0.457,0.888
		c0.107,0.363,0.162,0.809,0.162,1.336v6.82h-1.477v-6.715c0-0.328-0.031-0.599-0.092-0.813c-0.062-0.214-0.148-0.384-0.26-0.51
		s-0.24-0.214-0.387-0.264s-0.308-0.075-0.483-0.075c-0.223,0-0.433,0.059-0.628,0.176c-0.197,0.117-0.369,0.287-0.52,0.51
		c-0.148,0.223-0.267,0.495-0.352,0.817s-0.127,0.688-0.127,1.099v5.774h-1.477v-6.715c0-0.328-0.031-0.599-0.092-0.813
		c-0.062-0.214-0.147-0.384-0.256-0.51s-0.236-0.214-0.387-0.264c-0.148-0.05-0.312-0.075-0.487-0.075
		c-0.223,0-0.433,0.059-0.628,0.176c-0.197,0.117-0.369,0.287-0.52,0.51c-0.148,0.223-0.268,0.495-0.355,0.817
		s-0.132,0.688-0.132,1.099v5.774h-1.477v-9.466h1.116l0.202,1.09h0.105c0.252-0.469,0.561-0.804,0.927-1.006
		s0.778-0.303,1.235-0.303c0.463,0,0.871,0.107,1.226,0.321s0.617,0.564,0.787,1.05c0.258-0.451,0.592-0.792,1.002-1.024
		S128.322,47.186,128.779,47.186z"/>
	<path d="M135.046,49.348h-1.802v-1.942h1.802V49.348z M135.046,56.872h-1.802V54.92h1.802V56.872z"/>
	<path d="M147.192,48.118h1.081v1.371h-1.389l-0.606,2.786h1.283v1.371h-1.591l-0.721,3.226h-1.362l0.712-3.226h-1.617l-0.712,3.226
		h-1.38l0.721-3.226h-1.151v-1.371h1.459l0.615-2.786h-1.362v-1.371h1.67l0.844-3.779h1.371l-0.853,3.779h1.617l0.853-3.779h1.371
		L147.192,48.118z M143.905,49.489l-0.615,2.786h1.626l0.606-2.786H143.905z"/>
	<path d="M149.768,56.872V44.523h7.128v1.441h-5.537v3.999h4.896v1.433h-4.896v5.476H149.768z"/>
	<path d="M161.633,44.303c0.527,0,1,0.098,1.419,0.294s0.773,0.536,1.064,1.02c0.289,0.483,0.512,1.137,0.668,1.96
		c0.154,0.823,0.232,1.862,0.232,3.116c0,1.26-0.078,2.3-0.232,3.12c-0.156,0.82-0.379,1.474-0.668,1.96
		c-0.291,0.486-0.646,0.826-1.064,1.02s-0.892,0.29-1.419,0.29s-1.001-0.097-1.419-0.29c-0.42-0.193-0.773-0.533-1.064-1.02
		c-0.289-0.486-0.513-1.14-0.668-1.96s-0.232-1.86-0.232-3.12c0-1.254,0.077-2.292,0.232-3.116s0.379-1.477,0.668-1.96
		c0.291-0.483,0.645-0.823,1.064-1.02C160.632,44.401,161.105,44.303,161.633,44.303z M161.633,45.622
		c-0.369,0-0.674,0.111-0.914,0.334s-0.433,0.532-0.575,0.927c-0.145,0.396-0.244,0.864-0.299,1.406
		c-0.057,0.542-0.084,1.135-0.084,1.78v1.266c0,0.645,0.027,1.238,0.084,1.78c0.055,0.542,0.154,1.009,0.299,1.402
		c0.143,0.393,0.335,0.7,0.575,0.923s0.545,0.334,0.914,0.334s0.674-0.111,0.914-0.334s0.432-0.53,0.575-0.923
		s0.243-0.86,0.299-1.402s0.084-1.135,0.084-1.78v-1.266c0-0.645-0.028-1.238-0.084-1.78s-0.155-1.011-0.299-1.406
		s-0.335-0.705-0.575-0.927S162.002,45.622,161.633,45.622z"/>
	<path d="M172.83,46.043h-4.342l-0.229,3.753c0.1-0.1,0.22-0.205,0.36-0.316s0.3-0.214,0.479-0.308s0.381-0.171,0.607-0.233
		c0.225-0.062,0.47-0.092,0.733-0.092c0.404,0,0.783,0.081,1.138,0.242s0.662,0.406,0.924,0.734c0.26,0.328,0.467,0.743,0.619,1.244
		s0.229,1.091,0.229,1.771s-0.079,1.283-0.237,1.811s-0.386,0.971-0.681,1.332c-0.297,0.36-0.657,0.634-1.082,0.822
		s-0.903,0.281-1.437,0.281c-0.521,0-0.995-0.092-1.419-0.277c-0.426-0.185-0.789-0.451-1.09-0.8
		c-0.303-0.349-0.535-0.772-0.699-1.27s-0.246-1.063-0.246-1.696h1.529c0,0.422,0.05,0.803,0.149,1.143s0.235,0.628,0.409,0.866
		c0.172,0.237,0.376,0.42,0.61,0.549s0.486,0.193,0.756,0.193c0.275,0,0.528-0.06,0.761-0.18c0.23-0.12,0.432-0.303,0.602-0.549
		s0.303-0.554,0.4-0.923c0.096-0.369,0.145-0.803,0.145-1.301c0-0.428-0.044-0.807-0.132-1.138s-0.211-0.609-0.369-0.835
		s-0.346-0.397-0.562-0.514s-0.457-0.176-0.721-0.176c-0.393,0-0.751,0.13-1.077,0.391c-0.324,0.261-0.575,0.605-0.751,1.033
		l-1.406-0.229l0.413-6.847h5.616V46.043z"/>
	<path d="M179.255,55.562h2.698v1.31h-7.102v-1.31h2.927v-8.789h-2.944v-0.94c0.252-0.023,0.539-0.073,0.861-0.149
		s0.657-0.171,1.007-0.286c0.348-0.114,0.693-0.246,1.037-0.396c0.342-0.149,0.657-0.309,0.944-0.479h0.571V55.562z"/>
	<path d="M186.295,44.303c0.445,0,0.864,0.062,1.257,0.185s0.734,0.313,1.023,0.571c0.291,0.258,0.521,0.589,0.69,0.993
		s0.255,0.891,0.255,1.459c0,0.516-0.079,1.003-0.237,1.463s-0.366,0.898-0.624,1.314s-0.551,0.814-0.879,1.195
		s-0.659,0.753-0.993,1.116s-0.659,0.721-0.976,1.072s-0.589,0.703-0.817,1.055c-0.07,0.111-0.132,0.22-0.185,0.325
		s-0.097,0.208-0.132,0.308h4.896v1.512h-6.715v-0.229c0-0.492,0.073-0.962,0.22-1.411s0.36-0.875,0.642-1.279
		c0.246-0.357,0.521-0.708,0.826-1.05s0.613-0.684,0.928-1.024c0.312-0.34,0.619-0.68,0.918-1.02s0.563-0.69,0.795-1.05
		s0.418-0.731,0.559-1.112s0.211-0.782,0.211-1.204c0-0.205-0.026-0.416-0.079-0.633s-0.143-0.413-0.269-0.589
		s-0.297-0.319-0.514-0.431s-0.489-0.167-0.817-0.167c-0.322,0-0.593,0.063-0.813,0.189c-0.219,0.126-0.396,0.296-0.531,0.51
		s-0.231,0.464-0.29,0.751s-0.088,0.589-0.088,0.905v0.747h-1.529c-0.012-0.059-0.021-0.126-0.026-0.202
		c-0.018-0.129-0.026-0.305-0.026-0.527c0-0.662,0.089-1.229,0.269-1.701c0.178-0.472,0.42-0.86,0.725-1.165
		s0.657-0.527,1.059-0.668S185.85,44.303,186.295,44.303z"/>
	<path d="M194.416,44.303c0.48,0,0.919,0.073,1.313,0.22c0.396,0.146,0.735,0.363,1.02,0.65s0.504,0.642,0.66,1.063
		c0.154,0.422,0.232,0.908,0.232,1.459c0,0.363-0.041,0.687-0.123,0.971s-0.195,0.538-0.338,0.76
		c-0.145,0.223-0.314,0.419-0.51,0.589c-0.197,0.17-0.409,0.319-0.638,0.448v0.07c0.264,0.1,0.505,0.236,0.726,0.409
		c0.219,0.173,0.411,0.385,0.575,0.637s0.291,0.542,0.382,0.87s0.137,0.697,0.137,1.107c0,0.551-0.084,1.044-0.25,1.481
		c-0.168,0.437-0.4,0.806-0.699,1.107s-0.656,0.533-1.072,0.694s-0.87,0.242-1.362,0.242c-0.562,0-1.061-0.088-1.494-0.264
		s-0.799-0.425-1.095-0.747s-0.518-0.712-0.668-1.169c-0.148-0.457-0.224-0.967-0.224-1.529v-0.141h1.521v0.202
		c0,0.768,0.156,1.349,0.471,1.745c0.312,0.396,0.774,0.593,1.384,0.593c0.293,0,0.561-0.044,0.804-0.132s0.451-0.227,0.625-0.417
		c0.172-0.19,0.307-0.432,0.404-0.725c0.096-0.293,0.145-0.642,0.145-1.046c0-0.439-0.057-0.8-0.172-1.081
		c-0.113-0.281-0.267-0.505-0.457-0.672s-0.407-0.283-0.65-0.347s-0.496-0.097-0.76-0.097h-1.02v-1.31h1.063
		c0.234,0,0.46-0.044,0.677-0.132s0.405-0.221,0.566-0.4s0.291-0.404,0.387-0.677c0.098-0.272,0.146-0.59,0.146-0.954
		c0-0.381-0.046-0.708-0.136-0.98c-0.092-0.272-0.215-0.497-0.369-0.672c-0.156-0.176-0.336-0.305-0.541-0.387
		s-0.419-0.123-0.642-0.123c-0.246,0-0.475,0.044-0.686,0.132s-0.393,0.224-0.545,0.409s-0.271,0.417-0.356,0.699
		s-0.127,0.612-0.127,0.993v0.158h-1.503v-0.316c0-0.516,0.079-0.981,0.237-1.397s0.378-0.772,0.659-1.068s0.618-0.524,1.011-0.686
		S193.947,44.303,194.416,44.303z"/>
	<path d="M53.527,67.362c0.404,0.029,0.762,0.119,1.072,0.268s0.569,0.34,0.778,0.571c0.207,0.231,0.365,0.497,0.475,0.795
		c0.107,0.299,0.162,0.612,0.162,0.94c0,0.064-0.003,0.133-0.009,0.207s-0.009,0.122-0.009,0.145h-1.459v-0.167
		c0-0.164-0.017-0.325-0.049-0.483s-0.088-0.303-0.166-0.435c-0.08-0.132-0.184-0.248-0.312-0.347s-0.29-0.173-0.483-0.22v2.856
		c0.311,0.105,0.625,0.221,0.944,0.347s0.608,0.294,0.866,0.505s0.467,0.475,0.628,0.791s0.242,0.715,0.242,1.195
		c0,0.469-0.067,0.877-0.202,1.226s-0.321,0.642-0.558,0.879c-0.238,0.237-0.521,0.42-0.849,0.549s-0.686,0.211-1.072,0.246v2.127
		H52.64v-2.127c-0.486-0.041-0.898-0.146-1.234-0.316c-0.338-0.17-0.614-0.381-0.831-0.633s-0.374-0.535-0.47-0.848
		c-0.098-0.313-0.146-0.634-0.146-0.962c0-0.123,0.003-0.214,0.009-0.272s0.009-0.097,0.009-0.114h1.477v0.176
		c0,0.51,0.11,0.898,0.329,1.165c0.221,0.267,0.506,0.441,0.857,0.523v-3.217c-0.299-0.105-0.597-0.223-0.893-0.352
		s-0.561-0.293-0.795-0.492s-0.424-0.447-0.566-0.743c-0.145-0.296-0.216-0.664-0.216-1.103c0-0.375,0.058-0.715,0.171-1.02
		c0.115-0.305,0.278-0.57,0.492-0.795s0.474-0.41,0.778-0.554s0.647-0.242,1.028-0.294v-1.925h0.888V67.362z M52.64,68.637
		c-0.205,0.041-0.372,0.11-0.501,0.207s-0.23,0.207-0.304,0.33s-0.123,0.252-0.148,0.387c-0.027,0.135-0.04,0.261-0.04,0.378
		c0,0.316,0.093,0.565,0.276,0.747c0.186,0.182,0.424,0.334,0.717,0.457V68.637z M53.527,75.967c0.34-0.053,0.624-0.196,0.853-0.431
		s0.343-0.562,0.343-0.984c0-0.199-0.03-0.375-0.093-0.527c-0.061-0.152-0.145-0.289-0.25-0.409s-0.231-0.224-0.378-0.312
		s-0.305-0.17-0.475-0.246V75.967z"/>
	<path d="M66.808,78.472v-8.965c0-0.105,0.006-0.265,0.018-0.479s0.026-0.426,0.044-0.637c0.018-0.246,0.038-0.51,0.062-0.791h-0.07
		c-0.053,0.281-0.105,0.545-0.158,0.791c-0.047,0.211-0.094,0.423-0.141,0.637s-0.085,0.374-0.114,0.479l-2.47,8.965h-1.424
		l-2.461-8.965c-0.012-0.041-0.026-0.101-0.044-0.18s-0.037-0.167-0.058-0.264s-0.042-0.201-0.065-0.312s-0.044-0.22-0.062-0.325
		c-0.047-0.252-0.097-0.527-0.149-0.826h-0.079c0.018,0.293,0.035,0.565,0.053,0.817c0.012,0.217,0.024,0.431,0.039,0.642
		s0.022,0.36,0.022,0.448v8.965h-1.424V66.123h2.408l2.18,8.104c0.029,0.111,0.058,0.237,0.083,0.378
		c0.027,0.141,0.053,0.286,0.08,0.435c0.025,0.149,0.051,0.302,0.074,0.457s0.044,0.306,0.062,0.453
		c0.041,0.34,0.079,0.688,0.114,1.046h0.079c0.029-0.363,0.064-0.718,0.105-1.063c0.035-0.293,0.076-0.596,0.123-0.91
		s0.103-0.579,0.167-0.795l2.188-8.104h2.399v12.349H66.808z"/>
	<path d="M73.821,68.786c0.516,0,0.97,0.083,1.362,0.25s0.718,0.429,0.976,0.787s0.452,0.817,0.585,1.38
		c0.131,0.562,0.197,1.239,0.197,2.03v0.94h-5.133c0.006,1.102,0.177,1.91,0.514,2.426s0.854,0.773,1.552,0.773
		c0.234,0,0.449-0.048,0.646-0.145s0.366-0.237,0.51-0.422s0.256-0.409,0.334-0.672c0.08-0.264,0.119-0.56,0.119-0.888h1.459
		c0,0.533-0.074,1.012-0.225,1.437c-0.148,0.425-0.359,0.785-0.633,1.081c-0.271,0.296-0.599,0.523-0.979,0.681
		s-0.803,0.237-1.266,0.237c-0.586,0-1.102-0.092-1.547-0.277s-0.819-0.478-1.12-0.879c-0.303-0.401-0.529-0.914-0.682-1.538
		s-0.229-1.375-0.229-2.254c0-1.693,0.297-2.941,0.893-3.744C71.748,69.188,72.638,68.786,73.821,68.786z M73.821,70.096
		c-0.328,0-0.61,0.059-0.849,0.176c-0.236,0.117-0.435,0.292-0.593,0.523s-0.281,0.519-0.369,0.861s-0.149,0.743-0.185,1.2h3.568
		c0-0.908-0.134-1.595-0.4-2.061S74.337,70.096,73.821,70.096z"/>
	<path d="M84.843,78.472h-1.116l-0.193-1.099h-0.097c-0.223,0.439-0.513,0.768-0.87,0.984s-0.756,0.325-1.195,0.325
		c-0.451,0-0.858-0.095-1.222-0.286s-0.673-0.488-0.927-0.892c-0.256-0.404-0.45-0.918-0.585-1.542s-0.202-1.373-0.202-2.246
		c0-0.855,0.074-1.594,0.225-2.215c0.148-0.621,0.352-1.132,0.605-1.534c0.256-0.401,0.555-0.699,0.896-0.892
		c0.344-0.193,0.711-0.29,1.104-0.29c0.457,0,0.865,0.098,1.227,0.294c0.359,0.196,0.622,0.47,0.786,0.822h0.088v-4.447h1.477
		V78.472z M81.67,70.096c-0.281,0-0.527,0.062-0.738,0.185s-0.387,0.316-0.527,0.58s-0.246,0.605-0.316,1.024
		s-0.105,0.921-0.105,1.507v0.694c0,0.586,0.035,1.087,0.105,1.503s0.176,0.756,0.316,1.02s0.316,0.457,0.527,0.58
		s0.457,0.185,0.738,0.185c0.574,0,1-0.275,1.279-0.826c0.277-0.551,0.417-1.371,0.417-2.461v-0.615
		C83.366,71.221,82.801,70.096,81.67,70.096z"/>
	<path d="M90.644,74.49H86.1v-1.758h4.544V74.49z"/>
	<path d="M96.453,65.903c0.627,0,1.204,0.097,1.731,0.29s0.981,0.483,1.362,0.87s0.678,0.873,0.892,1.459s0.321,1.274,0.321,2.065
		h-1.626c0-0.539-0.063-1.011-0.189-1.415s-0.306-0.74-0.54-1.006s-0.518-0.467-0.849-0.602s-0.698-0.202-1.103-0.202
		c-1.084,0-1.889,0.371-2.413,1.112s-0.786,1.865-0.786,3.371v0.905c0,1.512,0.262,2.637,0.786,3.375s1.329,1.107,2.413,1.107
		c0.416,0,0.792-0.066,1.13-0.198c0.336-0.132,0.623-0.33,0.861-0.593c0.236-0.264,0.42-0.595,0.549-0.993s0.193-0.864,0.193-1.397
		h1.573c0,0.797-0.107,1.485-0.321,2.065s-0.511,1.061-0.892,1.441s-0.835,0.664-1.362,0.848s-1.104,0.277-1.731,0.277
		c-1.6,0-2.81-0.529-3.63-1.586s-1.23-2.659-1.23-4.803c0-2.139,0.41-3.738,1.23-4.799S94.854,65.903,96.453,65.903z"/>
	<path d="M105.594,68.786c1.107,0,1.948,0.401,2.522,1.204s0.861,2.051,0.861,3.744c0,1.699-0.287,2.949-0.861,3.749
		s-1.415,1.2-2.522,1.2s-1.948-0.4-2.522-1.2s-0.861-2.049-0.861-3.749c0-1.693,0.287-2.941,0.861-3.744
		S104.486,68.786,105.594,68.786z M105.594,70.096c-0.621,0-1.083,0.275-1.384,0.826c-0.303,0.551-0.453,1.374-0.453,2.47v0.694
		c0,1.09,0.15,1.91,0.453,2.461c0.301,0.551,0.763,0.826,1.384,0.826c0.615,0,1.075-0.275,1.38-0.826s0.457-1.371,0.457-2.461
		v-0.694c0-1.096-0.152-1.919-0.457-2.47S106.209,70.096,105.594,70.096z"/>
	<path d="M113.803,68.786c1.107,0,1.948,0.401,2.522,1.204s0.861,2.051,0.861,3.744c0,1.699-0.287,2.949-0.861,3.749
		s-1.415,1.2-2.522,1.2s-1.948-0.4-2.522-1.2s-0.861-2.049-0.861-3.749c0-1.693,0.287-2.941,0.861-3.744
		S112.695,68.786,113.803,68.786z M113.803,70.096c-0.621,0-1.083,0.275-1.384,0.826c-0.303,0.551-0.453,1.374-0.453,2.47v0.694
		c0,1.09,0.15,1.91,0.453,2.461c0.301,0.551,0.763,0.826,1.384,0.826c0.615,0,1.075-0.275,1.38-0.826s0.457-1.371,0.457-2.461
		v-0.694c0-1.096-0.152-1.919-0.457-2.47S114.418,70.096,113.803,70.096z"/>
	<path d="M120.28,78.472h-1.468V65.455h1.468V78.472z"/>
	<path d="M125.905,74.49h-4.544v-1.758h4.544V74.49z"/>
	<path d="M135.028,77.101c-0.381,0.562-0.84,0.968-1.375,1.217c-0.537,0.249-1.142,0.374-1.815,0.374
		c-0.779,0-1.471-0.132-2.074-0.396s-1.112-0.662-1.524-1.195c-0.414-0.533-0.728-1.198-0.941-1.995s-0.32-1.731-0.32-2.804
		s0.114-2.008,0.343-2.808s0.555-1.466,0.979-2s0.943-0.932,1.557-1.195c0.611-0.264,1.305-0.396,2.078-0.396
		c0.639,0,1.231,0.091,1.779,0.272s1.022,0.456,1.424,0.822s0.715,0.828,0.941,1.384c0.225,0.557,0.338,1.207,0.338,1.951h-1.626
		c0-0.51-0.07-0.952-0.211-1.327s-0.336-0.684-0.585-0.927s-0.549-0.423-0.9-0.541s-0.738-0.176-1.16-0.176
		c-0.51,0-0.969,0.092-1.375,0.277c-0.408,0.185-0.754,0.463-1.037,0.835c-0.285,0.372-0.503,0.839-0.655,1.402
		s-0.229,1.219-0.229,1.969v0.905c0,1.506,0.275,2.629,0.826,3.371s1.342,1.112,2.373,1.112c1.025,0,1.773-0.29,2.245-0.87
		s0.708-1.462,0.708-2.646v-0.281h-3.199v-1.389h4.825v6.425h-1.046L135.028,77.101z"/>
	<path d="M141.69,68.786c0.1,0,0.19,0.009,0.272,0.026s0.155,0.035,0.22,0.053l0.211,0.07v1.529h-0.492
		c-0.234,0-0.457,0.038-0.668,0.114s-0.397,0.201-0.558,0.374c-0.162,0.173-0.291,0.401-0.387,0.686
		c-0.098,0.284-0.146,0.637-0.146,1.059v5.774h-1.477v-9.466h1.116l0.202,1.239h0.105c0.059-0.182,0.132-0.359,0.22-0.532
		s0.196-0.328,0.325-0.466s0.279-0.249,0.452-0.334S141.462,68.786,141.69,68.786z"/>
	<path d="M147.289,68.786c0.357,0,0.68,0.05,0.967,0.149s0.532,0.264,0.733,0.492c0.203,0.229,0.359,0.524,0.471,0.888
		s0.167,0.809,0.167,1.336v6.82h-1.477v-6.715c0-0.328-0.032-0.599-0.097-0.813s-0.155-0.384-0.272-0.51s-0.258-0.214-0.422-0.264
		s-0.346-0.075-0.545-0.075c-0.234,0-0.457,0.059-0.668,0.176s-0.397,0.287-0.558,0.51c-0.162,0.223-0.291,0.495-0.387,0.817
		c-0.098,0.322-0.146,0.688-0.146,1.099v5.774h-1.477v-9.466h1.116l0.202,1.09h0.105c0.264-0.469,0.592-0.804,0.984-1.006
		S146.814,68.786,147.289,68.786z"/>
	<path d="M153.661,70.948h-1.802v-1.942h1.802V70.948z M153.661,78.472h-1.802v-1.951h1.802V78.472z"/>
	<path d="M165.808,69.718h1.081v1.371H165.5l-0.606,2.786h1.283v1.371h-1.591l-0.721,3.226h-1.362l0.712-3.226h-1.617l-0.712,3.226
		h-1.38l0.721-3.226h-1.151v-1.371h1.459l0.615-2.786h-1.362v-1.371h1.67l0.844-3.779h1.371l-0.853,3.779h1.617l0.853-3.779h1.371
		L165.808,69.718z M162.521,71.089l-0.615,2.786h1.626l0.606-2.786H162.521z"/>
	<path d="M171.23,65.903c0.527,0,1,0.098,1.419,0.294s0.773,0.536,1.064,1.02c0.289,0.483,0.512,1.137,0.668,1.96
		c0.154,0.823,0.232,1.862,0.232,3.116c0,1.26-0.078,2.3-0.232,3.12c-0.156,0.82-0.379,1.474-0.668,1.96
		c-0.291,0.486-0.646,0.826-1.064,1.02s-0.892,0.29-1.419,0.29s-1.001-0.097-1.419-0.29c-0.42-0.193-0.773-0.533-1.064-1.02
		c-0.289-0.486-0.513-1.14-0.668-1.96s-0.232-1.86-0.232-3.12c0-1.254,0.077-2.292,0.232-3.116s0.379-1.477,0.668-1.96
		c0.291-0.483,0.645-0.823,1.064-1.02C170.229,66.001,170.703,65.903,171.23,65.903z M171.23,67.222
		c-0.369,0-0.674,0.111-0.914,0.334s-0.433,0.532-0.575,0.927c-0.145,0.396-0.244,0.864-0.299,1.406
		c-0.057,0.542-0.084,1.135-0.084,1.78v1.266c0,0.645,0.027,1.238,0.084,1.78c0.055,0.542,0.154,1.009,0.299,1.402
		c0.143,0.393,0.335,0.7,0.575,0.923s0.545,0.334,0.914,0.334s0.674-0.111,0.914-0.334s0.432-0.53,0.575-0.923
		s0.243-0.86,0.299-1.402s0.084-1.135,0.084-1.78v-1.266c0-0.645-0.028-1.238-0.084-1.78s-0.155-1.011-0.299-1.406
		s-0.335-0.705-0.575-0.927S171.6,67.222,171.23,67.222z"/>
	<path d="M176.504,66.123h4.685c0.457,0,0.88,0.072,1.27,0.215s0.726,0.347,1.007,0.611s0.502,0.582,0.663,0.954
		s0.242,0.787,0.242,1.244c0,0.357-0.049,0.688-0.145,0.993c-0.098,0.305-0.23,0.579-0.4,0.822s-0.371,0.453-0.602,0.628
		c-0.232,0.176-0.479,0.311-0.743,0.404v0.07c0.305,0.094,0.59,0.236,0.856,0.426s0.498,0.419,0.695,0.686
		c0.195,0.267,0.35,0.571,0.461,0.914s0.167,0.71,0.167,1.103c0,0.521-0.093,0.984-0.276,1.389
		c-0.186,0.404-0.436,0.747-0.752,1.028s-0.685,0.495-1.104,0.642s-0.865,0.22-1.34,0.22h-4.685V66.123z M178.086,67.564v3.867
		h2.628c0.305,0,0.58-0.053,0.826-0.158s0.457-0.246,0.633-0.422s0.311-0.381,0.404-0.615s0.141-0.483,0.141-0.747
		c0-0.645-0.173-1.126-0.519-1.446s-0.803-0.479-1.371-0.479H178.086z M178.086,72.873v4.157h2.883c0.293,0,0.563-0.044,0.813-0.132
		c0.248-0.088,0.462-0.218,0.641-0.391s0.319-0.387,0.422-0.642s0.154-0.549,0.154-0.883c0-0.281-0.05-0.549-0.149-0.804
		s-0.241-0.479-0.427-0.672c-0.184-0.193-0.408-0.347-0.672-0.461s-0.56-0.171-0.888-0.171H178.086z"/>
	<path d="M186.436,78.472V66.123h7.62v1.441h-6.029v3.867h5.238v1.441h-5.238v4.157h6.135v1.441H186.436z"/>
	<path d="M199.074,65.903c0.48,0,0.919,0.073,1.313,0.22c0.396,0.146,0.735,0.363,1.02,0.65s0.504,0.642,0.66,1.063
		c0.154,0.422,0.232,0.908,0.232,1.459c0,0.363-0.041,0.687-0.123,0.971s-0.195,0.538-0.338,0.76
		c-0.145,0.223-0.314,0.419-0.51,0.589c-0.197,0.17-0.409,0.319-0.638,0.448v0.07c0.264,0.1,0.505,0.236,0.726,0.409
		c0.219,0.173,0.411,0.385,0.575,0.637s0.291,0.542,0.382,0.87s0.137,0.697,0.137,1.107c0,0.551-0.084,1.044-0.25,1.481
		c-0.168,0.437-0.4,0.806-0.699,1.107s-0.656,0.533-1.072,0.694s-0.87,0.242-1.362,0.242c-0.562,0-1.061-0.088-1.494-0.264
		s-0.799-0.425-1.095-0.747s-0.518-0.712-0.668-1.169c-0.148-0.457-0.224-0.967-0.224-1.529v-0.141h1.521v0.202
		c0,0.768,0.156,1.349,0.471,1.745c0.312,0.396,0.774,0.593,1.384,0.593c0.293,0,0.561-0.044,0.804-0.132s0.451-0.227,0.625-0.417
		c0.172-0.19,0.307-0.432,0.404-0.725c0.096-0.293,0.145-0.642,0.145-1.046c0-0.439-0.057-0.8-0.172-1.081
		c-0.113-0.281-0.267-0.505-0.457-0.672s-0.407-0.283-0.65-0.347s-0.496-0.097-0.76-0.097h-1.02v-1.31h1.063
		c0.234,0,0.46-0.044,0.677-0.132s0.405-0.221,0.566-0.4s0.291-0.404,0.387-0.677c0.098-0.272,0.146-0.59,0.146-0.954
		c0-0.381-0.046-0.708-0.136-0.98c-0.092-0.272-0.215-0.497-0.369-0.672c-0.156-0.176-0.336-0.305-0.541-0.387
		s-0.419-0.123-0.642-0.123c-0.246,0-0.475,0.044-0.686,0.132s-0.393,0.224-0.545,0.409s-0.271,0.417-0.356,0.699
		s-0.127,0.612-0.127,0.993v0.158h-1.503v-0.316c0-0.516,0.079-0.981,0.237-1.397s0.378-0.772,0.659-1.068s0.618-0.524,1.011-0.686
		S198.605,65.903,199.074,65.903z"/>
	<path d="M208.848,65.903c0.627,0,1.204,0.097,1.731,0.29s0.981,0.483,1.362,0.87s0.678,0.873,0.892,1.459s0.321,1.274,0.321,2.065
		h-1.626c0-0.539-0.063-1.011-0.189-1.415s-0.306-0.74-0.54-1.006s-0.518-0.467-0.849-0.602s-0.698-0.202-1.103-0.202
		c-1.084,0-1.889,0.371-2.413,1.112s-0.786,1.865-0.786,3.371v0.905c0,1.512,0.262,2.637,0.786,3.375s1.329,1.107,2.413,1.107
		c0.416,0,0.792-0.066,1.13-0.198c0.336-0.132,0.623-0.33,0.861-0.593c0.236-0.264,0.42-0.595,0.549-0.993s0.193-0.864,0.193-1.397
		h1.573c0,0.797-0.107,1.485-0.321,2.065s-0.511,1.061-0.892,1.441s-0.835,0.664-1.362,0.848s-1.104,0.277-1.731,0.277
		c-1.6,0-2.81-0.529-3.63-1.586s-1.23-2.659-1.23-4.803c0-2.139,0.41-3.738,1.23-4.799S207.248,65.903,208.848,65.903z"/>
	<path d="M217.988,65.903c0.516,0,0.97,0.091,1.362,0.272s0.721,0.428,0.984,0.738s0.461,0.675,0.594,1.094
		c0.131,0.419,0.197,0.866,0.197,1.34c0,0.586-0.113,1.122-0.338,1.608c-0.227,0.486-0.564,0.879-1.016,1.178
		c0.562,0.281,0.97,0.677,1.222,1.187s0.378,1.099,0.378,1.767c0,0.492-0.064,0.957-0.193,1.393s-0.33,0.817-0.602,1.143
		c-0.273,0.325-0.623,0.583-1.051,0.773s-0.94,0.286-1.538,0.286s-1.11-0.095-1.538-0.286s-0.777-0.448-1.051-0.773
		c-0.271-0.325-0.473-0.706-0.602-1.143s-0.193-0.901-0.193-1.393c0-0.668,0.124-1.257,0.373-1.767s0.652-0.905,1.209-1.187
		c-0.439-0.299-0.771-0.691-0.993-1.178s-0.334-1.022-0.334-1.608c0-0.475,0.065-0.921,0.198-1.34
		c0.131-0.419,0.329-0.784,0.593-1.094s0.59-0.557,0.979-0.738S217.473,65.903,217.988,65.903z M217.988,72.82
		c-0.615,0-1.081,0.202-1.397,0.606s-0.475,0.958-0.475,1.661c0,0.352,0.039,0.668,0.119,0.949c0.078,0.281,0.197,0.52,0.355,0.716
		s0.353,0.349,0.584,0.457s0.503,0.163,0.813,0.163c0.305,0,0.574-0.054,0.809-0.163s0.431-0.261,0.589-0.457
		s0.277-0.435,0.355-0.716c0.08-0.281,0.119-0.598,0.119-0.949c0-0.709-0.158-1.264-0.475-1.666S218.604,72.82,217.988,72.82z
		 M217.988,67.222c-0.51,0-0.913,0.189-1.208,0.567c-0.297,0.378-0.444,0.904-0.444,1.578c0,0.668,0.147,1.192,0.444,1.573
		c0.295,0.381,0.698,0.571,1.208,0.571s0.915-0.19,1.218-0.571c0.301-0.381,0.452-0.905,0.452-1.573c0-0.674-0.151-1.2-0.452-1.578
		C218.903,67.411,218.498,67.222,217.988,67.222z"/>
	<path d="M53.527,88.962c0.404,0.029,0.762,0.119,1.072,0.268s0.569,0.34,0.778,0.571c0.207,0.231,0.365,0.497,0.475,0.795
		c0.107,0.299,0.162,0.612,0.162,0.94c0,0.064-0.003,0.133-0.009,0.207s-0.009,0.122-0.009,0.145h-1.459v-0.167
		c0-0.164-0.017-0.325-0.049-0.483s-0.088-0.303-0.166-0.435c-0.08-0.132-0.184-0.248-0.312-0.347s-0.29-0.173-0.483-0.22v2.856
		c0.311,0.105,0.625,0.221,0.944,0.347s0.608,0.294,0.866,0.505s0.467,0.475,0.628,0.791s0.242,0.715,0.242,1.195
		c0,0.469-0.067,0.877-0.202,1.226s-0.321,0.642-0.558,0.879c-0.238,0.237-0.521,0.42-0.849,0.549s-0.686,0.211-1.072,0.246v2.127
		H52.64v-2.127c-0.486-0.041-0.898-0.146-1.234-0.316c-0.338-0.17-0.614-0.381-0.831-0.633s-0.374-0.535-0.47-0.848
		c-0.098-0.313-0.146-0.634-0.146-0.962c0-0.123,0.003-0.214,0.009-0.272s0.009-0.097,0.009-0.114h1.477v0.176
		c0,0.51,0.11,0.898,0.329,1.165c0.221,0.267,0.506,0.441,0.857,0.523v-3.217c-0.299-0.105-0.597-0.223-0.893-0.352
		s-0.561-0.293-0.795-0.492s-0.424-0.447-0.566-0.743c-0.145-0.296-0.216-0.664-0.216-1.103c0-0.375,0.058-0.715,0.171-1.02
		c0.115-0.305,0.278-0.57,0.492-0.795s0.474-0.41,0.778-0.554s0.647-0.242,1.028-0.294v-1.925h0.888V88.962z M52.64,90.237
		c-0.205,0.041-0.372,0.11-0.501,0.207s-0.23,0.207-0.304,0.33s-0.123,0.252-0.148,0.387c-0.027,0.135-0.04,0.261-0.04,0.378
		c0,0.316,0.093,0.565,0.276,0.747c0.186,0.182,0.424,0.334,0.717,0.457V90.237z M53.527,97.567c0.34-0.053,0.624-0.196,0.853-0.431
		s0.343-0.562,0.343-0.984c0-0.199-0.03-0.375-0.093-0.527c-0.061-0.152-0.145-0.289-0.25-0.409s-0.231-0.224-0.378-0.312
		s-0.305-0.17-0.475-0.246V97.567z"/>
	<path d="M66.808,100.072v-8.965c0-0.105,0.006-0.265,0.018-0.479s0.026-0.426,0.044-0.637c0.018-0.246,0.038-0.51,0.062-0.791
		h-0.07c-0.053,0.281-0.105,0.545-0.158,0.791c-0.047,0.211-0.094,0.423-0.141,0.637s-0.085,0.374-0.114,0.479l-2.47,8.965h-1.424
		l-2.461-8.965c-0.012-0.041-0.026-0.101-0.044-0.18s-0.037-0.167-0.058-0.264s-0.042-0.201-0.065-0.312s-0.044-0.22-0.062-0.325
		c-0.047-0.252-0.097-0.527-0.149-0.826h-0.079c0.018,0.293,0.035,0.565,0.053,0.817c0.012,0.217,0.024,0.431,0.039,0.642
		s0.022,0.36,0.022,0.448v8.965h-1.424V87.723h2.408l2.18,8.104c0.029,0.111,0.058,0.237,0.083,0.378
		c0.027,0.141,0.053,0.286,0.08,0.435c0.025,0.149,0.051,0.302,0.074,0.457s0.044,0.306,0.062,0.453
		c0.041,0.34,0.079,0.688,0.114,1.046h0.079c0.029-0.363,0.064-0.718,0.105-1.063c0.035-0.293,0.076-0.596,0.123-0.91
		s0.103-0.579,0.167-0.795l2.188-8.104h2.399v12.349H66.808z"/>
	<path d="M73.821,90.386c0.516,0,0.97,0.083,1.362,0.25s0.718,0.429,0.976,0.787s0.452,0.817,0.585,1.38
		c0.131,0.562,0.197,1.239,0.197,2.03v0.94h-5.133c0.006,1.102,0.177,1.91,0.514,2.426s0.854,0.773,1.552,0.773
		c0.234,0,0.449-0.048,0.646-0.145s0.366-0.237,0.51-0.422s0.256-0.409,0.334-0.672c0.08-0.264,0.119-0.56,0.119-0.888h1.459
		c0,0.533-0.074,1.012-0.225,1.437c-0.148,0.425-0.359,0.785-0.633,1.081c-0.271,0.296-0.599,0.523-0.979,0.681
		s-0.803,0.237-1.266,0.237c-0.586,0-1.102-0.092-1.547-0.277s-0.819-0.478-1.12-0.879c-0.303-0.401-0.529-0.914-0.682-1.538
		s-0.229-1.375-0.229-2.254c0-1.693,0.297-2.941,0.893-3.744C71.748,90.788,72.638,90.386,73.821,90.386z M73.821,91.696
		c-0.328,0-0.61,0.059-0.849,0.176c-0.236,0.117-0.435,0.292-0.593,0.523s-0.281,0.519-0.369,0.861s-0.149,0.743-0.185,1.2h3.568
		c0-0.908-0.134-1.595-0.4-2.061S74.337,91.696,73.821,91.696z"/>
	<path d="M84.843,100.072h-1.116l-0.193-1.099h-0.097c-0.223,0.439-0.513,0.768-0.87,0.984s-0.756,0.325-1.195,0.325
		c-0.451,0-0.858-0.095-1.222-0.286s-0.673-0.488-0.927-0.892c-0.256-0.404-0.45-0.918-0.585-1.542s-0.202-1.373-0.202-2.246
		c0-0.855,0.074-1.594,0.225-2.215c0.148-0.621,0.352-1.132,0.605-1.534c0.256-0.401,0.555-0.699,0.896-0.892
		c0.344-0.193,0.711-0.29,1.104-0.29c0.457,0,0.865,0.098,1.227,0.294c0.359,0.196,0.622,0.47,0.786,0.822h0.088v-4.447h1.477
		V100.072z M81.67,91.696c-0.281,0-0.527,0.062-0.738,0.185s-0.387,0.316-0.527,0.58s-0.246,0.605-0.316,1.024
		s-0.105,0.921-0.105,1.507v0.694c0,0.586,0.035,1.087,0.105,1.503s0.176,0.756,0.316,1.02s0.316,0.457,0.527,0.58
		s0.457,0.185,0.738,0.185c0.574,0,1-0.275,1.279-0.826c0.277-0.551,0.417-1.371,0.417-2.461v-0.615
		C83.366,92.821,82.801,91.696,81.67,91.696z"/>
	<path d="M90.644,96.09H86.1v-1.758h4.544V96.09z"/>
	<path d="M96.453,87.503c0.627,0,1.204,0.097,1.731,0.29s0.981,0.483,1.362,0.87s0.678,0.873,0.892,1.459s0.321,1.274,0.321,2.065
		h-1.626c0-0.539-0.063-1.011-0.189-1.415s-0.306-0.74-0.54-1.006s-0.518-0.467-0.849-0.602s-0.698-0.202-1.103-0.202
		c-1.084,0-1.889,0.371-2.413,1.112s-0.786,1.865-0.786,3.371v0.905c0,1.512,0.262,2.637,0.786,3.375s1.329,1.107,2.413,1.107
		c0.416,0,0.792-0.066,1.13-0.198c0.336-0.132,0.623-0.33,0.861-0.593c0.236-0.264,0.42-0.595,0.549-0.993s0.193-0.864,0.193-1.397
		h1.573c0,0.797-0.107,1.485-0.321,2.065s-0.511,1.061-0.892,1.441s-0.835,0.664-1.362,0.848s-1.104,0.277-1.731,0.277
		c-1.6,0-2.81-0.529-3.63-1.586s-1.23-2.659-1.23-4.803c0-2.139,0.41-3.738,1.23-4.799S94.854,87.503,96.453,87.503z"/>
	<path d="M105.594,90.386c1.107,0,1.948,0.401,2.522,1.204s0.861,2.051,0.861,3.744c0,1.699-0.287,2.949-0.861,3.749
		s-1.415,1.2-2.522,1.2s-1.948-0.4-2.522-1.2s-0.861-2.049-0.861-3.749c0-1.693,0.287-2.941,0.861-3.744
		S104.486,90.386,105.594,90.386z M105.594,91.696c-0.621,0-1.083,0.275-1.384,0.826c-0.303,0.551-0.453,1.374-0.453,2.47v0.694
		c0,1.09,0.15,1.91,0.453,2.461c0.301,0.551,0.763,0.826,1.384,0.826c0.615,0,1.075-0.275,1.38-0.826s0.457-1.371,0.457-2.461
		v-0.694c0-1.096-0.152-1.919-0.457-2.47S106.209,91.696,105.594,91.696z"/>
	<path d="M113.803,90.386c1.107,0,1.948,0.401,2.522,1.204s0.861,2.051,0.861,3.744c0,1.699-0.287,2.949-0.861,3.749
		s-1.415,1.2-2.522,1.2s-1.948-0.4-2.522-1.2s-0.861-2.049-0.861-3.749c0-1.693,0.287-2.941,0.861-3.744
		S112.695,90.386,113.803,90.386z M113.803,91.696c-0.621,0-1.083,0.275-1.384,0.826c-0.303,0.551-0.453,1.374-0.453,2.47v0.694
		c0,1.09,0.15,1.91,0.453,2.461c0.301,0.551,0.763,0.826,1.384,0.826c0.615,0,1.075-0.275,1.38-0.826s0.457-1.371,0.457-2.461
		v-0.694c0-1.096-0.152-1.919-0.457-2.47S114.418,91.696,113.803,91.696z"/>
	<path d="M120.28,100.072h-1.468V87.055h1.468V100.072z"/>
	<path d="M125.905,96.09h-4.544v-1.758h4.544V96.09z"/>
	<path d="M127.268,87.723h4.685c0.457,0,0.88,0.072,1.27,0.215s0.726,0.347,1.007,0.611s0.502,0.582,0.663,0.954
		s0.242,0.787,0.242,1.244c0,0.357-0.049,0.688-0.145,0.993c-0.098,0.305-0.23,0.579-0.4,0.822s-0.371,0.453-0.602,0.628
		c-0.232,0.176-0.479,0.311-0.743,0.404v0.07c0.305,0.094,0.59,0.236,0.856,0.426s0.498,0.419,0.695,0.686
		c0.195,0.267,0.35,0.571,0.461,0.914s0.167,0.71,0.167,1.103c0,0.521-0.093,0.984-0.276,1.389
		c-0.186,0.404-0.436,0.747-0.752,1.028s-0.685,0.495-1.104,0.642s-0.865,0.22-1.34,0.22h-4.685V87.723z M128.85,89.165v3.867h2.628
		c0.305,0,0.58-0.053,0.826-0.158s0.457-0.246,0.633-0.422s0.311-0.381,0.404-0.615s0.141-0.483,0.141-0.747
		c0-0.645-0.173-1.126-0.519-1.446s-0.803-0.479-1.371-0.479H128.85z M128.85,94.473v4.157h2.883c0.293,0,0.563-0.044,0.813-0.132
		c0.248-0.088,0.462-0.218,0.641-0.391s0.319-0.387,0.422-0.642s0.154-0.549,0.154-0.883c0-0.281-0.05-0.549-0.149-0.804
		s-0.241-0.479-0.427-0.672c-0.184-0.193-0.408-0.347-0.672-0.461s-0.56-0.171-0.888-0.171H128.85z"/>
	<path d="M138.315,100.072h-1.468V87.055h1.468V100.072z"/>
	<path d="M146.349,100.072h-1.116l-0.193-1.099h-0.114c-0.264,0.475-0.593,0.812-0.989,1.011c-0.395,0.199-0.827,0.299-1.296,0.299
		c-0.352,0-0.673-0.05-0.962-0.149c-0.291-0.1-0.537-0.262-0.738-0.488c-0.203-0.226-0.359-0.52-0.471-0.883
		s-0.167-0.809-0.167-1.336v-6.82h1.477v6.715c0,0.328,0.032,0.599,0.097,0.813s0.155,0.382,0.272,0.505s0.256,0.209,0.417,0.259
		s0.342,0.075,0.541,0.075c0.234,0,0.458-0.059,0.672-0.176s0.401-0.287,0.562-0.51s0.291-0.494,0.387-0.813
		c0.098-0.319,0.146-0.684,0.146-1.094v-5.774h1.477V100.072z"/>
	<path d="M150.383,92.548h-1.802v-1.942h1.802V92.548z M150.383,100.072h-1.802v-1.951h1.802V100.072z"/>
	<path d="M162.529,91.318h1.081v1.371h-1.389l-0.606,2.786h1.283v1.371h-1.591l-0.721,3.226h-1.362l0.712-3.226h-1.617l-0.712,3.226
		h-1.38l0.721-3.226h-1.151v-1.371h1.459l0.615-2.786h-1.362v-1.371h1.67l0.844-3.779h1.371l-0.853,3.779h1.617l0.853-3.779h1.371
		L162.529,91.318z M159.242,92.689l-0.615,2.786h1.626l0.606-2.786H159.242z"/>
	<path d="M169.156,98.762h2.698v1.31h-7.102v-1.31h2.927v-8.789h-2.944v-0.94c0.252-0.023,0.539-0.073,0.861-0.149
		s0.657-0.171,1.007-0.286c0.348-0.114,0.693-0.246,1.037-0.396c0.342-0.149,0.657-0.309,0.944-0.479h0.571V98.762z"/>
	<path d="M179.36,97.321h-4.896l-0.844,2.751h-1.582l3.92-12.349h2.039l3.92,12.349h-1.705L179.36,97.321z M174.904,95.879h4.008
		l-1.67-5.493c-0.035-0.1-0.069-0.227-0.102-0.382s-0.062-0.306-0.092-0.453c-0.029-0.17-0.062-0.346-0.097-0.527h-0.07
		c-0.035,0.188-0.067,0.366-0.097,0.536c-0.029,0.146-0.062,0.296-0.097,0.448s-0.067,0.278-0.097,0.378L174.904,95.879z"/>
	<path d="M187.517,87.503c0.627,0,1.204,0.097,1.731,0.29s0.981,0.483,1.362,0.87s0.678,0.873,0.892,1.459s0.321,1.274,0.321,2.065
		h-1.626c0-0.539-0.063-1.011-0.189-1.415s-0.306-0.74-0.54-1.006s-0.518-0.467-0.849-0.602s-0.698-0.202-1.103-0.202
		c-1.084,0-1.889,0.371-2.413,1.112s-0.786,1.865-0.786,3.371v0.905c0,1.512,0.262,2.637,0.786,3.375s1.329,1.107,2.413,1.107
		c0.416,0,0.792-0.066,1.13-0.198c0.336-0.132,0.623-0.33,0.861-0.593c0.236-0.264,0.42-0.595,0.549-0.993s0.193-0.864,0.193-1.397
		h1.573c0,0.797-0.107,1.485-0.321,2.065s-0.511,1.061-0.892,1.441s-0.835,0.664-1.362,0.848s-1.104,0.277-1.731,0.277
		c-1.6,0-2.81-0.529-3.63-1.586s-1.23-2.659-1.23-4.803c0-2.139,0.41-3.738,1.23-4.799S185.917,87.503,187.517,87.503z"/>
	<path d="M199.646,89.244h-4.342l-0.229,3.753c0.1-0.1,0.22-0.205,0.36-0.316s0.3-0.214,0.479-0.308s0.381-0.171,0.607-0.233
		c0.225-0.062,0.47-0.092,0.733-0.092c0.404,0,0.783,0.081,1.138,0.242s0.662,0.406,0.924,0.734c0.26,0.328,0.467,0.743,0.619,1.244
		s0.229,1.091,0.229,1.771s-0.079,1.283-0.237,1.811s-0.386,0.971-0.681,1.332c-0.297,0.36-0.657,0.634-1.082,0.822
		s-0.903,0.281-1.437,0.281c-0.521,0-0.995-0.092-1.419-0.277c-0.426-0.185-0.789-0.451-1.09-0.8
		c-0.303-0.349-0.535-0.772-0.699-1.27s-0.246-1.063-0.246-1.696h1.529c0,0.422,0.05,0.803,0.149,1.143s0.235,0.628,0.409,0.866
		c0.172,0.237,0.376,0.42,0.61,0.549s0.486,0.193,0.756,0.193c0.275,0,0.528-0.06,0.761-0.18c0.23-0.12,0.432-0.303,0.602-0.549
		s0.303-0.554,0.4-0.923c0.096-0.369,0.145-0.803,0.145-1.301c0-0.428-0.044-0.807-0.132-1.138s-0.211-0.609-0.369-0.835
		s-0.346-0.397-0.562-0.514s-0.457-0.176-0.721-0.176c-0.393,0-0.751,0.13-1.077,0.391c-0.324,0.261-0.575,0.605-0.751,1.033
		l-1.406-0.229l0.413-6.847h5.616V89.244z"/>
	<path d="M202.019,100.072V87.723h7.128v1.441h-5.537v3.999h4.896v1.433h-4.896v5.476H202.019z"/>
	<path d="M211.036,100.072V87.723h7.128v1.441h-5.537v3.999h4.896v1.433h-4.896v5.476H211.036z"/>
	<path d="M53.527,110.562c0.404,0.029,0.762,0.119,1.072,0.268c0.311,0.15,0.569,0.341,0.778,0.572
		c0.207,0.231,0.365,0.496,0.475,0.795c0.107,0.299,0.162,0.612,0.162,0.94c0,0.064-0.003,0.134-0.009,0.206
		c-0.006,0.074-0.009,0.122-0.009,0.146h-1.459v-0.167c0-0.164-0.017-0.325-0.049-0.483s-0.088-0.304-0.166-0.435
		c-0.08-0.133-0.184-0.248-0.312-0.348s-0.29-0.173-0.483-0.22v2.856c0.311,0.105,0.625,0.222,0.944,0.348s0.608,0.294,0.866,0.505
		s0.467,0.475,0.628,0.791s0.242,0.715,0.242,1.195c0,0.469-0.067,0.878-0.202,1.226c-0.135,0.35-0.321,0.643-0.558,0.879
		c-0.238,0.238-0.521,0.421-0.849,0.55s-0.686,0.211-1.072,0.246v2.127H52.64v-2.127c-0.486-0.041-0.898-0.146-1.234-0.316
		c-0.338-0.17-0.614-0.381-0.831-0.633s-0.374-0.534-0.47-0.849c-0.098-0.312-0.146-0.634-0.146-0.962
		c0-0.123,0.003-0.214,0.009-0.272s0.009-0.097,0.009-0.114h1.477v0.176c0,0.51,0.11,0.898,0.329,1.165
		c0.221,0.267,0.506,0.44,0.857,0.522v-3.217c-0.299-0.105-0.597-0.223-0.893-0.352s-0.561-0.293-0.795-0.492
		s-0.424-0.446-0.566-0.743c-0.145-0.295-0.216-0.663-0.216-1.103c0-0.375,0.058-0.715,0.171-1.02
		c0.115-0.305,0.278-0.569,0.492-0.796c0.214-0.225,0.474-0.409,0.778-0.553s0.647-0.242,1.028-0.295v-1.925h0.888V110.562z
		 M52.64,111.837c-0.205,0.041-0.372,0.11-0.501,0.206c-0.129,0.098-0.23,0.207-0.304,0.33s-0.123,0.252-0.148,0.387
		c-0.027,0.135-0.04,0.261-0.04,0.378c0,0.316,0.093,0.565,0.276,0.747c0.186,0.182,0.424,0.334,0.717,0.457V111.837z
		 M53.527,119.167c0.34-0.053,0.624-0.196,0.853-0.431s0.343-0.562,0.343-0.984c0-0.199-0.03-0.375-0.093-0.527
		c-0.061-0.152-0.145-0.288-0.25-0.408s-0.231-0.225-0.378-0.312s-0.305-0.17-0.475-0.246V119.167z"/>
	<path d="M66.808,121.672v-8.965c0-0.105,0.006-0.265,0.018-0.479s0.026-0.427,0.044-0.638c0.018-0.246,0.038-0.51,0.062-0.791
		h-0.07c-0.053,0.281-0.105,0.545-0.158,0.791c-0.047,0.211-0.094,0.424-0.141,0.638s-0.085,0.373-0.114,0.479l-2.47,8.965h-1.424
		l-2.461-8.965c-0.012-0.041-0.026-0.102-0.044-0.18c-0.018-0.08-0.037-0.168-0.058-0.264c-0.021-0.098-0.042-0.201-0.065-0.312
		s-0.044-0.22-0.062-0.325c-0.047-0.252-0.097-0.527-0.149-0.826h-0.079c0.018,0.293,0.035,0.565,0.053,0.817
		c0.012,0.217,0.024,0.431,0.039,0.642s0.022,0.36,0.022,0.448v8.965h-1.424v-12.349h2.408l2.18,8.104
		c0.029,0.111,0.058,0.237,0.083,0.378c0.027,0.141,0.053,0.285,0.08,0.436c0.025,0.148,0.051,0.302,0.074,0.457
		s0.044,0.306,0.062,0.452c0.041,0.34,0.079,0.688,0.114,1.046h0.079c0.029-0.363,0.064-0.718,0.105-1.063
		c0.035-0.293,0.076-0.596,0.123-0.909s0.103-0.579,0.167-0.796l2.188-8.104h2.399v12.349H66.808z"/>
	<path d="M73.821,111.986c0.516,0,0.97,0.084,1.362,0.25c0.393,0.168,0.718,0.43,0.976,0.787s0.452,0.817,0.585,1.38
		c0.131,0.562,0.197,1.239,0.197,2.03v0.94h-5.133c0.006,1.102,0.177,1.91,0.514,2.426s0.854,0.773,1.552,0.773
		c0.234,0,0.449-0.048,0.646-0.146c0.196-0.096,0.366-0.236,0.51-0.422c0.144-0.184,0.256-0.408,0.334-0.672
		c0.08-0.264,0.119-0.56,0.119-0.888h1.459c0,0.533-0.074,1.013-0.225,1.437c-0.148,0.426-0.359,0.786-0.633,1.082
		c-0.271,0.296-0.599,0.522-0.979,0.681s-0.803,0.237-1.266,0.237c-0.586,0-1.102-0.092-1.547-0.277
		c-0.445-0.184-0.819-0.477-1.12-0.879c-0.303-0.4-0.529-0.914-0.682-1.537c-0.152-0.625-0.229-1.376-0.229-2.255
		c0-1.693,0.297-2.941,0.893-3.744C71.748,112.388,72.638,111.986,73.821,111.986z M73.821,113.296c-0.328,0-0.61,0.059-0.849,0.176
		c-0.236,0.117-0.435,0.292-0.593,0.522c-0.158,0.232-0.281,0.52-0.369,0.861c-0.088,0.344-0.149,0.743-0.185,1.2h3.568
		c0-0.908-0.134-1.595-0.4-2.062C74.728,113.529,74.337,113.296,73.821,113.296z"/>
	<path d="M84.843,121.672h-1.116l-0.193-1.099h-0.097c-0.223,0.439-0.513,0.768-0.87,0.984s-0.756,0.325-1.195,0.325
		c-0.451,0-0.858-0.096-1.222-0.285c-0.363-0.19-0.673-0.488-0.927-0.893c-0.256-0.404-0.45-0.918-0.585-1.543
		c-0.135-0.623-0.202-1.372-0.202-2.245c0-0.855,0.074-1.594,0.225-2.215c0.148-0.621,0.352-1.132,0.605-1.534
		c0.256-0.4,0.555-0.698,0.896-0.892c0.344-0.193,0.711-0.29,1.104-0.29c0.457,0,0.865,0.099,1.227,0.295
		c0.359,0.196,0.622,0.47,0.786,0.821h0.088v-4.447h1.477V121.672z M81.67,113.296c-0.281,0-0.527,0.062-0.738,0.185
		s-0.387,0.316-0.527,0.58s-0.246,0.605-0.316,1.023c-0.07,0.42-0.105,0.922-0.105,1.508v0.694c0,0.586,0.035,1.087,0.105,1.503
		s0.176,0.756,0.316,1.02s0.316,0.457,0.527,0.58s0.457,0.185,0.738,0.185c0.574,0,1-0.275,1.279-0.826
		c0.277-0.551,0.417-1.371,0.417-2.461v-0.615C83.366,114.421,82.801,113.296,81.67,113.296z"/>
	<path d="M90.644,117.69H86.1v-1.758h4.544V117.69z"/>
	<path d="M101.727,121.672h-2.048l-1.512-8.376c-0.035-0.205-0.073-0.446-0.114-0.726c-0.041-0.277-0.079-0.549-0.114-0.812
		c-0.041-0.305-0.082-0.615-0.123-0.932h-0.07c-0.035,0.316-0.073,0.627-0.114,0.932c-0.035,0.264-0.073,0.535-0.114,0.812
		c-0.041,0.279-0.079,0.521-0.114,0.726l-1.468,8.376h-2.057l-2.865-12.349h1.67l1.898,8.534c0.041,0.182,0.082,0.398,0.123,0.65
		s0.082,0.492,0.123,0.721c0.041,0.27,0.085,0.545,0.132,0.826h0.07c0.023-0.223,0.05-0.454,0.079-0.694
		c0.029-0.205,0.062-0.438,0.097-0.698s0.076-0.529,0.123-0.805l1.433-8.534h2.188l1.538,8.534c0.041,0.223,0.082,0.461,0.123,0.717
		c0.041,0.254,0.076,0.493,0.105,0.716c0.035,0.258,0.067,0.513,0.097,0.765h0.07l0.123-0.791c0.035-0.223,0.075-0.461,0.118-0.717
		c0.045-0.254,0.09-0.484,0.137-0.689l1.89-8.534h1.441L101.727,121.672z"/>
	<path d="M108.248,111.986c0.955,0,1.67,0.232,2.145,0.699c0.475,0.465,0.712,1.117,0.712,1.955v5.309
		c0,0.223,0.053,0.383,0.158,0.479c0.105,0.098,0.223,0.146,0.352,0.146h0.571v1.028c-0.082,0.047-0.205,0.094-0.369,0.141
		s-0.366,0.07-0.606,0.07c-0.387,0-0.709-0.107-0.967-0.32c-0.258-0.214-0.434-0.497-0.527-0.849h-0.088
		c-0.246,0.393-0.566,0.697-0.963,0.914c-0.395,0.217-0.842,0.325-1.34,0.325c-0.158,0-0.328-0.014-0.51-0.039
		c-0.182-0.027-0.365-0.074-0.549-0.141c-0.186-0.067-0.364-0.164-0.537-0.291c-0.173-0.125-0.324-0.286-0.457-0.482
		c-0.131-0.196-0.236-0.436-0.316-0.717c-0.078-0.281-0.118-0.612-0.118-0.993c0-0.65,0.12-1.183,0.36-1.595
		c0.24-0.414,0.574-0.735,1.002-0.967s0.935-0.39,1.521-0.475s1.222-0.128,1.907-0.128v-1.222c0-0.229-0.021-0.437-0.062-0.624
		s-0.117-0.349-0.229-0.483s-0.264-0.24-0.457-0.316s-0.442-0.114-0.747-0.114c-0.281,0-0.514,0.044-0.699,0.132
		c-0.184,0.088-0.332,0.204-0.443,0.348s-0.19,0.305-0.237,0.482c-0.047,0.18-0.07,0.359-0.07,0.541v0.211h-1.459
		c-0.012-0.053-0.018-0.108-0.018-0.167v-0.22c0-0.434,0.075-0.815,0.224-1.146c0.15-0.331,0.359-0.607,0.629-0.826
		c0.27-0.221,0.59-0.386,0.963-0.497C107.394,112.042,107.803,111.986,108.248,111.986z M109.628,117.374
		c-0.48,0-0.918,0.022-1.314,0.065c-0.395,0.045-0.735,0.131-1.02,0.26s-0.505,0.308-0.663,0.536s-0.237,0.527-0.237,0.896
		c0,0.539,0.108,0.914,0.325,1.125s0.533,0.316,0.949,0.316c0.234,0,0.467-0.048,0.698-0.146c0.231-0.096,0.441-0.241,0.629-0.435
		s0.34-0.437,0.457-0.729s0.176-0.636,0.176-1.028V117.374z"/>
	<path d="M116.545,111.986c0.1,0,0.19,0.009,0.272,0.026s0.155,0.035,0.22,0.053l0.211,0.07v1.529h-0.492
		c-0.234,0-0.457,0.038-0.668,0.114s-0.397,0.201-0.558,0.373c-0.162,0.174-0.291,0.402-0.387,0.686
		c-0.098,0.285-0.146,0.638-0.146,1.06v5.774h-1.477v-9.466h1.116l0.202,1.239h0.105c0.059-0.182,0.132-0.358,0.22-0.531
		s0.196-0.328,0.325-0.467c0.129-0.137,0.279-0.248,0.452-0.334C116.115,112.029,116.316,111.986,116.545,111.986z"/>
	<path d="M126.336,111.986c0.334,0,0.637,0.05,0.91,0.149c0.271,0.1,0.506,0.264,0.703,0.492c0.195,0.229,0.348,0.524,0.457,0.888
		c0.107,0.363,0.162,0.809,0.162,1.336v6.82h-1.477v-6.715c0-0.328-0.031-0.599-0.092-0.812c-0.062-0.214-0.148-0.384-0.26-0.51
		s-0.24-0.214-0.387-0.264s-0.308-0.075-0.483-0.075c-0.223,0-0.433,0.059-0.628,0.176c-0.197,0.117-0.369,0.287-0.52,0.51
		c-0.148,0.223-0.267,0.495-0.352,0.817s-0.127,0.688-0.127,1.099v5.774h-1.477v-6.715c0-0.328-0.031-0.599-0.092-0.812
		c-0.062-0.214-0.147-0.384-0.256-0.51s-0.236-0.214-0.387-0.264c-0.148-0.05-0.312-0.075-0.487-0.075
		c-0.223,0-0.433,0.059-0.628,0.176c-0.197,0.117-0.369,0.287-0.52,0.51c-0.148,0.223-0.268,0.495-0.355,0.817
		s-0.132,0.688-0.132,1.099v5.774h-1.477v-9.466h1.116l0.202,1.09h0.105c0.252-0.469,0.561-0.804,0.927-1.007
		c0.366-0.201,0.778-0.303,1.235-0.303c0.463,0,0.871,0.107,1.226,0.32c0.354,0.215,0.617,0.564,0.787,1.051
		c0.258-0.451,0.592-0.792,1.002-1.023S125.879,111.986,126.336,111.986z"/>
	<path d="M132.603,114.148h-1.802v-1.942h1.802V114.148z M132.603,121.672h-1.802v-1.951h1.802V121.672z"/>
	<path d="M144.749,112.918h1.081v1.371h-1.389l-0.606,2.786h1.283v1.371h-1.591l-0.721,3.226h-1.362l0.712-3.226h-1.617
		l-0.712,3.226h-1.38l0.721-3.226h-1.151v-1.371h1.459l0.615-2.786h-1.362v-1.371h1.67l0.844-3.779h1.371l-0.853,3.779h1.617
		l0.853-3.779h1.371L144.749,112.918z M141.462,114.289l-0.615,2.786h1.626l0.606-2.786H141.462z"/>
	<path d="M147.324,121.672v-12.349h7.128v1.441h-5.537v3.999h4.896v1.433h-4.896v5.476H147.324z"/>
	<path d="M156.342,121.672v-12.349h7.128v1.441h-5.537v3.999h4.896v1.433h-4.896v5.476H156.342z"/>
	<path d="M169.719,109.104c0.627,0,1.204,0.097,1.731,0.29s0.981,0.483,1.362,0.87s0.678,0.873,0.892,1.459s0.321,1.274,0.321,2.065
		h-1.626c0-0.539-0.063-1.011-0.189-1.415s-0.306-0.739-0.54-1.006s-0.518-0.468-0.849-0.603s-0.698-0.202-1.103-0.202
		c-1.084,0-1.889,0.371-2.413,1.111c-0.524,0.742-0.786,1.865-0.786,3.371v0.905c0,1.512,0.262,2.637,0.786,3.375
		s1.329,1.107,2.413,1.107c0.416,0,0.792-0.065,1.13-0.198c0.336-0.131,0.623-0.329,0.861-0.593c0.236-0.264,0.42-0.595,0.549-0.993
		s0.193-0.864,0.193-1.397h1.573c0,0.797-0.107,1.485-0.321,2.065s-0.511,1.061-0.892,1.441s-0.835,0.664-1.362,0.848
		c-0.527,0.186-1.104,0.277-1.731,0.277c-1.6,0-2.81-0.528-3.63-1.586s-1.23-2.659-1.23-4.804c0-2.139,0.41-3.738,1.23-4.799
		S168.119,109.104,169.719,109.104z"/>
	<path d="M180.063,120.362h2.698v1.31h-7.102v-1.31h2.927v-8.789h-2.944v-0.94c0.252-0.023,0.539-0.073,0.861-0.149
		s0.657-0.171,1.007-0.286c0.348-0.113,0.693-0.246,1.037-0.395c0.342-0.15,0.657-0.31,0.944-0.479h0.571V120.362z"/>
	<path d="M188.026,109.104c-0.117,0.557-0.264,1.122-0.439,1.696s-0.368,1.138-0.576,1.692c-0.208,0.553-0.423,1.085-0.646,1.595
		s-0.438,0.978-0.646,1.401c-0.209,0.426-0.4,0.796-0.576,1.112s-0.322,0.557-0.439,0.721h3.393v-3.894
		c0.088-0.217,0.165-0.425,0.232-0.624s0.131-0.396,0.189-0.589s0.114-0.393,0.167-0.598s0.108-0.428,0.167-0.668h0.712v6.372h1.266
		v1.31h-1.266v3.041h-1.468v-3.041h-4.772v-1.327c0.322-0.592,0.638-1.22,0.944-1.886c0.309-0.664,0.598-1.347,0.871-2.047
		c0.271-0.7,0.527-1.411,0.764-2.132c0.238-0.721,0.447-1.433,0.629-2.136H188.026z"/>
	<path d="M192.43,121.672v-12.349h3.841c0.727,0,1.378,0.126,1.955,0.378s1.068,0.629,1.473,1.129
		c0.404,0.502,0.713,1.125,0.928,1.873c0.213,0.746,0.32,1.618,0.32,2.614c0,1.055-0.107,1.979-0.32,2.772
		c-0.215,0.795-0.523,1.457-0.928,1.986c-0.404,0.531-0.896,0.93-1.473,1.195c-0.577,0.268-1.229,0.4-1.955,0.4H192.43z
		 M194.021,110.765v9.466h2.101c0.486,0,0.924-0.092,1.313-0.277c0.39-0.184,0.723-0.461,0.998-0.83s0.488-0.833,0.637-1.393
		c0.15-0.56,0.225-1.215,0.225-1.965v-0.896c0-0.686-0.074-1.286-0.225-1.802c-0.148-0.516-0.361-0.943-0.637-1.283
		s-0.608-0.595-0.998-0.765s-0.827-0.255-1.313-0.255H194.021z"/>
	<path d="M53.527,132.162c0.404,0.029,0.762,0.119,1.072,0.268c0.311,0.15,0.569,0.341,0.778,0.572
		c0.207,0.231,0.365,0.496,0.475,0.795c0.107,0.299,0.162,0.612,0.162,0.94c0,0.064-0.003,0.134-0.009,0.206
		c-0.006,0.074-0.009,0.122-0.009,0.146h-1.459v-0.167c0-0.164-0.017-0.325-0.049-0.483s-0.088-0.304-0.166-0.435
		c-0.08-0.133-0.184-0.248-0.312-0.348s-0.29-0.173-0.483-0.22v2.856c0.311,0.105,0.625,0.222,0.944,0.348s0.608,0.294,0.866,0.505
		s0.467,0.475,0.628,0.791s0.242,0.715,0.242,1.195c0,0.469-0.067,0.878-0.202,1.226c-0.135,0.35-0.321,0.643-0.558,0.879
		c-0.238,0.238-0.521,0.421-0.849,0.55s-0.686,0.211-1.072,0.246v2.127H52.64v-2.127c-0.486-0.041-0.898-0.146-1.234-0.316
		c-0.338-0.17-0.614-0.381-0.831-0.633s-0.374-0.534-0.47-0.849c-0.098-0.312-0.146-0.634-0.146-0.962
		c0-0.123,0.003-0.214,0.009-0.272s0.009-0.097,0.009-0.114h1.477v0.176c0,0.51,0.11,0.898,0.329,1.165
		c0.221,0.267,0.506,0.44,0.857,0.522v-3.217c-0.299-0.105-0.597-0.223-0.893-0.352s-0.561-0.293-0.795-0.492
		s-0.424-0.446-0.566-0.743c-0.145-0.295-0.216-0.663-0.216-1.103c0-0.375,0.058-0.715,0.171-1.02
		c0.115-0.305,0.278-0.569,0.492-0.796c0.214-0.225,0.474-0.409,0.778-0.553s0.647-0.242,1.028-0.295v-1.925h0.888V132.162z
		 M52.64,133.437c-0.205,0.041-0.372,0.11-0.501,0.206c-0.129,0.098-0.23,0.207-0.304,0.33s-0.123,0.252-0.148,0.387
		c-0.027,0.135-0.04,0.261-0.04,0.378c0,0.316,0.093,0.565,0.276,0.747c0.186,0.182,0.424,0.334,0.717,0.457V133.437z
		 M53.527,140.767c0.34-0.053,0.624-0.196,0.853-0.431s0.343-0.562,0.343-0.984c0-0.199-0.03-0.375-0.093-0.527
		c-0.061-0.152-0.145-0.288-0.25-0.408s-0.231-0.225-0.378-0.312s-0.305-0.17-0.475-0.246V140.767z"/>
	<path d="M58.467,143.271v-12.349h1.591v10.907h5.036v1.441H58.467z"/>
	<path d="M67.792,132.021h-1.468v-1.767h1.468V132.021z M67.792,143.271h-1.468v-9.466h1.468V143.271z"/>
	<path d="M76.546,132.268c0,0.281-0.035,0.547-0.105,0.795c-0.07,0.25-0.175,0.474-0.312,0.673
		c-0.139,0.199-0.306,0.368-0.502,0.505c-0.196,0.139-0.417,0.239-0.663,0.304c0.264,0.275,0.47,0.598,0.62,0.967
		c0.148,0.369,0.224,0.791,0.224,1.266c0,0.486-0.072,0.926-0.216,1.318s-0.347,0.726-0.61,0.997
		c-0.264,0.273-0.582,0.484-0.954,0.633c-0.372,0.15-0.786,0.228-1.243,0.233h-0.993c-0.123,0-0.236,0.022-0.338,0.065
		c-0.104,0.045-0.193,0.104-0.273,0.181c-0.078,0.076-0.141,0.166-0.184,0.269c-0.045,0.103-0.066,0.212-0.066,0.329
		s0.023,0.228,0.07,0.329c0.047,0.104,0.109,0.193,0.189,0.273c0.078,0.078,0.169,0.141,0.271,0.184
		c0.103,0.045,0.213,0.066,0.33,0.066h2.707c0.34,0,0.647,0.059,0.923,0.176s0.51,0.277,0.703,0.479
		c0.193,0.203,0.341,0.438,0.444,0.703c0.102,0.267,0.153,0.55,0.153,0.849c0,0.375-0.061,0.727-0.181,1.055
		s-0.297,0.612-0.531,0.853s-0.524,0.431-0.87,0.571s-0.741,0.211-1.187,0.211h-2.681c-0.387,0-0.727-0.059-1.02-0.176
		s-0.538-0.278-0.733-0.483c-0.197-0.205-0.345-0.443-0.444-0.717c-0.1-0.271-0.149-0.563-0.149-0.874
		c0-0.229,0.029-0.45,0.088-0.663c0.059-0.215,0.141-0.409,0.246-0.585s0.234-0.331,0.387-0.466s0.322-0.237,0.51-0.308
		c-0.246-0.152-0.437-0.356-0.571-0.61c-0.135-0.256-0.202-0.526-0.202-0.813c0-0.387,0.121-0.719,0.365-0.997
		c0.242-0.278,0.566-0.491,0.971-0.638c-0.346-0.281-0.615-0.625-0.809-1.032s-0.29-0.878-0.29-1.411
		c0-0.498,0.07-0.943,0.211-1.336s0.344-0.727,0.61-1.002s0.592-0.486,0.977-0.633c0.383-0.146,0.815-0.22,1.296-0.22
		c0.24,0,0.478,0.031,0.712,0.092c0.234,0.062,0.451,0.146,0.65,0.251c0.211-0.111,0.387-0.233,0.527-0.364
		c0.141-0.133,0.255-0.27,0.343-0.414c0.088-0.143,0.153-0.288,0.198-0.435c0.043-0.146,0.077-0.296,0.101-0.448H76.546z
		 M71.501,143.061c-0.188,0-0.351,0.028-0.487,0.084c-0.139,0.056-0.253,0.133-0.344,0.232s-0.158,0.217-0.201,0.352
		c-0.045,0.135-0.066,0.278-0.066,0.431s0.023,0.296,0.07,0.431s0.115,0.253,0.207,0.355c0.09,0.103,0.204,0.184,0.342,0.242
		s0.298,0.088,0.479,0.088h2.61c0.158,0,0.305-0.029,0.439-0.088s0.253-0.14,0.355-0.242s0.182-0.221,0.238-0.355
		c0.055-0.135,0.083-0.278,0.083-0.431s-0.022-0.296-0.065-0.431c-0.045-0.135-0.113-0.252-0.207-0.352s-0.21-0.177-0.348-0.232
		s-0.303-0.084-0.496-0.084H71.501z M72.696,134.808c-0.527,0-0.926,0.176-1.195,0.527s-0.404,0.832-0.404,1.441
		c0,0.633,0.135,1.116,0.404,1.45s0.668,0.501,1.195,0.501s0.929-0.174,1.204-0.522s0.413-0.825,0.413-1.429
		c0-0.639-0.138-1.126-0.413-1.464C73.625,134.977,73.224,134.808,72.696,134.808z"/>
	<path d="M79.464,134.79h0.105c0.246-0.422,0.543-0.728,0.892-0.919c0.349-0.189,0.761-0.285,1.235-0.285
		c0.357,0,0.68,0.05,0.967,0.149s0.532,0.264,0.733,0.492c0.203,0.229,0.359,0.524,0.471,0.888s0.167,0.809,0.167,1.336v6.82h-1.477
		v-6.715c0-0.328-0.032-0.599-0.097-0.812s-0.155-0.384-0.272-0.51s-0.258-0.214-0.422-0.264s-0.346-0.075-0.545-0.075
		c-0.234,0-0.457,0.059-0.668,0.176s-0.397,0.287-0.558,0.51c-0.162,0.223-0.291,0.495-0.387,0.817
		c-0.098,0.322-0.146,0.688-0.146,1.099v5.774h-1.477v-13.017h1.477V134.79z"/>
	<path d="M87.655,133.806h1.274v1.318h-1.274v6.179c0,0.281,0.07,0.496,0.211,0.646c0.141,0.148,0.352,0.224,0.633,0.224h0.431
		v1.028c-0.123,0.07-0.285,0.129-0.488,0.176c-0.201,0.047-0.394,0.07-0.575,0.07c-0.322,0-0.592-0.063-0.809-0.189
		c-0.217-0.125-0.39-0.291-0.519-0.496s-0.222-0.438-0.277-0.699c-0.056-0.26-0.083-0.525-0.083-0.795v-6.144h-0.817v-1.318h0.817
		l0.325-2.628h1.151V133.806z"/>
	<path d="M93.939,139.29h-4.544v-1.758h4.544V139.29z"/>
	<path d="M99.749,130.703c0.627,0,1.204,0.097,1.731,0.29s0.981,0.483,1.362,0.87s0.678,0.873,0.892,1.459s0.321,1.274,0.321,2.065
		h-1.626c0-0.539-0.063-1.011-0.189-1.415s-0.306-0.739-0.54-1.006s-0.518-0.468-0.849-0.603s-0.698-0.202-1.103-0.202
		c-1.084,0-1.889,0.371-2.413,1.111c-0.524,0.742-0.786,1.865-0.786,3.371v0.905c0,1.512,0.262,2.637,0.786,3.375
		s1.329,1.107,2.413,1.107c0.416,0,0.792-0.065,1.13-0.198c0.336-0.131,0.623-0.329,0.861-0.593c0.236-0.264,0.42-0.595,0.549-0.993
		s0.193-0.864,0.193-1.397h1.573c0,0.797-0.107,1.485-0.321,2.065s-0.511,1.061-0.892,1.441s-0.835,0.664-1.362,0.848
		c-0.527,0.186-1.104,0.277-1.731,0.277c-1.6,0-2.81-0.528-3.63-1.586s-1.23-2.659-1.23-4.804c0-2.139,0.41-3.738,1.23-4.799
		S98.149,130.703,99.749,130.703z"/>
	<path d="M108.89,133.586c1.107,0,1.948,0.401,2.522,1.204s0.861,2.051,0.861,3.744c0,1.699-0.287,2.948-0.861,3.749
		c-0.574,0.799-1.415,1.199-2.522,1.199s-1.948-0.4-2.522-1.199c-0.574-0.801-0.861-2.05-0.861-3.749
		c0-1.693,0.287-2.941,0.861-3.744S107.782,133.586,108.89,133.586z M108.89,134.896c-0.621,0-1.083,0.275-1.384,0.826
		c-0.303,0.551-0.453,1.374-0.453,2.47v0.694c0,1.09,0.15,1.91,0.453,2.461c0.301,0.551,0.763,0.826,1.384,0.826
		c0.615,0,1.075-0.275,1.38-0.826s0.457-1.371,0.457-2.461v-0.694c0-1.096-0.152-1.919-0.457-2.47S109.505,134.896,108.89,134.896z"
		/>
	<path d="M117.099,133.586c1.107,0,1.948,0.401,2.522,1.204s0.861,2.051,0.861,3.744c0,1.699-0.287,2.948-0.861,3.749
		c-0.574,0.799-1.415,1.199-2.522,1.199s-1.948-0.4-2.522-1.199c-0.574-0.801-0.861-2.05-0.861-3.749
		c0-1.693,0.287-2.941,0.861-3.744S115.991,133.586,117.099,133.586z M117.099,134.896c-0.621,0-1.083,0.275-1.384,0.826
		c-0.303,0.551-0.453,1.374-0.453,2.47v0.694c0,1.09,0.15,1.91,0.453,2.461c0.301,0.551,0.763,0.826,1.384,0.826
		c0.615,0,1.075-0.275,1.38-0.826s0.457-1.371,0.457-2.461v-0.694c0-1.096-0.152-1.919-0.457-2.47S117.714,134.896,117.099,134.896z
		"/>
	<path d="M123.576,143.271h-1.468v-13.017h1.468V143.271z"/>
	<path d="M127.435,135.748h-1.802v-1.942h1.802V135.748z M127.435,143.271h-1.802v-1.951h1.802V143.271z"/>
	<path d="M139.581,134.518h1.081v1.371h-1.389l-0.606,2.786h1.283v1.371h-1.591l-0.721,3.226h-1.362l0.712-3.226h-1.617
		l-0.712,3.226h-1.38l0.721-3.226h-1.151v-1.371h1.459l0.615-2.786h-1.362v-1.371h1.67l0.844-3.779h1.371l-0.853,3.779h1.617
		l0.853-3.779h1.371L139.581,134.518z M136.294,135.889l-0.615,2.786h1.626l0.606-2.786H136.294z"/>
	<path d="M142.156,143.271v-12.349h7.128v1.441h-5.537v3.999h4.896v1.433h-4.896v5.476H142.156z"/>
	<path d="M157.528,131.872c-0.281,0.428-0.571,0.891-0.87,1.389s-0.589,1.024-0.87,1.577c-0.281,0.555-0.548,1.133-0.8,1.736
		s-0.472,1.222-0.659,1.854s-0.337,1.278-0.448,1.938c-0.111,0.658-0.167,1.319-0.167,1.981v0.431c0,0.064,0.001,0.137,0.004,0.215
		c0.003,0.08,0.008,0.172,0.014,0.277h-1.67c0-1.061,0.112-2.101,0.338-3.12s0.515-1.993,0.866-2.923
		c0.352-0.928,0.741-1.797,1.169-2.605s0.841-1.535,1.239-2.18h-5.168v-1.521h7.022V131.872z"/>
	<path d="M159.383,143.271v-12.349h7.128v1.441h-5.537v3.999h4.896v1.433h-4.896v5.476H159.383z"/>
	<path d="M168.4,143.271v-12.349h3.841c0.727,0,1.378,0.126,1.955,0.378s1.068,0.629,1.473,1.129
		c0.404,0.502,0.713,1.125,0.928,1.873c0.213,0.746,0.32,1.618,0.32,2.614c0,1.055-0.107,1.979-0.32,2.772
		c-0.215,0.795-0.523,1.457-0.928,1.986c-0.404,0.531-0.896,0.93-1.473,1.195c-0.577,0.268-1.229,0.4-1.955,0.4H168.4z
		 M169.991,132.364v9.466h2.101c0.486,0,0.924-0.092,1.313-0.277c0.39-0.184,0.723-0.461,0.998-0.83s0.488-0.833,0.637-1.393
		c0.15-0.56,0.225-1.215,0.225-1.965v-0.896c0-0.686-0.074-1.286-0.225-1.802c-0.148-0.516-0.361-0.943-0.637-1.283
		s-0.608-0.595-0.998-0.765s-0.827-0.255-1.313-0.255H169.991z"/>
	<path d="M179.053,143.271v-12.349h7.128v1.441h-5.537v3.999h4.896v1.433h-4.896v5.476H179.053z"/>
	<path d="M188.07,143.271v-12.349h7.128v1.441h-5.537v3.999h4.896v1.433h-4.896v5.476H188.07z"/>
	<path d="M53.527,153.763c0.404,0.029,0.762,0.119,1.072,0.268c0.311,0.15,0.569,0.341,0.778,0.572
		c0.207,0.231,0.365,0.496,0.475,0.795c0.107,0.299,0.162,0.612,0.162,0.94c0,0.064-0.003,0.134-0.009,0.206
		c-0.006,0.074-0.009,0.122-0.009,0.146h-1.459v-0.167c0-0.164-0.017-0.325-0.049-0.483s-0.088-0.304-0.166-0.435
		c-0.08-0.133-0.184-0.248-0.312-0.348s-0.29-0.173-0.483-0.22v2.856c0.311,0.105,0.625,0.222,0.944,0.348s0.608,0.294,0.866,0.505
		s0.467,0.475,0.628,0.791s0.242,0.715,0.242,1.195c0,0.469-0.067,0.878-0.202,1.226c-0.135,0.35-0.321,0.643-0.558,0.879
		c-0.238,0.238-0.521,0.421-0.849,0.55s-0.686,0.211-1.072,0.246v2.127H52.64v-2.127c-0.486-0.041-0.898-0.146-1.234-0.316
		c-0.338-0.17-0.614-0.381-0.831-0.633s-0.374-0.534-0.47-0.849c-0.098-0.312-0.146-0.634-0.146-0.962
		c0-0.123,0.003-0.214,0.009-0.272s0.009-0.097,0.009-0.114h1.477v0.176c0,0.51,0.11,0.898,0.329,1.165
		c0.221,0.267,0.506,0.44,0.857,0.522v-3.217c-0.299-0.105-0.597-0.223-0.893-0.352s-0.561-0.293-0.795-0.492
		s-0.424-0.446-0.566-0.743c-0.145-0.295-0.216-0.663-0.216-1.103c0-0.375,0.058-0.715,0.171-1.02
		c0.115-0.305,0.278-0.569,0.492-0.796c0.214-0.225,0.474-0.409,0.778-0.553s0.647-0.242,1.028-0.295v-1.925h0.888V153.763z
		 M52.64,155.037c-0.205,0.041-0.372,0.11-0.501,0.206c-0.129,0.098-0.23,0.207-0.304,0.33s-0.123,0.252-0.148,0.387
		c-0.027,0.135-0.04,0.261-0.04,0.378c0,0.316,0.093,0.565,0.276,0.747c0.186,0.182,0.424,0.334,0.717,0.457V155.037z
		 M53.527,162.367c0.34-0.053,0.624-0.196,0.853-0.431s0.343-0.562,0.343-0.984c0-0.199-0.03-0.375-0.093-0.527
		c-0.061-0.152-0.145-0.288-0.25-0.408s-0.231-0.225-0.378-0.312s-0.305-0.17-0.475-0.246V162.367z"/>
	<path d="M58.467,164.872v-12.349h1.591v10.907h5.036v1.441H58.467z"/>
	<path d="M67.792,153.622h-1.468v-1.767h1.468V153.622z M67.792,164.872h-1.468v-9.466h1.468V164.872z"/>
	<path d="M76.546,153.868c0,0.281-0.035,0.547-0.105,0.795c-0.07,0.25-0.175,0.474-0.312,0.673
		c-0.139,0.199-0.306,0.368-0.502,0.505c-0.196,0.139-0.417,0.239-0.663,0.304c0.264,0.275,0.47,0.598,0.62,0.967
		c0.148,0.369,0.224,0.791,0.224,1.266c0,0.486-0.072,0.926-0.216,1.318s-0.347,0.726-0.61,0.997
		c-0.264,0.273-0.582,0.484-0.954,0.633c-0.372,0.15-0.786,0.228-1.243,0.233h-0.993c-0.123,0-0.236,0.022-0.338,0.065
		c-0.104,0.045-0.193,0.104-0.273,0.181c-0.078,0.076-0.141,0.166-0.184,0.269c-0.045,0.103-0.066,0.212-0.066,0.329
		s0.023,0.228,0.07,0.329c0.047,0.104,0.109,0.193,0.189,0.273c0.078,0.078,0.169,0.141,0.271,0.184
		c0.103,0.045,0.213,0.066,0.33,0.066h2.707c0.34,0,0.647,0.059,0.923,0.176s0.51,0.277,0.703,0.479
		c0.193,0.203,0.341,0.438,0.444,0.703c0.102,0.267,0.153,0.55,0.153,0.849c0,0.375-0.061,0.727-0.181,1.055
		s-0.297,0.612-0.531,0.853s-0.524,0.431-0.87,0.571s-0.741,0.211-1.187,0.211h-2.681c-0.387,0-0.727-0.059-1.02-0.176
		s-0.538-0.278-0.733-0.483c-0.197-0.205-0.345-0.443-0.444-0.717c-0.1-0.271-0.149-0.563-0.149-0.874
		c0-0.229,0.029-0.45,0.088-0.663c0.059-0.215,0.141-0.409,0.246-0.585s0.234-0.331,0.387-0.466s0.322-0.237,0.51-0.308
		c-0.246-0.152-0.437-0.356-0.571-0.61c-0.135-0.256-0.202-0.526-0.202-0.813c0-0.387,0.121-0.719,0.365-0.997
		c0.242-0.278,0.566-0.491,0.971-0.638c-0.346-0.281-0.615-0.625-0.809-1.032s-0.29-0.878-0.29-1.411
		c0-0.498,0.07-0.943,0.211-1.336s0.344-0.727,0.61-1.002s0.592-0.486,0.977-0.633c0.383-0.146,0.815-0.22,1.296-0.22
		c0.24,0,0.478,0.031,0.712,0.092c0.234,0.062,0.451,0.146,0.65,0.251c0.211-0.111,0.387-0.233,0.527-0.364
		c0.141-0.133,0.255-0.27,0.343-0.414c0.088-0.143,0.153-0.288,0.198-0.435c0.043-0.146,0.077-0.296,0.101-0.448H76.546z
		 M71.501,164.661c-0.188,0-0.351,0.028-0.487,0.084c-0.139,0.056-0.253,0.133-0.344,0.232s-0.158,0.217-0.201,0.352
		c-0.045,0.135-0.066,0.278-0.066,0.431s0.023,0.296,0.07,0.431s0.115,0.253,0.207,0.355c0.09,0.103,0.204,0.184,0.342,0.242
		s0.298,0.088,0.479,0.088h2.61c0.158,0,0.305-0.029,0.439-0.088s0.253-0.14,0.355-0.242s0.182-0.221,0.238-0.355
		c0.055-0.135,0.083-0.278,0.083-0.431s-0.022-0.296-0.065-0.431c-0.045-0.135-0.113-0.252-0.207-0.352s-0.21-0.177-0.348-0.232
		s-0.303-0.084-0.496-0.084H71.501z M72.696,156.408c-0.527,0-0.926,0.176-1.195,0.527s-0.404,0.832-0.404,1.441
		c0,0.633,0.135,1.116,0.404,1.45s0.668,0.501,1.195,0.501s0.929-0.174,1.204-0.522s0.413-0.825,0.413-1.429
		c0-0.639-0.138-1.126-0.413-1.464C73.625,156.577,73.224,156.408,72.696,156.408z"/>
	<path d="M79.464,156.391h0.105c0.246-0.422,0.543-0.728,0.892-0.919c0.349-0.189,0.761-0.285,1.235-0.285
		c0.357,0,0.68,0.05,0.967,0.149s0.532,0.264,0.733,0.492c0.203,0.229,0.359,0.524,0.471,0.888s0.167,0.809,0.167,1.336v6.82h-1.477
		v-6.715c0-0.328-0.032-0.599-0.097-0.812s-0.155-0.384-0.272-0.51s-0.258-0.214-0.422-0.264s-0.346-0.075-0.545-0.075
		c-0.234,0-0.457,0.059-0.668,0.176s-0.397,0.287-0.558,0.51c-0.162,0.223-0.291,0.495-0.387,0.817
		c-0.098,0.322-0.146,0.688-0.146,1.099v5.774h-1.477v-13.017h1.477V156.391z"/>
	<path d="M87.655,155.406h1.274v1.318h-1.274v6.179c0,0.281,0.07,0.496,0.211,0.646c0.141,0.148,0.352,0.224,0.633,0.224h0.431
		v1.028c-0.123,0.07-0.285,0.129-0.488,0.176c-0.201,0.047-0.394,0.07-0.575,0.07c-0.322,0-0.592-0.063-0.809-0.189
		c-0.217-0.125-0.39-0.291-0.519-0.496s-0.222-0.438-0.277-0.699c-0.056-0.26-0.083-0.525-0.083-0.795v-6.144h-0.817v-1.318h0.817
		l0.325-2.628h1.151V155.406z"/>
	<path d="M93.939,160.891h-4.544v-1.758h4.544V160.891z"/>
	<path d="M105.022,164.872h-2.048l-1.512-8.376c-0.035-0.205-0.073-0.446-0.114-0.726c-0.041-0.277-0.079-0.549-0.114-0.812
		c-0.041-0.305-0.082-0.615-0.123-0.932h-0.07c-0.035,0.316-0.073,0.627-0.114,0.932c-0.035,0.264-0.073,0.535-0.114,0.812
		c-0.041,0.279-0.079,0.521-0.114,0.726l-1.468,8.376h-2.057l-2.865-12.349h1.67l1.898,8.534c0.041,0.182,0.082,0.398,0.123,0.65
		s0.082,0.492,0.123,0.721c0.041,0.27,0.085,0.545,0.132,0.826h0.07c0.023-0.223,0.05-0.454,0.079-0.694
		c0.029-0.205,0.062-0.438,0.097-0.698s0.076-0.529,0.123-0.805l1.433-8.534h2.188l1.538,8.534c0.041,0.223,0.082,0.461,0.123,0.717
		c0.041,0.254,0.076,0.493,0.105,0.716c0.035,0.258,0.067,0.513,0.097,0.765h0.07l0.123-0.791c0.035-0.223,0.075-0.461,0.118-0.717
		c0.045-0.254,0.09-0.484,0.137-0.689l1.89-8.534h1.441L105.022,164.872z"/>
	<path d="M111.544,155.187c0.955,0,1.67,0.232,2.145,0.699c0.475,0.465,0.712,1.117,0.712,1.955v5.309
		c0,0.223,0.053,0.383,0.158,0.479c0.105,0.098,0.223,0.146,0.352,0.146h0.571v1.028c-0.082,0.047-0.205,0.094-0.369,0.141
		s-0.366,0.07-0.606,0.07c-0.387,0-0.709-0.107-0.967-0.32c-0.258-0.214-0.434-0.497-0.527-0.849h-0.088
		c-0.246,0.393-0.566,0.697-0.963,0.914c-0.395,0.217-0.842,0.325-1.34,0.325c-0.158,0-0.328-0.014-0.51-0.039
		c-0.182-0.027-0.365-0.074-0.549-0.141c-0.186-0.067-0.364-0.164-0.537-0.291c-0.173-0.125-0.324-0.286-0.457-0.482
		c-0.131-0.196-0.236-0.436-0.316-0.717c-0.078-0.281-0.118-0.612-0.118-0.993c0-0.65,0.12-1.183,0.36-1.595
		c0.24-0.414,0.574-0.735,1.002-0.967s0.935-0.39,1.521-0.475s1.222-0.128,1.907-0.128v-1.222c0-0.229-0.021-0.437-0.062-0.624
		s-0.117-0.349-0.229-0.483s-0.264-0.24-0.457-0.316s-0.442-0.114-0.747-0.114c-0.281,0-0.514,0.044-0.699,0.132
		c-0.184,0.088-0.332,0.204-0.443,0.348s-0.19,0.305-0.237,0.482c-0.047,0.18-0.07,0.359-0.07,0.541v0.211h-1.459
		c-0.012-0.053-0.018-0.108-0.018-0.167v-0.22c0-0.434,0.075-0.815,0.224-1.146c0.15-0.331,0.359-0.607,0.629-0.826
		c0.27-0.221,0.59-0.386,0.963-0.497C110.689,155.242,111.099,155.187,111.544,155.187z M112.924,160.574
		c-0.48,0-0.918,0.022-1.314,0.065c-0.395,0.045-0.735,0.131-1.02,0.26s-0.505,0.308-0.663,0.536s-0.237,0.527-0.237,0.896
		c0,0.539,0.108,0.914,0.325,1.125s0.533,0.316,0.949,0.316c0.234,0,0.467-0.048,0.698-0.146c0.231-0.096,0.441-0.241,0.629-0.435
		s0.34-0.437,0.457-0.729s0.176-0.636,0.176-1.028V160.574z"/>
	<path d="M119.841,155.187c0.1,0,0.19,0.009,0.272,0.026s0.155,0.035,0.22,0.053l0.211,0.07v1.529h-0.492
		c-0.234,0-0.457,0.038-0.668,0.114s-0.397,0.201-0.558,0.373c-0.162,0.174-0.291,0.402-0.387,0.686
		c-0.098,0.285-0.146,0.638-0.146,1.06v5.774h-1.477v-9.466h1.116l0.202,1.239h0.105c0.059-0.182,0.132-0.358,0.22-0.531
		s0.196-0.328,0.325-0.467c0.129-0.137,0.279-0.248,0.452-0.334C119.411,155.229,119.612,155.187,119.841,155.187z"/>
	<path d="M129.632,155.187c0.334,0,0.637,0.05,0.91,0.149c0.271,0.1,0.506,0.264,0.703,0.492c0.195,0.229,0.348,0.524,0.457,0.888
		c0.107,0.363,0.162,0.809,0.162,1.336v6.82h-1.477v-6.715c0-0.328-0.031-0.599-0.092-0.812c-0.062-0.214-0.148-0.384-0.26-0.51
		s-0.24-0.214-0.387-0.264s-0.308-0.075-0.483-0.075c-0.223,0-0.433,0.059-0.628,0.176c-0.197,0.117-0.369,0.287-0.52,0.51
		c-0.148,0.223-0.267,0.495-0.352,0.817s-0.127,0.688-0.127,1.099v5.774h-1.477v-6.715c0-0.328-0.031-0.599-0.092-0.812
		c-0.062-0.214-0.147-0.384-0.256-0.51s-0.236-0.214-0.387-0.264c-0.148-0.05-0.312-0.075-0.487-0.075
		c-0.223,0-0.433,0.059-0.628,0.176c-0.197,0.117-0.369,0.287-0.52,0.51c-0.148,0.223-0.268,0.495-0.355,0.817
		s-0.132,0.688-0.132,1.099v5.774h-1.477v-9.466h1.116l0.202,1.09h0.105c0.252-0.469,0.561-0.804,0.927-1.007
		c0.366-0.201,0.778-0.303,1.235-0.303c0.463,0,0.871,0.107,1.226,0.32c0.354,0.215,0.617,0.564,0.787,1.051
		c0.258-0.451,0.592-0.792,1.002-1.023S129.175,155.187,129.632,155.187z"/>
	<path d="M135.898,157.349h-1.802v-1.942h1.802V157.349z M135.898,164.872h-1.802v-1.951h1.802V164.872z"/>
	<path d="M148.045,156.118h1.081v1.371h-1.389l-0.606,2.786h1.283v1.371h-1.591l-0.721,3.226h-1.362l0.712-3.226h-1.617
		l-0.712,3.226h-1.38l0.721-3.226h-1.151v-1.371h1.459l0.615-2.786h-1.362v-1.371h1.67l0.844-3.779h1.371l-0.853,3.779h1.617
		l0.853-3.779h1.371L148.045,156.118z M144.758,157.489l-0.615,2.786h1.626l0.606-2.786H144.758z"/>
	<path d="M150.62,164.872v-12.349h7.128v1.441h-5.537v3.999h4.896v1.433h-4.896v5.476H150.62z"/>
	<path d="M159.638,164.872v-12.349h7.128v1.441h-5.537v3.999h4.896v1.433h-4.896v5.476H159.638z"/>
	<path d="M168.655,164.872v-12.349h7.128v1.441h-5.537v3.999h4.896v1.433h-4.896v5.476H168.655z"/>
	<path d="M182.032,152.304c0.627,0,1.204,0.097,1.731,0.29s0.981,0.483,1.362,0.87s0.678,0.873,0.892,1.459s0.321,1.274,0.321,2.065
		h-1.626c0-0.539-0.063-1.011-0.189-1.415s-0.306-0.739-0.54-1.006s-0.518-0.468-0.849-0.603s-0.698-0.202-1.103-0.202
		c-1.084,0-1.889,0.371-2.413,1.111c-0.524,0.742-0.786,1.865-0.786,3.371v0.905c0,1.512,0.262,2.637,0.786,3.375
		s1.329,1.107,2.413,1.107c0.416,0,0.792-0.065,1.13-0.198c0.336-0.131,0.623-0.329,0.861-0.593c0.236-0.264,0.42-0.595,0.549-0.993
		s0.193-0.864,0.193-1.397h1.573c0,0.797-0.107,1.485-0.321,2.065s-0.511,1.061-0.892,1.441s-0.835,0.664-1.362,0.848
		c-0.527,0.186-1.104,0.277-1.731,0.277c-1.6,0-2.81-0.528-3.63-1.586s-1.23-2.659-1.23-4.804c0-2.139,0.41-3.738,1.23-4.799
		S180.433,152.304,182.032,152.304z"/>
	<path d="M188.325,164.872v-12.349h7.128v1.441h-5.537v3.999h4.896v1.433h-4.896v5.476H188.325z"/>
	<path d="M203.697,153.473c-0.281,0.428-0.571,0.891-0.87,1.389s-0.589,1.024-0.87,1.577c-0.281,0.555-0.548,1.133-0.8,1.736
		s-0.472,1.222-0.659,1.854s-0.337,1.278-0.448,1.938c-0.111,0.658-0.167,1.319-0.167,1.981v0.431c0,0.064,0.001,0.137,0.004,0.215
		c0.003,0.08,0.008,0.172,0.014,0.277h-1.67c0-1.061,0.112-2.101,0.338-3.12s0.515-1.993,0.866-2.923
		c0.352-0.928,0.741-1.797,1.169-2.605s0.841-1.535,1.239-2.18h-5.168v-1.521h7.022V153.473z"/>
</g>
<g>
	<path fill="#0086B3" d="M39,35c0,1.104-0.896,2-2,2H27c-1.104,0-2-0.896-2-2V23c0-1.104,0.896-2,2-2h10c1.104,0,2,0.896,2,2V35z"/>
</g>
<g>
	<path fill="#F05123" d="M39,56c0,1.104-0.896,2-2,2H27c-1.104,0-2-0.896-2-2V44c0-1.104,0.896-2,2-2h10c1.104,0,2,0.896,2,2V56z"/>
</g>
<g>
	<path fill="#0BE3C8" d="M39,78c0,1.104-0.896,2-2,2H27c-1.104,0-2-0.896-2-2V66c0-1.104,0.896-2,2-2h10c1.104,0,2,0.896,2,2V78z"/>
</g>
<g>
	<path fill="#1AC5FF" d="M39,100c0,1.104-0.896,2-2,2H27c-1.104,0-2-0.896-2-2V88c0-1.104,0.896-2,2-2h10c1.104,0,2,0.896,2,2V100z"
		/>
</g>
<g>
	<path fill="#FFC14D" d="M39,121c0,1.104-0.896,2-2,2H27c-1.104,0-2-0.896-2-2v-12c0-1.104,0.896-2,2-2h10c1.104,0,2,0.896,2,2V121z
		"/>
</g>
<g>
	<path fill="#F7FDFF" d="M40,142c0,1.104-0.896,2-2,2H28c-1.104,0-2-0.896-2-2v-12c0-1.104,0.896-2,2-2h10c1.104,0,2,0.896,2,2V142z
		"/>
	<path fill="none" stroke="#0086B3" stroke-miterlimit="10" d="M39.5,142.5c0,1.104-0.896,2-2,2h-10c-1.104,0-2-0.896-2-2v-12
		c0-1.104,0.896-2,2-2h10c1.104,0,2,0.896,2,2V142.5z"/>
</g>
<g>
	<path fill="#FFFCF7" d="M40,164c0,1.104-0.896,2-2,2H28c-1.104,0-2-0.896-2-2v-12c0-1.104,0.896-2,2-2h10c1.104,0,2,0.896,2,2V164z
		"/>
	<path fill="none" stroke="#F05123" stroke-miterlimit="10" d="M39.5,164.5c0,1.104-0.896,2-2,2h-10c-1.104,0-2-0.896-2-2v-12
		c0-1.104,0.896-2,2-2h10c1.104,0,2,0.896,2,2V164.5z"/>
</g>
<g>
</g>
<g>
</g>
<g>
</g>
<g>
</g>
<g>
</g>
<g>
</g>
<g>
</g>
<g>
</g>
<g>
</g>
<g>
</g>
<g>
</g>
<g>
</g>
<g>
</g>
<g>
</g>
<g>
</g>
</svg>
