<svg xmlns="http://www.w3.org/2000/svg" width="120" height="120" viewBox="0 0 120 120"><g stroke="#0086B3" stroke-miterlimit="10" fill="none"><path d="M97.5 40.98h-6.25v6.25c0 9.638-9.105 18.75-18.75 18.75h-28.662l-8.838 8.838v3.662c0 6.25 6.25 12.5 12.5 12.5h31.25l18.75 18.75v-18.75c6.25 0 12.5-6.25 12.5-12.5v-25c0-6.25-6.25-12.5-12.5-12.5zM41.25 59.73h31.25c6.25 0 12.5-6.25 12.5-12.5v-25c0-6.25-6.25-12.5-12.5-12.5h-50c-6.25 0-12.5 6.25-12.5 12.5v25c0 6.25 6.25 12.5 12.5 12.5v18.75l18.75-18.75z"/></g></svg>