<svg xmlns="http://www.w3.org/2000/svg" width="120" height="120" viewBox="0 0 120 120"><circle fill-rule="evenodd" clip-rule="evenodd" fill="#09c" cx="60" cy="60" r="60"/><g fill="#fff"><path d="M85.227 51.9h-4.204v4.204c0 6.483-6.126 12.614-12.613 12.614h-19.282l-5.945 5.945v2.463c0 4.205 4.204 8.409 8.409 8.409h21.022l12.613 12.613v-12.612c4.205 0 8.409-4.204 8.409-8.409v-16.818c0-4.205-4.204-8.409-8.409-8.409zM47.387 64.514h21.022c4.204 0 8.409-4.205 8.409-8.409v-16.818c0-4.205-4.205-8.409-8.409-8.409h-33.636c-4.204 0-8.409 4.205-8.409 8.409v16.817c0 4.205 4.205 8.409 8.409 8.409v12.613l12.614-12.612z"/></g></svg>