<svg xmlns="http://www.w3.org/2000/svg" width="120" height="120" viewBox="0 0 120 120"><g fill-rule="evenodd" clip-rule="evenodd" fill="#0086B3"><path d="M79.557 38.033c-1.02.054-1.071.537-1.186 1.452-.078.62-.061 1.909-.566 2.344-.732.623-2.568.788-3.517 1.132-1.873.684-2.489-2.775-4.091-2.325-1.109.312-2.43 1.578-3.383 2.225-.475.318.481 2.32.705 2.709.848 1.479-1.543 3.544-2.667 4.198-.869.502-2.679-.355-3.593-.565-.686-.156-1.062.918-1.726 2.237-.661 1.321-.921 1.546-.282 2.141.71.664 1.492 1.302 2.258 1.902.881.692.153 2.068.006 2.958-.23 1.37-.401 1.979-1.82 2.341-1.207.305-2.449.204-2.394 1.673.038 1.012-.083 2.415.35 3.363.355.779 2.707.893 3.478 1.056 1.303.276 1.482 2.058 1.8 3.122.339 1.145.245 1.324-.646 2.148-.318.298-2.008 1.611-1.667 2.188.48.793 1.586 3.369 2.451 3.702.695.265 2.692-.8 3.391-1.026 1.049-.344 1.332.389 2.043.99.855.733 2 1.195 1.805 2.414-.126.775-1.14 3.136-.213 3.693.988.59 2.264 1.516 3.419 1.674 1.761.242 1.771-3.17 4.271-2.668s1.992.186 2.861.582c.73.332.995 2.541 1.26 3.246.536 1.428 1.695 1.037 3.026.992 1.604-.057 2.123.132 2.409-1.479.205-1.154.045-2.606 1.281-3.05.56-.201 2.795-1.252 3.354-.813.989.764 1.828 1.777 2.853 2.485.812.563 2.333-.892 2.985-1.271 2.665-1.561-.868-3.243.105-5.109.418-.797 1.374-1.416 1.938-2.131.891-1.128 1.652-.537 2.982-.201 1.873.475 2.201.075 2.979-1.557.471-.991 1.244-1.818.277-2.706-.615-.56-1.373-1.003-1.895-1.653-.73-.917-.452-1.686-.151-2.723.388-1.34.042-2.103 1.692-2.461.475-.107 2.607-.461 2.639-1.123.059-1.186-.114-2.383-.226-3.56-.116-1.25-1.334-.966-2.286-1.271-1.388-.441-1.688-.042-2.263-1.558-.185-.481-1.409-2.685-1.04-3.122.717-.847 1.63-1.527 2.317-2.396.614-.773-.503-1.786-.909-2.427l-.016.009c-.711-1.124-.924-2.207-2.34-1.736-.695.233-2.503 1.281-3.17.706-.959-.836-2.16-1.684-2.951-2.685-.448-.563.139-1.725.271-2.309.142-.641.718-1.596-.116-2.003-1.157-.566-2.414-1.551-3.664-1.852-.653-.152-1.904 1.915-2.343 2.363-.538.556-1.653.174-2.294.041-.816-.166-2.504-.315-2.896-1.232-.307-.714-.483-2.639-1.09-3.098-.63-.47-3.032-.023-3.805.024zm18.763 27.384c-1.542 8.161-9.686 13.575-18.185 12.093-8.503-1.482-14.143-9.303-12.597-17.463 1.543-8.167 9.688-13.581 18.188-12.098 8.501 1.485 14.141 9.301 12.594 17.468zM84.225 55.9c3.928.684 6.535 4.298 5.82 8.071-.713 3.774-4.479 6.275-8.408 5.592-3.926-.686-6.533-4.3-5.819-8.073.712-3.774 4.479-6.278 8.407-5.59zM51.703 11.513c-.886-.462-1.188-.079-1.775.627-.404.484-1.08 1.572-1.742 1.682-.949.16-2.574-.614-3.557-.799-1.937-.361-.588-3.562-2.172-3.982-1.1-.295-2.883.113-4.034.176-.565.033-.848 2.187-.87 2.623-.088 1.662-3.207 2.202-4.502 2.189-.994-.007-2.051-1.632-2.702-2.261-.491-.47-1.386.241-2.653 1.017-1.267.776-1.604.835-1.391 1.649.235.91.543 1.837.864 2.721.367 1.017-.989 1.808-1.594 2.479-.931 1.035-1.401 1.463-2.79 1.054-1.171-.345-2.158-1.044-2.904.212-.512.864-1.371 1.98-1.52 2.992-.123.83 1.785 2.093 2.342 2.613.943.879.131 2.459-.177 3.51-.333 1.128-.509 1.233-1.697 1.481-.433.089-2.556.352-2.575 1.001-.032.902-.496 3.61.054 4.32.437.566 2.685.67 3.391.827 1.065.238.909.989 1.177 1.842.322 1.044 1.033 2.001.21 2.924-.521.587-2.646 2.06-2.169 2.985.511.991 1.076 2.4 1.959 3.108 1.347 1.078 3.194-1.778 5.016-.111 1.824 1.667 1.567 1.146 2.086 1.912.432.639-.541 2.624-.698 3.341-.321 1.464.859 1.716 2.001 2.342 1.373.75 1.705 1.166 2.814-.045.795-.86 1.441-2.157 2.719-1.916.577.109 3.014.343 3.248.986.417 1.136.571 2.403 1.047 3.506.379.876 2.437.416 3.187.42 3.076.019 1.022-3.15 2.845-4.228.781-.461 1.915-.503 2.773-.822 1.354-.501 1.676.376 2.609 1.317 1.311 1.33 1.805 1.155 3.331.175.928-.597 2.024-.903 1.69-2.126-.259-.952-1.061-2.482-.541-3.472.328-.632 1.199-.932 1.824-1.891.612-.939 1.101-.874 2.114-.546.451.149 2.428.916 2.814.375.687-.964 1.188-2.05 1.735-3.091.572-1.106-.6-1.477-1.234-2.207-.924-1.058-1.391-.871-1.053-2.426.105-.498.271-2.95.812-3.135 1.058-.349 2.21-1.73 3.255-2.115.933-.337.567-2.746.57-3.746h-.021c.012-1 .4-1.043-1.042-1.353-.708-.153-2.8.46-3.046-.355-.354-1.176-.908-2.168-1.031-3.401-.068-.695 1.049-1.214 1.475-1.641.463-.464 1.459-.899.977-1.657-.662-1.048-1.184-2.462-2.072-3.334-.462-.455-2.627.675-3.232.833-.749.195-1.48-.667-1.944-1.095-.596-.543-1.931-1.507-1.763-2.473.127-.743 1.019-2.447.761-3.134-.273-.715-2.529-1.528-3.199-1.877zm2.251 33.41c-6.35 6.761-17.204 7.301-24.247 1.204-7.042-6.095-7.605-16.523-1.256-23.286 6.35-6.762 17.205-7.301 24.248-1.204 7.042 6.094 7.602 16.522 1.255 23.286zM50.371 24.115c5.619 4.863 6.068 13.177 1.004 18.577-5.066 5.389-13.727 5.819-19.343.959-5.618-4.862-6.065-13.181-1.003-18.576 5.067-5.395 13.728-5.824 19.342-.96zM32.135 59.411c-1.014.12-1.03.602-1.086 1.52-.037.624.066 1.907-.411 2.37-.688.665-2.501.938-3.423 1.34-1.821.787-2.66-2.613-4.227-2.068-1.086.378-2.312 1.719-3.223 2.42-.447.342.633 2.278.882 2.652.94 1.421-1.306 3.62-2.383 4.34-.827.553-2.689-.194-3.612-.348-.691-.113-.998.981-1.568 2.336-.574 1.352-.816 1.592-.146 2.145.752.619 1.572 1.209 2.378 1.762.921.632.282 2.046.194 2.941-.138 1.378-.266 1.998-1.659 2.441-1.181.373-2.424.353-2.271 1.811.105 1 .076 2.405.569 3.325.405.755 2.753.725 3.531.839 1.313.196 1.608 1.957 1.991 3.002.416 1.117.336 1.301-.498 2.176-.301.316-1.894 1.728-1.514 2.277.523.762 1.791 3.259 2.682 3.538.707.224 2.625-.96 3.303-1.228 1.023-.404 1.355.306 2.098.863.902.678 2.074 1.07 1.958 2.295-.073.78-.929 3.189.028 3.686 1.025.531 2.354 1.375 3.516 1.463 1.77.135 1.554-3.263 4.076-2.912 2.521.348 1.995.065 2.885.404.748.285 1.158 2.471 1.465 3.154.629 1.391 1.756.933 3.08.805 1.594-.151 2.121.005 2.302-1.615.124-1.164-.13-2.598 1.073-3.115.545-.232 2.699-1.412 3.287-1.013 1.031.703 1.935 1.661 3.002 2.306.846.508 2.263-1.027 2.887-1.445 2.551-1.715-1.074-3.178-.229-5.093.362-.819 1.271-1.493 1.788-2.239.812-1.176 1.641-.752 2.959-.379 1.476.42 2.119.128 2.856-1.73.408-1.015 1.123-1.887.102-2.708-.795-.642-2.391-1.45-2.568-2.562-.148-.924-.062-1.377.355-2.588.373-1.066.374-1.345 1.416-1.641.461-.131 2.561-.611 2.553-1.273-.023-1.182-.271-2.36-.461-3.533-.195-1.234-1.392-.881-2.361-1.126-1.406-.354-1.678.064-2.351-1.411-.216-.472-1.575-2.586-1.238-3.043.655-.887 1.52-1.621 2.147-2.526.562-.809-.615-1.747-1.063-2.362l-.017.012c-.777-1.075-1.061-2.137-2.439-1.586-.678.275-2.408 1.426-3.107.894-1.012-.772-2.263-1.546-3.115-2.493-.48-.534.026-1.725.119-2.314.098-.647.608-1.635-.245-1.988-1.192-.492-2.505-1.399-3.774-1.619-.656-.117-1.769 2.02-2.171 2.492-.502.582-1.641.271-2.287.18-.819-.117-2.511-.164-2.962-1.055-.35-.687-.652-2.592-1.287-3.016-.658-.444-3.019.151-3.786.24zm11.472 25.112c-.42 3.447-3.67 5.915-7.259 5.51s-6.158-3.523-5.736-6.969c.421-3.448 3.669-5.914 7.259-5.512 3.589.406 6.156 3.528 5.736 6.971z"/></g></svg>