<svg xmlns="http://www.w3.org/2000/svg" width="120" height="120" viewBox="0 0 120 120"><circle fill-rule="evenodd" clip-rule="evenodd" fill="#09c" cx="60" cy="60" r="60"/><path fill="#fff" d="M87.014 35.937c-17.677-12.992-52.961-12.738-67.188.847-3.556 3.396-3.642 17.545 10.54 11.037 6.347-2.911 14.098 7.644 6.985 14.436-7.953 7.592-5.589 23.755 2.553 29.855 21.961 16.46 39.004 7.612 54.058-7.752 12.787-13.051 12.795-33.911-6.948-48.423zm-41.462 7.232c-2.422-2.537-2.397-6.502.055-8.844s6.415-2.184 8.838.353c2.422 2.537 2.399 6.503-.054 8.845-2.454 2.342-6.417 2.185-8.839-.354zm18.4-6.383c2.399-2.293 6.279-2.135 8.649.346 2.369 2.483 2.346 6.363-.055 8.656-2.399 2.291-6.277 2.136-8.648-.348-2.369-2.482-2.346-6.363.054-8.654zm-17.161 47.314c-3.846-4.026-3.807-10.328.086-14.045 3.892-3.717 10.188-3.463 14.033.562 3.846 4.026 3.807 10.329-.085 14.045-3.892 3.718-10.189 3.465-14.034-.562zm31.919-26.19c-2.854-2.989-2.826-7.667.064-10.425 2.89-2.759 7.562-2.572 10.416.417 2.855 2.99 2.826 7.667-.063 10.426s-7.563 2.572-10.417-.418z"/></svg>