<svg xmlns="http://www.w3.org/2000/svg" width="768" height="1024" viewBox="0 0 768 1024"><path d="M374.5 439h-144.5v-288h-144v720h144v-288h288v-144z"/><path stroke="#000" stroke-miterlimit="10" fill="none" d="M518 151h36v36h-36z"/><path d="M554 331h36v36h-36z"/><path stroke="#000" stroke-miterlimit="10" fill="none" d="M590 367h36v36h-36z"/><path d="M626 655h36v36h-36z"/><path stroke="#000" stroke-miterlimit="10" fill="none" d="M518 259h36v36h-36zM626 583h36v36h-36z"/><path d="M518 403h36v36h-36z"/><path stroke="#000" stroke-miterlimit="10" fill="none" d="M590 223h36v36h-36z"/><path d="M590 691h36v36h-36zM518 619h36v36h-36zM590 619h36v36h-36zM518 727h144v144h-144zM518 655h72v72h-72z"/><g fill="#F1F1F1"><path d="M164.745 532.719h-11.695v-19.808h-18.346v19.808h-11.694v-48.751h11.694v19.588h18.346v-19.588h11.694v48.751zM204.509 503.775v8.624h-18.419v11.256h21.196v9.063h-32.89v-48.751h30.113v9.063h-18.419v10.744h18.419zM213.867 483.968h17.322c6.724 0 8.99.366 11.768 1.9 4.166 2.266 6.578 6.651 6.578 11.987 0 3.362-.95 6.286-2.777 8.844-1.389 1.9-2.631 2.924-5.555 4.605l12.133 21.415h-13.594l-9.794-19.296h-4.531v19.296h-11.548v-48.751zm14.837 20.83h.438c5.628 0 8.259-1.973 8.259-6.212 0-3.874-2.12-5.409-7.675-5.409h-1.754l-2.558.073v11.548h3.29zM315.025 532.719h-11.329v-31.209l-12.352 31.209h-8.844l-12.498-31.209v31.209h-11.329v-48.751h14.837l13.375 31.063 13.595-31.063h14.545v48.751z"/></g><path fill="#F1F1F1" d="M336.009 532.719h-11.694v-48.751h11.694v48.751zM362.907 532.719h-11.694v-39.761h-13.229v-8.99h38.226v8.99h-13.302v39.761zM408.664 503.775v8.624h-18.419v11.256h21.196v9.063h-32.891v-48.751h30.113v9.063h-18.419v10.744h18.42zM448.136 503.775v8.624h-18.419v11.256h21.196v9.063h-32.891v-48.751h30.113v9.063h-18.419v10.744h18.42zM457.274 483.968h17.322c6.725 0 8.99.366 11.768 1.9 4.166 2.266 6.578 6.651 6.578 11.987 0 3.362-.95 6.286-2.777 8.844-1.389 1.9-2.632 2.924-5.555 4.605l12.133 21.415h-13.595l-9.794-19.296h-4.532v19.296h-11.548v-48.751zm14.837 20.83h.438c5.628 0 8.26-1.973 8.26-6.212 0-3.874-2.12-5.409-7.675-5.409h-1.754l-2.559.073v11.548h3.29z"/><path d="M550.031 523.655h18.199v9.063h-29.894v-48.751h11.694v39.688zM584.094 523.655h18.199v9.063h-29.894v-48.751h11.694v39.688zM637.671 499.901c-.657-3.07-1.315-4.458-2.704-5.701-1.608-1.462-4.166-2.339-6.87-2.339-3.801 0-7.09 1.608-8.99 4.312-2.047 2.997-3.216 7.602-3.216 12.645 0 10.087 4.458 16.007 12.06 16.007 2.777 0 5.336-1.023 7.017-2.777 1.169-1.243 1.827-2.485 2.704-5.336l10.379 4.751c-2.192 4.824-3.874 7.09-6.87 9.137-3.216 2.192-7.455 3.289-12.938 3.289-16.299 0-24.996-8.845-24.996-25.582 0-15.934 9.647-25.508 25.654-25.508 5.774 0 10.452 1.169 13.229 3.289 2.339 1.828 3.8 4.02 5.847 9.209l-10.306 4.604z"/></svg>