<svg xmlns="http://www.w3.org/2000/svg" width="120" height="120" viewBox="0 0 120 120"><path fill="#F05123" d="M87.583 28.358c-18.716-13.756-56.075-13.487-71.14.896-3.765 3.597-3.856 18.578 11.159 11.687 6.721-3.082 14.927 8.093 7.396 15.285-8.421 8.039-5.917 25.152 2.703 31.612 23.253 17.428 41.298 8.06 57.237-8.209 13.541-13.817 13.55-35.904-7.355-51.271zm-43.9 7.659c-2.564-2.686-2.538-6.885.058-9.364 2.597-2.479 6.793-2.312 9.358.374 2.564 2.687 2.54 6.885-.058 9.365-2.598 2.478-6.794 2.312-9.358-.375zm19.482-6.76c2.541-2.428 6.649-2.261 9.158.366 2.509 2.629 2.484 6.738-.058 9.165-2.54 2.426-6.646 2.262-9.157-.368-2.508-2.628-2.484-6.736.057-9.163zm-18.17 50.097c-4.072-4.262-4.03-10.935.091-14.869 4.12-3.936 10.788-3.668 14.858.594 4.072 4.264 4.031 10.938-.09 14.871-4.121 3.937-10.789 3.668-14.859-.596zm33.796-27.729c-3.022-3.166-2.992-8.119.068-11.038 3.06-2.922 8.008-2.724 11.029.441 3.023 3.166 2.992 8.118-.067 11.039-3.059 2.921-8.008 2.724-11.03-.442z"/></svg>