<svg xmlns="http://www.w3.org/2000/svg" width="120" height="120" viewBox="0 0 120 120"><circle fill-rule="evenodd" clip-rule="evenodd" fill="#09c" cx="60" cy="60" r="60"/><g fill-rule="evenodd" clip-rule="evenodd" fill="#fff"><path d="M82.641 43.084c-.865.045-.909.457-1.006 1.234-.067.527-.053 1.623-.482 1.992-.623.53-2.183.669-2.988.963-1.593.581-2.117-2.359-3.478-1.976-.944.265-2.065 1.34-2.876 1.891-.403.271.41 1.973.6 2.304.721 1.257-1.312 3.012-2.267 3.568-.738.427-2.277-.302-3.054-.48-.584-.133-.902.78-1.467 1.902-.562 1.123-.783 1.314-.241 1.819.605.564 1.269 1.106 1.919 1.617.75.588.132 1.758.006 2.514-.196 1.164-.34 1.683-1.547 1.99-1.026.26-2.082.174-2.034 1.422.031.861-.071 2.053.297 2.859.303.662 2.302.758 2.955.896 1.108.234 1.26 1.749 1.53 2.654.287.973.208 1.125-.549 1.826-.271.253-1.706 1.37-1.418 1.859.408.674 1.348 2.863 2.084 3.146.592.225 2.289-.68 2.883-.873.891-.291 1.131.332 1.734.842.729.624 1.701 1.016 1.535 2.053-.107.658-.969 2.666-.182 3.14.841.501 1.926 1.288 2.908 1.423 1.495.206 1.504-2.695 3.629-2.269s1.693.159 2.432.495c.621.281.847 2.16 1.07 2.76.457 1.213 1.441.881 2.574.842 1.362-.047 1.805.113 2.046-1.256.175-.981.039-2.215 1.089-2.592.477-.172 2.377-1.064 2.852-.692.841.649 1.554 1.511 2.426 2.113.688.479 1.981-.758 2.536-1.081 2.267-1.326-.737-2.756.089-4.342.355-.678 1.169-1.204 1.647-1.812.757-.958 1.405-.456 2.534-.171 1.594.403 1.872.063 2.533-1.323.399-.843 1.057-1.546.235-2.3-.522-.477-1.167-.853-1.61-1.405-.621-.78-.384-1.435-.127-2.314.328-1.14.033-1.787 1.437-2.093.404-.09 2.216-.391 2.243-.953.05-1.009-.096-2.025-.191-3.025-.1-1.062-1.133-.822-1.943-1.08-1.18-.376-1.435-.036-1.922-1.325-.158-.409-1.199-2.281-.886-2.654.609-.719 1.386-1.298 1.971-2.036.521-.658-.428-1.518-.774-2.063l-.012.007c-.604-.955-.786-1.875-1.99-1.475-.59.199-2.125 1.089-2.693.601-.815-.711-1.837-1.432-2.51-2.282-.379-.479.118-1.466.23-1.962.121-.545.61-1.356-.099-1.703-.982-.481-2.052-1.318-3.114-1.575-.555-.129-1.618 1.628-1.99 2.009-.458.472-1.406.147-1.951.035-.693-.141-2.128-.268-2.463-1.048-.26-.606-.41-2.243-.925-2.633-.535-.404-2.577-.023-3.235.017zm15.95 23.275c-1.31 6.938-8.233 11.54-15.456 10.279-7.229-1.26-12.021-7.907-10.708-14.844 1.312-6.941 8.233-11.543 15.46-10.283 7.224 1.263 12.018 7.907 10.704 14.848zM86.609 58.27c3.338.582 5.555 3.654 4.947 6.86-.605 3.209-3.807 5.335-7.147 4.753-3.337-.582-5.553-3.654-4.945-6.861.606-3.208 3.806-5.336 7.145-4.752zM58.965 19.691c-.751-.393-1.009-.067-1.509.534-.344.411-.917 1.336-1.48 1.43-.807.136-2.189-.522-3.023-.679-1.646-.308-.5-3.028-1.847-3.385-.934-.252-2.451.097-3.428.149-.481.028-.72 1.858-.741 2.229-.074 1.413-2.725 1.871-3.826 1.86-.845-.005-1.744-1.387-2.296-1.921-.419-.399-1.179.205-2.256.864-1.077.659-1.363.71-1.183 1.402.201.773.461 1.562.735 2.312.312.865-.841 1.538-1.354 2.107-.792.88-1.193 1.243-2.374.896-.994-.294-1.834-.888-2.468.179-.435.735-1.166 1.684-1.292 2.543-.104.706 1.519 1.779 1.991 2.222.802.747.111 2.09-.149 2.983-.284.958-.433 1.047-1.443 1.258-.368.076-2.172.3-2.189.852-.027.767-.422 3.069.046 3.671.371.481 2.281.571 2.882.703.905.203.772.841 1 1.566.274.888.878 1.701.179 2.485-.442.499-2.249 1.751-1.844 2.538.435.842.915 2.04 1.665 2.642 1.146.915 2.716-1.512 4.263-.095 1.551 1.417 1.333.975 1.773 1.625.367.543-.46 2.23-.593 2.839-.274 1.245.73 1.459 1.699 1.991 1.168.638 1.45.992 2.393-.039.676-.731 1.226-1.834 2.312-1.628.492.093 2.561.292 2.76.838.356.965.487 2.042.89 2.98.322.744 2.072.354 2.709.357 2.615.017.868-2.678 2.418-3.594.664-.392 1.628-.427 2.357-.698 1.15-.426 1.424.32 2.217 1.12 1.114 1.129 1.535.981 2.833.148.789-.507 1.72-.768 1.436-1.807-.22-.809-.901-2.109-.46-2.951.279-.537 1.02-.792 1.551-1.607.521-.798.937-.743 1.798-.464.384.127 2.063.779 2.393.319.583-.819 1.009-1.742 1.474-2.627.487-.941-.509-1.256-1.049-1.876-.785-.899-1.182-.741-.895-2.062.09-.424.23-2.507.69-2.665.897-.297 1.878-1.098 2.767-1.425.794-.285.483-1.81.485-2.81h-.019c.011-1 .341-1.259-.884-1.521-.604-.131-2.382.205-2.59-.489-.301-.998-.772-1.936-.878-2.983-.058-.591.892-1.078 1.254-1.441.394-.395 1.24-.787.829-1.432-.562-.89-1.006-2.104-1.762-2.846-.391-.387-2.232.567-2.746.701-.637.166-1.259-.569-1.652-.934-.507-.462-1.642-1.281-1.499-2.103.108-.631.866-2.082.647-2.666-.229-.606-2.146-1.299-2.717-1.595zm1.915 28.399c-5.397 5.746-14.625 6.206-20.611 1.022-5.985-5.181-6.466-14.044-1.068-19.793 5.397-5.748 14.624-6.206 20.61-1.023 5.988 5.181 6.462 14.045 1.069 19.794zM57.834 30.403c4.775 4.134 5.157 11.201.853 15.79-4.306 4.581-11.668 4.947-16.44.815-4.777-4.133-5.157-11.204-.854-15.79 4.307-4.585 11.669-4.949 16.441-.815zM42.333 60.405c-.861.103-.875.511-.923 1.292-.031.529.057 1.621-.348 2.014-.584.565-2.127.797-2.91 1.139-1.548.67-2.262-2.221-3.592-1.758-.923.322-1.966 1.461-2.739 2.057-.381.291.538 1.938.75 2.255.798 1.208-1.111 3.077-2.025 3.688-.704.471-2.286-.165-3.072-.295-.587-.096-.849.834-1.333 1.984-.488 1.148-.695 1.354-.125 1.822.639.527 1.336 1.029 2.021 1.499.783.537.239 1.739.164 2.501-.116 1.171-.225 1.697-1.409 2.074-1.005.317-2.061.301-1.931 1.538.09.851.064 2.046.484 2.827.344.642 2.34.617 3.002.713 1.115.168 1.366 1.664 1.692 2.552.353.95.285 1.106-.424 1.851-.255.268-1.608 1.468-1.287 1.934.445.648 1.523 2.771 2.279 3.009.602.19 2.232-.815 2.808-1.044.869-.344 1.152.261 1.783.734.767.575 1.763.909 1.666 1.951-.063.662-.791 2.711.023 3.133.872.45 2.001 1.168 2.988 1.243 1.504.114 1.321-2.773 3.465-2.476 2.144.295 1.696.056 2.452.344.637.242.985 2.101 1.246 2.682.535 1.181 1.492.792 2.618.684 1.355-.129 1.803.004 1.957-1.374.104-.988-.111-2.207.911-2.647.464-.197 2.295-1.199 2.795-.86.876.598 1.644 1.411 2.551 1.959.719.433 1.924-.872 2.454-1.229 2.168-1.456-.913-2.7-.194-4.327.309-.697 1.081-1.27 1.521-1.904.689-1 1.395-.64 2.516-.322 1.253.355 1.801.109 2.427-1.472.347-.862.955-1.603.086-2.301-.675-.546-2.032-1.232-2.183-2.177-.127-.785-.053-1.172.303-2.2.316-.907.317-1.144 1.203-1.396.392-.109 2.177-.52 2.169-1.081-.02-1.005-.23-2.007-.392-3.003-.166-1.051-1.182-.749-2.008-.957-1.194-.301-1.426.054-1.996-1.199-.185-.402-1.34-2.199-1.053-2.588.557-.754 1.291-1.377 1.824-2.146.479-.688-.522-1.485-.902-2.008l-.016.008c-.66-.912-.901-1.816-2.073-1.347-.576.233-2.047 1.212-2.641.759-.86-.656-1.922-1.314-2.649-2.119-.407-.453.024-1.467.102-1.967.083-.55.519-1.391-.207-1.691-1.014-.417-2.13-1.188-3.209-1.375-.558-.1-1.502 1.716-1.845 2.117-.426.496-1.395.231-1.944.154-.697-.1-2.134-.14-2.518-.896-.297-.584-.555-2.204-1.093-2.563-.56-.377-2.568.13-3.219.205zm9.751 21.346c-.356 2.929-3.119 5.027-6.168 4.683-3.052-.344-5.235-2.996-4.876-5.924.357-2.931 3.117-5.025 6.169-4.685 3.051.345 5.232 2.999 4.875 5.926z"/></g></svg>