<svg xmlns="http://www.w3.org/2000/svg" xmlns:xlink="http://www.w3.org/1999/xlink" width="1920" height="1920" viewBox="0 0 1920 1920"><symbol id="a" viewBox="-35.4 -93.6 70.9 187.2"><path fill="#C6C7C9" d="M-24.3 19.1c-.9 4.8 3 10.3 4.4 13 1.7 3.5 4.7 9.1 4.7 9.1s3.2-12.6-2.7-21.2l-6.4-.9zm5-2.9s2.4-2.5 2.4-3.3c-.1-2.2-3.7-6-3.6-9.3.1-7.8 4.2-4.5 5.5-9.2-.7-9.8-.7-17.5-.2-21.2.6-4.4 1.8-9.3 1.7-11 0 0-2.3-5.6-3.5-7.3-.1-1.5.4-2.7 1.6-4.5.6-1 4.6-.4 6.5-.3h2.7c.5 0 .4-.4.4-.9 0 0-.9-6.3 3.6-6.2h2.8v-33.8c0-1.5 1.1-2.8 2.5-2.8s2.5 1.2 2.5 2.8v33.8h1.4c.5 0 1.2-.4 1.2-.9v-8.6c0-1.3.5-4.3 2.7-4.6 1.4-.2.5-3.2.5-3.2s-1.7-7.4 3-8.1c1.1-.2 8.2-.7 8.7.2 1.8 3.4-2.7 9.7-3.8 12.8-.8 2 1.4 25.5.9 30.1-.3 2.3-3.6 10.4-3.2 12.7.3 2.2 3.4 16.3 3.7 18.8 1.3 9.5.4 12.1-1 17.4-.7 2.5-.3 6.8 1.9 6.8l4.8-1.2s.1-1.2 1.5-2.4c1.5-1.2 3.7-1.2 3.7-1.2 2.4-1.3 3.1-.8 3.5-.2.8 1.3.4 2-1.1 2.9 0 0-1 .7-1 .8.8 2.1-1.9 3.1-1.8 5.8.1 7.8-.3 12.2-1.4 15.1-.7 2-3.7 23.5-8.7 25.1-3.7 1.2-8.1.4-9.3 1.1-.8.5-3.1 2.3-1.2 4.8 1.6 2.1 1.6 2.8 2.5 7.4l2.9 1.1c.7.2 2.5 1.3 2 3.9-1.5 8.3-7.6 14.2-15 14.2-7.5 0-12.4-6.4-13.8-14.5-.3-1.6-.2-2.9.7-3.4.4-.2 3.3-.5 3.6-1.3.1-3.4 1.1-6.4 2.4-8.1 1.6-2.1.7-4.3-2.6-4.2-1.7.1-4.4.7-7.8-1.2-6.3-3.5-8.3-13.1-11.5-19.7-3.4-6.9-6-12.2-6-18.3 0-3.2 2.1-6-.9-6.9-3-1-1.1-6.1-1.1-6.1-1.3-.8-1.9-1.7-.9-2.9 1.5-1.7 4.2.9 5.5 1.6 0 0 4.8 2.1 5.2 4.5.4 2.6 4.9 3.1 4.9 3.1m36 13.5c-.1 3.2 1.7 10.7 1.7 10.7s2.1-4.6 3.5-8c1.2-3.7-.6-4.8.9-6.7 2.2-2.9.9-2.1.6-3.7l-5.8-.2c1.1 2.5-.8 6.3-.9 7.9m-10.8-47.3c.4-5.5 2.2-6.6 2.5-10.1.3-3.7-.4-9.8 0-14.8.5-6.2 2.4-11.3 3.2-17.3.7-5.1.5-5.7.3-7l-1.3-.2c-.5 0-1 1.6-1 2.1v5.5c0 2.2.1 3.9-2.7 4h-1.3v32.4c0 1-.5 1.8-1.2 2.3 0 .1 1.4 4.1 1.5 3.1m-11.6-29.3c.2 1.9-.3 3.5-.4 4.6l-1.3 3.3c-.3 3.3 1.5 13.6 2.5 19.1.6 3.6-1.2 4.6.2 7.4.7 1.6 2.6-3.5 3.6-2.6.6-.2 1.3-.3 2-.4l.8-5.2c-.7-.4-1.2-1.3-1.2-2.2v-32.4h-2.6c-2 .1-2 4-2 4.5v.1c0 1.9.1 3.5-1.6 3.8"/></symbol><symbol id="d" viewBox="-30.5 -86.2 61.1 172.5"><path fill="#C6C7C9" d="M-26.7 49.6c0 5.3 6 9.5 14.5 11.3-.1.5-.4 5.4-.4 5.9-1.4 1.6-2.3 1-2.9 2-.3.6-.5 2.3-.5 3.7 0 7.6 5.7 13.8 12.7 13.8 7 0 12.7-6.2 12.7-13.8 0-1.5-.2-2.9-.6-4.3-.2-.7-2.1-.7-2.4-1.3-.5-1.2-.4-4.3-.5-4.9 9.7-1.8 12.5-7.4 13.3-12.4.7-4.3.5-16.3.8-18.7.3-2.4 3.4-10.6 4.2-15.7.5-3.2.8-6.5 1-8.2.2-1.7 4.3-2.1 4.5-3.3.2-1.2 1-4.8.6-5.7-.4-.8-1.3-2.4-3.4-3-2.1-.7-4-.7-4.5.1-.3.9-1.2 3.5-1.7 3.9-.2.1-3.2-.2-3.5.5-.1.3-.5 1.8.1 2.4l1.7.2c-.2.7-.4 1.2-.3 1.4.2.5 1.4 1.1 1.2 2.5-.2 1.4-4.3 9.9-4.3 9.9l-2.6.4s.2-7.2.3-8.2c.1-.9 1.5-6.8 1.7-10.1.2-4.3-3.4-17.7-1.8-27 .3-1.8 5.5-7.9 5.5-9.5 0-1.6-.6-3.7-2.8-4.1-.6-.1-1.2-3.1-1.2-3.1l-5.3-.3-.8 2h-2.6s.5-9.2 0-9.9c-.5-.7-4.9-1.7-4.9-1.7l-.5-30.6h-2.3l-.8 30.9-3 .3-.2-9.4h-2.1l-1.4.8-2.3-1.8-.1-1.4-5.9-.4v1.5s-2.5.4-2.6 3.1c-.1 2.6-.4 3.6.9 5.5 1.3 2 3.3 6.1 3.6 7.6.3 1.5 1 3.6.6 6.2s-2.8 19.7-3.2 22.6c-.3 2.8 1 6 1.2 9.1.1 3.1.6 6.5.1 9.1-.5 2.6-1.4 5.2-1.7 5.9-.3.7-1.5-1.8-1.5-1.8s1.5.2 1.2-.5v-1.7c-.2-.5-2.4-.2-2.5-.6-.1-1-.9-3.5-1.3-3.5s-1.8-.4-3.1-.2c-.3.1-4.2 3.4-4.4 4.4-.2 1.1-.3 4.3-.3 5.1s2.7 3 3.9 3.5c1.2.4.5.6.5.6s.2 11.1 0 12.2c-.2 1.1.8 4.1 1.1 5.7.2 1.6-1 5.5-1.4 9.9-.4 4.3-.3 13.1-.3 13.1m27.4-47.7c-.1-.5 1.1-12.6 1.1-12.6l-.2-33.3s1.4.8 2.5.8c.8 0 .1 4.8.5 5.2.2.8 1.6 8.1 1.6 8.6 0 1.7 1 3.1 1.4 4.2.4 1.1-3.7 17.4-4.1 21.1-.3 3.5.3 11.5.2 13-.1 1.5-2.2 5.6-2.5 7.8-.1 0-.3-14.2-.5-14.8m-3.9 14.1c-.1-.4-1-3.9-1.8-7.7-.8-3.7.4-8.6-.4-12.5-.8-3.9-1.7-5.9-2.1-8.5-.3-2.6.9-7.3.1-11.8-.5-3.1-2.6-13.9-2.5-16.7 0-2.3.4-5 .4-5s1.5 2.4 3 2.5c2.7.1 3.9 0 3.9 0s-.7 30.9-.8 33.7c-.1 2.3.6 8.5.6 10.8 0 2.2-.4 15.2-.4 15.2"/></symbol><symbol id="e" viewBox="-37.4 -66 74.9 131.9"><path fill="#C6C7C9" d="M-20.6 22.1c.5-2.4 1.7-6.8 1.5-10.2-.2-3.4.8-8.2-.5-10.4-1.3-2.2-3-.5-3.4-1.3-.4-.8-.5-5.1-1-5.7-.5-.6-1.2 2.9-1.7 4.3s-2.5 5.9-3 8.3c-.5 2.4 2.4 10 2.8 11.1.4 1 5.3 3.9 5.3 3.9m-9.9 6.7c-.2-1.3-5.9-9.6-6.6-10.8-.7-1.2 0-10.4.5-11.4 3.3-6.5 4.7-10.5 4.8-10.9.1-.5.1-5.5.1-5.5s1.1-4.3 1.2-5.2c.2-.9 2.6-1.2 2.6-1.2s-1.1-44.9-1-46.1c.1-1.3 1.1-3.7 2.6-3.6 2.7.2 3.4 3.1 3.4 3.1s3.1-.1 3.6.2c.8.6.5 1.6 1.8 2 1.3.4 1.7 6.9 1.7 9.9s-.6 1.7-.6 3.2c0 1.5 2.6 8.9 4 7.9s2.9-8.5 3.8-9.4c.8-.9 3.2-1.8 3.2-1.8l1.4-3.2s6.6-.6 7.2-.2c.7.4 1.3 1.7 1.7 1.7.4 0 .5-1.6.7-1.7.2-.1 4.2-.2 6 .1.7.1 3.1 5.1 3.4 5.3.3.2 2.6 0 3.8-.2 1.2-.1 3.5 2.1 3.6.9.1-1.2.6-6.4 1.5-10.6.7-3.2 2.3-4.7 3.5-5.6 1.2-.8 2-.2 2.4.2.5.4 4.1 4.4 4.8 15.6.2 3.8-.1 25.4-.2 26.2-.2.8-.2 2.2.1 2.4.3.2 1.4 4.3 1.4 4.3s-1.1 5.2-1.4 8.5c-.4 3.3 1.1 7.6 1.6 8.4.3.7.6 2.6.9 5.6.3 3.1.5 7.4.5 7.9-.1.5-.5.5-1.7 3.9-1.2 3.5-9.3 14.6-9.7 15.6-3.3 7.5-7.7 10.8-19.1 12.2.6 1.8 1 4.4 1 6.7 0 .4-.7.5-.6 1 .5 6.9-2.7 11.8-8.5 11.8-6.7 0-8.5-5.3-8.3-11.5l-.8-1.6c0-2.3.4-4.6 1-6.5-13-1.6-15.5-5.7-19-11.7.1 0-2.1-4.6-2.3-5.9m58.4-19c.2-1.3.1-5.8.1-7.2 0-1.4-.8-8.8-1.1-8.8-.3 0-3 3.9-3 3.9s.5 4.7.3 5.5c-.2.8-1.7 4.2-2.4 5.1-.7.9-2.8 1.4-3.3 2.4s-.4 5.6-.5 6c-.1.4.1 3.7.9 5.2-.1.1 8.8-10.8 9-12.1"/></symbol><symbol id="b" viewBox="-33.8 -15.1 67.7 30.1"><g opacity=".5"><path fill="#BED73B" d="M32-15l-2.5 22-.6 1.2-4.6-9.7-3.4 15.6-.5-.3-2.4-11.1-2.7 10.7-4.4-17.1-1.6 10.8-2.1 1.5-2.7-11.9-5 17.6-3.5-14.9-4.4 15.3-.8-.1-.7-21.4-2.2 17.6-1.6.7-1-14.4-4.7 12.5-2.9-17.1-1 18.3-2.2 2.3-1.6-21.3-5.8 15.8-.9.2.6-22.9z"/><path fill="none" d="M-33.8-15.1h65.8v29.8h-65.8z"/></g><g opacity=".5"><path fill="#BED73B" d="M-31.3-14.7l2.4 22.1.5 1.2 4.6-9.7 3.3 15.5.5-.3 2.3-11 2.7 10.7 4.3-17.2 1.5 10.9 2.1 1.4 2.6-11.8 4.9 17.5 3.5-14.8 4.3 15.3.7-.2.8-21.3 2.1 17.6 1.6.6.9-14.3 4.6 12.5 2.9-17.1.9 18.3 2.2 2.2 1.6-21.3 5.7 15.8.9.2-.6-22.8z"/><path fill="none" d="M-31.3-14.7h64.4v29.8h-64.4z"/></g><path stroke="#85AC66" stroke-width="1.569" fill="none" d="M-32.4-5.6l1.9-6.7M-27.9-1.5l.7-12.5M-21.2 2.1l-1.2-15.2M-25.3 7.5v-20.2M-10.4-1.4l-.7-12.5M-17 2.2l1.2-15.2M-12.9 7.6v-20.2M10.9-5.9l1.9-6.6M15.4-1.8l.7-12.5M22.1 1.8l-1.2-15.1M18 7.2v-20.1M33-1.9l-.6-12.5M26.4 1.7l1.2-15.2M30.5 7.1v-20.1M-6-5.9l1.9-6.6M-1.5-1.8l.7-12.5M5.2 1.8l-1.2-15.1M1.1 7.2v-20.1M7.8-1.4l-.7-12.5"/></symbol><symbol id="c" viewBox="-26.3 -97.4 52.7 194.8"><path fill="#C6C7C9" d="M26.1 34.2c-.4 4.4-.8 8.9-1.6 13.3-.8 4 0 8.6-1.7 12.3-.6 1.4-1.8 3.3-2.3 3.6-.6.3-1.5.4-2 .8-2.7 1.5-5.3 2.3-7.9 3.7 2.1 3.3-1.1 12.5-6.2 9.4 1.9 4 5 10.4 1.5 14.5-1.9 2.2-5.1 3.3-6.6 5.3-.7-.4-1.4-.3-1.8.3l-6.1-.5c-2.7-1-4.9-4.6-4.9-4.6 1.3-.7-.7-4.4-.9-5.2-.4-2.2-.9-4.5-.2-6.7.8-2.9-.2-8.2 2.2-10.6-.2.2-1.7-4-1.2-3.8-.9-.5-1.6-1.1-2.6-1.5-1.2-.5-3.3.4-4.1-.6-.5-.6-1.5-.8-1.9-1.6-.6-1-.9-2.6-1.4-3.8-.8-1.9-.6-3.7-.4-5.7.3-2.8-.2-5.5-.1-8.2.1-3.9-2-6.9-2.1-10.7-.1-2.2.3-4.2.9-6.2.4-1.4 1.7-4.2 1.1-5.6-.9-2.5-1.2-4.6-.7-7.3.4-2 5.3-4.6 5.8-2.3.1.1 1.6 1.3 1.5 1.3 1-.9-.4-2.8.1-4.3.4-1.1-1.9-4.1-2.3-5.3-.7-1.7.2-3.6.1-5.3-.1-2.9-.1-5.2.5-8.1.7-3.6-1.3-7.9 1.1-11.2 2.4-3.2 1.5-7.1 1.5-10.8 0-1.9 3.5-1.1 3.5-2.3 0-2.1.6-4.2.7-6.3.2-4.2-.2-8.2.2-12.4.6-6.7 4-13.2 6-19.5.3-.9 2-5.8.6-6.3-1.7-.7.4-2.8-.3-4-1-1.7-.6-4-1.7-5.7-1.3-2-5.6-8.7-1.2-9.5 1.9-.4 4.1-.3 6 .2 2.2.6 2.7 3.6 4.7 4.2 4.4 1.3 5.2 5.5 4.5 9.3-.3 1.6-1.2 4.2-2.2 5.5-.8 1-1.1 3.8-2.4 4.3-1.2 3.9-.2 8.9-.1 12.9.1 2.7-.1 5.4-.6 8-.6 2.8-2.6 5.4-2.6 8.2 0 2.1.6 4.4.8 6.5.2 2.2-.3 4.8.3 6.6.6 2.2.7 5.9.8 8.3 0 1.9.7 3.2 1.3 4.9-.1-3 .3-5.9.3-8.9-.1-1.7 0-1.8 1.4-2.8 1.9-1.4 3.8-.4 5.5-1.3 1.9-1.1.8-1.3.7-3.3-.1-2.1-.1-4.5.5-6.6 1.2-4.4-.8-5.7-1.9-9.3-.7-2.3-.6-4.4-.4-6.7.2-2.3-.8-4.3-.7-6.5.2-4.1 1.1-7.7 6.1-6.8 5.3.9 4.7 6.8 3.8 10.8-.5 2.5-.4 4.7-.3 7.2.1 1.3-.8 3.2-.1 4.2 2.4 4.1 3.4 7.7 4 12.4.2 1.7-.5 6.4.3 7.4.3.4 2.2 3.8 2.2 4.2-.7 7.3-.1 14.7-.9 22-.1 1.2-4.1 8-2.9 8.2 1.2.2 2 5.9 2.2 6.7.8 3 2.4 5.9 3.5 8.8 1.5 4.2 1.5 8.4 1.1 12.8m-41.2-1.5c-.5-4-.2-8.1-1.2-12-.2 1.7-1.2 1.8-2.3 2.7-1.4 1.1.2 4.8.2 6.2.1 2.7-.2 5.6.1 8.2.2 2.3 1.6 4.4 1.8 6.8 1.2-3.4 1.9-8.4 1.4-11.9m33.5-5.8c-.2-.8-.8-6-1.1-6.9-.1 4.2 1.1 8.4.7 12.6.4-2.1 1-3.5.4-5.7"/></symbol><path fill="#fff" d="M0 0h1920v1920h-1920z"/><g><g><path d="M509.6 676.7v-14.9h1.8v-4h-4.8v-8.9h-3v8.8h-1.3c-5.3 0-12.8.7-22.3 4-11.9 4.2-24.3 12.8-29.6 17.8-4.5 4.3-13.1 7.5-22.1 7.6h-3v-1.9h-5v-5.6h-2v5.6h-5v2h-4.5l.1 4h4.4v3.9h3v292.1h-2v3h-1.8v32.8h13.6v-32.8h-1.8v-3h-2v-291.9h3v-4.1h3.1c9.9-.1 19.3-3.4 24.8-8.7 4.7-4.5 17.1-13.1 28.1-16.9 8.1-2.8 14.4-3.6 19.2-3.7v14.9c-4.2 2.2-7.1 6.8-7.1 8.9h3.9c.7 3.8 3.8 6.6 7.7 6.6 3.8 0 7-2.9 7.7-6.6h3.9c.1-2.2-2.8-6.8-7-9"/><g stroke="#000" stroke-width="1.176" stroke-linecap="round" stroke-linejoin="round" fill="none"><path d="M618.8 294.2l13.2-10.2 7.9-13.6-31.7 10.2 10.6 13.6M624 323.8h26.5l10.5 6.8-18.5 13.5-18.5-13.5v-6.8M661 364.4l-15.8 3.4v13.5l15.8-16.9M292 653.7l-29.7-18.5-10.6-2.7-9.9-7.2-26.3 3.4-21.9-9.4-41.9 9-39.9-5.1-2.7 9.3-47.6-13.2-2.6-18.5 13.2-15.9-47-34.8.2-.4 10.4-20.8h26.4l2.6-5.3-21.1-5.3v-15.9l-13.2-15.8 23.8-13.3-18.5-5.2 55.4-10.2 18.5-7.9-2.6-29.1-10.6-5.3.5-34.4v-7.9h-13.2l21.2-23.8-15.9-13.2 35.9-10.6 37-5.3-7.9-13.2-29.1-2.7 5.3-10.6-18.5-2.6-7.9-23.8 34.3-10.6 15.9-23.8 21.1-5.3 10.6-18.5 15.8 10.5 19.9-7.3h.4l-3.9-4.9-5.9-20.4.5-1 8-10.4 15.9 10.6 7.9-23.8-7.9-15.9 18.5-2.6 26.4 21.1 13.2-15.8-29.1-23.9 21.2-5.2 15.8 5.2 18.5-13.2h-10.6l2.7-7.9 4.7-48.6 15.9 7.9 2.6-18.5 15.9-5.3 7.9 10.6 10.5-2.6v-15.9h29.1l29 21.2 18.5-5.3 23.8 29.1 29-2.7 13.2-2.6h13.2l13.2 13.2 2.7 10.6-5.3 15.9 18.5 21.1 23.8 8-13.2 18.5 26.4 34.4-5.3 5.3-21.1-2.7-2.7 13.3 31.7 13.2 23.8-5.3 5.2 10.6 18.5-5.3 2.7 18.5 15.8-10.6 21.2-2.6 7.9 15.8-18.5 21.2 5.3 13.2 31.7-2.6 7.9 7.9-10.6 15.9 7.9 18.5 13.2 10.6-13.2 10.6 31.7 31.7-15.8 29.1-39.6-2.6-21.2 21.2 37 10.5-2.6 15.9h-29.1l-5.3 10.6 26.5 2.6 31.6 5.3-18.4 42.4 26.4 2.6v26.5l-23.8 7.9 5.3 21.2 18.5 13.2-44.9 18.5-15.9-5.3-10.5 10.6 10.5 18.5-13.2 7.9-29.3-3.5-16-8.8-7.5 7.1-2.6 15.8-18.5 8-23.8-5.3-13.2-8-3.7 8-12.8-10.9-8.9.9 11.3 21.2-13.5 7.4-16.2-15.1-16.8 10.3"/><path d="M280.3 632.7l15.6 15 7.2 16.3 38.5 40.2 11.5 21.6 12 17.5 3.6 6.6-2.5 43.5-3.2 50.8 1.6 28.7-3.9 15.9 2.1 10.1 3 10.5-.4 12.7-1.6 20.7v36.5l-.2 44.3 42.3-.1-1-39.4 3.2-50.9-6.4-25.4 1.1-20.4-1-47.9v-36.6l1.6-20.7 6.4-12.7 3.2-20.7-6.4-14.3-6.9-26.8 5.3-5 2-2.8 5.6-3.4 21.4-16 13.7-11.5 19.1-9.1 14.5-2.3 19.1-35.9-8.6-8.9-14 30.3-9.5 8.5-19.1 9.2-13.8 11.5-21.3 16-5.4-.8-2.7 1.9-2.9 5.6-.4-33.2 8.5-5.7 11-6.2 9.6-9.7 31.9-31.9-3.5-2.4-33.2 31.7-9.6 7.9-12.4 4.4-11 7.1 2.1-15 .7-22-6.9-20.7-4.8.3 5.5 20.4-2.8 22.9-4.8 16.7-14.9-15.7-3.9-7-12.4-13.2-29-26.3-6.2 1.4 40 43.4 5.3 8.9v11.2l-.5 7.6-3 8.7 1.5 6.6-5.4 25-1.7-4-18.7-20.2-27.3-26.9-7.2-16.3-15.7-15zM151.9 398.3l-31.7-6.8 2.6-13.5 29.1-3.4v23.7M114.9 340.7l7.9 10.2 2.7-13.6-10.6 3.4"/></g><path opacity=".5" fill="#A9C034" d="M429.2 53.1l18.5-5.3 23.7 29 29.1-2.6 13.2-2.6h13.2l13.2 13.2 2.6 10.5-5.2 15.8 18.4 21.1 23.8 7.9-13.2 18.5 26.4 34.3-5.2 5.3-21.2-2.7-2.6 13.2 31.6 13.2 23.8-5.3 5.3 10.6 18.5-5.3 2.6 18.4 15.9-10.5 21.1-2.6 7.9 15.8-18.5 21.1 5.3 13.2 31.7-2.7 7.9 7.9-10.5 15.9 7.9 18.4 13.2 10.6-13.2 10.5 31.7 31.7-15.9 29-39.6-2.6-21.1 21.1 37 10.5-2.7 15.8h-29l-5.3 10.6 26.4 2.6 31.7 5.3-18.5 42.2 26.4 2.6v26.4l-23.8 7.9 5.3 21.1 18.5 13.2-44.9 18.5-15.8-5.3-10.6 10.5 10.6 18.5-13.2 7.9-29.3-3.5-30.6 32.8-44.4-4.6-30.9 15.8-11.6-6.7h-19.3l-56.9-9.1-71.5-16.5-26 11.3-30 11.3-30.8 2.2-29-12-27-7.5-34.8-9.8-44.4 3-32.8-10.8-2.7 9.4-47.5-13.2-2.6-18.5 13.2-15.8-47-34.8.2-.3 10.3-20.7h26.4l2.7-5.3-21.2-5.3v-15.8l-13.2-15.8 23.8-13.2-18.5-5.3 55.5-10.1 18.5-7.9-2.7-29-10.5-5.3.5-34.3v-7.9h-13.2l21.1-23.7-15.8-13.2 35.9-10.5 37-5.3-8-13.2-29-2.7 5.3-10.5-18.5-2.6-7.9-23.8 34.3-10.5 15.8-23.7 21.2-5.3 10.5-18.5 15.9 10.6 19.9-7.4h.4l-4-4.9-5.8-20.3.4-1 8.1-10.3 15.8 10.5 8-23.7-8-15.9 18.5-2.6 26.4 21.1 13.2-15.8-29-23.8 21.1-5.2 15.9 5.2 18.4-13.1h-10.5l2.6-8 4.8-48.4 15.8 7.9 2.6-18.4 15.9-5.3 7.9 10.6 10.6-2.7v-15.8h29z"/></g><g><path stroke="#000" stroke-width=".392" stroke-linejoin="round" stroke-miterlimit="1" fill="none" d="M854.8 1074v-37.9M693.9 1066.2l106.9.2M842.8 1066.3h12.1M783.4 1068.3l3.8-3.9M852.9 1068.2l3.8-3.9"/><text transform="translate(609.504 1069.148)" font-family="'Futura-CondensedMedium'" font-size="10">8&apos; minimum (2.4 m)</text><text transform="translate(623.974 1080.73)" font-family="'Futura-CondensedMedium'" font-size="10">width paved</text><path stroke="#000" stroke-width=".392" stroke-linejoin="round" stroke-miterlimit="1" fill="none" d="M505.6 1035.9v39M785.4 1035.9v39M598.2 1066.3h-108.5M503.7 1068.2l3.9-3.9"/><text transform="translate(459.434 1069.266)"><tspan x="0" y="0" font-family="'Futura-CondensedMedium'" font-size="10">2&apos; min</tspan><tspan x="-1" y="12" font-family="'Futura-CondensedMedium'" font-size="10">(0.6 m)</tspan><tspan x=".2" y="24" font-family="'Futura-CondensedMedium'" font-size="10">graded</tspan></text><text transform="translate(811.984 1069.266)"><tspan x="0" y="0" font-family="'Futura-CondensedMedium'" font-size="10">2&apos; min</tspan><tspan x="-1" y="12" font-family="'Futura-CondensedMedium'" font-size="10">(0.6 m)</tspan><tspan x=".2" y="24" font-family="'Futura-CondensedMedium'" font-size="10">graded</tspan></text><path stroke="#000" stroke-width=".392" stroke-linejoin="round" stroke-miterlimit="1" fill="none" d="M436.2 1035.9v39M436.7 1066.3h14.3M434.3 1068.2l3.8-3.9"/><g fill="none"><path stroke="#000" stroke-width=".784" stroke-linecap="round" stroke-linejoin="round" d="M611.4 1049.9h56.7"/><path d="M611 1049.4h57.6v1h-57.6zM611 1049.4h57.6v1h-57.6z"/></g><path d="M613.9 1046.4l-7.9 3.5 7.9 3.4z"/><path fill="none" d="M606 1046.4h7.8v6.9h-7.8zM606 1046.4h62.5v6.9h-62.5zM606 1046.4h62.5v6.9h-62.5z"/><text transform="translate(673.413 1053.414)" font-family="'Futura-CondensedMedium'" font-size="10">2%</text></g><use xlink:href="#a" width="70.9" height="187.2" x="-35.4" y="-93.6" transform="matrix(1 0 0 -1 626.851 929.944)" overflow="visible"/><g><path fill="#636467" d="M505.7 1023.6h279.7v8.1h-279.7z"/><path stroke="#000" stroke-width="1.357" stroke-linecap="round" stroke-linejoin="round" fill="none" d="M340 1023.6h164.7l.1 8.7h280.6v-8.7h139.1"/><path fill="#fff" d="M436.6 1023.6h68v8.7h-68z"/><path stroke="#000" stroke-width=".71" fill="none" d="M501.3 1023.6l-6.5 8.7M492.8 1023.5l-6.1 8.8M484.6 1023.5l-6.1 8.8M474.4 1023.5l-6.1 8.8M466.3 1023.5l-6.1 8.8"/><path fill="none" d="M436.6 1023.6h68v8.7h-68z"/><path stroke="#000" stroke-width=".784" fill="none" d="M436.6 1023.6h68v8.7h-68z"/><path fill="#fff" d="M785.4 1023.6h68v8.7h-68z"/><path stroke="#000" stroke-width=".71" fill="none" d="M823.2 1023.5l-6.1 8.8M815.1 1023.5l-6.2 8.8M806.9 1023.5l-6.1 8.8M798.7 1023.5l-6.1 8.8M790.6 1023.5l-5.2 7.4"/><path fill="none" d="M785.4 1023.6h68v8.7h-68z"/><path stroke="#000" stroke-width=".784" fill="none" d="M785.4 1023.6h68v8.7h-68z"/><path stroke="#000" stroke-width=".71" fill="none" d="M458.1 1023.5l-6.1 8.8M450 1023.5l-6.2 8.8M441.8 1023.5l-5.2 7.4M850 1023.6l-6.4 8.7M841.6 1023.5l-6.2 8.8M833.4 1023.5l-6.1 8.8"/></g><g><path fill="#EDFB1D" d="M96.5 1130.2h842.6v98h-842.6z"/><path fill="none" d="M122.1 1151.9h787.9v58.5h-787.9z"/><text transform="matrix(.9 0 0 1 122.055 1175.011)" font-family="'Futura-CondensedExtraBold'" font-size="28" letter-spacing="1.1">CALTRANS HIGHWAY DESIGN MANUAL</text></g><g><use xlink:href="#b" width="67.7" height="30.1" x="-33.8" y="-15.1" transform="matrix(1 0 0 -1 887.848 1007.754)" overflow="visible"/><use xlink:href="#b" width="67.7" height="30.1" x="-33.8" y="-15.1" transform="matrix(1 0 0 -1 374.354 1007.941)" overflow="visible"/><use xlink:href="#b" width="67.7" height="30.1" x="-33.8" y="-15.1" transform="matrix(1 0 0 -1 403.122 1007.76)" overflow="visible"/></g></g><g><g><path stroke="#000" stroke-width="3.137" fill="none" d="M1112.5 1020.8v-131.2M1774.9 1020.8v-235.6"/><path d="M1822.2 743.6l-47.4 47.3-47.1-47.6 47.4-47.4zM1080.1 856.4h64.8v33.1h-64.8z"/></g><g><path fill="#636467" d="M1234.3 1020.7h336.8v8.5h-336.8z"/><path stroke="#000" stroke-width="1.357" stroke-linecap="round" stroke-linejoin="round" fill="none" d="M1001.5 1021.1h164.5v8.7h539.4v-8.7h139.1"/><path fill="#fff" d="M1571.1 1021.1h134.3v8.7h-134.3z"/><path stroke="#000" stroke-width=".71" d="M1702 1021.1l-6.4 8.7m-2.1-8.7l-6.1 8.7m-2-8.7l-6.1 8.7m-4.1-8.7l-6.1 8.7m-2.1-8.7l-6.1 8.7m-2-8.7l-6.1 8.7m-2.1-8.7l-6.1 8.7m-2-8.7l-6.1 8.7m-2.1-8.7l-6.1 8.7m-2.1-8.7l-6.1 8.7m-2-8.7l-6.1 8.7m-2.1-8.7l-6.1 8.7m-2-8.7l-6.1 8.7m-2.1-8.7l-6.1 8.7m-2.1-8.7l-6.1 8.7m-2-8.7l-6.1 8.7" fill="none"/><path fill="none" d="M1571.1 1021.1h134.3v8.7h-134.3z"/><path stroke="#000" stroke-width=".784" fill="none" d="M1571.1 1021.1h134.3v8.7h-134.3z"/><path fill="#fff" d="M1166.1 1021.1h68v8.7h-68z"/><path stroke="#000" stroke-width=".71" d="M1230.7 1021.1l-6.4 8.7m-2-8.7l-6.1 8.7m-2.1-8.7l-6.1 8.7m-4.1-8.7l-6.1 8.7m-2-8.7l-6.1 8.7m-2.1-8.7l-6.1 8.7m-2.1-8.7l-6.1 8.7m-2-8.7l-5.2 7.4" fill="none"/><path fill="none" d="M1166.1 1021.1h68v8.7h-68z"/><path stroke="#000" stroke-width=".784" fill="none" d="M1166.1 1021.1h68v8.7h-68z"/></g><g><path stroke="#000" stroke-width=".392" stroke-linejoin="round" stroke-miterlimit="1" fill="none" d="M1802.7 1080.2"/><text transform="translate(1725.151 1066.791)" font-family="'Futura-CondensedMedium'" font-size="10">2&apos; (0.6 m)</text><path stroke="#000" stroke-width=".392" stroke-linejoin="round" stroke-miterlimit="1" fill="none" d="M1774.8 1071.6v-37.9M1449.9 1063.8h154.4M1763.4 1063.8h53.4M1772.9 1065.7l3.9-3.8"/><text transform="translate(1365.419 1066.674)" font-family="'Futura-CondensedMedium'" font-size="10">10&apos; minimum (3.0 m)</text><text transform="translate(1388.04 1078.256)" font-family="'Futura-CondensedMedium'" font-size="10">trail head</text><path stroke="#000" stroke-width=".392" stroke-linejoin="round" stroke-miterlimit="1" fill="none" d="M1235.4 1033.4v39.1M1354.2 1063.8h-133.4M1233.5 1065.7l3.9-3.9"/><text transform="translate(1191.211 1066.791)"><tspan x="0" y="0" font-family="'Futura-CondensedMedium'" font-size="10">2&apos; min</tspan><tspan x="-2" y="12" font-family="'Futura-CondensedMedium'" font-size="10">(0.6 m)</tspan><tspan x="-15.5" y="24" font-family="'Futura-CondensedMedium'" font-size="10">graded shoulder</tspan><tspan x="-7.7" y="36" font-family="'Futura-CondensedMedium'" font-size="10">per Caltrans</tspan></text><path stroke="#000" stroke-width=".392" stroke-linejoin="round" stroke-miterlimit="1" fill="none" d="M1166 1033.4v39.1M1166 1063.8h14.8M1164.1 1065.7l3.8-3.8"/><text transform="translate(1819.889 1066.754)" font-family="'Futura-CondensedMedium'" font-size="10">1&apos;</text><text transform="translate(1827.311 1066.754)" font-family="'Futura-CondensedMedium'" font-size="10">(0.3 m)</text><path stroke="#000" stroke-width=".392" stroke-linejoin="round" stroke-miterlimit="1" fill="none" d="M1809.6 1033.1v39.4M1807.6 1065.8l3.9-3.9"/><text transform="translate(1616.095 1066.762)" font-family="'Futura-CondensedMedium'" font-size="10">4&apos; min (1.2 m)</text><text transform="translate(1613.84 1078.374)" font-family="'Futura-CondensedMedium'" font-size="10">pedestrian path</text><text transform="translate(1602.508 1089.927)" font-family="'Futura-CondensedMedium'" font-size="10">or min. graded shoulder</text><path stroke="#000" stroke-width=".392" stroke-linejoin="round" stroke-miterlimit="1" fill="none" d="M1571.1 1034.1v38.5M1705.4 1034.1v38.5M1673.2 1063.9h48.8M1569.2 1065.8l3.9-3.9M1703.5 1065.8l3.9-3.9"/><text transform="translate(1089.932 1066.674)" font-family="'Futura-CondensedMedium'" font-size="10">3&apos; min (0.9 m)</text><text transform="translate(1088.553 1078.265)" font-family="'Futura-CondensedMedium'" font-size="10">zone for signage</text><path stroke="#000" stroke-width=".392" stroke-linejoin="round" stroke-miterlimit="1" fill="none" d="M1061.9 1037.4v35.1M1166.1 1037.4v35.1M1061.9 1063.8h21M1148 1063.8h18.1M1059.9 1065.7l3.9-3.8M1164.2 1065.7l3.8-3.8"/><text transform="matrix(0 -1 1 0 1064.935 980.998)" font-family="'Futura-CondensedMedium'" font-size="10">4&apos; min (1.2 m)</text><path stroke="#000" stroke-width=".392" stroke-linejoin="round" stroke-miterlimit="1" fill="none" d="M1077.8 889.6h-24.4M1108.1 1020.8h-54.7M1062 889.6v33.4M1062 1020.8v-30.7M1060.1 891.5l3.9-3.9M1060.1 1022.7l3.9-3.9"/><text transform="translate(1160.025 876.414)" font-family="'Futura-CondensedMedium'" font-size="10">2&apos;</text><text transform="translate(1170.373 876.414)" font-family="'Futura-CondensedMedium'" font-size="10">(0.6 m)</text><text transform="translate(1159.293 887.996)" font-family="'Futura-CondensedMedium'" font-size="10">offset from</text><text transform="translate(1162.177 899.579)" font-family="'Futura-CondensedMedium'" font-size="10">trail edge</text><path stroke="#000" stroke-width=".392" stroke-linejoin="round" stroke-miterlimit="1" fill="none" d="M1214.3 868.5v13.7M1144.8 873.5h13.5M1204.1 873.5h10.2M1142.9 875.4l3.9-3.8M1212.4 875.4l3.9-3.8"/><text transform="matrix(0 -1 1 0 1827.004 920.432)" font-family="'Futura-CondensedMedium'" font-size="10">7&apos; min (2.2 m)</text><text transform="matrix(0 -1 1 0 1838.586 941.466)" font-family="'Futura-CondensedMedium'" font-size="10">adjacent to pedestrian path</text><path stroke="#000" stroke-width=".392" stroke-linejoin="round" stroke-miterlimit="1" fill="none" d="M1787 785.2h45.8M1824.1 785.2v77.3M1824.1 1020.8v-90.3M1822.2 787.2l3.8-3.9M1822.2 1022.7l3.8-3.9"/><text transform="translate(1385.547 684.457)" font-family="'Futura-CondensedMedium'" font-size="10">22</text><text transform="translate(1397.246 684.457)" font-family="'Futura-CondensedMedium'" font-size="10">&apos;</text><text transform="translate(1398.819 684.457)" font-family="'Futura-CondensedMedium'" font-size="10">(6.7 m)</text><text transform="translate(1385.856 696.04)" font-family="'Futura-CondensedMedium'" font-size="10">ROW width</text><path stroke="#000" stroke-width=".392" stroke-linejoin="round" stroke-miterlimit="1" fill="none" d="M1080.1 853.1v-180.2M1822.2 739.2v-66.3M1080.1 681.6h302M1437.5 681.6h384.7M1078.1 683.5l3.9-3.9M1820.3 683.5l3.8-3.9M1144.8 868.5v13.7M1787 1020.8h45.8"/></g><path fill="#EDFB1D" d="M997.5 1130.2h842.6v98h-842.6z"/><path fill="none" d="M1020.7 1151.9h799.2v78.5h-799.2z"/><text transform="matrix(.897 0 0 1 1020.671 1176.59)" font-family="'Futura-CondensedExtraBold'" font-size="28" letter-spacing="1.1">SANTA CLARA VALLEY TRANSPORTATION AUTHORITY</text><g><use xlink:href="#c" width="52.7" height="194.8" x="-26.3" y="-97.4" transform="matrix(1 0 0 -1 1667.55 923.016)" overflow="visible"/><use xlink:href="#d" width="61.1" height="172.5" x="-30.5" y="-86.2" transform="matrix(1 0 0 -1 1272.4 934.159)" overflow="visible"/><use xlink:href="#a" width="70.9" height="187.2" x="-35.4" y="-93.6" transform="matrix(1 0 0 -1 1527.135 926.766)" overflow="visible"/><use xlink:href="#d" width="61.1" height="172.5" x="-30.5" y="-86.2" transform="matrix(-1 0 0 -1 1360.044 934.159)" overflow="visible"/></g><g><use xlink:href="#b" width="67.7" height="30.1" x="-33.8" y="-15.1" transform="matrix(1 0 0 -1 1098.584 1005.402)" overflow="visible"/><use xlink:href="#b" width="67.7" height="30.1" x="-33.8" y="-15.1" transform="matrix(1 0 0 -1 1132.537 1005.221)" overflow="visible"/><use xlink:href="#b" width="67.7" height="30.1" x="-33.8" y="-15.1" transform="matrix(1 0 0 -1 1741.43 1005.174)" overflow="visible"/><use xlink:href="#b" width="67.7" height="30.1" x="-33.8" y="-15.1" transform="matrix(1 0 0 -1 1788.993 1005.354)" overflow="visible"/></g></g><g><g><path stroke="#000" stroke-width="3.137" fill="none" d="M816.3 1563.5v-180.8"/><path d="M783.9 1339.6h64.8v43.4h-64.8z"/><path stroke="#000" stroke-width="3.137" fill="none" d="M206.2 1494.6v-111.4"/><path d="M173.8 1344.4h64.8v38.7h-64.8z"/></g><g><path stroke="#000" stroke-width=".71" fill="none" d="M712.8 1528.7l-6.2 8.8M705.6 1527.3l-6.1 8.7M698.5 1525.8l-6.1 8.8M691.3 1524.4l-6.1 8.7M684.1 1522.9l-5.2 7.4M734.4 1532.8l-6.1 8.7M727.3 1531.3l-6.1 8.8M720.1 1529.9l-6.1 8.7M748.8 1535.5l-6.1 8.8M741.7 1534.1l-6.2 8.7"/><path fill="none" d="M679.7 1530.8l69.2 13.9v-8.7l-69.2-14z"/><path stroke="#000" stroke-width=".71" fill="none" d="M679.7 1530.8l69.2 13.9v-8.7l-69.2-14z"/><path fill="#fff" d="M274.5 1544.5l68.1-13.4v-8.8l-68.1 13.5z"/><path stroke="#000" stroke-width=".71" fill="none" d="M338.6 1523.2l-7.9 11M330.8 1522.3l-10 14.2M322.6 1522.3l-11.3 16.1M307.8 1528.8l-8.6 12.5M299 1529.8l-9 12.7M290.8 1529.8l-10.5 15M282.6 1529.9l-10.3 14.8"/><path fill="none" d="M274.5 1535.8v8.7l68.1-13.4v-8.8z"/><path stroke="#000" stroke-width=".784" fill="none" d="M274.5 1544.5l68.1-13.4v-8.8l-68.1 13.5z"/><path stroke="#000" stroke-width="1.357" stroke-linecap="round" stroke-linejoin="round" fill="none" d="M106.1 1443.7l167.9 92.2 69.8-13.9 167.3-4.2 168.6 4.2 69.2 14 167.9 75.4"/><path fill="#636467" d="M679.6 1531.3l-168.5-4.2-168.5 4.2.1-9.2 168.4-4.3 168.5 4.3z"/><path stroke="#000" stroke-width=".392" stroke-linejoin="round" stroke-miterlimit="1" fill="none" d="M335.6 1522.1h17.1M340.9 1524l3.9-3.9M672.6 1522.1h12.5M677.9 1524l3.9-3.9"/></g><g><text transform="matrix(.981 .196 -.196 .981 685.585 1519.208)" font-family="'Futura-CondensedMedium'" font-size="10">1:6 max slope</text><text transform="matrix(.981 -.196 .196 .981 283.884 1529.418)" font-family="'Futura-CondensedMedium'" font-size="10">1:6 max slope</text><text transform="translate(495.202 1567.647)" font-family="'Futura-CondensedMedium'" font-size="10">10&apos; (3.0 m)</text><text transform="translate(453.364 1579.229)" font-family="'Futura-CondensedMedium'" font-size="10">recommended width of shared use path</text><path stroke="#000" stroke-width=".392" stroke-linejoin="round" stroke-miterlimit="1" fill="none" d="M344 1534.4v39M480.7 1564.8h-150M342 1566.7l3.9-3.9"/><text transform="translate(290.862 1567.765)" font-family="'Futura-CondensedMedium'" font-size="10">2&apos; (0.6 m)</text><text transform="translate(287.229 1579.347)" font-family="'Futura-CondensedMedium'" font-size="10">graded area</text><path stroke="#000" stroke-width=".392" stroke-linejoin="round" stroke-miterlimit="1" fill="none" d="M274.5 1534.4v39M274.5 1564.8h12M272.6 1566.7l3.8-3.9"/><text transform="translate(695.413 1567.735)" font-family="'Futura-CondensedMedium'" font-size="10">2&apos; (0.6 m)</text><text transform="translate(693.124 1579.318)" font-family="'Futura-CondensedMedium'" font-size="10">graded area</text><path stroke="#000" stroke-width=".392" stroke-linejoin="round" stroke-miterlimit="1" fill="none" d="M679.7 1535.1v38.4M748.8 1538.4v35.1M548.5 1564.8h141.1M677.7 1566.8l3.9-3.9M746.9 1566.8l3.9-3.9M734.8 1565.1h14.2"/><text transform="translate(264.408 1385.967)" font-family="'Futura-CondensedMedium'" font-size="10">3&apos; min</text><text transform="translate(290.555 1385.967)" font-family="'Futura-CondensedMedium'" font-size="10">(0.9 m)</text><text transform="translate(263.654 1397.549)" font-family="'Futura-CondensedMedium'" font-size="10">6&apos; max</text><text transform="translate(291.318 1397.549)" font-family="'Futura-CondensedMedium'" font-size="10">(1.8 m)</text><path stroke="#000" stroke-width=".392" stroke-linejoin="round" stroke-miterlimit="1" fill="none" d="M238.6 1378.1v13.7M342.8 1377.2v38M238.6 1383.1h15.6M325.7 1383.1h22.9M340.9 1385l3.9-3.9M342.7 1492.7v33.8"/><text transform="matrix(0 -1 1 0 345.401 1481.842)" font-family="'Futura-CondensedMedium'" font-size="10">4&apos; min</text><text transform="matrix(0 -1 1 0 345.4 1455.696)" font-family="'Futura-CondensedMedium'" font-size="10">(1.2 m)</text><text transform="matrix(0 -1 1 0 356.982 1482.595)" font-family="'Futura-CondensedMedium'" font-size="10">5&apos; max</text><text transform="matrix(0 -1 1 0 356.984 1454.933)" font-family="'Futura-CondensedMedium'" font-size="10">(1.5 m)</text><text transform="translate(703.996 1385.983)" font-family="'Futura-CondensedMedium'" font-size="10">3&apos; min</text><text transform="translate(730.143 1385.983)" font-family="'Futura-CondensedMedium'" font-size="10">(0.9 m)</text><text transform="translate(703.243 1397.566)" font-family="'Futura-CondensedMedium'" font-size="10">6&apos; max</text><text transform="translate(730.906 1397.566)" font-family="'Futura-CondensedMedium'" font-size="10">(1.8 m)</text><path stroke="#000" stroke-width=".392" stroke-linejoin="round" stroke-miterlimit="1" fill="none" d="M783.9 1378.1v13.7M679.8 1376.7v38.5M767.2 1383.1h23.9M697.2 1383.1h-23.7M677.9 1385l3.9-3.8M679.7 1492.7v33.8"/><text transform="matrix(0 -1 1 0 682.378 1481.859)" font-family="'Futura-CondensedMedium'" font-size="10">4&apos; min</text><text transform="matrix(0 -1 1 0 682.378 1455.713)" font-family="'Futura-CondensedMedium'" font-size="10">(1.2 m)</text><text transform="matrix(0 -1 1 0 693.962 1482.612)" font-family="'Futura-CondensedMedium'" font-size="10">5&apos; max</text><text transform="matrix(0 -1 1 0 693.961 1454.949)" font-family="'Futura-CondensedMedium'" font-size="10">(1.5 m)</text><path stroke="#000" stroke-width=".392" stroke-linejoin="round" stroke-miterlimit="1" fill="none" d="M236.7 1385l3.8-3.9M781.9 1385l3.9-3.8"/></g><g><path fill="#EDFB1D" d="M96.5 1651.6h842.6v98.2h-842.6z"/><path fill="none" d="M118 1674.3h815v64h-815z"/><text transform="matrix(.9 0 0 1 118.047 1697.332)"><tspan x="0" y="0" font-family="'Futura-CondensedExtraBold'" font-size="28" letter-spacing="1.1">AMERICAN ASSOCIATION OF STATE HIGHWAY AND</tspan><tspan x="0" y="33.6" font-family="'Futura-CondensedExtraBold'" font-size="28" letter-spacing="1.1">TRANSPORTATION OFFICIALS</tspan></text></g><g><use xlink:href="#e" width="74.9" height="131.9" x="-37.4" y="-66" transform="matrix(1 0 0 -1 427.778 1453.568)" overflow="visible"/><use xlink:href="#a" width="70.9" height="187.2" x="-35.4" y="-93.6" transform="matrix(1 0 0 -1 585.492 1425.702)" overflow="visible"/></g><g><use xlink:href="#b" width="67.7" height="30.1" x="-33.8" y="-15.1" transform="matrix(1 .557 0 -1 238.501 1500.66)" overflow="visible"/><use xlink:href="#b" width="67.7" height="30.1" x="-33.8" y="-15.1" transform="matrix(1 .557 0 -1 173.215 1464.66)" overflow="visible"/><use xlink:href="#b" width="67.7" height="30.1" x="-33.8" y="-15.1" transform="matrix(1 .443 0 -1 787.297 1537.688)" overflow="visible"/><use xlink:href="#b" width="67.7" height="30.1" x="-33.8" y="-15.1" transform="matrix(1 .443 0 -1 853.835 1567.442)" overflow="visible"/></g></g><g><g><text transform="translate(1335.541 1563.889)" font-family="'Futura-CondensedMedium'" font-size="10">10&apos; min (3.0 m)</text><text transform="translate(1324.142 1575.472)" font-family="'Futura-CondensedMedium'" font-size="10">width of shared use path</text><path stroke="#000" stroke-width=".392" stroke-linejoin="round" stroke-miterlimit="1" fill="none" d="M1195.2 1530.6v39.1M1323.9 1561h-136.5M1193.3 1562.9l3.8-3.8"/><text transform="translate(1139.928 1564.006)" font-family="'Futura-CondensedMedium'" font-size="10">2&apos;</text><text transform="translate(1147.351 1564.006)" font-family="'Futura-CondensedMedium'" font-size="10">(0.6 m)</text><text transform="translate(1131.729 1575.59)" font-family="'Futura-CondensedMedium'" font-size="10">graded area</text><path stroke="#000" stroke-width=".392" stroke-linejoin="round" stroke-miterlimit="1" fill="none" d="M1125.7 1530.6v39.1M1125.7 1561h12M1123.8 1562.9l3.9-3.8"/><text transform="translate(1545.093 1563.977)" font-family="'Futura-CondensedMedium'" font-size="10">2&apos;</text><text transform="translate(1552.515 1563.977)" font-family="'Futura-CondensedMedium'" font-size="10">(0.6 m)</text><text transform="translate(1540.615 1575.561)" font-family="'Futura-CondensedMedium'" font-size="10">graded area</text><path stroke="#000" stroke-width=".392" stroke-linejoin="round" stroke-miterlimit="1" fill="none" d="M1530.9 1531.4v38.4M1600.1 1534.6v35.2M1403.8 1561.1h137M1529 1563l3.8-3.8M1598.1 1563l3.9-3.8M1591.2 1561.4h9"/></g><g><path fill="#636467" d="M1530.8 1527.4l-168.4-4.3-168.5 4.5v-9.3l168.5-4.2 168.4 4.2z"/><path stroke="#000" stroke-width="1.357" stroke-linecap="round" stroke-linejoin="round" fill="none" d="M957.3 1439.9l168 92.2 69.7-13.8 167.4-4.2 168.5 4.2 69.2 13.9 167.9 75.5"/><defs><path id="f" d="M1530.9 1527l69.2 14v-8.8l-69.2-13.9z"/></defs><clipPath id="g"><use xlink:href="#f" overflow="visible"/></clipPath><path clip-path="url(#g)" stroke="#000" stroke-width=".71" fill="none" d="M1564 1525l-6.1 8.7M1556.9 1523.5l-6.2 8.8M1549.7 1522.1l-6.1 8.7M1542.6 1520.6l-6.2 8.8M1535.3 1519.2l-5.1 7.4M1585.7 1529l-6.2 8.7M1578.5 1527.5l-6.1 8.8M1571.4 1526.1l-6.2 8.8M1600 1531.7l-6.1 8.8M1592.9 1530.3l-6.1 8.8"/><path stroke="#000" stroke-width=".71" fill="none" d="M1530.9 1527l69.2 14v-8.8l-69.2-13.9z"/><path fill="#fff" d="M1125.7 1540.7l68.2-13.4v-8.7l-68.2 13.4z"/><defs><path id="h" d="M1125.7 1532v8.7l68.2-13.4v-8.7z"/></defs><clipPath id="i"><use xlink:href="#h" overflow="visible"/></clipPath><path clip-path="url(#i)" stroke="#000" stroke-width=".71" fill="none" d="M1189.8 1519.4l-7.9 11M1182 1518.6l-10 14.1M1173.8 1518.6l-11.3 16M1159.1 1525.1l-8.7 12.4M1150.2 1526.1l-9 12.7M1142.1 1526.1l-10.5 15M1133.9 1526.1l-10.3 14.9"/><path stroke="#000" stroke-width=".784" fill="none" d="M1125.7 1540.7l68.2-13.4v-8.7l-68.2 13.4z"/></g><g><path fill="#EDFB1D" d="M997.5 1651.8h842.6v98h-842.6z"/><path fill="none" d="M1021.3 1674.3h806v61.5h-806z"/><text transform="matrix(.9 0 0 1 1021.333 1697.331)"><tspan x="0" y="0" font-family="'Futura-CondensedExtraBold'" font-size="28" letter-spacing="1.1">US DEPARTMENT OF TRANSPORTATION</tspan><tspan x="0" y="33.6" font-family="'Futura-CondensedExtraBold'" font-size="28" letter-spacing="1.1">FEDERAL HIGHWAY ADMINISTRATION</tspan></text></g><g><use xlink:href="#e" width="74.9" height="131.9" x="-37.4" y="-66" transform="matrix(1 0 0 -1 1276.362 1449.146)" overflow="visible"/><use xlink:href="#a" width="70.9" height="187.2" x="-35.4" y="-93.6" transform="matrix(1 0 0 -1 1434.077 1421.28)" overflow="visible"/></g><g><use xlink:href="#b" width="67.7" height="30.1" x="-33.8" y="-15.1" transform="matrix(1.007 .551 -.004 -.996 1091.788 1498.216)" overflow="visible"/><use xlink:href="#b" width="67.7" height="30.1" x="-33.8" y="-15.1" transform="matrix(1.007 .551 -.004 -.996 1025.177 1461.639)" overflow="visible"/><use xlink:href="#b" width="67.7" height="30.1" x="-33.8" y="-15.1" transform="matrix(1 .452 0 -1 1635.838 1532.511)" overflow="visible"/><use xlink:href="#b" width="67.7" height="30.1" x="-33.8" y="-15.1" transform="matrix(1 .452 0 -1 1701.265 1561.715)" overflow="visible"/></g></g></svg>