<svg xmlns="http://www.w3.org/2000/svg" width="57" height="57" viewBox="0 0 57 57"><g fill="#0086B3"><path d="M53.921 0h-50.843c-1.706 0-3.078 1.373-3.078 3.078v50.843c0 1.706 1.373 3.079 3.078 3.079h50.843c1.706 0 3.079-1.373 3.079-3.079v-50.843c0-1.705-1.373-3.078-3.079-3.078zm-7.16 30.104c-.002.849-.216 1.116-.571 1.558l-.058.071-17.632 19.267-17.688-19.346c-.357-.44-.573-.708-.573-1.561v-21.734c0-.878.536-1.808 1.219-2.113.407-.188.983-.246 2.569-.246h28.947c1.586 0 2.162.058 2.573.249.681.304 1.213 1.232 1.213 2.11v21.745h.001zm-4.894-17.637c-.174-1.326-.962-2.44-3.65-2.444-.591 0-19.62.01-20.131.002-1.71-.028-2.523.468-2.887 1.244l-.033.074v.002l-.093.254-.054.215-.058.338-.035.508-.003 16.415 3.672 4.012v-18.204c0-1.615.457-2.878 3.161-2.833.509.01 10.682 0 10.682 0 3.194 0 5.778 2.354 5.778 6.01v3.544c0 2.974-.67 6.681-5.169 6.681h-3.012l6.408 6.791 5.48-5.993s-.014-15.404-.014-15.896c.003-.049-.035-.678-.042-.72zm-17.762 14.321c0-1.721.854-2.79 2.225-2.79h5.25c1.089 0 2.214-.856 2.214-2.294v-2.896c0-.239-.061-2.344-2.214-2.344h-5.7c-2.148 0-2.211 2.104-2.211 2.344v19.43l4.757 5.205 4.553-4.979-7.582-8.46c-.808-.894-1.292-2.096-1.292-3.216z"/></g></svg>