<svg xmlns="http://www.w3.org/2000/svg" width="1024" height="1024" viewBox="0 0 1024 1024"><path fill="#292E41" stroke="#fff" d="M670.194 750.395l-2128.625-1939.983 40.842-44.813 2128.625 1939.983z"/><path stroke="#fff" stroke-width="2" fill="none" d="M618.688 701.585l-22.002-20.056M620.838 699.228l-22.003-20.054M623.471 696.338l-22.003-20.054M625.759 693.829l-22.004-20.054M628.322 691.017l-22.003-20.056M630.887 688.203l-22.003-20.055M633.45 685.39l-22.002-20.056M635.946 682.653l-22.003-20.057M515.501 592.728l-16.166-14.735M518.065 589.915l-16.167-14.735M520.561 587.18l-16.168-14.737M533.867 572.579l-16.168-14.736M536.432 569.766l-16.167-14.736M538.927 567.028l-16.167-14.735M401.446 488.768l-16.167-14.735M404.011 485.954l-16.167-14.734M406.505 483.218l-16.167-14.736M419.812 468.619l-16.166-14.736M422.377 465.806l-16.167-14.736M174.382 276.651l-16.168-14.736M176.876 273.914l-16.167-14.736M190.184 259.314l-16.168-14.735M61.911 169.123l-16.168-14.736M75.217 154.524l-16.168-14.735M192.748 256.501l-16.167-14.736M424.872 463.068l-16.167-14.735M639.967 678.242l-22.005-20.054M642.462 675.506l-22.004-20.057M645.095 672.615l-22.003-20.054M647.383 670.107l-22.004-20.056M649.946 667.292l-22.002-20.054M652.51 664.479l-22.002-20.054M655.074 661.666l-22.003-20.056M657.57 658.93l-22.003-20.056"/><path stroke="#fff" stroke-width="6" fill="none" d="M623.697 708.673l41.443-45.472"/><path stroke="#fff" fill="none" d="M569.643 618.152l-22.507-20.515M530.026 582.043l-22.506-20.515M491.781 547.182l-22.506-20.516M452.165 511.072l-22.507-20.515M414.224 476.488l-22.508-20.514M374.609 440.38l-22.507-20.515M336.97 406.073l-22.507-20.514M297.355 369.965l-22.506-20.514M259.11 335.104l-22.507-20.515M219.495 298.996l-22.507-20.516M181.249 264.135l-22.507-20.515M141.634 228.026l-22.507-20.514M103.692 193.442l-22.506-20.514M64.077 157.335l-22.507-20.516M25.831 122.474l-22.506-20.516M-13.784 86.364l-22.506-20.515"/><path stroke="#fff" stroke-width="2" fill="none" d="M-51.535 65.719l-16.167-14.737M-38.229 51.12l-16.167-14.737"/><path stroke="#fff" fill="none" d="M-49.368 53.93l-22.507-20.515M-90.124 16.781l-22.506-20.515M-128.37-18.08l-22.506-20.514M-167.985-54.188l-22.506-20.514M-203.57-86.624l-22.506-20.513M-246.073-125.365l-22.508-20.515M-285.689-161.474l-22.506-20.514M-321.274-193.91l-22.506-20.513M-361.953-230.988l-22.506-20.514M-401.568-267.096l-22.506-20.515M-437.152-299.532l-22.507-20.514M-476.919-335.779l-22.507-20.514M-516.534-371.887l-22.507-20.515M-552.118-404.322l-22.508-20.515M-595.839-444.173l-22.507-20.515M-635.454-480.282l-22.507-20.514"/><path fill="#fff" d="M321.777 421.483l-32.849-29.938 6.376-6.996 32.849 29.938zM341.46 399.889l-32.849-29.938 6.376-6.996 32.849 29.938z"/><path stroke="#fff" stroke-width="2" fill="none" d="M-1150.324-973.594l16.168 14.736M-1152.888-970.78l16.167 14.735M-1155.384-968.043l16.168 14.736M-1168.69-953.444l16.167 14.736M-1171.254-950.63l16.167 14.735M-923.26-761.477l16.167 14.737M-925.754-758.739l16.167 14.736M-939.062-744.14l16.168 14.737M-810.788-653.948l16.167 14.736M-824.095-639.349l16.167 14.736M-941.626-741.327l16.167 14.736M-1173.75-947.894l16.168 14.737"/><path stroke="#fff" fill="none" d="M-1163.101-961.314l22.506 20.515"/><path stroke="#fff" stroke-width="2" fill="none" d="M-1266.709-1079.677l16.167 14.735M-1269.274-1076.865l16.168 14.737M-1271.769-1074.127l16.168 14.736M-1285.075-1059.528l16.167 14.736M-1287.64-1056.715l16.168 14.737M-1290.134-1053.978l16.167 14.737"/><path stroke="#fff" fill="none" d="M-1279.486-1067.397l22.507 20.514M-1123.486-925.205l22.506 20.515M-1085.848-890.898l22.506 20.514M-1241.494-1032.769l22.507 20.515M-1354.914-1136.149l22.507 20.515M-1316.922-1101.52l22.506 20.515M-1203.856-998.462l22.506 20.515M-1046.233-854.79l22.506 20.515M-1007.987-819.929l22.506 20.514M-968.373-783.82l22.507 20.514M-930.126-748.96l22.506 20.515M-890.512-712.851l22.507 20.514M-852.57-678.268l22.506 20.515M-812.955-642.16l22.506 20.515M-774.709-607.298l22.507 20.514M-735.094-571.19l22.506 20.515"/><path stroke="#fff" stroke-width="2" fill="none" d="M-697.343-550.543l16.168 14.735M-710.649-535.945l16.167 14.737"/><path stroke="#fff" fill="none" d="M-699.509-538.755l22.506 20.515"/><path fill="#fff" d="M-1070.764-906.305l32.85 29.939-6.376 6.996-32.85-29.939zM-1090.456-884.708l32.849 29.938-6.376 6.996-32.849-29.938z"/><path stroke="#fff" fill="none" d="M672.096 745.225l.435-24.102M705.51 707.748l-22.039 2.186"/><path stroke="#fff" stroke-width="2" fill="none" d="M-1367.011-1185.91l22.003 20.056M-1369.159-1183.553l22.003 20.056M-1371.793-1180.663l22.003 20.056M-1374.08-1178.154l22.003 20.055M-1376.644-1175.341l22.002 20.056M-1379.208-1172.527l22.002 20.055M-1381.773-1169.714l22.003 20.055M-1384.268-1166.977l22.002 20.056M-1388.288-1162.567l22.003 20.056M-1390.437-1160.21l22.004 20.055M-1393.07-1157.32l22.004 20.054M-1395.356-1154.811l22.002 20.055M-1397.921-1151.998l22.003 20.056M-1400.486-1149.184l22.004 20.056M-1403.05-1146.371l22.003 20.056M-1405.545-1143.633l22.003 20.055"/><path stroke="#fff" stroke-width="6" fill="none" d="M-1371.001-1194.112l-41.445 45.469"/><path stroke="#fff" fill="none" d="M-1409.007-1179.893l-30.601 1.807M-1399.212-1190.639l-1.384-29.843M-1447.385-1199.283l24.995-1.158-1.185-25.581"/><path fill="none" d="M552.686 652.81l49.344-54.142 33.155 30.217-49.344 54.142z"/><path fill="#fff" d="M581.977 630.585c2.984 2.721 3.594 5.358 1.702 7.434-1.891 2.075-4.574 1.712-7.546-.997-3.052-2.781-3.634-5.37-1.682-7.512 1.843-2.022 4.54-1.647 7.526 1.075zm-6.683 1.898c.352.933 1.103 1.911 2.28 2.984 2.182 1.989 3.937 2.51 4.9 1.453.977-1.071.296-2.744-1.926-4.77-2.209-2.014-3.965-2.561-4.917-1.517-.486.537-.601 1.145-.337 1.85zM584.775 620.765l4.536 10.726-1.525 1.673-4.44-10.615-3.696 4.057-1.219-1.11 5.233-5.743 1.111 1.012zM591.251 643.685l2.392-2.624c.988-1.084 1.471-1.478 2.1-1.737 1.032-.407 2.225-.129 3.175.737.655.597 1.092 1.411 1.183 2.253.05.536-.01.923-.243 1.691l6.363 1.192-1.721 1.887-5.827-1.242-.842.924 3.802 3.465-1.451 1.593-8.931-8.139zm5.996 1.273c.427-.468.572-.654.699-.955.36-.799.198-1.535-.498-2.169-.441-.403-.911-.561-1.355-.477-.405.097-.666.275-1.203.864l-.354.388-.561.642 2.638 2.403.634-.696z"/><path fill="#292E41" stroke="#fff" d="M778.245 631.862l-2128.625-1939.983 40.842-44.814 2128.625 1939.983z"/><path stroke="#fff" stroke-width="2" fill="none" d="M726.74 583.04l-22.002-20.057M728.889 580.683l-22.002-20.056M731.522 577.793l-22.001-20.055M733.81 575.284l-22.002-20.054M736.374 572.472l-22.003-20.057M738.938 569.658l-22.001-20.055M741.503 566.844l-22.003-20.055M743.999 564.108l-22.005-20.056M623.554 474.185l-16.168-14.736M626.117 471.373l-16.167-14.737M628.612 468.636l-16.168-14.738M641.919 454.037l-16.168-14.738M644.483 451.223l-16.167-14.737M646.978 448.486l-16.166-14.737M509.498 370.226l-16.168-14.737M512.061 367.412l-16.166-14.736M514.557 364.676l-16.168-14.738M527.862 350.076l-16.166-14.737M530.428 347.263l-16.168-14.737M282.433 158.108l-16.167-14.736M284.928 155.37l-16.168-14.736M298.235 140.771l-16.168-14.735M169.961 50.58l-16.167-14.737M183.268 35.981l-16.167-14.736M300.799 137.958l-16.167-14.735M532.923 344.525l-16.167-14.736M748.018 559.697l-22.002-20.054M750.512 556.959l-22.001-20.055M753.146 554.07l-22.002-20.054M755.434 551.561l-22.003-20.054M757.997 548.748l-22.002-20.057M760.562 545.935l-22.004-20.056M763.126 543.122l-22.003-20.057M765.621 540.385l-22.003-20.057"/><path stroke="#fff" stroke-width="6" fill="none" d="M731.749 590.128l41.443-45.472"/><path stroke="#fff" fill="none" d="M677.692 499.607l-22.506-20.514M638.079 463.5l-22.508-20.516M599.833 428.638l-22.508-20.514M560.217 392.529l-22.507-20.515M522.274 357.944l-22.506-20.513M482.659 321.836l-22.507-20.514M445.021 287.53l-22.506-20.514M405.406 251.421l-22.505-20.514M367.16 216.561l-22.506-20.515M327.546 180.452l-22.507-20.515M289.3 145.592l-22.507-20.516M249.685 109.483l-22.507-20.516M211.743 74.898l-22.506-20.513M172.128 38.791l-22.507-20.515M133.882 3.93l-22.506-20.515M94.267-32.179l-22.506-20.514"/><path stroke="#fff" stroke-width="2" fill="none" d="M56.516-52.826l-16.167-14.736M69.823-67.423l-16.167-14.737"/><path stroke="#fff" fill="none" d="M58.683-64.614l-22.508-20.514M17.927-101.762l-22.506-20.515M-20.318-136.623l-22.508-20.515M-59.934-172.731l-22.506-20.515M-95.518-205.167l-22.506-20.515M-138.022-243.909l-22.507-20.514M-177.637-280.018l-22.507-20.514M-213.222-312.452l-22.507-20.515M-253.902-349.532l-22.506-20.514M-293.517-385.64l-22.506-20.514M-329.101-418.076l-22.507-20.514M-368.868-454.322l-22.507-20.515M-408.483-490.431l-22.507-20.514M-444.068-522.866l-22.506-20.514M-487.789-562.717l-22.506-20.514M-527.403-598.825l-22.507-20.515"/><path fill="#fff" d="M429.837 302.946l-32.849-29.938 6.376-6.996 32.849 29.938zM449.513 281.356l-32.849-29.938 6.376-6.996 32.849 29.938z"/><path stroke="#fff" stroke-width="2" fill="none" d="M-1042.273-1092.137l16.167 14.736M-1044.837-1089.324l16.167 14.736M-1047.333-1086.587l16.168 14.736M-1060.639-1071.988l16.166 14.737M-1063.204-1069.174l16.168 14.736M-815.208-880.02l16.167 14.736M-817.703-877.282l16.166 14.735M-831.01-862.684l16.167 14.737M-702.737-772.492l16.167 14.737M-716.043-757.893l16.166 14.737M-833.574-859.87l16.166 14.737M-1065.699-1066.437l16.167 14.736"/><path stroke="#fff" fill="none" d="M-1055.05-1079.856l22.507 20.514"/><path stroke="#fff" stroke-width="2" fill="none" d="M-1158.658-1198.221l16.167 14.736M-1161.222-1195.408l16.167 14.737M-1163.717-1192.671l16.167 14.737M-1177.023-1178.072l16.167 14.737M-1179.588-1175.259l16.167 14.737M-1182.084-1172.521l16.167 14.736"/><path stroke="#fff" fill="none" d="M-1171.435-1185.94l22.507 20.514M-1015.435-1043.749l22.506 20.515M-977.797-1009.442l22.506 20.515M-1133.443-1151.312l22.506 20.515M-1246.862-1254.692l22.506 20.514M-1208.871-1220.063l22.507 20.514M-1095.806-1117.005l22.507 20.515M-938.183-973.333l22.507 20.514M-899.936-938.473l22.506 20.515M-860.322-902.363l22.507 20.514M-822.076-867.503l22.507 20.515M-782.46-831.395l22.506 20.515M-744.519-796.811l22.507 20.515M-704.904-760.703l22.507 20.515M-666.658-725.842l22.507 20.515M-627.043-689.732l22.506 20.513"/><path stroke="#fff" stroke-width="2" fill="none" d="M-589.292-669.087l16.167 14.736M-602.598-654.488l16.166 14.737"/><path stroke="#fff" fill="none" d="M-591.458-657.297l22.506 20.514"/><path fill="#fff" d="M-962.733-1024.857l32.849 29.938-6.376 6.996-32.849-29.938zM-982.396-1003.262l32.85 29.939-6.376 6.996-32.85-29.939z"/><path stroke="#fff" fill="none" d="M780.146 626.68l.438-24.101M813.56 589.204l-22.039 2.186"/><path stroke="#fff" stroke-width="2" fill="none" d="M-1258.96-1304.454l22.003 20.056M-1261.107-1302.096l22.002 20.055M-1263.742-1299.207l22.003 20.056M-1266.029-1296.697l22.003 20.054M-1268.593-1293.884l22.003 20.055M-1271.157-1291.07l22.002 20.054M-1273.722-1288.258l22.004 20.056M-1276.216-1285.521l22.002 20.056M-1280.236-1281.11l22.002 20.055M-1282.385-1278.753l22.003 20.055M-1285.019-1275.863l22.003 20.054M-1287.306-1273.354l22.004 20.054M-1289.87-1270.541l22.002 20.055M-1292.435-1267.728l22.003 20.056M-1294.999-1264.915l22.003 20.056M-1297.494-1262.177l22.003 20.055"/><path stroke="#fff" stroke-width="6" fill="none" d="M-1262.949-1312.657l-41.445 45.469"/><path stroke="#fff" fill="none" d="M-1300.955-1298.437l-30.601 1.806M-1291.161-1309.182l-1.382-29.845M-1339.333-1317.828l24.994-1.157-1.184-25.581"/><path fill="none" d="M661.468 533.455l49.344-54.142 33.154 30.216-49.344 54.142z"/><path fill="#fff" d="M685.674 515.017l.234-.229c.915-1.004.951-2.146.095-2.928-.71-.646-1.504-.636-2.114.034-.573.629-.567 1.295.012 2.192l-1.809.801c-.843-1.576-.689-2.712.567-4.091 1.5-1.646 3.27-1.921 4.607-.7.91.83 1.201 1.854.892 3.189.697-.468 1.089-.601 1.717-.592.718-.008 1.332.259 1.935.808 1.78 1.623 1.785 3.931.028 5.857-.769.844-1.606 1.331-2.435 1.434-.51.05-.936.005-1.894-.207l.535-1.986c1.109.423 1.898.284 2.581-.466.817-.896.726-2.085-.212-2.938-.896-.818-2.047-.714-2.925.25-.122.134-.352.439-.557.719l-1.257-1.147zM693.675 501.507l-3.147 3.454 2.055 2.559c.049-.861.28-1.411.865-2.054 1.44-1.579 3.503-1.637 5.149-.136 2.008 1.831 2.085 4.327.218 6.375-.707.776-1.442 1.233-2.293 1.414-.674.146-1.123.129-1.969-.127l.589-1.964c1.019.39 1.819.237 2.454-.459.915-1.004.782-2.472-.315-3.473-1.044-.952-2.224-.974-3.065-.05-.501.549-.619 1.054-.426 1.916l-1.613.857-3.977-4.752 4.258-4.672 1.217 1.112zM700.043 524.33l2.392-2.624c.988-1.084 1.471-1.479 2.101-1.737 1.031-.408 2.224-.129 3.175.737.655.598 1.091 1.411 1.181 2.253.051.536-.008.924-.241 1.69l6.362 1.192-1.721 1.888-5.826-1.243-.842.924 3.801 3.465-1.452 1.593-8.93-8.138zm5.996 1.274c.427-.468.571-.654.699-.955.36-.799.197-1.535-.498-2.17-.441-.402-.91-.56-1.355-.476-.405.096-.667.275-1.204.864l-.354.389-.56.641 2.637 2.403.635-.696z"/><path fill="#292E41" stroke="#fff" stroke-width="3" d="M-1521.5 808.5h2359v156h-2359z"/><path stroke="#fff" stroke-width="5" fill="none" d="M655 960.5h-77M655 952.5h-77M655 942.5h-77M655 933.5h-77M655 923.5h-77M655 913.5h-77M655 904.5h-77M655 894.5h-77M270 932.5h-57M270 922.5h-57M270 913.5h-57M270 862.5h-57M270 852.5h-57M270 842.5h-57M-128 932.5h-56M-128 922.5h-56M-128 913.5h-56M-128 862.5h-56M-128 852.5h-56M-928 922.5h-56M-928 913.5h-56M-928 862.5h-56M-1328 913.5h-56M-1328 862.5h-56M-928 852.5h-56M-128 842.5h-56M655 879.5h-77M655 869.5h-77M655 859.5h-77M655 850.5h-77M655 841.5h-77M655 831.5h-77M655 821.5h-77M655 811.5h-77"/><path stroke="#fff" stroke-width="15" fill="none" d="M676.5 965v-158"/><path stroke="#fff" stroke-width="3" fill="none" d="M417 886.5h-79M279 886.5h-79M146 886.5h-79M8 886.5h-79M-125 886.5h-78M-263 886.5h-78M-394 886.5h-78M-532 886.5h-78M-665 886.5h-78M-803 886.5h-78M-936 886.5h-79M-1074 886.5h-79M-1206 886.5h-79M-1344 886.5h-79M-1478 886.5h-78"/><path fill="#fff" d="M-510 918h114v24h-114zM-510 843h114v24h-114z"/><path stroke="#fff" stroke-width="2.575" fill="none" d="M832.079 950.967l-40.97-46.618M830.664 821.711l-38.143 42.378"/><path fill="none" d="M444.692 793.729h115.482v188.588h-115.482z"/><path fill="#fff" d="M461.801 889.142c10.395 0 16.129 3.963 16.129 11.188 0 7.225-5.734 11.188-16.083 11.188-10.628 0-16.222-3.916-16.222-11.374 0-7.04 5.781-11.002 16.176-11.002zm-9.416 15.197c2.284 1.165 5.408 1.725 9.51 1.725 7.599 0 11.84-2.051 11.84-5.733 0-3.729-4.195-5.734-11.933-5.734-7.691 0-11.98 2.005-11.98 5.641-.001 1.864.838 3.215 2.563 4.101zM450.101 865.601l27.224 12.539v5.827l-26.851-12.493v14.125h-4.242v-19.998h3.869zM502.172 897.976v-9.137c0-3.776.233-5.361.979-6.946 1.258-2.563 4.009-4.102 7.318-4.102 2.284 0 4.521.792 6.153 2.237 1.025.933 1.585 1.771 2.471 3.636l14.171-8.764v6.573l-13.239 7.738v3.216h13.239v5.548h-31.092zm13.612-7.972c0-1.632-.047-2.237-.327-3.03-.699-2.145-2.284-3.263-4.708-3.263-1.538 0-2.703.513-3.402 1.445-.606.886-.793 1.678-.793 3.729v1.353l.047 2.19h9.184v-2.424z"/><path fill="#292E41" stroke="#fff" d="M884.5 64.5h19v900h-19z"/><path stroke="#fff" fill="none" d="M885.5 942v-9M886.5 942v-9M887.5 942v-9M888.5 942v-9M889.5 942v-9M890.5 942v-9M892.5 942v-9M893.5 942v-9M888.5 896v-7M889.5 896v-7M891.5 896v-7M897.5 896v-7M898.5 896v-7M899.5 896v-7M888.5 847v-7M889.5 847v-7M891.5 847v-7M897.5 847v-7M898.5 847v-7M889.5 750v-7M891.5 750v-7M897.5 750v-7M891.5 702v-7M897.5 702v-7M898.5 750v-7M899.5 847v-7M895.5 942v-9M896.5 942v-9M897.5 942v-9M898.5 942v-9M899.5 942v-9M900.5 942v-9M902.5 942v-9M903.5 942v-9"/><path stroke="#fff" stroke-width="2" fill="none" d="M885 945h19"/><path stroke="#fff" fill="none" d="M894.5 913v-9M894.5 897v-10M894.5 880v-9M894.5 864v-10M894.5 848v-10M894.5 831v-10M894.5 815v-10M894.5 798v-9M894.5 782v-9M894.5 765v-9M894.5 749v-9M894.5 732v-9M894.5 716v-9M894.5 700v-10M894.5 683v-9M894.5 667v-10M891.5 654v-7M897.5 654v-7M894.5 652v-10M894.5 634v-9M894.5 618v-9M894.5 601v-9M894.5 586v-9M894.5 568v-9M894.5 552v-10M894.5 537v-10M894.5 519v-9M894.5 503v-10M894.5 488v-10M894.5 471v-10M894.5 454v-9M894.5 439v-9M894.5 421v-10M894.5 404v-10"/><path fill="#fff" d="M888 801h2v14h-2zM897 801h3v14h-3z"/><path stroke="#fff" fill="none" d="M899.5 181v7M898.5 181v7M897.5 181v7M891.5 181v7M890.5 181v7M898.5 278v7M897.5 278v7M891.5 278v7M897.5 327v7M891.5 327v7M890.5 278v7M888.5 181v7M894.5 181v9M899.5 132v7M898.5 132v7M897.5 132v7M891.5 132v7M890.5 132v7M888.5 132v7M894.5 131v10M894.5 197v10M894.5 213v10M894.5 148v9M894.5 100v9M894.5 116v9M894.5 163v10M894.5 230v10M894.5 246v10M894.5 263v10M894.5 279v10M894.5 296v9M894.5 312v10M894.5 329v9M894.5 345v9M894.5 362v9M897.5 375v7M891.5 375v7M894.5 377v9"/><path fill="#fff" d="M898 214h3v14h-3zM889 214h3v14h-3z"/><path stroke="#fff" stroke-width=".313" fill="none" d="M886.472 963.805l5.658-4.971M902.161 963.635l-5.143-4.63"/><path stroke="#fff" fill="none" d="M903.5 86v10M902.5 86v10M900.5 86v10M899.5 86v10M898.5 86v10M897.5 86v10M896.5 86v10M895.5 86v10M893.5 86v10M892.5 86v10M891.5 86v10M890.5 86v10M888.5 86v10M887.5 86v10M886.5 86v10M885.5 86v10"/><path stroke="#fff" stroke-width="2" fill="none" d="M904 84h-19"/><path stroke="#fff" stroke-width=".313" fill="none" d="M892.987 77.902l-6.857-6.688M897.531 77.902l6.604-6.603M889.387 64.956l5.53 5.528 5.658-5.658"/><path fill="none" d="M882.667 916.783h22.892v14.018h-22.892z"/><path fill="#fff" d="M893.979 918.859c0 1.262-.481 1.958-1.358 1.958-.878 0-1.358-.696-1.358-1.953 0-1.29.476-1.97 1.381-1.97.853.001 1.335.703 1.335 1.965zm-1.846-1.143c-.142.277-.209.656-.209 1.154 0 .923.249 1.438.696 1.438.453 0 .696-.51.696-1.449 0-.935-.243-1.455-.685-1.455-.226 0-.39.102-.498.312zM896.836 917.438l-1.523 3.306h-.707l1.517-3.261h-1.715v-.516h2.429v.471zM892.905 923.758h1.109c.458 0 .651.028.844.119.311.153.498.487.498.889 0 .277-.097.55-.271.748-.113.124-.216.192-.442.3l1.064 1.721h-.798l-.939-1.607h-.391v1.607h-.674v-3.777zm.968 1.653c.198 0 .271-.006.368-.039.26-.085.396-.277.396-.572 0-.187-.062-.328-.176-.413-.107-.073-.204-.097-.453-.097h-.164l-.266.006v1.115h.295z"/><path fill="#292E41" stroke="#fff" d="M934.5 64.5h19v900h-19z"/><path stroke="#fff" fill="none" d="M935.5 942v-9M936.5 942v-9M937.5 942v-9M938.5 942v-9M939.5 942v-9M941.5 942v-9M942.5 942v-9M943.5 942v-9M938.5 896v-7M940.5 896v-7M941.5 896v-7M947.5 896v-7M948.5 896v-7M949.5 896v-7M938.5 847v-7M940.5 847v-7M941.5 847v-7M947.5 847v-7M948.5 847v-7M940.5 750v-7M941.5 750v-7M947.5 750v-7M941.5 702v-7M947.5 702v-7M948.5 750v-7M949.5 847v-7M945.5 942v-9M946.5 942v-9M947.5 942v-9M948.5 942v-9M949.5 942v-9M951.5 942v-9M952.5 942v-9M953.5 942v-9"/><path stroke="#fff" stroke-width="2" fill="none" d="M935 945h19"/><path stroke="#fff" fill="none" d="M944.5 913v-9M944.5 897v-10M944.5 880v-9M944.5 864v-10M944.5 848v-10M944.5 831v-10M944.5 815v-10M944.5 798v-9M944.5 782v-9M944.5 765v-9M944.5 749v-9M944.5 732v-9M944.5 716v-9M944.5 700v-10M944.5 683v-9M944.5 667v-10M941.5 654v-7M947.5 654v-7M944.5 652v-10M944.5 634v-9M944.5 618v-9M944.5 601v-9M944.5 586v-9M944.5 568v-9M944.5 552v-10M944.5 537v-10M944.5 519v-9M944.5 503v-10M944.5 488v-10M944.5 471v-10M944.5 454v-9M944.5 439v-9M944.5 421v-10M944.5 404v-10"/><path fill="#fff" d="M938 801h3v14h-3zM947 801h3v14h-3z"/><path stroke="#fff" fill="none" d="M949.5 181v7M948.5 181v7M947.5 181v7M941.5 181v7M940.5 181v7M948.5 278v7M947.5 278v7M941.5 278v7M947.5 327v7M941.5 327v7M940.5 278v7M939.5 181v7M944.5 181v9M949.5 132v7M948.5 132v7M947.5 132v7M941.5 132v7M940.5 132v7M939.5 132v7M944.5 131v10M944.5 197v10M944.5 213v10M944.5 148v9M944.5 100v9M944.5 116v9M944.5 163v10M944.5 230v10M944.5 246v10M944.5 263v10M944.5 279v10M944.5 296v9M944.5 312v10M944.5 329v9M944.5 345v9M944.5 362v9M947.5 375v7M941.5 375v7M944.5 377v9"/><path fill="#fff" d="M948 214h3v14h-3zM939 214h3v14h-3z"/><path stroke="#fff" stroke-width=".313" fill="none" d="M936.596 963.805l5.66-4.971M952.285 963.634l-5.143-4.63"/><path stroke="#fff" fill="none" d="M953.5 86v10M952.5 86v10M951.5 86v10M950.5 86v10M948.5 86v10M947.5 86v10M946.5 86v10M945.5 86v10M943.5 86v10M942.5 86v10M941.5 86v10M940.5 86v10M939.5 86v10M937.5 86v10M936.5 86v10M935.5 86v10"/><path stroke="#fff" stroke-width="2" fill="none" d="M954 84h-19"/><path stroke="#fff" stroke-width=".313" fill="none" d="M943.113 77.902l-6.858-6.688M947.656 77.902l6.603-6.603M939.513 64.956l5.53 5.528 5.657-5.658"/><path fill="none" d="M933.134 916.783h22.892v14.018h-22.892z"/><path fill="#fff" d="M942.497 918.479l.103.006c.424 0 .696-.232.696-.595 0-.3-.17-.48-.453-.48-.266 0-.419.142-.504.464l-.566-.249c.188-.526.481-.73 1.064-.73.696 0 1.133.352 1.133.917 0 .385-.176.668-.55.878.255.062.368.124.498.271.153.164.221.362.221.617 0 .753-.531 1.239-1.347 1.239-.356 0-.646-.09-.844-.26-.119-.107-.198-.216-.351-.481l.571-.294c.136.345.334.498.651.498.379 0 .634-.272.634-.668 0-.38-.266-.623-.674-.623l-.283.022v-.532zM947.302 917.483h-1.46l-.159 1.014c.21-.17.386-.232.657-.232.668 0 1.115.464 1.115 1.16 0 .85-.561 1.393-1.427 1.393-.328 0-.589-.073-.81-.231-.176-.125-.266-.232-.385-.481l.577-.277c.125.317.328.47.623.47.425 0 .735-.34.735-.804 0-.441-.243-.719-.634-.719-.232 0-.373.079-.532.306l-.537-.192.26-1.92h1.976v.513zM943.372 923.758h1.109c.458 0 .651.028.844.119.311.153.498.487.498.889 0 .277-.097.55-.271.748-.113.124-.216.192-.442.3l1.064 1.721h-.798l-.939-1.607h-.391v1.607h-.674v-3.777zm.968 1.653c.198 0 .271-.006.368-.039.26-.085.396-.277.396-.572 0-.187-.062-.328-.176-.413-.107-.073-.204-.097-.453-.097h-.164l-.266.006v1.115h.295z"/></svg>