<svg xmlns="http://www.w3.org/2000/svg" width="120" height="120" viewBox="0 0 120 120"><g fill="#0086B3"><path d="M49 18v16.389c.98-.176 2.096-.151 3.361.177 1.4.363 2.375.854 3.082 1.435h5.557v4.533c.342-.027.676-.032 1-.007v-4.527h6v7h-1.629c.442.538.864 1.157 1.265 1.876 2.524 4.53 1.812 11.757-4.528 11.757.03.318 5.37 2.448 4.251 7.402-.677 2.994-4.228 4.19-6.812 3.157 3.666 4.67-6.8 11.005-9.138 2.661-.763 1.068-1.265 2.888-1.575 5.146h44.166v-56.999h-45zm12 15h-6v-6h6v6zm7 0h-6v-6h6v6zm12 33h-6v-7h6v7zm0-10h-6v-6h6v6zm0-13h-6v-7h6v7zm0-10h-6v-6h6v6zm7 33h-6v-7h6v7zm0-10h-6v-6h6v6zm0-13h-6v-7h6v7zm0-10h-6v-6h6v6zM49.641 77c-.617 6.956.182 16.879 1.021 23h32.338v-13h7v13h4v-23h-44.359zm17.359 5h6v3h-6v-3zm-7 0h6v3h-6v-3zm-7 0h6v3h-6v-3zm27 12h-27v-7h27v7zm0-9h-6v-3h6v3zm10 0h-7v-3h7v3zM44.698 101c.094-2.826.252-5.4.395-7.701.539-8.746.928-15.066-2.773-23.594l-.547-1.26-1.031.908c-1.728 1.521-3.516 2.324-5.17 2.324-1.846 0-3.549-1.024-4.673-2.811-1.642-2.61-1.749-6.134-.279-9.196l.474-.985-1.024-.384c-2.34-.877-3.884-3.358-3.369-5.418.581-2.719 2.133-2.878 4.616-2.916.51-.008 1.038-.016 1.53-.069l1.638-.176-.911-1.372c-.778-1.171-2.037-4.593-1.422-7.192.255-1.075.791-1.834 1.64-2.32.817-.466 1.717-.704 2.672-.704 2.524 0 4.9 1.619 5.804 2.474l.804.761.676-.876c.081-.105.12-.193.186-.339.817-1.821 2.722-4.875 6.299-4.875.598 0 1.23.085 1.881.254 3.613.937 3.945 2.636 4.404 4.988.074.376.148.756.236 1.138l.274 1.18 1.106-.492c1.259-.56 2.404-.844 3.405-.844 2.1 0 3.76 1.226 5.225 3.859 1.473 2.643 1.646 6.253.412 8.354-.827 1.404-2.196 2.284-4.069 2.284h-1.1l.104.927c.051.541.427.7.945 1.037 1.222.792 4.082 2.605 3.325 5.956-.434 1.92-2.341 2.774-3.93 2.774-.539 0-1.069-.109-1.535-.295l-3.456-1.388 2.299 2.926c.641.816.732 1.711.271 2.658-.704 1.449-2.478 2.541-4.123 2.541-1.709 0-2.932-1.143-3.537-3.303l-.563-2.012-1.214 1.7c-3.708 5.196-1.744 24.805-.799 31.478h-5.096z"/></g></svg>