<?xml version="1.0" encoding="utf-8"?>
<!-- Generator: Adobe Illustrator 16.0.4, SVG Export Plug-In . SVG Version: 6.00 Build 0)  -->
<!DOCTYPE svg PUBLIC "-//W3C//DTD SVG 1.1//EN" "http://www.w3.org/Graphics/SVG/1.1/DTD/svg11.dtd">
<svg version="1.1" id="Layer_1" xmlns="http://www.w3.org/2000/svg" xmlns:xlink="http://www.w3.org/1999/xlink" x="0px" y="0px"
	 width="120px" height="120px" viewBox="0 0 120 120" enable-background="new 0 0 120 120" xml:space="preserve">
<g>
	<path fill="#FFFFFF" d="M59.64,34.062c-12.366,0-22.39,10.33-22.39,23.071c0,8.517,4.534,15.875,11.195,19.871v8.967h22.388v-8.967
		c6.672-3.996,11.202-11.354,11.202-19.871C82.035,44.393,72.003,34.062,59.64,34.062z"/>
	<g>
		<path fill="#FFFFFF" d="M70,90c0,0.553-0.447,1-1,1H49c-0.552,0-1-0.447-1-1v-1c0-0.553,0.448-1,1-1h20c0.553,0,1,0.447,1,1V90z"
			/>
	</g>
	<g>
		<path fill="#FFFFFF" d="M70,94c0,0.553-0.447,1-1,1H49c-0.552,0-1-0.447-1-1v-1c0-0.553,0.448-1,1-1h20c0.553,0,1,0.447,1,1V94z"
			/>
	</g>
	<g>
		<path fill="#FFFFFF" d="M70,99c0,0.553-0.447,1-1,1H49c-0.552,0-1-0.447-1-1v-1c0-0.553,0.448-1,1-1h20c0.553,0,1,0.447,1,1V99z"
			/>
	</g>
	<g>
		<path fill="#FFFFFF" d="M32,59c0,0.552-0.448,1-1,1H19c-0.552,0-1-0.448-1-1v-3c0-0.552,0.448-1,1-1h12c0.552,0,1,0.448,1,1V59z"
			/>
	</g>
	<g>
		<path fill="#FFFFFF" d="M90.548,28.328c0.389,0.389,0.389,1.026,0,1.415l-8.173,8.176c-0.389,0.389-1.025,0.389-1.414,0
			l-1.784-1.782c-0.389-0.389-0.389-1.025,0-1.414l8.179-8.177c0.389-0.389,1.025-0.389,1.414,0L90.548,28.328z"/>
	</g>
	<g>
		<path fill="#FFFFFF" d="M31.231,27.449c0.389-0.389,1.025-0.389,1.414,0l8.178,8.177c0.389,0.389,0.389,1.025,0,1.414
			l-1.783,1.783c-0.389,0.389-1.025,0.389-1.414,0l-8.174-8.177c-0.389-0.389-0.389-1.025,0-1.415L31.231,27.449z"/>
	</g>
	<g>
		<path fill="#FFFFFF" d="M102,59c0,0.552-0.447,1-1,1H89c-0.553,0-1-0.448-1-1v-3c0-0.552,0.447-1,1-1h12c0.553,0,1,0.448,1,1V59z"
			/>
	</g>
	<g>
		<path fill="#FFFFFF" d="M62,29c0,0.552-0.447,1-1,1h-3c-0.552,0-1-0.448-1-1V17c0-0.552,0.448-1,1-1h3c0.553,0,1,0.448,1,1V29z"/>
	</g>
</g>
<circle fill-rule="evenodd" clip-rule="evenodd" fill="#0099CC" cx="60" cy="60" r="60"/>
<g>
	<g>
		<path fill="#FFFFFF" d="M30,71v17h24v-9h5v9h3V71H30z M43,74h4v4h-4V74z M39,74h3v4h-3V74z M32,74h5v4h-5V74z M51,85H32v-6h19V85z
			 M51,78h-4v-4h4V78z M56,78h-2v-4h2V78z M59,78h-2v-4h2V78z"/>
		<path fill="#FFFFFF" d="M30,30v20h32V30H30z M39,44h-5v-6h5V44z M39,37h-5v-4h5V37z M43,44h-3v-6h3V44z M43,37h-3v-4h3V37z M51,44
			h-4v-6h4V44z M51,37h-4v-4h4V37z M56,44h-4v-6h4V44z M56,37h-4v-4h4V37z"/>
		<path fill="#FFFFFF" d="M30,50v19h32V50H30z M39,64h-5v-4h5V64z M39,59h-5v-5h5V59z M43,64h-3v-4h3V64z M43,59h-3v-5h3V59z M51,64
			h-4v-4h4V64z M51,59h-4v-5h4V59z M56,64h-4v-4h4V64z M56,59h-4v-5h4V59z"/>
	</g>
	<path fill="#FFFFFF" d="M95.036,50.039c-1.712-3.077-3.95-3.779-6.989-2.428c-0.464-2.002-0.358-3.956-3.783-4.843
		c-4.788-1.241-6.554,3.645-6.635,3.75c-0.898-0.851-3.992-2.959-6.812-1.348c-2.813,1.611-1.31,6.327-0.391,7.71
		c-1.712,0.185-4.279-0.477-4.944,2.635c-0.471,1.886,0.931,3.947,2.813,4.653c-2.824,5.884,2.356,11.68,8.24,6.5
		C79.847,74.297,78.396,78,78.133,88h5.141c-0.912-6-2.034-18.034,0.319-21.332c1.648,5.884,9.029,1.91,6.444-1.384
		c1.822,0.729,4.326,0.132,4.804-1.979c0.789-3.494-2.977-4.873-2.998-5.098C96.313,58.207,96.816,53.234,95.036,50.039z"/>
</g>
<g>
</g>
<g>
</g>
<g>
</g>
<g>
</g>
<g>
</g>
<g>
</g>
<g>
</g>
<g>
</g>
<g>
</g>
<g>
</g>
<g>
</g>
<g>
</g>
<g>
</g>
<g>
</g>
<g>
</g>
</svg>
