<svg xmlns="http://www.w3.org/2000/svg" width="120" height="120" viewBox="0 0 120 120"><path stroke="#0086B3" stroke-miterlimit="10" d="M48.5 18.5v15.889c1-.176 2.596-.15 3.861.177 1.4.362 2.91.935 3.617 1.935h3.522v4.033c2-.027 2-.031 2-.008v-4.026h5v6.65s.735 1.256 1.136 1.976c2.524 4.53 1.812 11.632-4.528 11.632.03.318 5.37 2.386 4.251 7.34-.677 2.994-4.228 4.159-6.812 3.126 3.666 4.67-6.8 11.239-9.138 2.896-.763 1.068-1.265 2.381-1.575 5.381h43.666v-57h-45zm11 15h-5v-6h5v6zm7 0h-5v-6h5v6zm12 32h-5v-7h5v7zm0-10h-5v-6h5v6zm0-12h-5v-7h5v7zm0-10h-5v-6h5v6zm7 32h-5v-7h5v7zm0-10h-5v-6h5v6zm0-12h-5v-7h5v7zm0-10h-5v-6h5v6zM49.617 77.5c-.585 7 .262 17 1.113 23h31.77v-13h6v13h5v-23h-43.883zM67.636 44.876c-2.428-4.363-5.602-5.358-9.91-3.442-.658-2.839-.509-5.609-5.364-6.868-6.79-1.759-9.293 5.169-9.408 5.318-1.273-1.206-5.661-4.195-9.66-1.912-3.989 2.284-1.856 8.972-.554 10.934-2.427.261-6.067-.677-7.011 3.736-.667 2.674 1.32 5.597 3.989 6.597-4.005 8.343 3.342 17.96 11.685 10.615 4.695 10.817 2.639 17.646 2.266 31.646h7.289c-1.294-8-2.885-26.971.452-31.646 2.338 8.344 12.804 2.009 9.138-2.661 2.584 1.033 6.135-.163 6.812-3.157 1.119-4.954-4.221-7.084-4.251-7.402 6.338-.001 7.051-7.228 4.527-11.758zM52.5 87.5h26v7h-26zM52.5 81.5h5v3h-5zM59.5 81.5h5v3h-5zM66.5 81.5h5v3h-5zM73.5 81.5h5v3h-5zM82.5 81.5h6v3h-6z" fill="none"/></svg>