<svg xmlns="http://www.w3.org/2000/svg" width="120" height="120" viewBox="0 0 120 120"><circle fill-rule="evenodd" clip-rule="evenodd" fill="#09c" cx="60" cy="60" r="60"/><path fill="#fff" d="M59.64 34.062c-12.366 0-22.39 10.33-22.39 23.071 0 8.517 4.534 15.875 11.195 19.871v8.967h22.388v-8.967c6.672-3.996 11.202-11.354 11.202-19.871 0-12.74-10.032-23.071-22.395-23.071zM70 90c0 .553-.447 1-1 1h-20c-.552 0-1-.447-1-1v-1c0-.553.448-1 1-1h20c.553 0 1 .447 1 1v1zM70 94c0 .553-.447 1-1 1h-20c-.552 0-1-.447-1-1v-1c0-.553.448-1 1-1h20c.553 0 1 .447 1 1v1zM70 99c0 .553-.447 1-1 1h-20c-.552 0-1-.447-1-1v-1c0-.553.448-1 1-1h20c.553 0 1 .447 1 1v1zM32 59c0 .552-.448 1-1 1h-12c-.552 0-1-.448-1-1v-3c0-.552.448-1 1-1h12c.552 0 1 .448 1 1v3zM90.548 28.328c.389.389.389 1.026 0 1.415l-8.173 8.176c-.389.389-1.025.389-1.414 0l-1.784-1.782c-.389-.389-.389-1.025 0-1.414l8.179-8.177c.389-.389 1.025-.389 1.414 0l1.778 1.782zM31.231 27.449c.389-.389 1.025-.389 1.414 0l8.178 8.177c.389.389.389 1.025 0 1.414l-1.783 1.783c-.389.389-1.025.389-1.414 0l-8.174-8.177c-.389-.389-.389-1.025 0-1.415l1.779-1.782zM102 59c0 .552-.447 1-1 1h-12c-.553 0-1-.448-1-1v-3c0-.552.447-1 1-1h12c.553 0 1 .448 1 1v3zM62 29c0 .552-.447 1-1 1h-3c-.552 0-1-.448-1-1v-12c0-.552.448-1 1-1h3c.553 0 1 .448 1 1v12z"/></svg>