<?xml version="1.0" encoding="utf-8"?>
<!-- Generator: Adobe Illustrator 19.0.0, SVG Export Plug-In . SVG Version: 6.00 Build 0)  -->
<!DOCTYPE svg PUBLIC "-//W3C//DTD SVG 1.1//EN" "http://www.w3.org/Graphics/SVG/1.1/DTD/svg11.dtd">
<svg version="1.1" id="heathrow-aerial" xmlns="http://www.w3.org/2000/svg" xmlns:xlink="http://www.w3.org/1999/xlink" x="0px"
	 y="0px" width="1728px" height="1728px" viewBox="0 0 1728 1728" enable-background="new 0 0 1728 1728" xml:space="preserve">
<symbol  id="airplane" viewBox="-10.2 -10 20.4 20.1">
	<g>
		<g>
			<path fill="#939598" d="M-2.8,10c1-0.6,1.4-1.6,2.1-2.6c0.7-1.1,1.3-2.1,2-3.2C1.4,4,1.6,3.7,1.8,3.5C1.8,3.4,1.9,3.4,2,3.6
				c0.3,0,1.1,0.2,1.3,0c0.2-0.2,0.2-0.8,0-1c-0.2-0.2-0.7,0-1-0.1C2.7,2,2.9,1.3,3.6,1.2c0.7-0.2,1.8,0,2.5,0c0.7,0,1.5,0,2.2-0.1
				c0.4-0.1,1.7-0.3,1.8-0.8C10.5-0.8,7.1-0.9,6.5-1C5.7-1,4.7-0.8,3.8-1C3-1.1,2.8-1.6,2.4-2.3c0.2,0,0.8,0.1,1-0.1
				c0.1-0.1,0.1-0.8,0-0.9C3-3.7,2.4-3.3,2-3.4C1.7-3.4,1.7-3.5,1.4-3.9C0.9-4.8,0.3-5.7-0.2-6.5C-0.8-7.4-1.3-8.7-2-9.4
				C-2.2-9.5-2.7-10-2.9-10C-3.6-10.1-3.2-9.5-3-9.1c0.3,0.8,0.6,2,0.9,2.6C-2-6.3-1.8-5.8-1.8-5.7c0,0.1,0,0.2,0,0.3
				c0.2,0,0.3,0.1,0.3,0.2c0.1,0.2,0.1,0.3,0.2,0.5c-0.2,0-0.3,0.1-0.2,0.3c0.4-0.1,0.3,0,0.5,0.3C-0.6-3-1.2-3.8-1.1-3.5
				c0,0,0.1,0.3,0.1,0.3c0,0.1,0.4,0.1,0.4,0.5c0.1,0.4-0.3,0.2-0.2,0.6c0,0.1,0.6,1,0.7,1.2C-2-0.9-4-1.1-6-0.8
				c-1,0.1-1.4,0.5-2-0.4c-0.3-0.4-0.5-0.9-0.8-1.3C-9.2-3.1-9.3-3-10-3.1c-0.1,0.8,0.7,1.7,0.6,2.5c0,0.5,0.2,0.1-0.2,0.4
				c-0.2,0.2-0.7-0.1-0.7,0.3c0.3,0.1,0.6,0.2,0.9,0.3c-0.2,0.7-0.4,1.3-0.6,2c-0.2,0.5-0.4,0.9,0.3,0.8c1.1-0.1,1.2-2.1,2.1-2.5
				C-7.1,0.6-6.3,0.9-6,0.9C-5.5,1-4.9,1-4.3,1.1c1.3,0,2.7,0,4,0.2c0,0.3,0,0.7-0.1,1c-0.2,0.3-0.3,0-0.5,0.4
				c0.6,0.2,0.5,0.6,0,1.1c-0.1,0-0.1-0.1,0-0.2c-0.6,0,0,0.2,0,0.4c0,0.3-0.3,0.4-0.3,0.6c0,0.1-0.2,0.2-0.2,0.3
				c0.1-0.1,0.1,0.3,0.1,0.3c0,0.4-0.2,0.6-0.6,0.5c0,0,0.1,0.4,0.2,0.3c0.1-0.1-0.2,0.6-0.1,0.4c0,0-0.2,0.1-0.2,0.2
				C-2.2,6.6-2,6.6-2,6.9c-0.1,0.6-0.6,1.3-0.8,1.8C-3,9.3-3.7,10-2.8,10C-2.7,10-2.9,10-2.8,10z"/>
		</g>
	</g>
</symbol>
<rect id="background" fill="#FFFFFF" width="1728" height="1728"/>
<g id="buildings">
	<rect x="94.9" y="715" fill="#EE3524" width="63.3" height="138.1"/>
	<rect x="282.4" y="758.7" fill="#EE3524" width="22.2" height="106.8"/>
	<rect x="282.4" y="730" fill="#EE3524" width="22.2" height="28.8"/>
	<rect x="282.4" y="865.5" fill="#EE3524" width="22.2" height="31.6"/>
	<rect x="697.9" y="696.4" fill="#EE3524" width="15.5" height="21.4"/>
	<rect x="542.2" y="859.1" fill="#EE3524" width="11.7" height="32.2"/>
	<rect x="569.4" y="786.8" fill="#EE3524" width="8.6" height="15.5"/>
	<rect x="212" y="700.1" fill="#EE3524" width="10.1" height="19.8"/>
	<rect x="242.4" y="710" fill="#EE3524" width="8.6" height="12.6"/>
	<rect x="378.3" y="710" fill="#EE3524" width="18.9" height="12.6"/>
	<rect x="503.6" y="674.4" fill="#EE3524" width="38.6" height="48.2"/>
	<rect x="526.1" y="722.6" fill="#EE3524" width="16.1" height="14.5"/>
	<rect x="501.3" y="789.6" fill="#EE3524" width="6.1" height="28.8"/>
	<rect x="713.4" y="706" fill="#EE3524" width="35.3" height="3.2"/>
	
		<rect x="706.2" y="759.4" transform="matrix(0.5624 0.8268 -0.8268 0.5624 973.2029 -315.8962)" fill="#EE3524" width="157.7" height="4.3"/>
	
		<rect x="669.3" y="871.3" transform="matrix(0.5594 0.8289 -0.8289 0.5594 1047.0292 -224.0935)" fill="#EE3524" width="130.1" height="3.2"/>
	<line fill="#EE3524" x1="752.4" y1="899.7" x2="791.6" y2="872.9"/>
	<path fill="#EE3524" d="M826.9,828.6l-25.2,15.7c0,0,0.7,21,0.7,19.4S750,895.5,750,895.5l4.8,8.5l54.6-33.6l4,3.8l22.1-15.6
		l18.6,24.2v3.5h-3.2v18l3.4,0l0.5-7.7h28.4l-0.3,8l4,0.2l0.3-8L916,896l-0.1,9.6h3.7l-0.1-9.5h28.7v9.5l3.9-0.2v-17.8l-18.7,0.3
		l-56.9,0.8l7.9-5.1l-5.6-8.2l14.6-10.7l0.2,13.2l13.5-0.5l-0.3-23.3l18.3-14.3l-8.7-13.1l-15.8,9.8l-27.1-42L826.9,828.6z"/>
	<polygon fill="#EE3524" points="909.5,780.5 938.3,819.8 957.1,805.8 930,767 	"/>
	<polyline fill="#EE3524" points="1245,760.6 1199.1,812.5 1175.8,838.8 	"/>
	
		<rect x="1207.7" y="747.5" transform="matrix(0.7489 0.6627 -0.6627 0.7489 833.8193 -601.2964)" fill="#EE3524" width="5.4" height="104.3"/>
	<line fill="#EE3524" x1="1114.9" y1="809.9" x2="1201.4" y2="809.9"/>
	<rect x="1114.9" y="807.2" fill="#EE3524" width="86.5" height="5.4"/>
	<line fill="#EE3524" x1="1070.5" y1="944.2" x2="1026" y2="907.4"/>
	
		<rect x="1019.4" y="923.1" transform="matrix(0.7698 0.6383 -0.6383 0.7698 832.3101 -455.9777)" fill="#EE3524" width="57.7" height="5.4"/>
	<line fill="#EE3524" x1="887.9" y1="676.6" x2="1015.3" y2="677.9"/>
	
		<rect x="887.9" y="674.6" transform="matrix(0.9999 1.050362e-02 -1.050362e-02 0.9999 7.166 -9.9582)" fill="#EE3524" width="127.4" height="5.4"/>
	<polygon fill="#EE3524" points="681.6,768.1 680.8,773.5 681.6,783.1 689.9,783.1 693.6,775.6 691.5,768.1 	"/>
	<path fill="#EE3524" d="M691.5,785.8h-12.4l-1.1-12.4l1.3-7.9h14.2l3,10.4L691.5,785.8z M684.1,780.4h4.1l2.5-5.1l-1.3-4.6h-5.6
		l-0.4,2.8L684.1,780.4z"/>
	<polygon fill="#EE3524" points="988.6,899.8 985.4,899.5 989.6,858.4 1024.5,816.1 1027.8,798.8 1035.4,793.3 1037.3,795.9 
		1030.7,800.6 1027.5,817.5 992.7,859.7 	"/>
	<polygon fill="#EE3524" points="819.8,817.4 827.4,811.8 814.2,792.1 820.2,782.3 836.7,805.7 838.8,805 825.3,783.1 820.8,776.9 
		811.4,782.9 806.4,776.4 855.3,744.2 861,753.1 863.4,752.3 858,745.4 869.1,738.5 876.3,748.3 884.9,743.2 886.4,746 889.7,743.8 
		897.7,755.8 895.8,757.1 897.3,761.5 918.4,747.2 922,752.4 917.6,766.2 827.7,829 	"/>
	<polygon fill="#EE3524" points="785.1,757.9 792.8,753.7 795.8,754.7 813.8,743.2 827.7,749.9 794.3,772.3 	"/>
	
		<rect x="1169.5" y="629.3" transform="matrix(0.5347 0.845 -0.845 0.5347 1150.2672 -656.9025)" fill="#EE3524" width="4.3" height="173.6"/>
	
		<rect x="1061.8" y="865.5" transform="matrix(0.7757 0.6311 -0.6311 0.7757 793.1404 -490.1971)" fill="#EE3524" width="49" height="10.7"/>
	<polygon fill="#EE3524" points="987.4,709.8 963.5,707.5 942.9,678.5 946.4,676 965.9,703.4 986.5,705.4 1014.3,690.2 1016.4,694 	
		"/>
	<path fill="#EE3524" d="M994.1,707.6c0,3.9-3.2,7.1-7.1,7.1s-7.1-3.2-7.1-7.1s3.2-7.1,7.1-7.1S994.1,703.7,994.1,707.6"/>
	<polygon fill="#EE3524" points="976.8,726.9 933.4,754.9 948.4,772.9 991.2,749.9 	"/>
	<polygon fill="#EE3524" points="881.4,702.3 887.8,713.7 902.8,702.8 895.3,692.9 	"/>
	<polygon fill="#EE3524" points="872.2,739.3 875.6,744.2 904,726.1 899.9,720.5 	"/>
	<polygon fill="#EE3524" points="902.8,742.8 906,740.3 910.1,745.7 907,748.1 	"/>
	<polygon fill="#EE3524" points="903.1,718.3 910.7,712.5 922.6,729.5 914.1,735.4 913.3,733.8 909,737 904,730.3 908.2,726.9 	"/>
	<polygon fill="#EE3524" points="910.5,678.8 910.5,688 916.1,688 916.5,678.8 	"/>
	<path fill="#EE3524" d="M904.2,706l2.3,3.2l14.5-9.7c0,0-3.9-4.7-3.6-5c0.3-0.2-8.9,6.3-8.9,6.3l1,1.6L904.2,706z"/>
	<path fill="#EE3524" d="M942,680.3l-19.1,13.3l28,40.9c0,0,19.4-14.2,19.4-14.5S942,680.3,942,680.3"/>
	<path fill="#EE3524" d="M1083,655.2l-10.2,9.1l5.1,9.4l-6.8,4.3l-6.6-9.5l-4.7,3.6l-0.4-2.4l-6.4,0.8v6l-1.6,1.5l-2.4-3.5
		l-12.7,8.3l-2.7-3.3l-6.8,5.4c0,0-6.9-6.1-10.6-4s-1.9,9.4-1.9,9.4l8.5,12.8c0,0-5.5,5.3-2.4,10c3.7,5.5,12.2,3.9,12.2,3.9
		l-16.8,10.7l44.4,61.9l-2.7,2.7l1.7,2.5l-10.3,7.9l-1.9,20.9l6.3,6.3l-5,4.7l-6-4.4l-3.5,4.4l-1.5-1.5l-4,4.8l-4.3-3.5l-25.7,28.6
		l3.3,3.7L992,884.4l11.4,11l4.4-4.8l1.6,1.3l-5,5.8l8.4,7.4l2-2.7l8.3,7.6l5-5.2l-3.6-3.1l38.3-44.2l2,1.2l10.4-7.7
		c0,0,24.9-28.6,24.9-29.1s1.2-4.7,1.2-4.7l8.2-0.4l4.4-9.5l-5.9-9.9l3.5-2.8l-10.6-15.1l2.3-1.8l7.1,11.1l4.6,0.4l-10-14.6l2.4-2
		l1.1,0.8c0,0,8.7-4.7,8.7-5.1c0-0.4-2.1-4.6-2.1-4.6l7-5l3.7,3.7l2.5-1.8l-2-3.9l11.4-7c0,0,3.9,3.3,3.9,2.8c0-0.5,2.7-2.5,2.7-2.5
		l-11-14.3l-24.9,16.5l-11.1-15.4l-12,0.7l-16.1-24.9l-2.5,1.6l-7.1-9.4l-2,1.2c0,0-3.2-4.1-3.2-4.7s29.3-19.3,29.3-19.3l-2.1-5
		l10.8-8.2l3.6,4.4l9.1-3.1l-4.4-6.6l8.6-4.4l3.5,4.4l2.1-1.3l-2.8-4.4h18.6l-0.3-1.9l-29.7,0.8l-17.3-0.7"/>
	<polyline fill="#EE3524" points="942.5,828.6 947.3,835.3 962.3,825.1 956.8,818.2 942.5,827.5 	"/>
	<polyline fill="#EE3524" points="948.9,848.3 965.6,874.3 983.6,862.8 965.3,837.4 948.9,847.9 	"/>
	<polygon fill="#EE3524" points="974.3,820.4 974.3,825.6 987,827.3 985.3,840.2 990,842.7 990,845.1 999.3,846.1 1003.3,838.2 
		1003.3,836.3 1005.9,836.3 1011,828.6 1013.9,828.6 1013.9,818.8 1001.4,818.8 995.9,815.9 994.1,815.9 993.2,815.9 992,816.6 
		991.2,821.6 	"/>
	<path fill="#EE3524" d="M954.2,791.3c0,2.4-2,4.4-4.4,4.4c-2.4,0-4.4-2-4.4-4.4c0-2.4,2-4.4,4.4-4.4
		C952.2,786.9,954.2,788.9,954.2,791.3"/>
	<path fill="#EE3524" d="M1010.2,726.6c0,2-1.6,3.6-3.6,3.6c-2,0-3.6-1.6-3.6-3.6c0-2,1.6-3.6,3.6-3.6
		C1008.6,723,1010.2,724.6,1010.2,726.6"/>
	<path fill="#EE3524" d="M959.8,800.1c0,2.4-2,4.4-4.4,4.4c-2.4,0-4.4-2-4.4-4.4c0-2.4,2-4.4,4.4-4.4
		C957.9,795.7,959.8,797.7,959.8,800.1"/>
	<polygon fill="#EE3524" points="998,800.5 997.9,798.9 974.3,797.9 974.3,806.6 975.7,806.6 975.7,808 997.8,808 997.8,807.3 
		1009,807 1011.7,803 1014.5,803.8 1016.4,801.4 1021.8,804.5 1023.1,803 1023.1,799 1021.1,797.9 1017.6,796.5 1018,795.7 
		1011.7,790.6 1008,796.7 1005.2,795.7 1004.2,797.2 1002.5,797.2 999.3,800.7 	"/>
	<path fill="#EE3524" d="M992,767.9c0,0-2.6,0.5-2.2-0.9c0.4-1.4-2.9,1-2.9,1l7.1,8.7l2.9-2.9l-0.9-2.2l1.8-2.4l-3.8-3.6L992,767.9z
		"/>
	<rect x="527.3" y="1159.4" fill="#EE3524" width="18.6" height="15"/>
	<rect x="545.9" y="1182.2" fill="#EE3524" width="23.9" height="12.5"/>
	<rect x="643.2" y="1199.7" fill="#EE3524" width="111.8" height="38.9"/>
	<rect x="764.9" y="1204" fill="#EE3524" width="41.1" height="24.3"/>
	<rect x="621.2" y="1159.4" fill="#EE3524" width="7.9" height="7.5"/>
	<rect x="621.2" y="1193.3" fill="#EE3524" width="7.9" height="17.1"/>
	<rect x="621.2" y="1228.3" fill="#EE3524" width="9.3" height="5.4"/>
	<rect x="745.7" y="1244.7" fill="#EE3524" width="19.2" height="12.1"/>
	<rect x="907.4" y="1250.8" fill="#EE3524" width="21.4" height="6.1"/>
	<path fill="#EE3524" d="M929.3,1251.3h-11.8v-7.1h11.8V1251.3z M918.6,1250.2h9.6v-5h-9.6V1250.2z"/>
	<polygon fill="#EE3524" points="1198.6,1157.6 1134,1232.6 1129,1227.2 1124.4,1229 1092.6,1265.3 1220,1265.3 1178.9,1235.4 
		1203.9,1161.5 	"/>
	
		<rect x="1280.3" y="1176.1" transform="matrix(0.9215 0.3883 -0.3883 0.9215 575.3788 -402.2534)" fill="#EE3524" width="5.4" height="92.8"/>
	<path fill="#EE3524" d="M1351.9,1224.4c-3.9,0-8.7,0-14.8-0.1c-14.1-0.2-28.2-0.6-28.3-0.6l0.1-2.1c20.7,0.6,54.6,1.2,57.1,0.2
		c-0.2,0.1-0.5,0.4-0.5,1l2.1-0.3l-0.3,0.9C1366.9,1223.8,1366.4,1224.4,1351.9,1224.4"/>
	<polygon fill="#EE3524" points="1444.5,853.3 1455.8,886.8 1493.5,874.3 1521.1,950.5 1543.9,940.2 1516.2,863.2 1510.9,865.8 
		1498.8,839.1 1482.1,844.4 1479.7,839.1 	"/>
	<polygon fill="#EE3524" points="1582.2,960.6 1569.7,929.1 1585.3,921.5 1598.7,955 	"/>
	<polygon fill="#EE3524" points="1624.1,946 1584.2,843.6 1633.4,823.1 1671.3,916.9 1691.8,908 1694.5,916.9 	"/>
	<polygon fill="#EE3524" points="1588,788.7 1542.6,788.7 1522.3,768.7 1542.6,745.1 1516.2,718.3 1529.1,704.8 1536.7,707.4 
		1536.7,710.8 1526.5,718.8 1551.7,742.1 1545.8,752.4 	"/>
	<rect x="1603.6" y="758.4" fill="#EE3524" width="18.3" height="17"/>
	<rect x="1650.8" y="699.6" fill="#EE3524" width="59.7" height="11.1"/>
	<rect x="1657.5" y="710.8" fill="#EE3524" width="53" height="22.4"/>
	<polygon fill="#EE3524" points="1588,702 1616.3,693.8 1624.4,724.1 1597.2,731.9 	"/>
</g>
<g id="green" opacity="0.8">
	<path fill="#C1CD23" d="M281.2,570.2c-4.8-14.5-23.8-10.5-36.5-10.6c-25.1-0.3-50.2-0.6-75.4-0.8c-23.4-0.2-46.8-0.5-70.2-0.6
		c-5.9,0-13.2-1-19,0.6c-15.5,4.5-10.3,34.6-4,44.2c6.8,10.3,31.8,5.5,42.1,5.5c25.5,0,51.1-0.1,76.6-0.2
		c22.3-0.1,44.6-0.1,66.9-0.3c4.4,0,8.9,0.1,13.3-0.2C283.5,607.1,282.9,575.1,281.2,570.2"/>
	<path fill="#C1CD23" d="M299.8,561.4c44.2-2,89.3-1.5,133.6-1.5c8.6,0,32.2-3.5,35.5,7.2c2.8,9.2,5.4,29.8-0.8,38.2
		c-7.3,9.8-31.9,6.3-42.2,6.1c-23.1-0.4-46.2,0.4-69.3,0c-14.1-0.2-43.6,5.4-55.5-3.6C291.2,600.4,284.1,565.4,299.8,561.4z"/>
	<path fill="#C1CD23" d="M491.1,564.8c18.5,0.9,22.7,0.2,31.9,18c3.2,6.3,30.5,27.1,11.5,27.9c-11.5,0.3-35.9,3.5-45.9-3.8
		C475.6,597.6,480.2,573.4,491.1,564.8"/>
	<path fill="#C1CD23" d="M589.2,564.8c14.8,0.3,29.8-0.2,44.5,0.2c12.7,0.3-19.9,13.8-21.5,14.4c-6.8,2.6-27.8,17.9-35.2,15.5
		c-14.6-4.8,8.5-27.1,13.2-30.1"/>
	<path fill="#C1CD23" d="M752.6,565.3c5.1,8.2,26.2,27.3,23.9,37.4c-1.7,7.6-20.5,4.6-25.5,4.6c-36.5-0.3-74.2,2.9-110.5,0.6
		c-6.3-0.3-26.9-5-20.1-15.5c5.6-8.5,21.9-12.3,30.5-16.9c31-16.3,67-16,101.4-10.3"/>
	<path fill="#C1CD23" d="M676.4,618.7c-18,0-35.6-2.5-53.3,2.6c-8.3,2.4-33,12.9-16.3,22.9c16.2,9.7,27.6-2.6,43.7-3.4
		c18.8-0.9,38.5,3.9,25.3-21.1"/>
	<path fill="#C1CD23" d="M683.6,618.7c1.1,17.1,5,22.1,22.6,20.9c21-1.4,41.1-0.4,62,0.5c6,0.3,16.7-2,13-10.6
		c-4-9.7-16.3-11.4-25.5-11.2c-24,0.5-47.2,4.9-71.1-0.6"/>
	<path fill="#C1CD23" d="M531.8,622.9c-9.9-0.5-29.5-2.2-34.8,9.1c-6.2,13.2,14.1,17.5,22.6,17.6c9.2,0,28.2,5.1,27.6-8.1
		C546.7,630.6,543.7,623.5,531.8,622.9"/>
	<path fill="#C1CD23" d="M440.7,619.5c-19-0.5-59-6.3-72.5,11.1c-17.2,22,54.1,19.8,61.5,20.1c7,0.3,65.1,4.2,48.3-18.4
		c-7.8-10.5-29.8-14.9-42.2-13.2"/>
	<path fill="#C1CD23" d="M219.3,614.6c-9.3-1.2-35.7-5.3-43.3,1.5c-13.8,12.2,18.1,9.3,22.7,9.2c17.9-0.5,27.2,13.9,44.3,16.2
		c14,1.8,40.1-9.9,50.9-0.2c11.9,10.7,24.3,11.3,39.7,8.4c18.1-3.5,13.4-21.8-1.1-27.4c-14.3-5.5-33.6-1.8-48.6-2.1
		C262.3,619.7,240.7,617.4,219.3,614.6"/>
	<path fill="#C1CD23" d="M546.9,623c-0.4,6.5,4.2,7.3,9.6,6C555.7,623.6,552,621.8,546.9,623z"/>
	<path fill="#C1CD23" d="M304.6,660.5c3.3,10.6,32.7,8.5,41.8,6.2c-4-10.7-32.2-6.5-40.7-6.6"/>
	<path fill="#C1CD23" d="M413.7,659.4c-1.3,0-49.1,1.3-46.2,6.8c1.8,3.2,25.8,2.7,28.8,2.8c4.9,0.2,35,0.1,18.3-9.7"/>
	<path fill="#C1CD23" d="M432,659.3c-4.1-0.8-9.9-2-10.5,4c-0.8,7.6,8.9,5.1,13,4.9c11.3-0.4,23.6-0.6,34.8,0.5
		c10.3,1-6.7-8.4-10.1-9c-9.1-1.7-18.9-3.6-28-0.6"/>
	<path fill="#C1CD23" d="M794.3,563.4c7.8,11.1,15.6,22.2,23.4,33.4c10.4-11.3,20.8-22.6,31.2-33.9
		C830.7,563.1,812.5,563.3,794.3,563.4z"/>
	<path fill="#C1CD23" d="M864.2,617.9c-9.9-1.1-37.8,4.5-40.1,17.7c12.5,1.5,30.3,4,42.4-0.6c11.2-4.2,11.2-20.2-2.6-17.5"/>
	<path fill="#C1CD23" d="M886.3,564c-7,3.8-11.3,10.5-16,16.7c-4.3,5.6-15.5,13.3-16.2,20.7c-1.1,12.5,44,7.2,50,6.9
		c13-0.9,32.1-22.9,25.8-36.2C924.5,560.4,896.3,558.2,886.3,564"/>
	<path fill="#C1CD23" d="M939.6,619.2c-9.2,0.2-14.6-2.9-21.2,4.7c-2.7,3.1-9.4,8.1-2,9.1c7.2,1,15.8,1.1,22.9-0.8
		C946.5,630.4,948.7,619.2,939.6,619.2"/>
	<path fill="#C1CD23" d="M948.2,589.3c1.6,8.6-4.6,20-14.7,16.9c4.1-5.6,9.3-10.1,13.9-15.3"/>
	<path fill="#C1CD23" d="M999,562.3c-13.9,0.5-27.7-3-33.5,13.4c-6.8,19.2,1.2,31.7,21.8,31.4c15-0.2,32.1,2.8,34-16.6
		C1022.7,576.5,1014.7,561.7,999,562.3"/>
	<path fill="#C1CD23" d="M996.6,616.1c-9.6,0.2-21.1,0.4-30.2,4.2c-8.4,3.4,18,9.6,20.2,9.6c8.1,0,23.7,2.6,30.2-4.5
		c5.5-6-16.8-9.2-19.7-9.2"/>
	<path fill="#C1CD23" d="M1078.3,561.2c-10.3-0.2-31.3-0.1-27.2,16.6c3.8,15.8,13.9,27.6,29.9,27.6c10.3,0,43.3,4.1,36.7-15.4
		C1111.1,570.6,1097.7,561.6,1078.3,561.2"/>
	<path fill="#C1CD23" d="M1037.8,590.4c0.7,1.9,9.8,13.4,9.1,15c-5.3,9.7-9.6-11.4-9.5-13"/>
	<path fill="#C1CD23" d="M1049.9,619.5c-3.4,0.3-8.1-0.9-11.2,1.1c-4.4,2.7-2.4,8.6,2.3,8.9c3,0.2,10.4,0.9,13-0.9
		C1058.2,625.6,1054.3,619.1,1049.9,619.5"/>
	<path fill="#C1CD23" d="M1096.2,615c-16-2.5-20.7,17.8-4.4,19.7c11.5,1.3,25.1,0.5,36.6-0.2c9.3-0.6,14.3-9.2,7.1-16.9
		c-6.1-6.5-27.7-3-35.9-2.6"/>
	<path fill="#C1CD23" d="M1131.8,560.9c28.7,0.5,52.9-0.9,79.2,11.3c10.3,4.8,21.9,7.1,31.7,12.9c14.6,8.5,4.7,16.8-7.5,18.7
		c-11,1.7-22.1,0.5-33.1,1.5c-12.2,1.1-30.1,5.4-41.1-2c-14.2-9.5-17.6-31-29.2-42.6"/>
	<path fill="#C1CD23" d="M1223.6,615.2c-11.6-1-25.7-2.6-37.3-1c-10.1,1.4-14.8,12.3-2.4,13.5c24.1,2.3,52.5-11,72.3,8.4
		c9,8.8,11.2,21.1,19.2,30.2c3.2,3.6,7.5,5.1,10.2,0.1c3.5-6.3-1.2-14.5-4.7-19.8c-6.2-9.5-14.5-20.9-24.9-26
		C1246.6,615.7,1233.2,615.8,1223.6,615.2z"/>
	<path fill="#C1CD23" d="M221,753.1c-13.7,0-12.6,68,0.5,68C234.5,821.1,234.1,753.1,221,753.1"/>
	<path fill="#C1CD23" d="M221.5,841.4c-12.7,0-12.7,48.2,0.5,48.2C235.1,889.6,233.7,841.4,221.5,841.4"/>
	<path fill="#C1CD23" d="M170.1,960.3c-9.1,0-36.1,9.6-18.9,20.7c8.3,5.3,20.3,5.4,29.7,4.3c7.7-0.8,21.8-4.9,17.5-15.7
		C194.4,960,178.6,960.3,170.1,960.3"/>
	<path fill="#C1CD23" d="M239.6,960.4c-6.5,0-23,2.3-22.9,11.5c0.2,10,10.5,11.5,18.5,11.7c7.5,0.2,23.6,2.1,26.5-7.5
		C265.8,962.6,248.7,960.4,239.6,960.4"/>
	<path fill="#C1CD23" d="M313.1,959.7c-9.1-0.1-21.1-1.4-28.8,4.5c-13.7,10.7,5.6,18.2,14.4,18.6c13.3,0.6,34.2,3.7,45.8-4.2
		C365.6,964.4,319.6,959.7,313.1,959.7"/>
	<path fill="#C1CD23" d="M290.2,934.9c-4.7-0.2-49.8-4.1-44.6,7.4c4.2,9.2,24.7,7.3,32.9,7.5c18.1,0.4,52,6.4,67-6.4
		c13.2-11.2-15.6-8.6-20.3-8.7C313.5,934.7,301.8,935.3,290.2,934.9"/>
	<path fill="#C1CD23" d="M192.9,874.6c5.6,0.2,9.4-1.8,10.1,4.3c1.1,10.2-0.1,14.7-10.5,18.2C192.7,889.6,192.8,882.1,192.9,874.6z"
		/>
	<path fill="#C1CD23" d="M202.1,927.1c0.3-10.5,2-19.5-10.2-23.2c0,7.7,1.7,15.2,1,23"/>
	<path fill="#C1CD23" d="M190.3,934.7c-4.6,4.7-29.2,0.8-35.8,0.4c-11.8-0.6-20,10.4-5.2,14.9c8.5,2.6,21.1,0.3,30,0.2
		c10.4-0.1,19.9-3.9,22.1-15.1"/>
	<path fill="#C1CD23" d="M216.8,936.1c3.5,0.1,7.1,0.1,10.6,0C224.7,945.6,219.5,943.8,216.8,936.1"/>
	<path fill="#C1CD23" d="M427.8,948.9c-4.1-10.7-1.9-13.8-15.4-13.8c-13.2,0-27-1.2-40.1,0c-14,1.3,3.5,11.7,8.6,12.7
		C396.5,950.9,411.9,948.9,427.8,948.9"/>
	<path fill="#C1CD23" d="M428.4,935.7c15.6,0,34.6-2.7,49.8,0.8c-2.8,11.6-14.5,12.2-24.3,12.4c-13.1,0.2-22.4,1.9-25.2-12.4"/>
	<path fill="#C1CD23" d="M428.4,958.1c-8.3-0.3-77-1.6-57.5,20.4c4.1,4.6,28.7,9.7,34.4,8.4c8.6-2,1.7-13.3,7.6-17.4
		c6.6-4.6,12.9-1.4,15-11.1"/>
	<path fill="#C1CD23" d="M624.6,765.4c-7.7-1.2-10.4,15.6-11,20.3c-1.2,8.8,2.6,11.4,5.1,18.8c4.1,16.2,8.6,5.8,13.9-2
		c4.2-6.2,4.5-36.5-7.2-37.3"/>
	<path fill="#C1CD23" d="M615.2,737.1c2.4,0,21.1-1.8,18.5,4c-4.9,13.5-14.9,0-19-3.7"/>
	<path fill="#C1CD23" d="M591.6,902.5c5.5,0,12.2-2,11.8,5.9c-0.4,9.5,2.1,19.6-1.7,28.7c-5.2,12.6-10.1-1.3-10.1-7.5
		c0-8.9-0.4-17.8-0.4-26.8"/>
	<path fill="#C1CD23" d="M495.6,936c3,0,12.9-0.3,11.8,5.1c-1.9,9.7-12.2,0.1-12.2-5.4"/>
	<path fill="#C1CD23" d="M639,844.3c16.2,3.7,26.7,33.4,33.5,46c1.5,3.3,10,12.4,3.5,14.9c-9.8,3.8-24.7,1.8-35.2,2.1
		c-22.6,0.7-27.8-7.4-27.8-29.1c0-6.3,15.1-38,24.9-32.9"/>
	<path fill="#C1CD23" d="M629,922.4c3.8,1.2,6,5.5,8.8,8c4.2,3.7,10.5,4.1,15.8,4.1c11,0.4,20.8-5.9,27.1-14.6
		c-12.4-2.2-38.9-4.1-50.3,1.4"/>
	<path fill="#C1CD23" d="M616.2,941c2.7,5.9,19.9,7.6,25.6,8c11.6,0.8,24.1-0.4,35.8-1c6.9-0.4,24-1.3,26-10.1
		c1.9-9.3-8.8-10.7-14.6-6.3c-7.5,5.7-10.2,11.5-20.5,12.6c-8,0.9-23.7,3.2-31.3-0.3c-3-1.4-11.2-10.4-12.9-13.3
		c-7.1-12.3-9.8,6.8-7.4,12.2"/>
	<path fill="#C1CD23" d="M544.8,960.6c15.2-1.2,34.5-7.3,48.8,0.7c4.9,2.8,11,11.4,5.6,16.6c-5.7,5.5-18,4.7-25.2,5
		c-14.8,0.6-32,5.2-46.8,3.6c-17.5-1.9,14.5-23.9,18.7-26.2"/>
	<path fill="#C1CD23" d="M647.9,957.1c-8.8,0-28.2-1.5-32,9.2c-8.1,23.1,30,16.7,40.3,16.6c9.3-0.1,58.5,3.6,52-16.7
		c-5.7-17.8-47.9-8.4-61.1-8.4"/>
	<path fill="#C1CD23" d="M432.8,958.8c-0.6,14.2-11.3,5.1-17.5,12.8c-7.5,15,8.7,12.7,17.7,12.9c10.9,0.3,49.2,2.2,44.7-17.9
		c-1.7-9.3-37.6-12.2-43.9-8.2"/>
	<path fill="#C1CD23" d="M468.8,535.6c0-14.6-1.1-35.8,11.3-46.4c-75.5-11.6-152.4-6.1-228.4-7.8c-46.4-1-106.2-7.1-149.3,13.7
		c-16.4,7.9-21.8,29-3.7,39.9c21.9,13.2,56.1,5.6,80.4,5.8c93.6,0.7,187.1-3.2,280.7-3.2"/>
	<path fill="#C1CD23" d="M701.3,486.9c-49.5,2-99,1.2-148.6,1.2c-8.8,0-17.6,1.1-26.4,0.7c-8.4-0.4-17-3.1-25.1,0.3
		c-10.8,4.5-29.5,37.8-9.9,42.5c9.9,2.2,20.6-1.3,30.7-0.1c12.5,1.4,25.1,0.8,37.7,0.7c29-0.4,58.2-0.1,87.2-1.2
		c25.8-0.9,51.7,1.1,77.4-0.1c10.1-0.6,1.8-8.2-2.1-13.4C715.1,508.1,705.1,498.3,701.3,486.9"/>
	<path fill="#C1CD23" d="M765.6,487.1c-34.6-4.7-6.8,31.4,6,41.3c9.6,7.4,40.7,2.1,53.5,1.8c20.9-0.5,41.9-1,62.8-1.3
		c14.3-0.2,42.9,4.9,54.3-3.6c8.6-6.4,4.9-19.1,6.5-28.1c2-11.5-7.6-10.6-16.5-11.1c-19.1-1.1-38.4-0.3-57.5-0.4
		C838.4,485.4,801.8,484.1,765.6,487.1"/>
	<path fill="#C1CD23" d="M991.5,485.5c-6.6,0-24.4-4.3-28.6,3.1c-3.8,6.9-1.2,17-0.3,24.2c3.4,20.4,22.4,18,39.9,17.4
		c7.5-0.3,17.2-1.8,18.9-10.7c1-5.5,3.2-19.3,1.2-24.4C1017.2,481.8,991.5,504.3,991.5,485.5"/>
	<path fill="#C1CD23" d="M1046.9,477.2c-18.9,1.1-13.3,26.5-11.3,39.4c2.3,15.2,23.6,11.9,34.5,11.7c15.9-0.3,31.8-0.6,47.6-0.9
		c14.3-0.3,34.6,4.2,47.3-1.2c13.2-5.6,8.6-32.9,5.3-43c-4.6-14.1-31.7-8.3-43.7-7.9C1100,476.1,1073.4,476.6,1046.9,477.2"/>
	<path fill="#C1CD23" d="M1311.3,484.1c-33.2,0-65.9,3.9-99.1,3.3c-12.5-0.2-28,0.8-27.8,16.4c0.1,11.3,2.3,22.3,15.3,23.8
		c33.2,3.8,68.7-0.2,101.9-0.6c18.5-0.2,37-0.4,55.6-0.4c12,0,23.8,0.1,35.7,0.6c11.9,0.5,25.5,2.2,26.9-12.7
		c2.4-24.7-35.7-37.4-54.9-37.4c-15.3,0-40.6-4.5-53.2,6.7"/>
	<path fill="#C1CD23" d="M1488.3,527c-11.4,0-28.4,1.5-36.6-7.8c-7.4-8.3-15.8-15.7-23.9-23.4c-4-3.7-19.8-15.2-19.2-21.6
		c0.3-3,45.9-1.1,51.7-0.7c22.8,1.5,45,3.6,67.9,3.5c24.6-0.1,49.1-2.9,73.6-2.8c17.7,0.1,37.4,1.2,44.8,20.1
		c7.1,18.3,5.4,42,7,61.3c0.9,11,1.5,22,0.9,33.1c-0.6,9.9-4.5,19.9-4.5,29.7c0,10.1-6.8,7.7-14,8.8c-10.2,1.6-4.2,12.9-4.3,18.7
		c-0.3,14.5-30.2-1.2-35.7-3.4c-19.4-5.2-39.3-8.3-54-23.1c-5.3-5.3-10.2-12.1-10.9-19.7c-0.9-7.3,4.3-13.6-4.7-18.6
		c-9.3-5.1-7.3,2.2-11.7,2.2c-5.4-0.9-12.3-8.2-16.2-11.7c-4.2-3.7-10.9-9.7-6.9-16c5.3-8.2,18.7-2.9,20.2-12.2
		c3.3-20.6-29.3-4.7-24.9-18"/>
	<path fill="#C1CD23" d="M1224.3,562c14.4,1.5,29.9,11.7,40.1,21.5c13,12.5,10.4,19.6,30.6,22.2c16.3,2,32.9,0.9,49.2,3.3
		c12,1.8,25,11.9,6.1,17.3c-6.7,1.9-12.4,2.2-18.1-2.3c-4.4-3.5-9.9-6.2-13.6-0.3c-5.9,9.4-12.9,22.1-22.9,6.3
		c-7.3-11.5-12.1-22.4-28-21.7c-20.4,0.9,7.5,18.2,11,20.6c6.1,4.1,4.4,13.4,10.9,17.6c6.1,3.9,10.4,3.3,12.4,11.4
		c5.2,21.6,27.6-2.2,32.7-9.1c5.5-7.5,10.4-7.7,19-7.5c6.7,0.2,10.5-7.3,14.1-11.9c11.9-15.4,9.5-27.6,2.1-45.1
		c-12.5-29.7-44.3-23.4-71.2-23.2C1274,561.3,1249.1,562,1224.3,562"/>
	<path fill="#C1CD23" d="M1297.5,684.5c-2.2-2.7-5.8-0.6-6.6,2c-1.4,4.8,2.7,11.3,5.3,14.9c3.1,4.5,16.6,23.6,23.5,21.5
		C1335.4,718.4,1302.7,688.8,1297.5,684.5"/>
	<path fill="#C1CD23" d="M1302.7,729.8c0.4,5.2,7.2,7.8,7.6,13.8c0.7,5.5-7.2,9.2-11.1,5.9C1289.8,741.5,1295.9,736.8,1302.7,729.8z
		"/>
	<path fill="#C1CD23" d="M1338.5,732c-5.5-0.8-17,10.7-9.7,14.6c8.3,4.5,12.3-9.1,20.5,2.1c5.5,7.5,10.4,0.9,4.8-4.9
		C1349.6,739.2,1344,735.4,1338.5,732"/>
	<path fill="#C1CD23" d="M1324.5,675.1c2.8,6.4,11.4,17.9,16.5,7.3c5.5-11.4,12.3-0.2,16.5,5.5c-4.4,4.4-19.8,15.1-26,12.8
		C1319.6,696.8,1313.5,683.6,1324.5,675.1"/>
	<path fill="#C1CD23" d="M1327.7,673.3C1346.9,692.5,1341.3,653.9,1327.7,673.3"/>
	<path fill="#C1CD23" d="M1341.1,665.3c6,6,16.9,21.2,24.2,10.9c5.3-7.4,22.2-19.7,16.7-30.3c-5.4-10.5-16.5,0.8-19.9,6.3
		c-4.8,7.6-10.2,13.4-19.7,13.4"/>
	<path fill="#C1CD23" d="M1365.6,694.3c6.8,4,12.7,10.3,18.4,15.6c8.1,7.5-1.2,13.8-8.3,19.2c-9.7,7.4-18.7,1.2-22.9-9
		C1349,709,1365.6,704,1365.6,694.3"/>
	<path fill="#C1CD23" d="M1444.3,654.3c-15.9,0-35.3-1.7-49.2,7.7c-5,3.4-28.9,27.1-24.3,31c5.8,5,12.1,10.1,18.4,14.6
		c8.4,6,12.8-6.8,18.1-13.3c9.6-12.1,24-31.5,37.2-39.5"/>
	<path fill="#C1CD23" d="M1391.1,602.7c4.7-1.3,4.1-6.8,6.7-9.9c3.5-3.8,11.9-3.9,16.6-4.4c9.2-0.9,13.8,16.8,22.5,10.5
		c4.8-3.5,31.4-37,17.7-38.5c-14.5-0.7-29.1-0.9-43.7-1.1c-12.1-0.2-33.6-4-44.9,1.7C1374,572.9,1388.2,588.4,1391.1,602.7"/>
	<path fill="#C1CD23" d="M1459.9,591.5c0,11.6,4.8,44.8-8.8,50.9c-10.4,4.7-30.1,3.3-40.7,0C1422.3,623,1443.5,606.9,1459.9,591.5"
		/>
	<path fill="#C1CD23" d="M1470.3,623.8c0-10.7,0.4-22.9,2.4-33.5c2.2-11.3,16.5-17.7,20.9-3.8C1498.7,602.9,1480,612.7,1470.3,623.8
		"/>
	<path fill="#C1CD23" d="M1302.5,865.8c9,0.6,22.6,27.3,26.6,33.9c3.6,6,8.6,13.3,6.7,20.7c-2,8.3-12.6,17.6-21.2,16.7
		c-7.7-0.8-76.8,3.5-71.5-9.7c0.6-1.3,32.9,1.6,36.4,1.5c9.7-0.1,27.6,2.8,35.7-3.9c13.2-10.8,3.8-19-3.7-30.7
		C1309,890.2,1287.1,865.8,1302.5,865.8"/>
	<path fill="#C1CD23" d="M1348,950.9c18.8,0,20.9,6.8,29.4,21.3c7.7,13.4,17.4,27.6,21.2,42.8c7.9,31.2-53.3,23.1-69.3,22.6
		c4.2-15.6,18.5-25.2,19.2-42C1349.2,980.7,1348.6,965.8,1348,950.9"/>
	<path fill="#C1CD23" d="M1424.4,747.6c-3.4-2.9-3.4-9.2-7.8-10.9c-4.5-1.7-9,9.8-11.3,12.2c-6.8,7.1-25.4,18.7-23.6,30.7
		c1.6,11.2,29.2,5,32.8-2.6c2.3-4.9,2.3-10.5,2-15.8c-0.4-9.6,4-7.5,7.2-13.9"/>
	<path fill="#C1CD23" d="M1327.2,774.7c-7.2-0.6-13.2,6.6-16.9,11.7c4.6,1.4,17.1,1.2,20.5-2.5c4.6-5,2.6-11.1-4.8-9.5"/>
	<path fill="#C1CD23" d="M1313.9,801c-6.2,0-12.7-1.3-18.8,0.3C1302.3,814.2,1306.3,813.7,1313.9,801"/>
	<path fill="#C1CD23" d="M1372,800.8c-6.3,0-22.6,5.2-24,12.8c-1.9,7.9,18,6.6,22,6.6c8.6-0.1,19.2-0.8,23.9-9.1
		c8.3-14.5-14.4-11.7-22.2-10.2"/>
	<path fill="#C1CD23" d="M1401.5,837.2c-15.7-0.5-12.8,35.2,3.6,32.1C1420.2,866.5,1410.9,841.3,1401.5,837.2"/>
	<path fill="#C1CD23" d="M1191.1,1125.9c-6.8-0.4-10.1,4-14.3,9.2c-4.8,6.1,12.5,4.8,15.3,4.8c17.1,0.1,34.7-2.2,51.7-0.1
		c7.7,0.9,12.1-4.5,8.3-12.2c-2-4-11.8-3.5-15.3-3.6C1221.5,1123.7,1206.3,1126.4,1191.1,1125.9"/>
	<path fill="#C1CD23" d="M1279.9,1153.7c-2.6,0-14.6,1.8-12.1-4.3c2.6-6.3,9.4-17.5,15.3-21.2c14.1-8.9,37.7,0.5,40.3,16.9
		c-4.3,0-9.3,1.4-13.6,0c-5.9-2.1-8.5-6.5-15.4-6.7C1285.2,1138.1,1283,1146.3,1279.9,1153.7"/>
	<path fill="#C1CD23" d="M1400.6,1144.8c-8,0-28.8-3.8-26.8,9.3c2,12.8,13.9,10.8,25,8.9C1418.3,1159.7,1422.9,1144.2,1400.6,1144.8
		"/>
	<path fill="#C1CD23" d="M679,1080.9c-8.1,3-39,13.7-35.6,27.1c2.3,9.2,17.9,8.4,25.4,8.5c22,0.4,44.1-0.1,66.1-0.4
		c50.4-0.7,101.4-3.5,151.8-0.9c-1-8.7-9.5-23.3-18.5-25.6c-11.9-3.1-12.1-4.1-18.1-14.6c-5.3-9.3-53.5-1.9-64.5-1.9
		C749.7,1073.2,713.3,1069.5,679,1080.9"/>
	<path fill="#C1CD23" d="M759.7,974.9c2,1,0.4-7.4,5-7.4c6.3-0.1,12.7,0.3,19,0.4c6.1,0.1,8,2.2,11.6,7.7c2.6,4.5,11.3,1.8,12.1,4
		c0.4,1-32.7,2.2-35.5,2.2c-10.3,0.3-39.3,4.7-42.8-9.6c7.1-1.3,17-5.3,24.1-4.5C762.7,968.6,754.3,972.5,759.7,974.9"/>
	<path fill="#C1CD23" d="M198.2,1074.9c1.8,17.2-16.8,28.4-31.1,32c-4.2,1.4-12.4,0-14.1,5.5c-2,6.7,4.2,14.7,8.1,19.5
		c16,19.7,53.6,15.8,76.4,16.1c25.1,0.4,50-1.1,75.1-1.3c16.2-0.2,31.6,0.7,46.9-5.5c16.8-6.8,35.2-16.3,51-25
		c6.4-4.2,4.3-12.6,10.1-17.1c6.7-4.7,16.3-3.8,18.8-13.2c2.7-9.9-6.8-9-13-8.6c-8.2,0.4-12.1-9.3-21.6-7.8
		c-24.9,3.9-50.6,0.3-75.7,1.4c-24.8,1.1-49.7,0.6-74.5,0.8c-7.2,0.1-52.7-4.2-56.8,3.3"/>
	<path fill="#C1CD23" d="M144.8,1076.7c-7.2,19.7,33.2,17.5,40.2,3.5c5.6-11.2-15.6-6.3-19.9-6
		C159.7,1074.7,147.9,1068.6,144.8,1076.7"/>
	<path fill="#C1CD23" d="M644.7,992.4c-3.7,14.7-13.5,4.1-23.9,5.2c-13.7,1.3-2.8,19.7,3.4,23c10.3,5.4,22.1,6.6,32.7,11.1
		c7.5-12.7,25.5-21.3,27.1-37.1C671.1,991.5,657.7,993.8,644.7,992.4"/>
	<path fill="#C1CD23" d="M697.5,1012.7c0,10.7,27,19,35.5,21.5c11.1,3.4,22.9,4.3,34.4,5c22.9,1.4,46,1.2,68.9-0.1
		c-3-13.7-19.6-21-20-35.7c5.3-1.9,10.6,2.6,15.7,0.7c-7-6.8-21.9-6.6-30.8-7.2c-15.8-1.1-31.7-0.8-47.5-0.3
		C744.1,997,697.5,993.8,697.5,1012.7"/>
	<path fill="#C1CD23" d="M199,975.6c1.2-6.4-2-9.2-6.4-12.8c27.6,15.4-20.9,22.4-32.1,20.2c-10.4-2-19.2-11.2-7.2-19.3
		c10.3-6.9,27.2-4.9,38.2-0.9c-10.6-2.6-23.3-3.6-33.8,0.4c-4.3,1.6-4.2,3-6.9,6.1c-0.6,0.6-3.2,9.1,0.3,7.8
		c0.1-0.1,14.9,4.9,18.7,5.2C178.5,982.7,193.1,983.7,199,975.6"/>
	<path fill="#C1CD23" d="M192.6,962.8c23.9,19.8-31.5,26.6-39.8,14.1c-2-3-0.6,2.9-3.3-3.7c-1.1-2.7,1.7-6.6,4.5-8.3
		C165.4,958,180.4,960.8,192.6,962.8z"/>
	<path fill="#C1CD23" d="M112.3,641.6c1.5-5,13.6-2.8,15.7,0.8c2,3.5-17.9,6.9-13.5,1.3c-2.3,0.8-26.8,6.3-27.8,5.4
		c1.5-5.2-2.3-8.9,5.9-11.8C99.1,634.9,106.8,637.8,112.3,641.6"/>
	<path fill="#C1CD23" d="M74.8,625.5c3.1,8.1,11.8,27.9,4.3,36.4c-18.2-11.3-13.9-33.5-13.9-51.4C71.2,613.2,70,621.7,74.8,625.5"/>
	<path fill="#C1CD23" d="M1168.7,921c-2.3,2.1-3.6,8.9-6.3,11.8c-4.8,5.2-11.3,8.7-18.3,9.6C1150.4,933.3,1158.2,925.2,1168.7,921"
		/>
	<path fill="#C1CD23" d="M1069.4,1072c-10.9,13.3-19.7,30.4-34.1,40.3c-14.4,9.8-40.6,5.9-57.5,6.1c-15.6,0.1-34.6,3.1-48.2-6.3
		c-12.8-8.8-18.6-25.3-25.8-38.3C958.9,1072.7,1014.2,1074.3,1069.4,1072"/>
	<path fill="#C1CD23" d="M1137.1,955.7c-17.4,4.8-18.7,18.3-0.5,22.9c21.5,5.4,25.3-10.3,38.2-22.1
		C1164,953.3,1148.3,954.6,1137.1,955.7"/>
	<path fill="#C1CD23" d="M1253.8,847.9c6.1,10.3-13,44.7-22.6,40c-13.2-6.6-4.6-12.2,2.8-20.4
		C1240.1,860.7,1246.3,853.1,1253.8,847.9"/>
	<path fill="#C1CD23" d="M1088.7,1187.6c-2.6,2.1-3.3-2-6.4,0c-1.6,3.9-2.9,9.1-7.5,10.7c0.7-4.1-6.8-5.7-7.5-2.1
		c0.4-2.5-1.2-6.8-1.1-10.7c-0.7,2.7-2.5,4.1-5.4,4.3c1-1.1,1-2.2,0-3.2c-1.9,1.6-3.7,1.5-5.5-0.3c-1.6-2.6-3.8-2.6-6.3-0.1
		c-3.9,0.5-7.8,0.7-11.7,0.4c-4.2,3.4-7.9,7.5-11.4,11.6c-3.8,4.4-7.9,8.6-12.1,12c-4.4-5.9-6.8,2.9-6.4,6.4
		c-1.6-0.5-9.2-7.7-9.2-9.3c-0.2-4.6,6.5-10.1,9.1-13.1c4.9-5.5,10-10.9,15.6-15.8c8.2-7.2,16.4,0.8,25.2-3.6
		c-0.8,2.3,3.5,7.3,5.6,4.2c3.2-4.8,5.1-1.9,9.9-1.2C1071.1,1178.9,1088.4,1175.8,1088.7,1187.6"/>
	<path fill="#C1CD23" d="M1238.5,1115.9c12.4-0.6,28,1.3,38.3-7c11.3-9.2,12.7-25.4,18.4-37.9c-50.6-2.9-101.4-0.3-152-1.1
		c-0.4,6.3,3.8,5.9-3.5,10.5c-6.2,3.9-4.8-3.1-10.6-0.3c-7.4,3.6-16.3,0.2-13.8,12.3c-2.6-2.9-3.6-6.9-6.4-9.6
		c-6.1,3.8-10.7,9.3-15.1,14.9c-3.3,4.1-6.6,8.3-10.6,11.9c1.6,5.2,9.5,6.4,13.9,5.4 M1094.6,1151.7c-1.2,0.3-2.5,0.6-3.7,1
		c9.1-9.9,1.9-14.3,16.7-14.3c5.3,0,10.3,15,14.8,20c6.2-3.4,23-23.7,14.5-29.3c-5.5-3.7-15.7-4-22.2-4.9
		c-13.3-1.9-44.1-7.8-50.6,8.4c-3.2,7.8-1.3,18.1,3.7,24.8c7.2,9.6,10.3,2,17.9,1c-4.6,0.6-0.8,5.4,0.5,6.6
		c4.5,4.3,12.9,1.9,18.7,0.9c5.1-0.9,11-4.8,16-5c-2.1-3.6-12.1-17.4-17.1-16.1 M1116.5,1099.8c0.4-3.5,4.5-2.4,2.1-6.4
		c3-0.7,2.3,2.9,5.4,2.1c-0.7-4-2.9-6.4-2.1-10.7c6.3,1.8,5.3,11.2,6.4,16.1C1125.2,1097.9,1120.1,1100.1,1116.5,1099.8"/>
	<path fill="#C1CD23" d="M1316.7,1036.8c16.7-21.9,45.9-81.8-0.2-85.6c-8.4-0.7-37.3-5-37.3,6.4c0,7.9,2.8,6,5,13
		c1.8,5.7-3.2,9.2-8.2,6.1c-4.5-1.1-2.2-1.1-3.2-5.4c1.4,1.4,6.7,1.2,8.6,2.1c-0.3-3.4-2.8-4.8-6.4-4.3c-0.5-6.2,4.9-11.8,1.1-18.2
		c-2.6-2.3-27.2-0.3-31.8-0.4c-17.2-0.6-22.7,4.5-33.4,16.1c-21.4,23-41.8,46.9-62.3,70.7c29.7,3.9,61.1,1.3,90.9,0.9
		C1265.2,1037.9,1291,1037.4,1316.7,1036.8"/>
	<path fill="#C1CD23" d="M1130.6,997.3c-9.7-11.1-46-10.4-42.5,9.4c7.3,0.5,5.5-4.5,10.5,1.5c3.3,3.9,9.8,5.4,14.7,4.9
		C1119.9,1012.4,1135.2,1006.6,1130.6,997.3"/>
	<path fill="#C1CD23" d="M1179.1,929.8c-3,4.4-12.7,8.6-11.8,15c3.4-0.4,6.9-0.8,10.3-0.9C1184.7,943.6,1184.6,933.7,1179.1,929.8"
		/>
	<path fill="#C1CD23" d="M1076.9,968.1c-2.8,1.9-7.5,1.2-9.6,4.3c7.1,10.8,44.4,8,37.7-7.5C1099.6,952.2,1083.8,968.1,1076.9,968.1"
		/>
	<path fill="#C1CD23" d="M1222.5,883.5c-7.7,5.2-20.1,19.4-13.5,29.2c4.4,6.5,10.5-4.3,13.1-8.2
		C1228.9,894.7,1231.6,892,1222.5,883.5"/>
	<path fill="#C1CD23" d="M634.7,1039.8c-29.8-2.3-60.7,1.2-90.6,2c-16.6,0.4-33.1,0.9-49.7,0.5c-4.7-0.1-9.5-0.2-14.2-1
		c-4-8.5-3.4-16.4,4.3-22.3c7.3-5.6,15.2-8.7,20.8-16.5c3.6-5.1,9.6-9.9,16.2-9.9c13.1,0,26.1,0,39.2,0c11.7,0,31.2,0.2,40.8,6.4
		C600.5,1022.6,622.8,1025.1,634.7,1039.8"/>
	<path fill="#C1CD23" d="M633.7,1124.4c-28.6,2.2-57.5-1.3-86.1,0.2c-5.1,0.3-25.9,0.1-26.8,8.2c-0.4,3.7,13,2.2,15.9,2.2
		c21.4-0.2,42.8-0.5,64.2-0.7c7.5-0.1,15-0.2,22.6-0.2C633.9,1134,631.4,1134.2,633.7,1124.4 M568.4,1135.1c-1.1,0-2.2,0.4-3.2,1.1
		C565.3,1134.8,567.8,1135.3,568.4,1135.1z"/>
	<path fill="#C1CD23" d="M656.1,1073c-36.9-1-74.3,1.1-111.3,1.1c-11.4,0-22.8,0-34.2,0c-14.3,0-32.9,9.5-44.9,16.9
		c7.6,9.4,21.4-4.3,28.9,8.5c4.9,8.3,10.1,15.1,19.1,17.2c16.3,3.8,36,1.1,52.6,1c17.9-0.1,36,0.2,53.8-1c2.9-0.2-0.9-9.3-0.4-11.5
		c1.3-7,5.5-12.5,12-15.5c6.1-2.8,12.9-3.5,19.5-4.3c6-0.7,9.3-6.4,15.6-5.8C666.1,1074.4,659.9,1074.2,656.1,1073"/>
	<path fill="#C1CD23" d="M894.9,1000.6c-4.9-10.6-49.8-10.1-35.5,11.5C868.9,1026.3,904.1,1021.2,894.9,1000.6"/>
	<path fill="#C1CD23" d="M890.4,966c3.5-10.1,30-9.7,29.1,3.2C918.5,983.1,887,981.4,890.4,966"/>
	<path fill="#C1CD23" d="M837.9,965.8c3.5-10.2,34.1-9.9,33.2,3.2C869.9,984.3,834.2,982.2,837.9,965.8"/>
	<path fill="#C1CD23" d="M965.9,969.1c0,12.6-30.3,10.7-25-3.5C944.6,955.8,965.9,957.9,965.9,969.1"/>
	<path fill="#C1CD23" d="M266.5,1014.2c-1.9-6.6-2-12.6-8.4-14.6c-6.5-2.1-10.9-3.6-17.8-3.6c-12.3,0-22,4.8-26.3,17.1
		c-1.7-6.4-7.4-0.3-10.7-2.1c-3.2-6.1-5.1-11.3-12.2-12.9c-13.9-3.1-27-1.8-40.8,0.9c-10.6,2-13.2,17.1-12.8,25.9
		c0.2,5.2,1.3,10.5,3.4,15.4c3.8,8.8,9.6,5.1,17.9,4.5c9.1-0.6,40.8,4.3,43.1-3.7c1.5-5.3,0.1-10.8,0.1-16.1
		c-1.4-5.4,0.5-7.1,5.8-5.3c8.4-1,7.9-2.1,7.6,6.7c-0.3,8.7-1.6,19,8,18.8c8.5-0.2,16.9,0.2,25.4,0.3c8.7,0.1,13.8,1.4,17.5-7.6
		C269.2,1030.2,268.1,1021.8,266.5,1014.2 M224.7,1010.9C223.9,1011,223.9,1011,224.7,1010.9"/>
	<path fill="#C1CD23" d="M1505.5,1095.5c0.1-17.6,0-35.3-0.1-52.9c-0.1-14.1-0.2-28.2-0.3-42.3c0-2.8,0-5.6-0.1-8.5
		c0,1.5-13.9-7.9-12.8,0.9c-8.2-5.3-23.5-10.7-22.2,3.8c0.5,5.9,1.3,11.8,0.7,17.7c-1,10.1-5.5,6.1-13.9,6.3
		c7.1-29.6-18.9-42.2-36.4-60c4.7,10.4,14.8,16.8,16.1,28.9c-2.8,0.8-2-2.1-4.3-2.1c1.1,1.6,1.4,3.4,1.1,5.4
		c-1.9-0.2-2.6-1.2-2.1-3.2c-3.9,2.9-2.3,8.8-2.1,12.8c6.3,2.7,5.4-5.9,8.3,3.6c1.6,5.3,5.8,8.7,9.2,12.9c6.1,7.4,2.8,4.6,11.5,6
		c0.4,6.7-6.8-1.5-5.5,7.9c0.5,3.6,2.9,6.1,4.4,9.3c5.5,0,10.9-0.1,16.4-0.1c11.9-0.1,7.3,9.2,7.3,19.8c-2,1.6-7.5,0.8-9.9,0.6
		c1,3.3,1.4,5.9-2,6.4c-7.7,1.1-8.1,11.2-10.7,18.5c-5.6,15.6-15.6,45-17.5,51.6c0.1,2.7,24.3,8.7,35.9,2.6
		c8-4.2,22.7-8.1,28.1-11.6C1508.4,1127.3,1505.5,1099.9,1505.5,1095.5z"/>
	<path fill="#C1CD23" d="M1414,895c-2.1-3.8-9.5-5.2-13.1-4.4c-4.7,1-9.2,3-14.1,3.6c-9.8,1.3-1.8-3.8-6.9-4.2
		c0.2,6.7-13.8-0.1-8.6-4.3c-4.7,1.1-6.9,0.3-10.7-2.1c1.1,3.5-1.8,3.5-4.3,3.2c3.2,6.9,7.9,20.4,15.9,20.5
		c7.9,0.1,15.7,0.8,23.6,0.7C1405.7,907.9,1437.6,899.6,1414,895"/>
	<path fill="#C1CD23" d="M1456.9,1151.2c-13.7-16.8-24.8,0-25.7,14.9c-0.1,0.6-0.1,1.1-0.1,1.6c0,0.6,1.4,2.5,3.2,2.8
		c1.4,0.2-5.6,2.9,3.4-1.1C1446.8,1165.5,1459.6,1156.4,1456.9,1151.2z"/>
	<path fill="#C1CD23" d="M1447.8,949.3c-4.1-10.3-7-25-18.4-29.5c-16.1-6.4-35.6-1.6-52.2-0.2c8.7,11.9,13.5,16.4,26.9,20.9
		c9.3,3.2,15.6,7.1,22.6,14c6.8,6.7,12.8,16.8,22.3,20.1C1463.2,979.5,1449.5,953.4,1447.8,949.3"/>
	<path fill="#C1CD23" d="M1325.3,840.7c3.4,5.6,10.6,27.1,17.8,29.5c5.9,1.9,15.3-2.5,18-7.1c3.5-5.9,15.8-19.1,6.9-23
		C1356.2,835,1335.3,829.4,1325.3,840.7"/>
	<path fill="#C1CD23" d="M1437.7,1101.9c4.2-4.8,7.3-10.9,8.8-17.1c3.4-14-1-15.3-13.8-15.9c-19.4-0.9-38.8-0.4-58.2,0.2
		c-18.9,0.5-37.8,1-56.7,0c-10.3-0.5-13.4,11.5-18.4,20c-5.1,8.6-9.9,17.5-13.7,26.7c14.3-2.8,32.5-2.5,42.9,9.4
		c1.7,2,3.1,4.2,4.2,6.6c6.1,0.3,12.1,1.6,18.2,2.1c3.3-1.7-4.1-12,2.1-12.8c0,3.5,0,7,0,10.6c0,4.3,7.5,0.1,7.5,4.4
		c-1.6,0.5-8.3-1.9-7.5,2.1c12.5,0,25,0,37.5,0c0.1-1.3-0.3-2.4-1.2-3.3c0.5,1.8,35.8-3.5,40.8-2.1
		C1428.6,1122,1439.1,1113.4,1437.7,1101.9"/>
	<path fill="#C1CD23" d="M1545.8,638.4c-7.1-12.7-20.3-26.8-33.3-12.6c-10.8,11.8-21.2,24.1-31.6,36.3
		c-14.1,16.4-28.2,32.8-42.4,49.1c-5.4,6.2-10.8,12.3-16.3,18.4c-5.8,6.4,4.7,18.9,13.4,18c-2.1,6.9-8.7,20.2-3.2,27.8
		c22.2-16.3,41.1-40.2,59.2-60.7c12.9-14.5,25.5-29.3,36.9-44.9C1534,662.1,1545.8,648.7,1545.8,638.4"/>
	<path fill="#C1CD23" d="M1012.7,1135.1c-9,30.9-54.2,39.7-64.8,4.8c-3.9-12.7,17-12,25.9-13.1
		C985.5,1125.5,1005,1123.5,1012.7,1135.1"/>
	<path fill="#C1CD23" d="M1029.8,968.1c-11.7-2.1-22.6,1-34.3,1.1c0-1.4,0-2.9,0-4.3c-2.5-0.1-13.1,1.7-9.2,7.1
		c2.8,3.8,9.3,5,13.9,5.9c14.5,2.8,30.7,1.8,44.6-3.3C1044,967.7,1033,972.5,1029.8,968.1"/>
	<path fill="#C1CD23" d="M1069.4,1006.7c-3.2-14.9-16.1-12.8-27.1-12.8c-16.7,0-33.5,0-50.2,0c-21.9,0-60.4-6.1-74.7,13.9
		c-18.1,39,50.8,28.3,67.2,32.5c6.1,1.6,15.5-2,22.2-2.1c9.7-0.2,19.4,0.6,29.1-0.2c7.7-0.7,16.4-2.5,21.1-9.2
		C1062.9,1020.4,1057.6,1010.1,1069.4,1006.7 M1054.4,1002.4C1054.1,1004.7,1054.1,1004.7,1054.4,1002.4"/>
	<path fill="#C1CD23" d="M470.5,1124.4c-16.8-9.1-29.5,8.7-46.8-0.7c5.3-0.6-6.7-0.5-7.4-0.3c-9.1,2.4-17.7,7.2-25.5,12.2
		c-15.3,9.8-28.3,18.7-47.4,18.7c-5.9,1.3-13.9,0-20.1,0.4c-11.3,0.8-22.6,0.9-33.9,0.8c-9.5-0.1-19-0.2-28.5-0.3
		c-10.1-0.1-20-1.8-15,11.9c-4.3,0.4-1.5-7.6-2.1-9.6c-5.9-1-12-1.1-17.9-1.2c-13.7-0.1-27.5,0.8-41.2-0.6
		c-21-2.1-44.5-15.5-49.7-37.4c-3.2-13.6-2.6-27.9-3.3-41.8c-0.6-11.7-11.9-1.9-11.1-15.1c1.1-16.3,1.8-33.7,5.2-49.8
		c-7,8.7-32.2,16.5-33.7-0.9c-12.5,15.3-41.7-1.2-49.4,11.5c-7.2,11.8-7.8,27.8-10.4,41c-2.5,13.1,8.4,31.1,19.7,37.3
		c8.7,4.8,17.1,3.8,26.5,5.2c8.9,1.4,19.7,9.9,28.6,3.8c-0.1,9.1,12.5,16.7,18.9,21.4c3,2.2,3.5,6.9,5.4,10.1
		c3.9,6.7,10.5,10.8,16.7,15.2c12.3,8.6,27.8,11.1,42.4,11.9c8.8,0.4,36.8-4.7,42.5,3.3c-15.3,0-30.7,0-46,0
		c13.6,2.9,27.9,0.4,41.8,1.1c7.6-1,14.7-4.4,22.6-5c27.5-2.1,55-1.6,82.5-1.3c14.6,0.1,26.7,0.5,39.4-7.4
		c11.1-6.9,21.6-15.1,34.1-19.4c13-4.4,29.2-2.6,42.9-4.9c10.4-1.8,29.6,4.6,38.4-0.2C486.4,1127.9,476,1127.1,470.5,1124.4"/>
	<path fill="#C1CD23" d="M436.4,1002.2c-8.1-15.1-49.7-6.5-62.8-6.5c-23.1-0.1-46.7-2.4-69.6,0.8c-13.2,1.8-25,2.1-25.6,18
		c-0.5,13.6-2.3,33.8,15.5,33.8c28.9,0,57.9-0.8,86.8,0.4c8.6,0.4,34.4,2.3,39.5-6.5C425.5,1030.7,446.2,1017.8,436.4,1002.2
		 M427.8,1006.2c-22.9,0-45.8,0-68.7,0c-14.6,0-29.2,0-43.8,0c-1.9,0-22.6,2-14.1-7c2.1-2.2,18.9,0,21.8,0c15.6,0,31.2,0,46.9,0
		c14.6,0,29.2,0,43.8,0C420.2,999.2,431.2,995.8,427.8,1006.2z"/>
	<path fill="#C1CD23" d="M133.9,937.9c-5-1.1-4.5,5.1-6.9,8.4c-7,9.5-10.1,15.1-10.5,27.2c-0.3,9.7,2.8,22.6-0.7,31.8
		c-0.8,2.3-3.9,9.8-6,11.4c-4.4,2.2-9.8-2.6-13.5,1.5c-2.6,3,6.6,3,6.5,3.1c5.1-0.4,10-3.7,14.3-6.2c8.9-5.3,13.9-11.6,15.6-22.1
		c2.7-17.9-1.4-36.5-0.1-54.1"/>
</g>
<g id="runways">
	<polygon id="runway2" fill="#6D6E71" points="1532,601.1 975.5,1220 962.5,1208 1519,589.1 	"/>
	<polygon id="runway1" fill="#414042" points="1471.5,1063.7 141.1,1068.4 141.1,1050.8 1471.5,1046 	"/>
</g>
<text transform="matrix(1 0 0 1 1277.625 1386.5088)"><tspan x="0" y="0" fill="#231F20" font-family="'Helvetica'" font-size="47.1058px" letter-spacing="2">H</tspan><tspan x="36.3" y="0" fill="#231F20" font-family="'Helvetica'" font-size="47.1058px" letter-spacing="2">E</tspan><tspan x="70.1" y="0" fill="#231F20" font-family="'Helvetica'" font-size="47.1058px" letter-spacing="-1">A</tspan><tspan x="100.4" y="0" fill="#231F20" font-family="'Helvetica'" font-size="47.1058px" letter-spacing="2">T</tspan><tspan x="131.6" y="0" fill="#231F20" font-family="'Helvetica'" font-size="47.1058px" letter-spacing="2">HR</tspan><tspan x="204.2" y="0" fill="#231F20" font-family="'Helvetica'" font-size="47.1058px" letter-spacing="2">OW </tspan><tspan x="305.5" y="0" fill="#231F20" font-family="'Helvetica'" font-size="47.1058px" letter-spacing="2">1</tspan><tspan x="334" y="0" fill="#231F20" font-family="'Helvetica'" font-size="47.1058px" letter-spacing="2">:</tspan><tspan x="349.4" y="0" fill="#231F20" font-family="'Helvetica'" font-size="47.1058px" letter-spacing="2">4</tspan><tspan x="377.9" y="0" fill="#231F20" font-family="'Helvetica'" font-size="47.1058px">5</tspan></text>
<g id="airplanes">
	
		<use xlink:href="#airplane"  width="20.4" height="20.1" x="-10.2" y="-10" transform="matrix(1.0706 0 0 -1.0706 394.7731 762.4229)" overflow="visible"/>
	
		<use xlink:href="#airplane"  width="20.4" height="20.1" x="-10.2" y="-10" transform="matrix(1.0706 0 0 -1.0706 401.1967 655.6318)" overflow="visible"/>
	
		<use xlink:href="#airplane"  width="20.4" height="20.1" x="-10.2" y="-10" transform="matrix(1.0706 0 0 -1.0706 532.4951 653.5451)" overflow="visible"/>
	
		<use xlink:href="#airplane"  width="20.4" height="20.1" x="-10.2" y="-10" transform="matrix(1.0706 0 0 -1.0706 394.7731 802.3652)" overflow="visible"/>
	
		<use xlink:href="#airplane"  width="20.4" height="20.1" x="-10.2" y="-10" transform="matrix(1.0706 0 0 -1.0706 390.2559 831.835)" overflow="visible"/>
	
		<use xlink:href="#airplane"  width="20.4" height="20.1" x="-10.2" y="-10" transform="matrix(1.0706 0 0 -1.0706 521.5544 831.835)" overflow="visible"/>
	
		<use xlink:href="#airplane"  width="20.4" height="20.1" x="-10.2" y="-10" transform="matrix(1.0706 0 0 -1.0706 522.8793 875.1401)" overflow="visible"/>
	
		<use xlink:href="#airplane"  width="20.4" height="20.1" x="-10.2" y="-10" transform="matrix(1.0706 0 0 -1.0706 530.1834 1213.7389)" overflow="visible"/>
	
		<use xlink:href="#airplane"  width="20.4" height="20.1" x="-10.2" y="-10" transform="matrix(-0.8525 0.6476 0.6476 0.8525 478.9035 1240.4723)" overflow="visible"/>
	
		<use xlink:href="#airplane"  width="20.4" height="20.1" x="-10.2" y="-10" transform="matrix(1.0706 0 0 -1.0706 530.1834 1188.4912)" overflow="visible"/>
	
		<use xlink:href="#airplane"  width="20.4" height="20.1" x="-10.2" y="-10" transform="matrix(1.0706 0 0 -1.0706 556.4956 951.5729)" overflow="visible"/>
	
		<use xlink:href="#airplane"  width="20.4" height="20.1" x="-10.2" y="-10" transform="matrix(1.0706 0 0 -1.0706 930.4781 952.9146)" overflow="visible"/>
	
		<use xlink:href="#airplane"  width="20.4" height="20.1" x="-10.2" y="-10" transform="matrix(1.0706 0 0 -1.0706 670.8945 799.8432)" overflow="visible"/>
	
		<use xlink:href="#airplane"  width="20.4" height="20.1" x="-10.2" y="-10" transform="matrix(1.0706 0 0 -1.0706 678.0778 725.7314)" overflow="visible"/>
	
		<use xlink:href="#airplane"  width="20.4" height="20.1" x="-10.2" y="-10" transform="matrix(1.0706 0 0 -1.0706 674.5092 698.5182)" overflow="visible"/>
	
		<use xlink:href="#airplane"  width="20.4" height="20.1" x="-10.2" y="-10" transform="matrix(1.0706 0 0 -1.0706 672.6949 698.5182)" overflow="visible"/>
	
		<use xlink:href="#airplane"  width="20.4" height="20.1" x="-10.2" y="-10" transform="matrix(1.0706 0 0 -1.0706 259.9119 751.6884)" overflow="visible"/>
	
		<use xlink:href="#airplane"  width="20.4" height="20.1" x="-10.2" y="-10" transform="matrix(-1.0706 0 0 1.0706 178.5658 741.9704)" overflow="visible"/>
	
		<use xlink:href="#airplane"  width="20.4" height="20.1" x="-10.2" y="-10" transform="matrix(-1.0706 0 0 1.0706 183.2906 776.3749)" overflow="visible"/>
	
		<use xlink:href="#airplane"  width="20.4" height="20.1" x="-10.2" y="-10" transform="matrix(-1.0706 0 0 1.0706 176.8671 799.3926)" overflow="visible"/>
	
		<use xlink:href="#airplane"  width="20.4" height="20.1" x="-10.2" y="-10" transform="matrix(-1.0706 0 0 1.0706 180.9301 831.8351)" overflow="visible"/>
	
		<use xlink:href="#airplane"  width="20.4" height="20.1" x="-10.2" y="-10" transform="matrix(-0.813 0 0 0.813 172.5166 899.808)" overflow="visible"/>
	
		<use xlink:href="#airplane"  width="20.4" height="20.1" x="-10.2" y="-10" transform="matrix(-1.0706 0 0 1.0706 322.0862 914.6268)" overflow="visible"/>
	
		<use xlink:href="#airplane"  width="20.4" height="20.1" x="-10.2" y="-10" transform="matrix(-1.0706 0 0 1.0706 318.8745 885.7976)" overflow="visible"/>
	
		<use xlink:href="#airplane"  width="20.4" height="20.1" x="-10.2" y="-10" transform="matrix(-1.0706 0 0 1.0706 321.8186 858.5712)" overflow="visible"/>
	
		<use xlink:href="#airplane"  width="20.4" height="20.1" x="-10.2" y="-10" transform="matrix(-1.0706 0 0 1.0706 320.0142 830.7073)" overflow="visible"/>
	
		<use xlink:href="#airplane"  width="20.4" height="20.1" x="-10.2" y="-10" transform="matrix(-1.0706 0 0 1.0706 320.5495 797.8439)" overflow="visible"/>
	
		<use xlink:href="#airplane"  width="20.4" height="20.1" x="-10.2" y="-10" transform="matrix(-1.0706 0 0 1.0706 320.5495 765.4587)" overflow="visible"/>
	
		<use xlink:href="#airplane"  width="20.4" height="20.1" x="-10.2" y="-10" transform="matrix(-1.0706 0 0 1.0706 321.0848 655.6319)" overflow="visible"/>
	
		<use xlink:href="#airplane"  width="20.4" height="20.1" x="-10.2" y="-10" transform="matrix(-1.0706 0 0 1.0706 450.0906 827.5527)" overflow="visible"/>
	
		<use xlink:href="#airplane"  width="20.4" height="20.1" x="-10.2" y="-10" transform="matrix(-1.0706 0 0 1.0706 449.8229 860.2057)" overflow="visible"/>
	
		<use xlink:href="#airplane"  width="20.4" height="20.1" x="-10.2" y="-10" transform="matrix(-1.0706 0 0 1.0706 450.6259 885.7976)" overflow="visible"/>
	
		<use xlink:href="#airplane"  width="20.4" height="20.1" x="-10.2" y="-10" transform="matrix(-1.0706 0 0 1.0706 450.8935 911.2241)" overflow="visible"/>
	
		<use xlink:href="#airplane"  width="20.4" height="20.1" x="-10.2" y="-10" transform="matrix(-1.0706 0 0 1.0706 577.9963 885.7976)" overflow="visible"/>
	
		<use xlink:href="#airplane"  width="20.4" height="20.1" x="-10.2" y="-10" transform="matrix(-1.0706 0 0 1.0706 663.5686 989.3935)" overflow="visible"/>
	
		<use xlink:href="#airplane"  width="20.4" height="20.1" x="-10.2" y="-10" transform="matrix(-1.0706 0 0 1.0706 760.9388 1056.7452)" overflow="visible"/>
	
		<use xlink:href="#airplane"  width="20.4" height="20.1" x="-10.2" y="-10" transform="matrix(-0.5437 -0.9223 -0.9223 0.5437 686.2044 897.3851)" overflow="visible"/>
	
		<use xlink:href="#airplane"  width="20.4" height="20.1" x="-10.2" y="-10" transform="matrix(0.5437 0.9223 0.9223 -0.5437 904.8243 643.1982)" overflow="visible"/>
	
		<use xlink:href="#airplane"  width="20.4" height="20.1" x="-10.2" y="-10" transform="matrix(0.5437 0.9223 0.9223 -0.5437 1163.9113 701.2762)" overflow="visible"/>
	
		<use xlink:href="#airplane"  width="20.4" height="20.1" x="-10.2" y="-10" transform="matrix(-0.5437 -0.9223 -0.9223 0.5437 727.4445 770.3733)" overflow="visible"/>
	
		<use xlink:href="#airplane"  width="20.4" height="20.1" x="-10.2" y="-10" transform="matrix(-0.5437 -0.9223 -0.9223 0.5437 1168.5265 751.2924)" overflow="visible"/>
	
		<use xlink:href="#airplane"  width="20.4" height="20.1" x="-10.2" y="-10" transform="matrix(-0.7765 -0.737 -0.737 0.7765 1203.1421 844.8549)" overflow="visible"/>
	
		<use xlink:href="#airplane"  width="20.4" height="20.1" x="-10.2" y="-10" transform="matrix(-0.7765 -0.737 -0.737 0.7765 1221.5824 820.8726)" overflow="visible"/>
	
		<use xlink:href="#airplane"  width="20.4" height="20.1" x="-10.2" y="-10" transform="matrix(-0.7765 -0.737 -0.737 0.7765 1246.3098 796.6879)" overflow="visible"/>
	
		<use xlink:href="#airplane"  width="20.4" height="20.1" x="-10.2" y="-10" transform="matrix(-0.7765 -0.737 -0.737 0.7765 1265.5804 771.6906)" overflow="visible"/>
	
		<use xlink:href="#airplane"  width="20.4" height="20.1" x="-10.2" y="-10" transform="matrix(-0.9284 -0.5332 -0.5332 0.9284 1138.2374 899.9194)" overflow="visible"/>
	
		<use xlink:href="#airplane"  width="20.4" height="20.1" x="-10.2" y="-10" transform="matrix(0.936 -0.5197 -0.5197 -0.936 736.3828 912.051)" overflow="visible"/>
	
		<use xlink:href="#airplane"  width="20.4" height="20.1" x="-10.2" y="-10" transform="matrix(0.936 -0.5197 -0.5197 -0.936 719.5054 888.0966)" overflow="visible"/>
	
		<use xlink:href="#airplane"  width="20.4" height="20.1" x="-10.2" y="-10" transform="matrix(0.936 -0.5197 -0.5197 -0.936 691.7849 843.9349)" overflow="visible"/>
	
		<use xlink:href="#airplane"  width="20.4" height="20.1" x="-10.2" y="-10" transform="matrix(0.936 -0.5197 -0.5197 -0.936 804.9219 829.4689)" overflow="visible"/>
	
		<use xlink:href="#airplane"  width="20.4" height="20.1" x="-10.2" y="-10" transform="matrix(0.936 -0.5197 -0.5197 -0.936 791.0142 807.4102)" overflow="visible"/>
	
		<use xlink:href="#airplane"  width="20.4" height="20.1" x="-10.2" y="-10" transform="matrix(0.936 -0.5197 -0.5197 -0.936 777.9682 787.5668)" overflow="visible"/>
	
		<use xlink:href="#airplane"  width="20.4" height="20.1" x="-10.2" y="-10" transform="matrix(-0.936 0.5197 0.5197 0.936 717.6022 816.5188)" overflow="visible"/>
	
		<use xlink:href="#airplane"  width="20.4" height="20.1" x="-10.2" y="-10" transform="matrix(-0.936 0.5197 0.5197 0.936 762.689 691.3321)" overflow="visible"/>
	
		<use xlink:href="#airplane"  width="20.4" height="20.1" x="-10.2" y="-10" transform="matrix(-0.936 0.5197 0.5197 0.936 777.2387 711.3547)" overflow="visible"/>
	
		<use xlink:href="#airplane"  width="20.4" height="20.1" x="-10.2" y="-10" transform="matrix(-0.936 0.5197 0.5197 0.936 790.8483 736.1036)" overflow="visible"/>
	
		<use xlink:href="#airplane"  width="20.4" height="20.1" x="-10.2" y="-10" transform="matrix(-0.4736 0.9601 0.9601 0.4736 749.2684 674.1438)" overflow="visible"/>
	
		<use xlink:href="#airplane"  width="20.4" height="20.1" x="-10.2" y="-10" transform="matrix(-0.936 0.5197 0.5197 0.936 735.6533 833.3769)" overflow="visible"/>
	
		<use xlink:href="#airplane"  width="20.4" height="20.1" x="-10.2" y="-10" transform="matrix(-0.936 0.5197 0.5197 0.936 749.2684 860.1727)" overflow="visible"/>
	
		<use xlink:href="#airplane"  width="20.4" height="20.1" x="-10.2" y="-10" transform="matrix(-0.936 0.5197 0.5197 0.936 790.2847 913.5929)" overflow="visible"/>
	
		<use xlink:href="#airplane"  width="20.4" height="20.1" x="-10.2" y="-10" transform="matrix(0.936 -0.5197 -0.5197 -0.936 763.4185 765.4584)" overflow="visible"/>
	
		<use xlink:href="#airplane"  width="20.4" height="20.1" x="-10.2" y="-10" transform="matrix(0.936 -0.5197 -0.5197 -0.936 747.3951 746.5089)" overflow="visible"/>
	
		<use xlink:href="#airplane"  width="20.4" height="20.1" x="-10.2" y="-10" transform="matrix(0.936 -0.5197 -0.5197 -0.936 826.8125 681.8288)" overflow="visible"/>
	
		<use xlink:href="#airplane"  width="20.4" height="20.1" x="-10.2" y="-10" transform="matrix(0.936 -0.5197 -0.5197 -0.936 842.2018 704.4705)" overflow="visible"/>
	
		<use xlink:href="#airplane"  width="20.4" height="20.1" x="-10.2" y="-10" transform="matrix(0.8 -0.7114 -0.7114 -0.8 1420.5879 789.0469)" overflow="visible"/>
	
		<use xlink:href="#airplane"  width="20.4" height="20.1" x="-10.2" y="-10" transform="matrix(-1.0703 -2.573497e-02 -2.573497e-02 1.0703 1385.5261 951.7441)" overflow="visible"/>
	
		<use xlink:href="#airplane"  width="20.4" height="20.1" x="-10.2" y="-10" transform="matrix(1.0703 -2.634740e-02 -2.634740e-02 -1.0703 1484.2878 947.9602)" overflow="visible"/>
	
		<use xlink:href="#airplane"  width="20.4" height="20.1" x="-10.2" y="-10" transform="matrix(0.8936 0.5896 0.5896 -0.8936 1568.0607 677.9901)" overflow="visible"/>
	
		<use xlink:href="#airplane"  width="20.4" height="20.1" x="-10.2" y="-10" transform="matrix(3.782165e-02 1.0699 1.0699 -3.782165e-02 1624.4755 688.0918)" overflow="visible"/>
	
		<use xlink:href="#airplane"  width="20.4" height="20.1" x="-10.2" y="-10" transform="matrix(0.564 -0.91 -0.91 -0.564 1673.3479 645.3674)" overflow="visible"/>
	
		<use xlink:href="#airplane"  width="20.4" height="20.1" x="-10.2" y="-10" transform="matrix(0.8081 0.7022 0.7022 -0.8081 1096.7831 1236.3987)" overflow="visible"/>
	
		<use xlink:href="#airplane"  width="20.4" height="20.1" x="-10.2" y="-10" transform="matrix(0.8122 0.6975 0.6975 -0.8122 1117.4073 1217.1588)" overflow="visible"/>
	
		<use xlink:href="#airplane"  width="20.4" height="20.1" x="-10.2" y="-10" transform="matrix(0.8122 0.6975 0.6975 -0.8122 1140.0769 1198.7804)" overflow="visible"/>
	
		<use xlink:href="#airplane"  width="20.4" height="20.1" x="-10.2" y="-10" transform="matrix(0.8122 0.6975 0.6975 -0.8122 1158.4553 1180.2483)" overflow="visible"/>
	
		<use xlink:href="#airplane"  width="20.4" height="20.1" x="-10.2" y="-10" transform="matrix(0.8122 0.6975 0.6975 -0.8122 1176.9066 1160.2469)" overflow="visible"/>
	
		<use xlink:href="#airplane"  width="20.4" height="20.1" x="-10.2" y="-10" transform="matrix(-0.9603 -0.4732 -0.4732 0.9603 1217.2321 1171.5389)" overflow="visible"/>
	
		<use xlink:href="#airplane"  width="20.4" height="20.1" x="-10.2" y="-10" transform="matrix(-0.9603 -0.4732 -0.4732 0.9603 1197.4261 1226.4565)" overflow="visible"/>
	
		<use xlink:href="#airplane"  width="20.4" height="20.1" x="-10.2" y="-10" transform="matrix(-0.7822 -0.731 -0.731 0.7822 1032.0205 1221.2372)" overflow="visible"/>
	
		<use xlink:href="#airplane"  width="20.4" height="20.1" x="-10.2" y="-10" transform="matrix(0.9644 0.4648 0.4648 -0.9644 1272.4133 1201.1194)" overflow="visible"/>
	
		<use xlink:href="#airplane"  width="20.4" height="20.1" x="-10.2" y="-10" transform="matrix(-1.030005e-02 -1.0705 -1.0705 1.030005e-02 1348.5028 1205.3723)" overflow="visible"/>
	
		<use xlink:href="#airplane"  width="20.4" height="20.1" x="-10.2" y="-10" transform="matrix(-1.0706 0 0 1.0706 577.9963 855.032)" overflow="visible"/>
	
		<use xlink:href="#airplane"  width="20.4" height="20.1" x="-10.2" y="-10" transform="matrix(-1.0706 0 0 1.0706 577.9963 827.9664)" overflow="visible"/>
	
		<use xlink:href="#airplane"  width="20.4" height="20.1" x="-10.2" y="-10" transform="matrix(-1.0706 0 0 1.0706 577.9963 768.1065)" overflow="visible"/>
	
		<use xlink:href="#airplane"  width="20.4" height="20.1" x="-10.2" y="-10" transform="matrix(-1.0706 0 0 1.0706 724.3664 642.8107)" overflow="visible"/>
	
		<use xlink:href="#airplane"  width="20.4" height="20.1" x="-10.2" y="-10" transform="matrix(1.0706 0 0 -1.0706 267.406 780.8962)" overflow="visible"/>
	
		<use xlink:href="#airplane"  width="20.4" height="20.1" x="-10.2" y="-10" transform="matrix(1.0706 0 0 -1.0706 267.406 804.0231)" overflow="visible"/>
	
		<use xlink:href="#airplane"  width="20.4" height="20.1" x="-10.2" y="-10" transform="matrix(1.0706 0 0 -1.0706 263.3913 858.571)" overflow="visible"/>
	
		<use xlink:href="#airplane"  width="20.4" height="20.1" x="-10.2" y="-10" transform="matrix(4.806600e-11 -1.0706 -1.0706 -4.806600e-11 109.5926 883.4297)" overflow="visible"/>
	
		<use xlink:href="#airplane"  width="20.4" height="20.1" x="-10.2" y="-10" transform="matrix(-1.441970e-10 1.0706 1.0706 1.441970e-10 104.163 919.2944)" overflow="visible"/>
	
		<use xlink:href="#airplane"  width="20.4" height="20.1" x="-10.2" y="-10" transform="matrix(-1.441970e-10 1.0706 1.0706 1.441970e-10 126.5993 919.6937)" overflow="visible"/>
	
		<use xlink:href="#airplane"  width="20.4" height="20.1" x="-10.2" y="-10" transform="matrix(-1.441970e-10 1.0706 1.0706 1.441970e-10 153.6316 919.6937)" overflow="visible"/>
	
		<use xlink:href="#airplane"  width="20.4" height="20.1" x="-10.2" y="-10" transform="matrix(-1.441970e-10 1.0706 1.0706 1.441970e-10 175.8165 920.5598)" overflow="visible"/>
	
		<use xlink:href="#airplane"  width="20.4" height="20.1" x="-10.2" y="-10" transform="matrix(4.806600e-11 -1.0706 -1.0706 -4.806600e-11 137.3336 883.1621)" overflow="visible"/>
	
		<use xlink:href="#airplane"  width="20.4" height="20.1" x="-10.2" y="-10" transform="matrix(4.806600e-11 -1.0706 -1.0706 -4.806600e-11 161.7819 883.5596)" overflow="visible"/>
	
		<use xlink:href="#airplane"  width="20.4" height="20.1" x="-10.2" y="-10" transform="matrix(4.806600e-11 -1.0706 -1.0706 -4.806600e-11 184.9311 882.7567)" overflow="visible"/>
	
		<use xlink:href="#airplane"  width="20.4" height="20.1" x="-10.2" y="-10" transform="matrix(4.806600e-11 -1.0706 -1.0706 -4.806600e-11 522.8792 917.7988)" overflow="visible"/>
	
		<use xlink:href="#airplane"  width="20.4" height="20.1" x="-10.2" y="-10" transform="matrix(4.806600e-11 -1.0706 -1.0706 -4.806600e-11 548.038 917.7988)" overflow="visible"/>
	
		<use xlink:href="#airplane"  width="20.4" height="20.1" x="-10.2" y="-10" transform="matrix(4.806600e-11 -1.0706 -1.0706 -4.806600e-11 573.7138 917.7988)" overflow="visible"/>
	
		<use xlink:href="#airplane"  width="20.4" height="20.1" x="-10.2" y="-10" transform="matrix(-1.441970e-10 1.0706 1.0706 1.441970e-10 696.4789 674.4302)" overflow="visible"/>
	
		<use xlink:href="#airplane"  width="20.4" height="20.1" x="-10.2" y="-10" transform="matrix(-1.441970e-10 1.0706 1.0706 1.441970e-10 723.8598 676.0023)" overflow="visible"/>
	
		<use xlink:href="#airplane"  width="20.4" height="20.1" x="-10.2" y="-10" transform="matrix(4.806600e-11 -1.0706 -1.0706 -4.806600e-11 898.848 917.7988)" overflow="visible"/>
	
		<use xlink:href="#airplane"  width="20.4" height="20.1" x="-10.2" y="-10" transform="matrix(-1.441970e-10 1.0706 1.0706 1.441970e-10 957.1042 661.4384)" overflow="visible"/>
	
		<use xlink:href="#airplane"  width="20.4" height="20.1" x="-10.2" y="-10" transform="matrix(-1.441970e-10 1.0706 1.0706 1.441970e-10 981.101 661.4384)" overflow="visible"/>
	
		<use xlink:href="#airplane"  width="20.4" height="20.1" x="-10.2" y="-10" transform="matrix(-1.441970e-10 1.0706 1.0706 1.441970e-10 1003.361 661.4384)" overflow="visible"/>
	
		<use xlink:href="#airplane"  width="20.4" height="20.1" x="-10.2" y="-10" transform="matrix(-1.441970e-10 1.0706 1.0706 1.441970e-10 1037.3127 661.4384)" overflow="visible"/>
	
		<use xlink:href="#airplane"  width="20.4" height="20.1" x="-10.2" y="-10" transform="matrix(4.806600e-11 -1.0706 -1.0706 -4.806600e-11 931.1901 914.8316)" overflow="visible"/>
	
		<use xlink:href="#airplane"  width="20.4" height="20.1" x="-10.2" y="-10" transform="matrix(4.806600e-11 -1.0706 -1.0706 -4.806600e-11 963.1653 914.8316)" overflow="visible"/>
	
		<use xlink:href="#airplane"  width="20.4" height="20.1" x="-10.2" y="-10" transform="matrix(0.7619 -0.7521 -0.7521 -0.7619 1073.0154 882.4855)" overflow="visible"/>
	
		<use xlink:href="#airplane"  width="20.4" height="20.1" x="-10.2" y="-10" transform="matrix(0.7619 -0.7521 -0.7521 -0.7619 1091.613 898.1309)" overflow="visible"/>
	
		<use xlink:href="#airplane"  width="20.4" height="20.1" x="-10.2" y="-10" transform="matrix(0.7619 -0.7521 -0.7521 -0.7619 1133.5032 830.5089)" overflow="visible"/>
	
		<use xlink:href="#airplane"  width="20.4" height="20.1" x="-10.2" y="-10" transform="matrix(4.806600e-11 -1.0706 -1.0706 -4.806600e-11 697.8366 1170.348)" overflow="visible"/>
	
		<use xlink:href="#airplane"  width="20.4" height="20.1" x="-10.2" y="-10" transform="matrix(4.806600e-11 -1.0706 -1.0706 -4.806600e-11 728.2203 1153.9431)" overflow="visible"/>
	
		<use xlink:href="#airplane"  width="20.4" height="20.1" x="-10.2" y="-10" transform="matrix(4.806600e-11 -1.0706 -1.0706 -4.806600e-11 749.9978 1148.0497)" overflow="visible"/>
	
		<use xlink:href="#airplane"  width="20.4" height="20.1" x="-10.2" y="-10" transform="matrix(4.806600e-11 -1.0706 -1.0706 -4.806600e-11 807.404 1150.3129)" overflow="visible"/>
	
		<use xlink:href="#airplane"  width="20.4" height="20.1" x="-10.2" y="-10" transform="matrix(4.806600e-11 -1.0706 -1.0706 -4.806600e-11 834.7869 1153.9431)" overflow="visible"/>
	
		<use xlink:href="#airplane"  width="20.4" height="20.1" x="-10.2" y="-10" transform="matrix(4.806600e-11 -1.0706 -1.0706 -4.806600e-11 860.6598 1153.9431)" overflow="visible"/>
	
		<use xlink:href="#airplane"  width="20.4" height="20.1" x="-10.2" y="-10" transform="matrix(1.0706 0 0 -1.0706 265.9999 885.7975)" overflow="visible"/>
</g>
</svg>
